<svg width="212" height="63" viewBox="0 0 212 63" fill="none" xmlns="http://www.w3.org/2000/svg">
<rect width="212" height="63" rx="8" fill="#029FAE"/>
<path d="M32.323 20.9271L34.8363 21.3621L36 35.2253C36.0447 35.7709 36.2934 36.2795 36.6965 36.6497C37.0997 37.0199 37.6276 37.2245 38.175 37.2227H51.3579C51.882 37.2233 52.3886 37.0346 52.7847 36.6914C53.1808 36.3482 53.4396 35.8735 53.5135 35.3546L54.6615 27.4304C54.6921 27.2196 54.6808 27.0049 54.6284 26.7985C54.5759 26.5921 54.4833 26.3981 54.3558 26.2275C54.2283 26.0569 54.0685 25.9132 53.8854 25.8044C53.7023 25.6956 53.4996 25.6241 53.2888 25.5937C53.2115 25.5852 35.2399 25.5792 35.2399 25.5792" stroke="white" stroke-width="1.5" stroke-linecap="round" stroke-linejoin="round"/>
<path d="M46.0679 30.0439H49.4186" stroke="white" stroke-width="1.5" stroke-linecap="round" stroke-linejoin="round"/>
<path fill-rule="evenodd" clip-rule="evenodd" d="M37.6445 41.412C37.7332 41.4082 37.8216 41.4224 37.9046 41.4536C37.9876 41.4849 38.0634 41.5327 38.1274 41.594C38.1915 41.6554 38.2425 41.7291 38.2773 41.8107C38.3121 41.8922 38.33 41.98 38.33 42.0687C38.33 42.1574 38.3121 42.2452 38.2773 42.3268C38.2425 42.4083 38.1915 42.482 38.1274 42.5434C38.0634 42.6047 37.9876 42.6525 37.9046 42.6838C37.8216 42.7151 37.7332 42.7292 37.6445 42.7254C37.4752 42.7182 37.3153 42.6458 37.1981 42.5234C37.0808 42.4011 37.0154 42.2382 37.0154 42.0687C37.0154 41.8993 37.0808 41.7363 37.1981 41.614C37.3153 41.4916 37.4752 41.4192 37.6445 41.412Z" fill="#272343" stroke="white" stroke-width="1.5" stroke-linecap="round" stroke-linejoin="round"/>
<path fill-rule="evenodd" clip-rule="evenodd" d="M51.2757 41.412C51.4504 41.412 51.6179 41.4814 51.7414 41.6049C51.8649 41.7284 51.9343 41.8959 51.9343 42.0705C51.9343 42.2452 51.8649 42.4127 51.7414 42.5362C51.6179 42.6597 51.4504 42.7291 51.2757 42.7291C51.1011 42.7291 50.9336 42.6597 50.8101 42.5362C50.6866 42.4127 50.6172 42.2452 50.6172 42.0705C50.6172 41.8959 50.6866 41.7284 50.8101 41.6049C50.9336 41.4814 51.1011 41.412 51.2757 41.412Z" fill="#272343" stroke="white" stroke-width="1.5" stroke-linecap="round" stroke-linejoin="round"/>
<path d="M70.5487 38.5H67.7362L72.8569 23.9545H76.1097L81.2376 38.5H78.4251L74.5401 26.9375H74.4265L70.5487 38.5ZM70.641 32.7969H78.3114V34.9134H70.641V32.7969ZM86.756 38.6918C85.899 38.6918 85.132 38.4716 84.4549 38.0312C83.7778 37.5909 83.2428 36.9517 82.8498 36.1136C82.4568 35.2756 82.2603 34.2576 82.2603 33.0597C82.2603 31.8475 82.4592 30.8248 82.8569 29.9915C83.2594 29.1534 83.8015 28.5213 84.4833 28.0952C85.1651 27.6643 85.9251 27.4489 86.7631 27.4489C87.4023 27.4489 87.9279 27.5578 88.3398 27.7756C88.7518 27.9886 89.0785 28.2467 89.32 28.5497C89.5614 28.848 89.7485 29.1297 89.881 29.3949H89.9876V23.9545H92.5657V38.5H90.0373V36.7812H89.881C89.7485 37.0464 89.5567 37.3281 89.3058 37.6264C89.0548 37.92 88.7234 38.1709 88.3114 38.3793C87.8995 38.5876 87.381 38.6918 86.756 38.6918ZM87.4734 36.5824C88.0179 36.5824 88.4819 36.4356 88.8654 36.142C89.2489 35.8437 89.5401 35.4295 89.739 34.8991C89.9379 34.3688 90.0373 33.7509 90.0373 33.0455C90.0373 32.34 89.9379 31.7268 89.739 31.206C89.5449 30.6851 89.256 30.2803 88.8725 29.9915C88.4937 29.7027 88.0273 29.5582 87.4734 29.5582C86.9005 29.5582 86.4222 29.7074 86.0387 30.0057C85.6552 30.304 85.3664 30.7159 85.1722 31.2415C84.9781 31.767 84.881 32.3684 84.881 33.0455C84.881 33.7273 84.9781 34.3357 85.1722 34.8707C85.3711 35.401 85.6623 35.8201 86.0458 36.1278C86.4341 36.4309 86.9099 36.5824 87.4734 36.5824ZM99.3537 38.6918C98.4967 38.6918 97.7296 38.4716 97.0526 38.0312C96.3755 37.5909 95.8404 36.9517 95.4474 36.1136C95.0545 35.2756 94.858 34.2576 94.858 33.0597C94.858 31.8475 95.0568 30.8248 95.4545 29.9915C95.857 29.1534 96.3991 28.5213 97.081 28.0952C97.7628 27.6643 98.5227 27.4489 99.3608 27.4489C100 27.4489 100.526 27.5578 100.938 27.7756C101.349 27.9886 101.676 28.2467 101.918 28.5497C102.159 28.848 102.346 29.1297 102.479 29.3949H102.585V23.9545H105.163V38.5H102.635V36.7812H102.479C102.346 37.0464 102.154 37.3281 101.903 37.6264C101.652 37.92 101.321 38.1709 100.909 38.3793C100.497 38.5876 99.9787 38.6918 99.3537 38.6918ZM100.071 36.5824C100.616 36.5824 101.08 36.4356 101.463 36.142C101.847 35.8437 102.138 35.4295 102.337 34.8991C102.536 34.3688 102.635 33.7509 102.635 33.0455C102.635 32.34 102.536 31.7268 102.337 31.206C102.143 30.6851 101.854 30.2803 101.47 29.9915C101.091 29.7027 100.625 29.5582 100.071 29.5582C99.4981 29.5582 99.0199 29.7074 98.6364 30.0057C98.2528 30.304 97.964 30.7159 97.7699 31.2415C97.5758 31.767 97.4787 32.3684 97.4787 33.0455C97.4787 33.7273 97.5758 34.3357 97.7699 34.8707C97.9688 35.401 98.2599 35.8201 98.6435 36.1278C99.0317 36.4309 99.5076 36.5824 100.071 36.5824ZM112.338 26.1634V23.9545H123.944V26.1634H119.448V38.5H116.834V26.1634H112.338ZM129.244 38.7131C128.178 38.7131 127.255 38.4787 126.474 38.0099C125.692 37.5412 125.086 36.8854 124.656 36.0426C124.229 35.1998 124.016 34.215 124.016 33.0881C124.016 31.9612 124.229 30.974 124.656 30.1264C125.086 29.2789 125.692 28.6207 126.474 28.152C127.255 27.6832 128.178 27.4489 129.244 27.4489C130.309 27.4489 131.232 27.6832 132.013 28.152C132.795 28.6207 133.398 29.2789 133.825 30.1264C134.255 30.974 134.471 31.9612 134.471 33.0881C134.471 34.215 134.255 35.1998 133.825 36.0426C133.398 36.8854 132.795 37.5412 132.013 38.0099C131.232 38.4787 130.309 38.7131 129.244 38.7131ZM129.258 36.6534C129.835 36.6534 130.318 36.4948 130.707 36.1776C131.095 35.8556 131.384 35.4247 131.573 34.8849C131.767 34.3452 131.864 33.7438 131.864 33.081C131.864 32.4134 131.767 31.8097 131.573 31.2699C131.384 30.7254 131.095 30.2921 130.707 29.9702C130.318 29.6482 129.835 29.4872 129.258 29.4872C128.666 29.4872 128.174 29.6482 127.781 29.9702C127.392 30.2921 127.101 30.7254 126.907 31.2699C126.718 31.8097 126.623 32.4134 126.623 33.081C126.623 33.7438 126.718 34.3452 126.907 34.8849C127.101 35.4247 127.392 35.8556 127.781 36.1776C128.174 36.4948 128.666 36.6534 129.258 36.6534ZM154.178 28.8622H151.522C151.446 28.4266 151.306 28.0407 151.103 27.7045C150.899 27.3636 150.646 27.0748 150.343 26.8381C150.04 26.6013 149.694 26.4238 149.306 26.3054C148.922 26.1823 148.508 26.1207 148.063 26.1207C147.272 26.1207 146.571 26.3196 145.961 26.7173C145.35 27.1103 144.872 27.688 144.526 28.4503C144.18 29.2079 144.007 30.1335 144.007 31.2273C144.007 32.34 144.18 33.2775 144.526 34.0398C144.876 34.7973 145.355 35.3703 145.961 35.7585C146.571 36.142 147.27 36.3338 148.056 36.3338C148.491 36.3338 148.899 36.277 149.277 36.1634C149.661 36.045 150.004 35.8722 150.307 35.6449C150.615 35.4176 150.873 35.1383 151.081 34.8068C151.294 34.4754 151.441 34.0966 151.522 33.6705L154.178 33.6847C154.078 34.3759 153.863 35.0246 153.532 35.6307C153.205 36.2367 152.776 36.7718 152.246 37.2358C151.716 37.6951 151.096 38.0549 150.385 38.3153C149.675 38.571 148.887 38.6989 148.02 38.6989C146.742 38.6989 145.601 38.4029 144.597 37.8111C143.593 37.2192 142.802 36.3646 142.225 35.2472C141.647 34.1297 141.358 32.7898 141.358 31.2273C141.358 29.66 141.65 28.3201 142.232 27.2074C142.814 26.09 143.607 25.2353 144.611 24.6435C145.615 24.0516 146.751 23.7557 148.02 23.7557C148.83 23.7557 149.583 23.8693 150.279 24.0966C150.975 24.3239 151.595 24.6577 152.14 25.098C152.684 25.5336 153.132 26.0687 153.482 26.7031C153.837 27.3329 154.069 28.0526 154.178 28.8622ZM159.616 38.7202C158.925 38.7202 158.303 38.5971 157.749 38.3509C157.199 38.0999 156.764 37.7306 156.442 37.2429C156.125 36.7552 155.966 36.1539 155.966 35.4389C155.966 34.8234 156.08 34.3144 156.307 33.9119C156.534 33.5095 156.844 33.1875 157.237 32.946C157.63 32.7045 158.073 32.5223 158.565 32.3991C159.063 32.2713 159.576 32.179 160.107 32.1222C160.746 32.0559 161.264 31.9967 161.662 31.9446C162.06 31.8878 162.348 31.8026 162.528 31.6889C162.713 31.5705 162.805 31.3883 162.805 31.142V31.0994C162.805 30.5644 162.647 30.1501 162.33 29.8565C162.012 29.563 161.555 29.4162 160.959 29.4162C160.329 29.4162 159.83 29.5535 159.46 29.8281C159.096 30.1027 158.849 30.4271 158.722 30.8011L156.321 30.4602C156.51 29.7973 156.823 29.2434 157.259 28.7983C157.694 28.3485 158.227 28.0123 158.857 27.7898C159.486 27.5625 160.182 27.4489 160.945 27.4489C161.47 27.4489 161.993 27.5104 162.514 27.6335C163.035 27.7566 163.511 27.9602 163.942 28.2443C164.373 28.5237 164.718 28.9048 164.979 29.3878C165.244 29.8707 165.376 30.4744 165.376 31.1989V38.5H162.905V37.0014H162.82C162.663 37.3045 162.443 37.5885 162.159 37.8537C161.88 38.1141 161.527 38.3248 161.101 38.4858C160.679 38.642 160.185 38.7202 159.616 38.7202ZM160.284 36.831C160.8 36.831 161.248 36.7292 161.626 36.5256C162.005 36.3172 162.296 36.0426 162.5 35.7017C162.708 35.3608 162.812 34.9891 162.812 34.5866V33.3011C162.732 33.3674 162.595 33.429 162.401 33.4858C162.211 33.5426 161.998 33.5923 161.761 33.6349C161.525 33.6776 161.29 33.7154 161.058 33.7486C160.826 33.7817 160.625 33.8101 160.455 33.8338C160.071 33.8859 159.728 33.9711 159.425 34.0895C159.122 34.2079 158.883 34.3736 158.707 34.5866C158.532 34.795 158.445 35.0649 158.445 35.3963C158.445 35.8698 158.617 36.2273 158.963 36.4688C159.309 36.7102 159.749 36.831 160.284 36.831ZM167.962 38.5V27.5909H170.455V29.4091H170.568C170.767 28.7794 171.108 28.294 171.591 27.9531C172.079 27.6075 172.635 27.4347 173.26 27.4347C173.402 27.4347 173.561 27.4418 173.736 27.456C173.916 27.4654 174.065 27.482 174.183 27.5057V29.8707C174.074 29.8329 173.902 29.7997 173.665 29.7713C173.433 29.7382 173.208 29.7216 172.99 29.7216C172.521 29.7216 172.1 29.8234 171.726 30.027C171.357 30.2259 171.065 30.5028 170.852 30.858C170.639 31.2131 170.533 31.6226 170.533 32.0866V38.5H167.962ZM181.925 27.5909V29.5795H175.653V27.5909H181.925ZM177.202 24.9773H179.773V35.2188C179.773 35.5644 179.825 35.8295 179.929 36.0142C180.038 36.1941 180.18 36.3172 180.355 36.3835C180.53 36.4498 180.724 36.483 180.938 36.483C181.098 36.483 181.245 36.4711 181.378 36.4474C181.515 36.4238 181.619 36.4025 181.69 36.3835L182.124 38.3935C181.986 38.4408 181.79 38.4929 181.534 38.5497C181.283 38.6065 180.975 38.6397 180.611 38.6491C179.967 38.6681 179.387 38.571 178.871 38.358C178.355 38.1402 177.945 37.804 177.642 37.3494C177.344 36.8949 177.197 36.3267 177.202 35.6449V24.9773Z" fill="white"/>
</svg>
