<svg width="350" height="198" viewBox="0 0 350 198" fill="none" xmlns="http://www.w3.org/2000/svg">
<g clip-path="url(#clip0_1_558)">
<path d="M39.9938 19.7464C39.9286 18.4433 39.3566 17.2173 38.3999 16.3301C37.4432 15.4429 36.1776 14.9649 34.8732 14.9979C33.5689 15.031 32.3292 15.5727 31.4187 16.5072C30.5082 17.4418 29.9991 18.6952 30 20V28.3333C30 27.8913 29.8244 27.4674 29.5119 27.1548C29.1993 26.8422 28.7754 26.6667 28.3334 26.6667H11.6667C11.2247 26.6667 10.8007 26.8422 10.4882 27.1548C10.1756 27.4674 10 27.8913 10 28.3333V20C9.99996 19.0833 9.74791 18.1843 9.27143 17.4013C8.79495 16.6182 8.11237 15.9812 7.2983 15.5598C6.48422 15.1385 5.56999 14.949 4.65552 15.0122C3.74105 15.0754 2.86154 15.3887 2.11312 15.9179C1.3647 16.4472 0.776167 17.172 0.411857 18.0131C0.0475467 18.8543 -0.0785237 19.7794 0.0474254 20.6873C0.173374 21.5953 0.546496 22.4511 1.12601 23.1614C1.70552 23.8716 2.46912 24.4088 3.33334 24.7144V33.3333C3.33334 33.7753 3.50893 34.1993 3.8215 34.5118C4.13406 34.8244 4.55798 35 5.00001 35H6.66668V38.3333H10V35H30V38.3333H33.3334V35H35C35.4421 35 35.866 34.8244 36.1786 34.5118C36.4911 34.1993 36.6667 33.7753 36.6667 33.3333V24.7144C37.6824 24.3551 38.5549 23.6775 39.1544 22.7823C39.7539 21.8872 40.0483 20.8224 39.9938 19.7464Z" fill="#029FAE"/>
<path d="M11.6667 19.9998V24.9998H28.3334V19.9998C28.3353 18.5223 28.8271 17.087 29.7319 15.9189C30.6367 14.7507 31.9033 13.9156 33.3334 13.5442V9.99984C33.3309 7.79046 32.4522 5.67229 30.8899 4.11002C29.3276 2.54776 27.2095 1.66899 25.0001 1.6665H15.0001C12.7907 1.66899 10.6725 2.54776 9.11026 4.11002C7.548 5.67229 6.66923 7.79046 6.66675 9.99984V13.5442C8.09689 13.9156 9.3635 14.7507 10.2683 15.9189C11.173 17.087 11.6649 18.5223 11.6667 19.9998ZM23.3334 8.33317C23.663 8.33317 23.9853 8.43092 24.2594 8.61405C24.5334 8.79719 24.7471 9.05749 24.8732 9.36203C24.9994 9.66657 25.0324 10.0017 24.9681 10.325C24.9037 10.6483 24.745 10.9453 24.5119 11.1783C24.2788 11.4114 23.9819 11.5702 23.6586 11.6345C23.3353 11.6988 23.0001 11.6658 22.6956 11.5396C22.3911 11.4135 22.1308 11.1999 21.9476 10.9258C21.7645 10.6517 21.6667 10.3295 21.6667 9.99984C21.6667 9.55781 21.8423 9.13389 22.1549 8.82132C22.4675 8.50876 22.8914 8.33317 23.3334 8.33317ZM23.3334 13.3332C23.663 13.3332 23.9853 13.4309 24.2594 13.6141C24.5334 13.7972 24.7471 14.0575 24.8732 14.362C24.9994 14.6666 25.0324 15.0017 24.9681 15.325C24.9037 15.6483 24.745 15.9453 24.5119 16.1783C24.2788 16.4114 23.9819 16.5702 23.6586 16.6345C23.3353 16.6988 23.0001 16.6658 22.6956 16.5396C22.3911 16.4135 22.1308 16.1999 21.9476 15.9258C21.7645 15.6517 21.6667 15.3295 21.6667 14.9998C21.6667 14.5578 21.8423 14.1339 22.1549 13.8213C22.4675 13.5088 22.8914 13.3332 23.3334 13.3332ZM16.6667 8.33317C16.9964 8.33317 17.3186 8.43092 17.5927 8.61405C17.8668 8.79719 18.0804 9.05749 18.2065 9.36203C18.3327 9.66657 18.3657 10.0017 18.3014 10.325C18.2371 10.6483 18.0783 10.9453 17.8453 11.1783C17.6122 11.4114 17.3152 11.5702 16.9919 11.6345C16.6686 11.6988 16.3335 11.6658 16.0289 11.5396C15.7244 11.4135 15.4641 11.1999 15.281 10.9258C15.0978 10.6517 15.0001 10.3295 15.0001 9.99984C15.0001 9.55781 15.1757 9.13389 15.4882 8.82132C15.8008 8.50876 16.2247 8.33317 16.6667 8.33317ZM16.6667 13.3332C16.9964 13.3332 17.3186 13.4309 17.5927 13.6141C17.8668 13.7972 18.0804 14.0575 18.2065 14.362C18.3327 14.6666 18.3657 15.0017 18.3014 15.325C18.2371 15.6483 18.0783 15.9453 17.8453 16.1783C17.6122 16.4114 17.3152 16.5702 16.9919 16.6345C16.6686 16.6988 16.3335 16.6658 16.0289 16.5396C15.7244 16.4135 15.4641 16.1999 15.281 15.9258C15.0978 15.6517 15.0001 15.3295 15.0001 14.9998C15.0001 14.5578 15.1757 14.1339 15.4882 13.8213C15.8008 13.5088 16.2247 13.3332 16.6667 13.3332Z" fill="#029FAE"/>
</g>
<path d="M66.0504 16.9709C65.4688 12.7699 62.2372 10.3324 58.0455 10.3324C53.1058 10.3324 49.3849 13.9332 49.3849 20.0455C49.3849 26.1484 53.0597 29.7585 58.0455 29.7585C62.5419 29.7585 65.5241 26.8501 66.0504 23.2401L62.5973 23.2216C62.1634 25.4375 60.3537 26.6839 58.0916 26.6839C55.0263 26.6839 52.8288 24.3849 52.8288 20.0455C52.8288 15.7798 55.0078 13.407 58.1009 13.407C60.3999 13.407 62.2003 14.7088 62.5973 16.9709H66.0504ZM75.2257 29.777C79.3805 29.777 82.0211 26.8501 82.0211 22.4645C82.0211 18.0696 79.3805 15.1335 75.2257 15.1335C71.0708 15.1335 68.4302 18.0696 68.4302 22.4645C68.4302 26.8501 71.0708 29.777 75.2257 29.777ZM75.2441 27.0994C72.9451 27.0994 71.8187 25.0497 71.8187 22.4553C71.8187 19.8608 72.9451 17.7834 75.2441 17.7834C77.5062 17.7834 78.6326 19.8608 78.6326 22.4553C78.6326 25.0497 77.5062 27.0994 75.2441 27.0994ZM84.858 29.5H88.2003V20.8764C88.2003 19.1314 89.3636 17.9496 90.804 17.9496C92.2166 17.9496 93.1861 18.9006 93.1861 20.3594V29.5H96.4638V20.6548C96.4638 19.0575 97.4148 17.9496 99.0305 17.9496C100.379 17.9496 101.45 18.7436 101.45 20.4979V29.5H104.801V19.9808C104.801 16.8139 102.973 15.1335 100.369 15.1335C98.3104 15.1335 96.7408 16.1491 96.1129 17.728H95.9652C95.4205 16.1214 94.0447 15.1335 92.1335 15.1335C90.2315 15.1335 88.8097 16.1122 88.2188 17.728H88.0526V15.3182H84.858V29.5ZM115.375 15.3182H112.43V14.201C112.43 13.093 112.892 12.4744 114.138 12.4744C114.664 12.4744 115.107 12.5945 115.384 12.6776L116.058 10.0923C115.624 9.9446 114.673 9.70454 113.519 9.70454C111.054 9.70454 109.088 11.1172 109.088 13.9794V15.3182H106.992V17.9034H109.088V29.5H112.43V17.9034H115.375V15.3182ZM123.646 29.777C127.8 29.777 130.441 26.8501 130.441 22.4645C130.441 18.0696 127.8 15.1335 123.646 15.1335C119.491 15.1335 116.85 18.0696 116.85 22.4645C116.85 26.8501 119.491 29.777 123.646 29.777ZM123.664 27.0994C121.365 27.0994 120.239 25.0497 120.239 22.4553C120.239 19.8608 121.365 17.7834 123.664 17.7834C125.926 17.7834 127.053 19.8608 127.053 22.4553C127.053 25.0497 125.926 27.0994 123.664 27.0994ZM133.278 29.5H136.62V21.1626C136.62 19.3622 137.977 18.0881 139.815 18.0881C140.378 18.0881 141.08 18.1896 141.366 18.282V15.2074C141.061 15.152 140.535 15.1151 140.166 15.1151C138.541 15.1151 137.183 16.0384 136.666 17.6818H136.519V15.3182H133.278V29.5ZM151.43 15.3182H148.632V11.9205H145.29V15.3182H143.277V17.9034H145.29V25.7884C145.271 28.4567 147.21 29.7678 149.722 29.6939C150.673 29.6662 151.328 29.4815 151.688 29.3615L151.125 26.7486C150.941 26.7947 150.562 26.8778 150.146 26.8778C149.306 26.8778 148.632 26.5824 148.632 25.2344V17.9034H151.43V15.3182ZM156.303 34.8182C158.906 34.8182 160.411 33.4794 161.214 31.2173L166.911 15.3366L163.338 15.3182L160.06 26.0284H159.913L156.644 15.3182H153.099L158.241 29.7955L157.955 30.5618C157.337 32.1776 156.358 32.2884 154.899 31.8636L154.124 34.4673C154.576 34.652 155.388 34.8182 156.303 34.8182Z" fill="#272343"/>
<path opacity="0.6" d="M1.88636 70.3636H0.409091L4.68182 82H6.13636L10.4091 70.3636H8.93182L5.47727 80.1591H5.34091L1.88636 70.3636ZM12.0398 82H13.3807V73.2727H12.0398V82ZM12.7216 71.8182C13.2443 71.8182 13.6761 71.4091 13.6761 70.9091C13.6761 70.4091 13.2443 70 12.7216 70C12.1989 70 11.767 70.4091 11.767 70.9091C11.767 71.4091 12.1989 71.8182 12.7216 71.8182ZM22.973 73.2727H21.5185L19.1094 80.2273H19.0185L16.6094 73.2727H15.1548L18.3821 82H19.7457L22.973 73.2727ZM27.0455 82.2045C28.5682 82.2045 29.3636 81.3864 29.6364 80.8182H29.7045V82H31.0455V76.25C31.0455 73.4773 28.9318 73.1591 27.8182 73.1591C26.5 73.1591 25 73.6136 24.3182 75.2045L25.5909 75.6591C25.8864 75.0227 26.5852 74.3409 27.8636 74.3409C29.0966 74.3409 29.7045 74.9943 29.7045 76.1136V76.1591C29.7045 76.8068 29.0455 76.75 27.4545 76.9545C25.8352 77.1648 24.0682 77.5227 24.0682 79.5227C24.0682 81.2273 25.3864 82.2045 27.0455 82.2045ZM27.25 81C26.1818 81 25.4091 80.5227 25.4091 79.5909C25.4091 78.5682 26.3409 78.25 27.3864 78.1136C27.9545 78.0455 29.4773 77.8864 29.7045 77.6136V78.8409C29.7045 79.9318 28.8409 81 27.25 81ZM33.4929 82H34.8338V76.5455C34.8338 75.267 35.7656 74.3636 36.8111 74.3636C37.8281 74.3636 38.5384 75.0284 38.5384 76.0227V82H39.902V76.3182C39.902 75.1932 40.6065 74.3636 41.8338 74.3636C42.7884 74.3636 43.6065 74.8693 43.6065 76.1591V82H44.9474V76.1591C44.9474 74.108 43.8452 73.1591 42.2884 73.1591C41.0384 73.1591 40.1236 73.733 39.6747 74.6364H39.5838C39.152 73.7045 38.3906 73.1591 37.2429 73.1591C36.1065 73.1591 35.2656 73.7045 34.902 74.6364H34.7884V73.2727H33.4929V82ZM52.8991 78.4318C52.8991 80.0682 51.6491 80.8182 50.6491 80.8182C49.5355 80.8182 48.7401 80 48.7401 78.7273V73.2727H47.3991V78.8182C47.3991 81.0455 48.581 82.1136 50.2173 82.1136C51.5355 82.1136 52.3991 81.4091 52.8082 80.5227H52.8991V82H54.2401V73.2727H52.8991V78.4318ZM62.8778 75.2273C62.4574 73.9886 61.5142 73.1591 59.7869 73.1591C57.946 73.1591 56.5824 74.2045 56.5824 75.6818C56.5824 76.8864 57.2983 77.6932 58.9006 78.0682L60.3551 78.4091C61.2358 78.6136 61.6506 79.0341 61.6506 79.6364C61.6506 80.3864 60.8551 81 59.6051 81C58.5085 81 57.821 80.5284 57.5824 79.5909L56.3097 79.9091C56.6222 81.392 57.8438 82.1818 59.6278 82.1818C61.6562 82.1818 63.0369 81.0739 63.0369 79.5682C63.0369 78.3523 62.2756 77.5852 60.7188 77.2045L59.4233 76.8864C58.3892 76.6307 57.9233 76.2841 57.9233 75.6136C57.9233 74.8636 58.7188 74.3182 59.7869 74.3182C60.9574 74.3182 61.4403 74.9659 61.6733 75.5682L62.8778 75.2273ZM73.3509 73.2727H71.4872V71.1818H70.1463V73.2727H68.8281V74.4091H70.1463V79.8636C70.1463 81.3864 71.3736 82.1136 72.5099 82.1136C73.0099 82.1136 73.3281 82.0227 73.5099 81.9545L73.2372 80.75C73.1236 80.7727 72.9418 80.8182 72.6463 80.8182C72.0554 80.8182 71.4872 80.6364 71.4872 79.5V74.4091H73.3509V73.2727ZM75.3679 82H76.7088V76.4773C76.7088 75.2955 77.6406 74.4318 78.9134 74.4318C79.2713 74.4318 79.6406 74.5 79.7315 74.5227V73.1591C79.5781 73.1477 79.2259 73.1364 79.027 73.1364C77.9815 73.1364 77.0724 73.7273 76.7543 74.5909H76.6634V73.2727H75.3679V82ZM81.321 82H82.6619V73.2727H81.321V82ZM82.0028 71.8182C82.5256 71.8182 82.9574 71.4091 82.9574 70.9091C82.9574 70.4091 82.5256 70 82.0028 70C81.4801 70 81.0483 70.4091 81.0483 70.9091C81.0483 71.4091 81.4801 71.8182 82.0028 71.8182ZM91.2997 75.2273C90.8793 73.9886 89.9361 73.1591 88.2088 73.1591C86.3679 73.1591 85.0043 74.2045 85.0043 75.6818C85.0043 76.8864 85.7202 77.6932 87.3224 78.0682L88.777 78.4091C89.6577 78.6136 90.0724 79.0341 90.0724 79.6364C90.0724 80.3864 89.277 81 88.027 81C86.9304 81 86.2429 80.5284 86.0043 79.5909L84.7315 79.9091C85.044 81.392 86.2656 82.1818 88.0497 82.1818C90.0781 82.1818 91.4588 81.0739 91.4588 79.5682C91.4588 78.3523 90.6974 77.5852 89.1406 77.2045L87.8452 76.8864C86.8111 76.6307 86.3452 76.2841 86.3452 75.6136C86.3452 74.8636 87.1406 74.3182 88.2088 74.3182C89.3793 74.3182 89.8622 74.9659 90.0952 75.5682L91.2997 75.2273ZM97.2727 73.2727H95.4091V71.1818H94.0682V73.2727H92.75V74.4091H94.0682V79.8636C94.0682 81.3864 95.2955 82.1136 96.4318 82.1136C96.9318 82.1136 97.25 82.0227 97.4318 81.9545L97.1591 80.75C97.0455 80.7727 96.8636 80.8182 96.5682 80.8182C95.9773 80.8182 95.4091 80.6364 95.4091 79.5V74.4091H97.2727V73.2727ZM99.2898 82H100.631V73.2727H99.2898V82ZM99.9716 71.8182C100.494 71.8182 100.926 71.4091 100.926 70.9091C100.926 70.4091 100.494 70 99.9716 70C99.4489 70 99.017 70.4091 99.017 70.9091C99.017 71.4091 99.4489 71.8182 99.9716 71.8182ZM110.382 85.2727V73.2727H109.087V74.6591H108.928C108.632 74.2045 108.109 73.1591 106.405 73.1591C104.2 73.1591 102.678 74.9091 102.678 77.6591C102.678 80.4318 104.2 82.1818 106.382 82.1818C108.064 82.1818 108.632 81.1364 108.928 80.6591H109.041V85.2727H110.382ZM109.064 77.6364C109.064 79.6136 108.178 80.9773 106.564 80.9773C104.882 80.9773 104.018 79.5 104.018 77.6364C104.018 75.7955 104.859 74.3636 106.564 74.3636C108.2 74.3636 109.064 75.6818 109.064 77.6364ZM118.337 78.4318C118.337 80.0682 117.087 80.8182 116.087 80.8182C114.973 80.8182 114.178 80 114.178 78.7273V73.2727H112.837V78.8182C112.837 81.0455 114.018 82.1136 115.655 82.1136C116.973 82.1136 117.837 81.4091 118.246 80.5227H118.337V82H119.678V73.2727H118.337V78.4318ZM125.793 82.1818C127.565 82.1818 128.861 81.2955 129.27 79.9773L127.974 79.6136C127.634 80.5227 126.844 80.9773 125.793 80.9773C124.219 80.9773 123.134 79.9602 123.071 78.0909H129.406V77.5227C129.406 74.2727 127.474 73.1591 125.656 73.1591C123.293 73.1591 121.724 75.0227 121.724 77.7045C121.724 80.3864 123.27 82.1818 125.793 82.1818ZM123.071 76.9318C123.162 75.5739 124.122 74.3636 125.656 74.3636C127.111 74.3636 128.043 75.4545 128.043 76.9318H123.071ZM139.491 82.1818C141.855 82.1818 143.446 80.3864 143.446 77.6818C143.446 74.9545 141.855 73.1591 139.491 73.1591C137.128 73.1591 135.537 74.9545 135.537 77.6818C135.537 80.3864 137.128 82.1818 139.491 82.1818ZM139.491 80.9773C137.696 80.9773 136.878 79.4318 136.878 77.6818C136.878 75.9318 137.696 74.3636 139.491 74.3636C141.287 74.3636 142.105 75.9318 142.105 77.6818C142.105 79.4318 141.287 80.9773 139.491 80.9773ZM148.788 82.1818C150.47 82.1818 151.038 81.1364 151.334 80.6591H151.493V82H152.788V70.3636H151.447V74.6591H151.334C151.038 74.2045 150.516 73.1591 148.811 73.1591C146.607 73.1591 145.084 74.9091 145.084 77.6591C145.084 80.4318 146.607 82.1818 148.788 82.1818ZM148.97 80.9773C147.288 80.9773 146.425 79.5 146.425 77.6364C146.425 75.7955 147.266 74.3636 148.97 74.3636C150.607 74.3636 151.47 75.6818 151.47 77.6364C151.47 79.6136 150.584 80.9773 148.97 80.9773ZM155.43 82H156.771V73.2727H155.43V82ZM156.112 71.8182C156.635 71.8182 157.067 71.4091 157.067 70.9091C157.067 70.4091 156.635 70 156.112 70C155.589 70 155.158 70.4091 155.158 70.9091C155.158 71.4091 155.589 71.8182 156.112 71.8182ZM162.773 82.1818C165.136 82.1818 166.727 80.3864 166.727 77.6818C166.727 74.9545 165.136 73.1591 162.773 73.1591C160.409 73.1591 158.818 74.9545 158.818 77.6818C158.818 80.3864 160.409 82.1818 162.773 82.1818ZM162.773 80.9773C160.977 80.9773 160.159 79.4318 160.159 77.6818C160.159 75.9318 160.977 74.3636 162.773 74.3636C164.568 74.3636 165.386 75.9318 165.386 77.6818C165.386 79.4318 164.568 80.9773 162.773 80.9773ZM179.456 75.2273C179.036 73.9886 178.092 73.1591 176.365 73.1591C174.524 73.1591 173.161 74.2045 173.161 75.6818C173.161 76.8864 173.876 77.6932 175.479 78.0682L176.933 78.4091C177.814 78.6136 178.229 79.0341 178.229 79.6364C178.229 80.3864 177.433 81 176.183 81C175.087 81 174.399 80.5284 174.161 79.5909L172.888 79.9091C173.2 81.392 174.422 82.1818 176.206 82.1818C178.234 82.1818 179.615 81.0739 179.615 79.5682C179.615 78.3523 178.854 77.5852 177.297 77.2045L176.001 76.8864C174.967 76.6307 174.501 76.2841 174.501 75.6136C174.501 74.8636 175.297 74.3182 176.365 74.3182C177.536 74.3182 178.018 74.9659 178.251 75.5682L179.456 75.2273ZM181.634 82H182.974V73.2727H181.634V82ZM182.315 71.8182C182.838 71.8182 183.27 71.4091 183.27 70.9091C183.27 70.4091 182.838 70 182.315 70C181.793 70 181.361 70.4091 181.361 70.9091C181.361 71.4091 181.793 71.8182 182.315 71.8182ZM189.226 73.2727H187.362V71.1818H186.021V73.2727H184.703V74.4091H186.021V79.8636C186.021 81.3864 187.249 82.1136 188.385 82.1136C188.885 82.1136 189.203 82.0227 189.385 81.9545L189.112 80.75C188.999 80.7727 188.817 80.8182 188.521 80.8182C187.93 80.8182 187.362 80.6364 187.362 79.5V74.4091H189.226V73.2727ZM198.311 82.2045C199.834 82.2045 200.629 81.3864 200.902 80.8182H200.97V82H202.311V76.25C202.311 73.4773 200.197 73.1591 199.084 73.1591C197.766 73.1591 196.266 73.6136 195.584 75.2045L196.857 75.6591C197.152 75.0227 197.851 74.3409 199.129 74.3409C200.362 74.3409 200.97 74.9943 200.97 76.1136V76.1591C200.97 76.8068 200.311 76.75 198.72 76.9545C197.101 77.1648 195.334 77.5227 195.334 79.5227C195.334 81.2273 196.652 82.2045 198.311 82.2045ZM198.516 81C197.447 81 196.675 80.5227 196.675 79.5909C196.675 78.5682 197.607 78.25 198.652 78.1136C199.22 78.0455 200.743 77.8864 200.97 77.6136V78.8409C200.97 79.9318 200.107 81 198.516 81ZM204.759 82H206.099V76.5455C206.099 75.267 207.031 74.3636 208.077 74.3636C209.094 74.3636 209.804 75.0284 209.804 76.0227V82H211.168V76.3182C211.168 75.1932 211.872 74.3636 213.099 74.3636C214.054 74.3636 214.872 74.8693 214.872 76.1591V82H216.213V76.1591C216.213 74.108 215.111 73.1591 213.554 73.1591C212.304 73.1591 211.389 73.733 210.94 74.6364H210.849C210.418 73.7045 209.656 73.1591 208.509 73.1591C207.372 73.1591 206.531 73.7045 206.168 74.6364H206.054V73.2727H204.759V82ZM222.324 82.1818C224.097 82.1818 225.392 81.2955 225.801 79.9773L224.506 79.6136C224.165 80.5227 223.375 80.9773 222.324 80.9773C220.75 80.9773 219.665 79.9602 219.602 78.0909H225.938V77.5227C225.938 74.2727 224.006 73.1591 222.188 73.1591C219.824 73.1591 218.256 75.0227 218.256 77.7045C218.256 80.3864 219.801 82.1818 222.324 82.1818ZM219.602 76.9318C219.693 75.5739 220.653 74.3636 222.188 74.3636C223.642 74.3636 224.574 75.4545 224.574 76.9318H219.602ZM231.773 73.2727H229.909V71.1818H228.568V73.2727H227.25V74.4091H228.568V79.8636C228.568 81.3864 229.795 82.1136 230.932 82.1136C231.432 82.1136 231.75 82.0227 231.932 81.9545L231.659 80.75C231.545 80.7727 231.364 80.8182 231.068 80.8182C230.477 80.8182 229.909 80.6364 229.909 79.5V74.4091H231.773V73.2727ZM245.426 73.2727H243.972L241.562 80.2273H241.472L239.062 73.2727H237.608L240.835 82H242.199L245.426 73.2727ZM250.543 82.1818C252.315 82.1818 253.611 81.2955 254.02 79.9773L252.724 79.6136C252.384 80.5227 251.594 80.9773 250.543 80.9773C248.969 80.9773 247.884 79.9602 247.821 78.0909H254.156V77.5227C254.156 74.2727 252.224 73.1591 250.406 73.1591C248.043 73.1591 246.474 75.0227 246.474 77.7045C246.474 80.3864 248.02 82.1818 250.543 82.1818ZM247.821 76.9318C247.912 75.5739 248.872 74.3636 250.406 74.3636C251.861 74.3636 252.793 75.4545 252.793 76.9318H247.821ZM257.537 70.3636H256.196V82H257.537V70.3636ZM259.993 82H261.334V73.2727H259.993V82ZM260.675 71.8182C261.197 71.8182 261.629 71.4091 261.629 70.9091C261.629 70.4091 261.197 70 260.675 70C260.152 70 259.72 70.4091 259.72 70.9091C259.72 71.4091 260.152 71.8182 260.675 71.8182ZM267.585 73.2727H265.722V71.1818H264.381V73.2727H263.062V74.4091H264.381V79.8636C264.381 81.3864 265.608 82.1136 266.744 82.1136C267.244 82.1136 267.562 82.0227 267.744 81.9545L267.472 80.75C267.358 80.7727 267.176 80.8182 266.881 80.8182C266.29 80.8182 265.722 80.6364 265.722 79.5V74.4091H267.585V73.2727ZM280.284 75.2273C279.864 73.9886 278.92 73.1591 277.193 73.1591C275.352 73.1591 273.989 74.2045 273.989 75.6818C273.989 76.8864 274.705 77.6932 276.307 78.0682L277.761 78.4091C278.642 78.6136 279.057 79.0341 279.057 79.6364C279.057 80.3864 278.261 81 277.011 81C275.915 81 275.227 80.5284 274.989 79.5909L273.716 79.9091C274.028 81.392 275.25 82.1818 277.034 82.1818C279.062 82.1818 280.443 81.0739 280.443 79.5682C280.443 78.3523 279.682 77.5852 278.125 77.2045L276.83 76.8864C275.795 76.6307 275.33 76.2841 275.33 75.6136C275.33 74.8636 276.125 74.3182 277.193 74.3182C278.364 74.3182 278.847 74.9659 279.08 75.5682L280.284 75.2273ZM286.121 82.1818C287.893 82.1818 289.189 81.2955 289.598 79.9773L288.303 79.6136C287.962 80.5227 287.172 80.9773 286.121 80.9773C284.547 80.9773 283.462 79.9602 283.399 78.0909H289.734V77.5227C289.734 74.2727 287.803 73.1591 285.984 73.1591C283.621 73.1591 282.053 75.0227 282.053 77.7045C282.053 80.3864 283.598 82.1818 286.121 82.1818ZM283.399 76.9318C283.49 75.5739 284.45 74.3636 285.984 74.3636C287.439 74.3636 288.371 75.4545 288.371 76.9318H283.399ZM291.774 82H293.115V76.5455C293.115 75.267 294.047 74.3636 295.092 74.3636C296.109 74.3636 296.82 75.0284 296.82 76.0227V82H298.183V76.3182C298.183 75.1932 298.888 74.3636 300.115 74.3636C301.07 74.3636 301.888 74.8693 301.888 76.1591V82H303.229V76.1591C303.229 74.108 302.126 73.1591 300.57 73.1591C299.32 73.1591 298.405 73.733 297.956 74.6364H297.865C297.433 73.7045 296.672 73.1591 295.524 73.1591C294.388 73.1591 293.547 73.7045 293.183 74.6364H293.07V73.2727H291.774V82ZM305.68 85.2727H307.021V80.6591H307.135C307.43 81.1364 307.999 82.1818 309.68 82.1818C311.862 82.1818 313.385 80.4318 313.385 77.6591C313.385 74.9091 311.862 73.1591 309.658 73.1591C307.953 73.1591 307.43 74.2045 307.135 74.6591H306.976V73.2727H305.68V85.2727ZM306.999 77.6364C306.999 75.6818 307.862 74.3636 309.499 74.3636C311.203 74.3636 312.044 75.7955 312.044 77.6364C312.044 79.5 311.18 80.9773 309.499 80.9773C307.885 80.9773 306.999 79.6136 306.999 77.6364ZM319.089 82.1818C320.862 82.1818 322.158 81.2955 322.567 79.9773L321.271 79.6136C320.93 80.5227 320.141 80.9773 319.089 80.9773C317.516 80.9773 316.43 79.9602 316.368 78.0909H322.703V77.5227C322.703 74.2727 320.771 73.1591 318.953 73.1591C316.589 73.1591 315.021 75.0227 315.021 77.7045C315.021 80.3864 316.567 82.1818 319.089 82.1818ZM316.368 76.9318C316.459 75.5739 317.419 74.3636 318.953 74.3636C320.408 74.3636 321.339 75.4545 321.339 76.9318H316.368ZM324.743 82H326.084V76.4773C326.084 75.2955 327.016 74.4318 328.288 74.4318C328.646 74.4318 329.016 74.5 329.107 74.5227V73.1591C328.953 73.1477 328.601 73.1364 328.402 73.1364C327.357 73.1364 326.447 73.7273 326.129 74.5909H326.038V73.2727H324.743V82ZM331.696 80.4091H330.241L330.173 81.0455C330.009 82.5852 329.685 84.1193 329.537 84.8409H330.56C330.832 84.0682 331.412 82.3182 331.605 81.0227L331.696 80.4091ZM4.88636 106.182C6.65909 106.182 7.95455 105.295 8.36364 103.977L7.06818 103.614C6.72727 104.523 5.9375 104.977 4.88636 104.977C3.3125 104.977 2.22727 103.96 2.16477 102.091H8.5V101.523C8.5 98.2727 6.56818 97.1591 4.75 97.1591C2.38636 97.1591 0.818182 99.0227 0.818182 101.705C0.818182 104.386 2.36364 106.182 4.88636 106.182ZM2.16477 100.932C2.25568 99.5739 3.21591 98.3636 4.75 98.3636C6.20455 98.3636 7.13636 99.4545 7.13636 100.932H2.16477ZM16.0398 102.432C16.0398 104.068 14.7898 104.818 13.7898 104.818C12.6761 104.818 11.8807 104 11.8807 102.727V97.2727H10.5398V102.818C10.5398 105.045 11.7216 106.114 13.358 106.114C14.6761 106.114 15.5398 105.409 15.9489 104.523H16.0398V106H17.3807V97.2727H16.0398V102.432ZM24.3366 109.273H25.6776V104.659H25.7912C26.0866 105.136 26.6548 106.182 28.3366 106.182C30.5185 106.182 32.0412 104.432 32.0412 101.659C32.0412 98.9091 30.5185 97.1591 28.3139 97.1591C26.6094 97.1591 26.0866 98.2045 25.7912 98.6591H25.6321V97.2727H24.3366V109.273ZM25.6548 101.636C25.6548 99.6818 26.5185 98.3636 28.1548 98.3636C29.8594 98.3636 30.7003 99.7955 30.7003 101.636C30.7003 103.5 29.8366 104.977 28.1548 104.977C26.5412 104.977 25.6548 103.614 25.6548 101.636ZM37.6321 106.182C39.9957 106.182 41.5866 104.386 41.5866 101.682C41.5866 98.9545 39.9957 97.1591 37.6321 97.1591C35.2685 97.1591 33.6776 98.9545 33.6776 101.682C33.6776 104.386 35.2685 106.182 37.6321 106.182ZM37.6321 104.977C35.8366 104.977 35.0185 103.432 35.0185 101.682C35.0185 99.9318 35.8366 98.3636 37.6321 98.3636C39.4276 98.3636 40.2457 99.9318 40.2457 101.682C40.2457 103.432 39.4276 104.977 37.6321 104.977ZM49.8153 99.2273C49.3949 97.9886 48.4517 97.1591 46.7244 97.1591C44.8835 97.1591 43.5199 98.2045 43.5199 99.6818C43.5199 100.886 44.2358 101.693 45.8381 102.068L47.2926 102.409C48.1733 102.614 48.5881 103.034 48.5881 103.636C48.5881 104.386 47.7926 105 46.5426 105C45.446 105 44.7585 104.528 44.5199 103.591L43.2472 103.909C43.5597 105.392 44.7812 106.182 46.5653 106.182C48.5938 106.182 49.9744 105.074 49.9744 103.568C49.9744 102.352 49.2131 101.585 47.6562 101.205L46.3608 100.886C45.3267 100.631 44.8608 100.284 44.8608 99.6136C44.8608 98.8636 45.6562 98.3182 46.7244 98.3182C47.8949 98.3182 48.3778 98.9659 48.6108 99.5682L49.8153 99.2273ZM57.4929 102.432C57.4929 104.068 56.2429 104.818 55.2429 104.818C54.1293 104.818 53.3338 104 53.3338 102.727V97.2727H51.9929V102.818C51.9929 105.045 53.1747 106.114 54.8111 106.114C56.1293 106.114 56.9929 105.409 57.402 104.523H57.4929V106H58.8338V97.2727H57.4929V102.432ZM64.9489 106.182C66.7216 106.182 68.017 105.295 68.4261 103.977L67.1307 103.614C66.7898 104.523 66 104.977 64.9489 104.977C63.375 104.977 62.2898 103.96 62.2273 102.091H68.5625V101.523C68.5625 98.2727 66.6307 97.1591 64.8125 97.1591C62.4489 97.1591 60.8807 99.0227 60.8807 101.705C60.8807 104.386 62.4261 106.182 64.9489 106.182ZM62.2273 100.932C62.3182 99.5739 63.2784 98.3636 64.8125 98.3636C66.267 98.3636 67.1989 99.4545 67.1989 100.932H62.2273ZM70.6023 106H71.9432V100.477C71.9432 99.2955 72.875 98.4318 74.1477 98.4318C74.5057 98.4318 74.875 98.5 74.9659 98.5227V97.1591C74.8125 97.1477 74.4602 97.1364 74.2614 97.1364C73.2159 97.1364 72.3068 97.7273 71.9886 98.5909H71.8977V97.2727H70.6023V106ZM79.9489 106.182C81.7216 106.182 83.017 105.295 83.4261 103.977L82.1307 103.614C81.7898 104.523 81 104.977 79.9489 104.977C78.375 104.977 77.2898 103.96 77.2273 102.091H83.5625V101.523C83.5625 98.2727 81.6307 97.1591 79.8125 97.1591C77.4489 97.1591 75.8807 99.0227 75.8807 101.705C75.8807 104.386 77.4261 106.182 79.9489 106.182ZM77.2273 100.932C77.3182 99.5739 78.2784 98.3636 79.8125 98.3636C81.267 98.3636 82.1989 99.4545 82.1989 100.932H77.2273ZM93.8977 97.2727H92.0341V95.1818H90.6932V97.2727H89.375V98.4091H90.6932V103.864C90.6932 105.386 91.9205 106.114 93.0568 106.114C93.5568 106.114 93.875 106.023 94.0568 105.955L93.7841 104.75C93.6705 104.773 93.4886 104.818 93.1932 104.818C92.6023 104.818 92.0341 104.636 92.0341 103.5V98.4091H93.8977V97.2727ZM101.415 102.432C101.415 104.068 100.165 104.818 99.1648 104.818C98.0511 104.818 97.2557 104 97.2557 102.727V97.2727H95.9148V102.818C95.9148 105.045 97.0966 106.114 98.733 106.114C100.051 106.114 100.915 105.409 101.324 104.523H101.415V106H102.756V97.2727H101.415V102.432ZM105.212 106H106.553V100.477C106.553 99.2955 107.484 98.4318 108.757 98.4318C109.115 98.4318 109.484 98.5 109.575 98.5227V97.1591C109.422 97.1477 109.07 97.1364 108.871 97.1364C107.825 97.1364 106.916 97.7273 106.598 98.5909H106.507V97.2727H105.212V106ZM111.165 109.273H112.506V104.659H112.619C112.915 105.136 113.483 106.182 115.165 106.182C117.347 106.182 118.869 104.432 118.869 101.659C118.869 98.9091 117.347 97.1591 115.142 97.1591C113.438 97.1591 112.915 98.2045 112.619 98.6591H112.46V97.2727H111.165V109.273ZM112.483 101.636C112.483 99.6818 113.347 98.3636 114.983 98.3636C116.688 98.3636 117.528 99.7955 117.528 101.636C117.528 103.5 116.665 104.977 114.983 104.977C113.369 104.977 112.483 103.614 112.483 101.636ZM120.915 106H122.256V97.2727H120.915V106ZM121.597 95.8182C122.119 95.8182 122.551 95.4091 122.551 94.9091C122.551 94.4091 122.119 94 121.597 94C121.074 94 120.642 94.4091 120.642 94.9091C120.642 95.4091 121.074 95.8182 121.597 95.8182ZM130.893 99.2273C130.473 97.9886 129.53 97.1591 127.803 97.1591C125.962 97.1591 124.598 98.2045 124.598 99.6818C124.598 100.886 125.314 101.693 126.916 102.068L128.371 102.409C129.251 102.614 129.666 103.034 129.666 103.636C129.666 104.386 128.871 105 127.621 105C126.524 105 125.837 104.528 125.598 103.591L124.325 103.909C124.638 105.392 125.859 106.182 127.643 106.182C129.672 106.182 131.053 105.074 131.053 103.568C131.053 102.352 130.291 101.585 128.734 101.205L127.439 100.886C126.405 100.631 125.939 100.284 125.939 99.6136C125.939 98.8636 126.734 98.3182 127.803 98.3182C128.973 98.3182 129.456 98.9659 129.689 99.5682L130.893 99.2273ZM137.571 106H138.912V97.2727H137.571V106ZM138.253 95.8182C138.776 95.8182 139.207 95.4091 139.207 94.9091C139.207 94.4091 138.776 94 138.253 94C137.73 94 137.298 94.4091 137.298 94.9091C137.298 95.4091 137.73 95.8182 138.253 95.8182ZM142.709 100.75C142.709 99.2273 143.652 98.3636 144.936 98.3636C146.18 98.3636 146.936 99.1761 146.936 100.545V106H148.277V100.455C148.277 98.2273 147.089 97.1591 145.322 97.1591C144.004 97.1591 143.186 97.75 142.777 98.6364H142.663V97.2727H141.368V106H142.709V100.75ZM154.523 97.2727H152.659V95.1818H151.318V97.2727H150V98.4091H151.318V103.864C151.318 105.386 152.545 106.114 153.682 106.114C154.182 106.114 154.5 106.023 154.682 105.955L154.409 104.75C154.295 104.773 154.114 104.818 153.818 104.818C153.227 104.818 152.659 104.636 152.659 103.5V98.4091H154.523V97.2727ZM160.105 106.182C161.878 106.182 163.173 105.295 163.582 103.977L162.287 103.614C161.946 104.523 161.156 104.977 160.105 104.977C158.531 104.977 157.446 103.96 157.384 102.091H163.719V101.523C163.719 98.2727 161.787 97.1591 159.969 97.1591C157.605 97.1591 156.037 99.0227 156.037 101.705C156.037 104.386 157.582 106.182 160.105 106.182ZM157.384 100.932C157.474 99.5739 158.435 98.3636 159.969 98.3636C161.423 98.3636 162.355 99.4545 162.355 100.932H157.384ZM165.759 106H167.099V100.477C167.099 99.2955 168.031 98.4318 169.304 98.4318C169.662 98.4318 170.031 98.5 170.122 98.5227V97.1591C169.969 97.1477 169.616 97.1364 169.418 97.1364C168.372 97.1364 167.463 97.7273 167.145 98.5909H167.054V97.2727H165.759V106ZM174.741 106.182C176.423 106.182 176.991 105.136 177.287 104.659H177.446V106H178.741V94.3636H177.401V98.6591H177.287C176.991 98.2045 176.469 97.1591 174.764 97.1591C172.56 97.1591 171.037 98.9091 171.037 101.659C171.037 104.432 172.56 106.182 174.741 106.182ZM174.923 104.977C173.241 104.977 172.378 103.5 172.378 101.636C172.378 99.7955 173.219 98.3636 174.923 98.3636C176.56 98.3636 177.423 99.6818 177.423 101.636C177.423 103.614 176.537 104.977 174.923 104.977ZM186.884 102.432C186.884 104.068 185.634 104.818 184.634 104.818C183.52 104.818 182.724 104 182.724 102.727V97.2727H181.384V102.818C181.384 105.045 182.565 106.114 184.202 106.114C185.52 106.114 186.384 105.409 186.793 104.523H186.884V106H188.224V97.2727H186.884V102.432ZM190.68 106H192.021V100.545C192.021 99.267 192.953 98.3636 193.999 98.3636C195.016 98.3636 195.726 99.0284 195.726 100.023V106H197.089V100.318C197.089 99.1932 197.794 98.3636 199.021 98.3636C199.976 98.3636 200.794 98.8693 200.794 100.159V106H202.135V100.159C202.135 98.108 201.033 97.1591 199.476 97.1591C198.226 97.1591 197.311 97.733 196.862 98.6364H196.771C196.339 97.7045 195.578 97.1591 194.43 97.1591C193.294 97.1591 192.453 97.7045 192.089 98.6364H191.976V97.2727H190.68V106ZM205.564 106.091C206.126 106.091 206.587 105.631 206.587 105.068C206.587 104.506 206.126 104.045 205.564 104.045C205.001 104.045 204.541 104.506 204.541 105.068C204.541 105.631 205.001 106.091 205.564 106.091ZM10.7727 122C10.3409 119.614 8.43182 118.205 6.09091 118.205C3.11364 118.205 0.954545 120.5 0.954545 124.182C0.954545 127.864 3.11364 130.159 6.09091 130.159C8.43182 130.159 10.3409 128.75 10.7727 126.364H9.36364C9.02273 127.977 7.63636 128.841 6.09091 128.841C3.97727 128.841 2.31818 127.205 2.31818 124.182C2.31818 121.159 3.97727 119.523 6.09091 119.523C7.63636 119.523 9.02273 120.386 9.36364 122H10.7727ZM12.8679 130H14.2088V124.477C14.2088 123.295 15.1406 122.432 16.4134 122.432C16.7713 122.432 17.1406 122.5 17.2315 122.523V121.159C17.0781 121.148 16.7259 121.136 16.527 121.136C15.4815 121.136 14.5724 121.727 14.2543 122.591H14.1634V121.273H12.8679V130ZM21.3892 130.205C22.9119 130.205 23.7074 129.386 23.9801 128.818H24.0483V130H25.3892V124.25C25.3892 121.477 23.2756 121.159 22.1619 121.159C20.8438 121.159 19.3438 121.614 18.6619 123.205L19.9347 123.659C20.2301 123.023 20.929 122.341 22.2074 122.341C23.4403 122.341 24.0483 122.994 24.0483 124.114V124.159C24.0483 124.807 23.3892 124.75 21.7983 124.955C20.179 125.165 18.4119 125.523 18.4119 127.523C18.4119 129.227 19.7301 130.205 21.3892 130.205ZM21.5938 129C20.5256 129 19.7528 128.523 19.7528 127.591C19.7528 126.568 20.6847 126.25 21.7301 126.114C22.2983 126.045 23.821 125.886 24.0483 125.614V126.841C24.0483 127.932 23.1847 129 21.5938 129ZM34.0185 123.227C33.598 121.989 32.6548 121.159 30.9276 121.159C29.0866 121.159 27.723 122.205 27.723 123.682C27.723 124.886 28.4389 125.693 30.0412 126.068L31.4957 126.409C32.3764 126.614 32.7912 127.034 32.7912 127.636C32.7912 128.386 31.9957 129 30.7457 129C29.6491 129 28.9616 128.528 28.723 127.591L27.4503 127.909C27.7628 129.392 28.9844 130.182 30.7685 130.182C32.7969 130.182 34.1776 129.074 34.1776 127.568C34.1776 126.352 33.4162 125.585 31.8594 125.205L30.5639 124.886C29.5298 124.631 29.0639 124.284 29.0639 123.614C29.0639 122.864 29.8594 122.318 30.9276 122.318C32.098 122.318 32.581 122.966 32.8139 123.568L34.0185 123.227ZM44.3551 130.182C46.1278 130.182 47.4233 129.295 47.8324 127.977L46.5369 127.614C46.196 128.523 45.4062 128.977 44.3551 128.977C42.7812 128.977 41.696 127.96 41.6335 126.091H47.9688V125.523C47.9688 122.273 46.0369 121.159 44.2188 121.159C41.8551 121.159 40.2869 123.023 40.2869 125.705C40.2869 128.386 41.8324 130.182 44.3551 130.182ZM41.6335 124.932C41.7244 123.574 42.6847 122.364 44.2188 122.364C45.6733 122.364 46.6051 123.455 46.6051 124.932H41.6335ZM53.5312 133.455C55.6222 133.455 57.304 132.5 57.304 130.25V121.273H56.0085V122.659H55.8722C55.5767 122.205 55.0312 121.159 53.3267 121.159C51.1222 121.159 49.5994 122.909 49.5994 125.591C49.5994 128.318 51.1903 129.864 53.304 129.864C55.0085 129.864 55.554 128.864 55.8494 128.386H55.9631V130.159C55.9631 131.614 54.9403 132.273 53.5312 132.273C51.946 132.273 51.3892 131.438 51.0312 130.955L49.9631 131.705C50.5085 132.619 51.5824 133.455 53.5312 133.455ZM53.4858 128.659C51.804 128.659 50.9403 127.386 50.9403 125.568C50.9403 123.795 51.7812 122.364 53.4858 122.364C55.1222 122.364 55.9858 123.682 55.9858 125.568C55.9858 127.5 55.0994 128.659 53.4858 128.659ZM63.4176 130.182C65.1903 130.182 66.4858 129.295 66.8949 127.977L65.5994 127.614C65.2585 128.523 64.4688 128.977 63.4176 128.977C61.8438 128.977 60.7585 127.96 60.696 126.091H67.0312V125.523C67.0312 122.273 65.0994 121.159 63.2812 121.159C60.9176 121.159 59.3494 123.023 59.3494 125.705C59.3494 128.386 60.8949 130.182 63.4176 130.182ZM60.696 124.932C60.7869 123.574 61.7472 122.364 63.2812 122.364C64.7358 122.364 65.6676 123.455 65.6676 124.932H60.696ZM75.2528 123.227C74.8324 121.989 73.8892 121.159 72.1619 121.159C70.321 121.159 68.9574 122.205 68.9574 123.682C68.9574 124.886 69.6733 125.693 71.2756 126.068L72.7301 126.409C73.6108 126.614 74.0256 127.034 74.0256 127.636C74.0256 128.386 73.2301 129 71.9801 129C70.8835 129 70.196 128.528 69.9574 127.591L68.6847 127.909C68.9972 129.392 70.2188 130.182 72.0028 130.182C74.0312 130.182 75.4119 129.074 75.4119 127.568C75.4119 126.352 74.6506 125.585 73.0938 125.205L71.7983 124.886C70.7642 124.631 70.2983 124.284 70.2983 123.614C70.2983 122.864 71.0938 122.318 72.1619 122.318C73.3324 122.318 73.8153 122.966 74.0483 123.568L75.2528 123.227ZM81.2259 121.273H79.3622V119.182H78.0213V121.273H76.7031V122.409H78.0213V127.864C78.0213 129.386 79.2486 130.114 80.3849 130.114C80.8849 130.114 81.2031 130.023 81.3849 129.955L81.1122 128.75C80.9986 128.773 80.8168 128.818 80.5213 128.818C79.9304 128.818 79.3622 128.636 79.3622 127.5V122.409H81.2259V121.273ZM85.8111 130.205C87.3338 130.205 88.1293 129.386 88.402 128.818H88.4702V130H89.8111V124.25C89.8111 121.477 87.6974 121.159 86.5838 121.159C85.2656 121.159 83.7656 121.614 83.0838 123.205L84.3565 123.659C84.652 123.023 85.3509 122.341 86.6293 122.341C87.8622 122.341 88.4702 122.994 88.4702 124.114V124.159C88.4702 124.807 87.8111 124.75 86.2202 124.955C84.6009 125.165 82.8338 125.523 82.8338 127.523C82.8338 129.227 84.152 130.205 85.8111 130.205ZM86.0156 129C84.9474 129 84.1747 128.523 84.1747 127.591C84.1747 126.568 85.1065 126.25 86.152 126.114C86.7202 126.045 88.2429 125.886 88.4702 125.614V126.841C88.4702 127.932 87.6065 129 86.0156 129ZM98.4403 123.227C98.0199 121.989 97.0767 121.159 95.3494 121.159C93.5085 121.159 92.1449 122.205 92.1449 123.682C92.1449 124.886 92.8608 125.693 94.4631 126.068L95.9176 126.409C96.7983 126.614 97.2131 127.034 97.2131 127.636C97.2131 128.386 96.4176 129 95.1676 129C94.071 129 93.3835 128.528 93.1449 127.591L91.8722 127.909C92.1847 129.392 93.4062 130.182 95.1903 130.182C97.2188 130.182 98.5994 129.074 98.5994 127.568C98.5994 126.352 97.8381 125.585 96.2812 125.205L94.9858 124.886C93.9517 124.631 93.4858 124.284 93.4858 123.614C93.4858 122.864 94.2812 122.318 95.3494 122.318C96.5199 122.318 97.0028 122.966 97.2358 123.568L98.4403 123.227ZM105.118 133.273H106.459V128.659H106.572C106.868 129.136 107.436 130.182 109.118 130.182C111.3 130.182 112.822 128.432 112.822 125.659C112.822 122.909 111.3 121.159 109.095 121.159C107.391 121.159 106.868 122.205 106.572 122.659H106.413V121.273H105.118V133.273ZM106.436 125.636C106.436 123.682 107.3 122.364 108.936 122.364C110.641 122.364 111.482 123.795 111.482 125.636C111.482 127.5 110.618 128.977 108.936 128.977C107.322 128.977 106.436 127.614 106.436 125.636ZM120.368 126.432C120.368 128.068 119.118 128.818 118.118 128.818C117.004 128.818 116.209 128 116.209 126.727V121.273H114.868V126.818C114.868 129.045 116.05 130.114 117.686 130.114C119.004 130.114 119.868 129.409 120.277 128.523H120.368V130H121.709V121.273H120.368V126.432ZM124.165 130H125.506V124.477C125.506 123.295 126.438 122.432 127.71 122.432C128.068 122.432 128.438 122.5 128.528 122.523V121.159C128.375 121.148 128.023 121.136 127.824 121.136C126.778 121.136 125.869 121.727 125.551 122.591H125.46V121.273H124.165V130ZM135.618 126.432C135.618 128.068 134.368 128.818 133.368 128.818C132.254 128.818 131.459 128 131.459 126.727V121.273H130.118V126.818C130.118 129.045 131.3 130.114 132.936 130.114C134.254 130.114 135.118 129.409 135.527 128.523H135.618V130H136.959V121.273H135.618V126.432ZM145.597 123.227C145.176 121.989 144.233 121.159 142.506 121.159C140.665 121.159 139.301 122.205 139.301 123.682C139.301 124.886 140.017 125.693 141.619 126.068L143.074 126.409C143.955 126.614 144.369 127.034 144.369 127.636C144.369 128.386 143.574 129 142.324 129C141.227 129 140.54 128.528 140.301 127.591L139.028 127.909C139.341 129.392 140.562 130.182 142.347 130.182C144.375 130.182 145.756 129.074 145.756 127.568C145.756 126.352 144.994 125.585 143.438 125.205L142.142 124.886C141.108 124.631 140.642 124.284 140.642 123.614C140.642 122.864 141.438 122.318 142.506 122.318C143.676 122.318 144.159 122.966 144.392 123.568L145.597 123.227Z" fill="#272343"/>
<circle cx="19" cy="179" r="18.5" stroke="#007580"/>
<g clip-path="url(#clip1_1_558)">
<path d="M27 179C27 174.582 23.4183 171 19 171C14.5817 171 11 174.582 11 179C11 182.993 13.9253 186.303 17.75 186.903V181.313H15.7187V179H17.75V177.237C17.75 175.233 18.9443 174.125 20.7717 174.125C21.6467 174.125 22.5623 174.281 22.5623 174.281V176.25H21.5537C20.56 176.25 20.25 176.867 20.25 177.5V179H22.4687L22.114 181.313H20.25V186.903C24.0747 186.303 27 182.993 27 179Z" fill="#007580"/>
</g>
<g clip-path="url(#clip2_1_558)">
<path d="M58.0333 185.5C64.07 185.5 67.3723 180.498 67.3723 176.161C67.3723 176.021 67.369 175.877 67.3627 175.736C68.0052 175.272 68.5596 174.696 69 174.037C68.4017 174.303 67.7667 174.477 67.116 174.552C67.8008 174.142 68.3136 173.497 68.5593 172.737C67.915 173.119 67.2104 173.388 66.4757 173.534C65.9807 173.008 65.3261 172.659 64.6132 172.542C63.9002 172.425 63.1687 172.547 62.5316 172.888C61.8946 173.228 61.3875 173.769 61.0889 174.427C60.7903 175.085 60.7168 175.823 60.8797 176.527C59.575 176.461 58.2986 176.122 57.1334 175.532C55.9681 174.942 54.9398 174.113 54.1153 173.1C53.6963 173.822 53.5681 174.677 53.7567 175.491C53.9454 176.304 54.4368 177.016 55.131 177.48C54.6098 177.464 54.0999 177.323 53.6437 177.071V177.111C53.6432 177.87 53.9053 178.605 54.3855 179.191C54.8656 179.778 55.5341 180.18 56.2773 180.33C55.7946 180.462 55.288 180.481 54.7967 180.386C55.0064 181.038 55.4145 181.609 55.964 182.018C56.5135 182.427 57.1769 182.654 57.8617 182.667C57.1805 183.203 56.4005 183.598 55.5662 183.831C54.732 184.064 53.8599 184.131 53 184.026C54.5019 184.99 56.249 185.501 58.0333 185.5Z" fill="#636270"/>
</g>
<path d="M105.667 175.667C105.667 175.49 105.737 175.32 105.862 175.195C105.987 175.07 106.156 175 106.333 175C106.51 175 106.68 175.07 106.805 175.195C106.93 175.32 107 175.49 107 175.667C107 175.843 106.93 176.013 106.805 176.138C106.68 176.263 106.51 176.333 106.333 176.333C106.156 176.333 105.987 176.263 105.862 176.138C105.737 176.013 105.667 175.843 105.667 175.667Z" fill="#636270"/>
<path fill-rule="evenodd" clip-rule="evenodd" d="M103 175.833C102.16 175.833 101.355 176.167 100.761 176.761C100.167 177.355 99.8333 178.16 99.8333 179C99.8333 179.84 100.167 180.645 100.761 181.239C101.355 181.833 102.16 182.167 103 182.167C103.84 182.167 104.645 181.833 105.239 181.239C105.833 180.645 106.167 179.84 106.167 179C106.167 178.16 105.833 177.355 105.239 176.761C104.645 176.167 103.84 175.833 103 175.833ZM100.833 179C100.833 178.426 101.062 177.874 101.468 177.468C101.874 177.062 102.425 176.833 103 176.833C103.575 176.833 104.126 177.062 104.532 177.468C104.938 177.874 105.167 178.426 105.167 179C105.167 179.575 104.938 180.126 104.532 180.532C104.126 180.939 103.575 181.167 103 181.167C102.425 181.167 101.874 180.939 101.468 180.532C101.062 180.126 100.833 179.575 100.833 179Z" fill="#636270"/>
<path fill-rule="evenodd" clip-rule="evenodd" d="M106.505 172.889C104.176 172.631 101.824 172.631 99.4946 172.889C98.1533 173.039 97.07 174.095 96.9126 175.443C96.6362 177.806 96.6362 180.194 96.9126 182.557C97.07 183.905 98.1526 184.961 99.4946 185.111C101.805 185.369 104.195 185.369 106.505 185.111C107.847 184.961 108.93 183.905 109.087 182.557C109.364 180.194 109.364 177.806 109.087 175.443C108.93 174.095 107.847 173.039 106.505 172.889ZM99.6053 173.882C101.861 173.632 104.138 173.632 106.395 173.882C107.281 173.982 107.991 174.681 108.095 175.56C108.362 177.846 108.362 180.155 108.095 182.44C107.991 183.319 107.281 184.019 106.395 184.117C104.138 184.368 101.861 184.368 99.6053 184.117C98.7186 184.019 98.0086 183.319 97.9053 182.44C97.638 180.155 97.638 177.846 97.9053 175.56C98.0086 174.681 98.7186 173.981 99.6053 173.883V173.882Z" fill="#636270"/>
<g clip-path="url(#clip3_1_558)">
<path d="M145 171C140.581 171 137 174.581 137 179C137 182.391 139.109 185.284 142.084 186.45C142.016 185.816 141.95 184.847 142.113 184.156C142.259 183.531 143.05 180.181 143.05 180.181C143.05 180.181 142.809 179.703 142.809 178.994C142.809 177.881 143.453 177.05 144.256 177.05C144.937 177.05 145.269 177.563 145.269 178.178C145.269 178.866 144.831 179.891 144.606 180.841C144.419 181.637 145.006 182.287 145.791 182.287C147.212 182.287 148.306 180.787 148.306 178.625C148.306 176.709 146.931 175.369 144.966 175.369C142.691 175.369 141.353 177.075 141.353 178.841C141.353 179.528 141.619 180.266 141.95 180.666C142.016 180.744 142.025 180.816 142.006 180.894C141.947 181.147 141.81 181.69 141.784 181.8C141.75 181.947 141.669 181.978 141.516 181.906C140.516 181.441 139.891 179.981 139.891 178.806C139.891 176.281 141.725 173.966 145.175 173.966C147.95 173.966 150.106 175.944 150.106 178.587C150.106 181.344 148.369 183.562 145.956 183.562C145.147 183.562 144.384 183.141 144.122 182.644C144.122 182.644 143.722 184.172 143.625 184.547C143.444 185.24 142.956 186.113 142.631 186.644C143.399 186.88 144.197 187 145 187C149.419 187 153 183.419 153 179C153 174.581 149.419 171 145 171Z" fill="#636270"/>
</g>
<path d="M194.841 175.8C194.841 175.8 194.684 174.696 194.203 174.212C193.594 173.575 192.912 173.572 192.6 173.534C190.363 173.372 187.003 173.372 187.003 173.372H186.997C186.997 173.372 183.638 173.372 181.4 173.534C181.087 173.572 180.406 173.575 179.797 174.212C179.316 174.696 179.163 175.8 179.163 175.8C179.163 175.8 179 177.096 179 178.39V179.603C179 180.897 179.159 182.193 179.159 182.193C179.159 182.193 179.316 183.297 179.794 183.781C180.403 184.418 181.203 184.397 181.559 184.465C182.841 184.587 187 184.625 187 184.625C187 184.625 190.362 184.618 192.6 184.459C192.913 184.422 193.594 184.418 194.203 183.781C194.684 183.297 194.841 182.193 194.841 182.193C194.841 182.193 195 180.9 195 179.603V178.391C195 177.097 194.841 175.8 194.841 175.8V175.8ZM185.347 181.075V176.578L189.668 178.834L185.347 181.075Z" fill="#636270"/>
<defs>
<clipPath id="clip0_1_558">
<rect width="40" height="40" fill="white"/>
</clipPath>
<clipPath id="clip1_1_558">
<rect width="16" height="16" fill="white" transform="translate(11 171)"/>
</clipPath>
<clipPath id="clip2_1_558">
<rect width="16" height="16" fill="white" transform="translate(53 171)"/>
</clipPath>
<clipPath id="clip3_1_558">
<rect width="16" height="16" fill="white" transform="translate(137 171)"/>
</clipPath>
</defs>
</svg>
