<svg width="105" height="203" viewBox="0 0 105 203" fill="none" xmlns="http://www.w3.org/2000/svg">
<path d="M9.57528 6.12926C9.22727 3.9517 7.52202 2.67898 5.36932 2.67898C2.73438 2.67898 0.790483 4.6527 0.790483 7.90909C0.790483 11.1655 2.72443 13.1392 5.36932 13.1392C7.60653 13.1392 9.24219 11.7372 9.57528 9.72372L8.02415 9.71875C7.76065 11.0213 6.6669 11.7372 5.37926 11.7372C3.63423 11.7372 2.31676 10.3999 2.31676 7.90909C2.31676 5.43821 3.62926 4.08097 5.38423 4.08097C6.68182 4.08097 7.7706 4.81179 8.02415 6.12926H9.57528ZM13.0453 13L13.9799 10.3054H17.9572L18.8869 13H20.5176L16.8535 2.81818H15.0786L11.4146 13H13.0453ZM14.4274 9.01278L15.9288 4.66761H16.0083L17.5097 9.01278H14.4274ZM21.109 4.14062H24.2809V13H25.8121V4.14062H28.9889V2.81818H21.109V4.14062ZM31.5702 13H38.0134V11.6776H33.1065V8.56037H37.6207V7.2429H33.1065V4.14062H37.9538V2.81818H31.5702V13ZM47.7364 6.0348H49.3124C48.9694 4.05114 47.2741 2.67898 45.0766 2.67898C42.4417 2.67898 40.5177 4.66264 40.5177 7.91406C40.5177 11.1357 42.387 13.1392 45.1462 13.1392C47.6171 13.1392 49.382 11.5185 49.382 8.94815V7.78977H45.3799V9.05753H47.8955C47.8607 10.6982 46.7769 11.7372 45.1462 11.7372C43.3515 11.7372 42.0439 10.38 42.0439 7.90412C42.0439 5.43821 43.3614 4.08097 45.0866 4.08097C46.4388 4.08097 47.3536 4.8267 47.7364 6.0348ZM61.0166 7.90909C61.0166 4.6527 59.0677 2.67898 56.4328 2.67898C53.7879 2.67898 51.844 4.6527 51.844 7.90909C51.844 11.1605 53.7879 13.1392 56.4328 13.1392C59.0677 13.1392 61.0166 11.1655 61.0166 7.90909ZM59.4953 7.90909C59.4953 10.3899 58.1828 11.7372 56.4328 11.7372C54.6778 11.7372 53.3703 10.3899 53.3703 7.90909C53.3703 5.42827 54.6778 4.08097 56.4328 4.08097C58.1828 4.08097 59.4953 5.42827 59.4953 7.90909ZM63.7719 13H65.3081V9.14702H67.3962C67.431 9.14702 67.4608 9.14702 67.4956 9.14702L69.5638 13H71.3138L69.0567 8.87855C70.3046 8.41619 70.926 7.37713 70.926 6.00994C70.926 4.13565 69.7627 2.81818 67.4012 2.81818H63.7719V13ZM65.3081 7.82457V4.13565H67.2371C68.7534 4.13565 69.3798 4.85653 69.3798 6.00994C69.3798 7.15838 68.7534 7.82457 67.257 7.82457H65.3081ZM72.4807 2.81818L76.1746 9.00284V13H77.7058V9.00284L81.3997 2.81818H79.6547L76.9949 7.44673H76.8855L74.2257 2.81818H72.4807Z" fill="#9A9CAA"/>
<path d="M7.77273 41.2727H9.13636C9.07386 39.517 7.45455 38.2045 5.20455 38.2045C2.97727 38.2045 1.22727 39.5 1.22727 41.4545C1.22727 43.0227 2.36364 43.9545 4.18182 44.4773L5.61364 44.8864C6.84091 45.2273 7.93182 45.6591 7.93182 46.8182C7.93182 48.0909 6.70455 48.9318 5.09091 48.9318C3.70455 48.9318 2.47727 48.3182 2.36364 47H0.909091C1.04545 48.9091 2.59091 50.2045 5.09091 50.2045C7.77273 50.2045 9.29545 48.7273 9.29545 46.8409C9.29545 44.6591 7.22727 43.9545 6.02273 43.6364L4.84091 43.3182C3.97727 43.0909 2.59091 42.6364 2.59091 41.3864C2.59091 40.2727 3.61364 39.4545 5.15909 39.4545C6.56818 39.4545 7.63636 40.125 7.77273 41.2727ZM14.9759 50.1818C17.3395 50.1818 18.9304 48.3864 18.9304 45.6818C18.9304 42.9545 17.3395 41.1591 14.9759 41.1591C12.6122 41.1591 11.0213 42.9545 11.0213 45.6818C11.0213 48.3864 12.6122 50.1818 14.9759 50.1818ZM14.9759 48.9773C13.1804 48.9773 12.3622 47.4318 12.3622 45.6818C12.3622 43.9318 13.1804 42.3636 14.9759 42.3636C16.7713 42.3636 17.5895 43.9318 17.5895 45.6818C17.5895 47.4318 16.7713 48.9773 14.9759 48.9773ZM24.8636 41.2727H22.9091V40.3864C22.9091 39.5227 23.2727 39.0682 24.1591 39.0682C24.5455 39.0682 24.7727 39.1591 24.9091 39.2045L25.2955 38.0455C25.0909 37.9545 24.6818 37.8182 24.0227 37.8182C22.7727 37.8182 21.5682 38.5682 21.5682 40.0682V41.2727H20.1591V42.4091H21.5682V50H22.9091V42.4091H24.8636V41.2727ZM29.0611 50.2045C30.5838 50.2045 31.3793 49.3864 31.652 48.8182H31.7202V50H33.0611V44.25C33.0611 41.4773 30.9474 41.1591 29.8338 41.1591C28.5156 41.1591 27.0156 41.6136 26.3338 43.2045L27.6065 43.6591C27.902 43.0227 28.6009 42.3409 29.8793 42.3409C31.1122 42.3409 31.7202 42.9943 31.7202 44.1136V44.1591C31.7202 44.8068 31.0611 44.75 29.4702 44.9545C27.8509 45.1648 26.0838 45.5227 26.0838 47.5227C26.0838 49.2273 27.402 50.2045 29.0611 50.2045ZM29.2656 49C28.1974 49 27.4247 48.5227 27.4247 47.5909C27.4247 46.5682 28.3565 46.25 29.402 46.1136C29.9702 46.0455 31.4929 45.8864 31.7202 45.6136V46.8409C31.7202 47.9318 30.8565 49 29.2656 49Z" fill="#272343"/>
<path d="M1.88636 80L3.05682 76.7045H7.76136L8.93182 80H10.4091L6.13636 68.3636H4.68182L0.409091 80H1.88636ZM3.5 75.4545L5.36364 70.2045H5.45455L7.31818 75.4545H3.5ZM12.0398 80H13.3807V74.4773C13.3807 73.2955 14.3125 72.4318 15.5852 72.4318C15.9432 72.4318 16.3125 72.5 16.4034 72.5227V71.1591C16.25 71.1477 15.8977 71.1364 15.6989 71.1364C14.6534 71.1364 13.7443 71.7273 13.4261 72.5909H13.3352V71.2727H12.0398V80ZM17.9929 80H19.3338V74.5455C19.3338 73.267 20.2656 72.3636 21.3111 72.3636C22.3281 72.3636 23.0384 73.0284 23.0384 74.0227V80H24.402V74.3182C24.402 73.1932 25.1065 72.3636 26.3338 72.3636C27.2884 72.3636 28.1065 72.8693 28.1065 74.1591V80H29.4474V74.1591C29.4474 72.108 28.3452 71.1591 26.7884 71.1591C25.5384 71.1591 24.6236 71.733 24.1747 72.6364H24.0838C23.652 71.7045 22.8906 71.1591 21.7429 71.1591C20.6065 71.1591 19.7656 71.7045 19.402 72.6364H19.2884V71.2727H17.9929V80ZM35.4446 80.1818C37.3764 80.1818 38.6491 79 38.8764 77.4545H37.5355C37.2855 78.4091 36.4901 78.9773 35.4446 78.9773C33.8537 78.9773 32.831 77.6591 32.831 75.6364C32.831 73.6591 33.8764 72.3636 35.4446 72.3636C36.6264 72.3636 37.331 73.0909 37.5355 73.8864H38.8764C38.6491 72.25 37.2628 71.1591 35.4219 71.1591C33.0582 71.1591 31.4901 73.0227 31.4901 75.6818C31.4901 78.2955 32.9901 80.1818 35.4446 80.1818ZM42.1776 74.75C42.1776 73.2273 43.1491 72.3636 44.473 72.3636C45.7344 72.3636 46.4957 73.1591 46.4957 74.5455V80H47.8366V74.4545C47.8366 72.2102 46.6435 71.1591 44.8594 71.1591C43.4844 71.1591 42.7003 71.733 42.2912 72.6364H42.1776V68.3636H40.8366V80H42.1776V74.75ZM52.858 80.2045C54.3807 80.2045 55.1761 79.3864 55.4489 78.8182H55.517V80H56.858V74.25C56.858 71.4773 54.7443 71.1591 53.6307 71.1591C52.3125 71.1591 50.8125 71.6136 50.1307 73.2045L51.4034 73.6591C51.6989 73.0227 52.3977 72.3409 53.6761 72.3409C54.9091 72.3409 55.517 72.9943 55.517 74.1136V74.1591C55.517 74.8068 54.858 74.75 53.267 74.9545C51.6477 75.1648 49.8807 75.5227 49.8807 77.5227C49.8807 79.2273 51.1989 80.2045 52.858 80.2045ZM53.0625 79C51.9943 79 51.2216 78.5227 51.2216 77.5909C51.2216 76.5682 52.1534 76.25 53.1989 76.1136C53.767 76.0455 55.2898 75.8864 55.517 75.6136V76.8409C55.517 77.9318 54.6534 79 53.0625 79ZM59.3054 80H60.6463V71.2727H59.3054V80ZM59.9872 69.8182C60.5099 69.8182 60.9418 69.4091 60.9418 68.9091C60.9418 68.4091 60.5099 68 59.9872 68C59.4645 68 59.0327 68.4091 59.0327 68.9091C59.0327 69.4091 59.4645 69.8182 59.9872 69.8182ZM63.1023 80H64.4432V74.4773C64.4432 73.2955 65.375 72.4318 66.6477 72.4318C67.0057 72.4318 67.375 72.5 67.4659 72.5227V71.1591C67.3125 71.1477 66.9602 71.1364 66.7614 71.1364C65.7159 71.1364 64.8068 71.7273 64.4886 72.5909H64.3977V71.2727H63.1023V80Z" fill="#272343"/>
<path d="M3.52273 110H4.97727L7.54545 100.727H7.63636L10.2045 110H11.6591L14.8409 98.3636H13.4091L10.9773 107.841H10.8636L8.38636 98.3636H6.79545L4.31818 107.841H4.20455L1.77273 98.3636H0.340909L3.52273 110ZM16.4148 110H17.7557V101.273H16.4148V110ZM17.0966 99.8182C17.6193 99.8182 18.0511 99.4091 18.0511 98.9091C18.0511 98.4091 17.6193 98 17.0966 98C16.5739 98 16.142 98.4091 16.142 98.9091C16.142 99.4091 16.5739 99.8182 17.0966 99.8182ZM21.5526 104.75C21.5526 103.227 22.4957 102.364 23.7798 102.364C25.0241 102.364 25.7798 103.176 25.7798 104.545V110H27.1207V104.455C27.1207 102.227 25.9332 101.159 24.1662 101.159C22.848 101.159 22.0298 101.75 21.6207 102.636H21.5071V101.273H20.2116V110H21.5526V104.75ZM33.0938 113.455C35.1847 113.455 36.8665 112.5 36.8665 110.25V101.273H35.571V102.659H35.4347C35.1392 102.205 34.5938 101.159 32.8892 101.159C30.6847 101.159 29.1619 102.909 29.1619 105.591C29.1619 108.318 30.7528 109.864 32.8665 109.864C34.571 109.864 35.1165 108.864 35.4119 108.386H35.5256V110.159C35.5256 111.614 34.5028 112.273 33.0938 112.273C31.5085 112.273 30.9517 111.438 30.5938 110.955L29.5256 111.705C30.071 112.619 31.1449 113.455 33.0938 113.455ZM33.0483 108.659C31.3665 108.659 30.5028 107.386 30.5028 105.568C30.5028 103.795 31.3438 102.364 33.0483 102.364C34.6847 102.364 35.5483 103.682 35.5483 105.568C35.5483 107.5 34.6619 108.659 33.0483 108.659ZM53.3665 102C52.9347 99.6136 51.0256 98.2045 48.6847 98.2045C45.7074 98.2045 43.5483 100.5 43.5483 104.182C43.5483 107.864 45.7074 110.159 48.6847 110.159C51.0256 110.159 52.9347 108.75 53.3665 106.364H51.9574C51.6165 107.977 50.2301 108.841 48.6847 108.841C46.571 108.841 44.9119 107.205 44.9119 104.182C44.9119 101.159 46.571 99.5227 48.6847 99.5227C50.2301 99.5227 51.6165 100.386 51.9574 102H53.3665ZM56.8026 104.75C56.8026 103.227 57.7741 102.364 59.098 102.364C60.3594 102.364 61.1207 103.159 61.1207 104.545V110H62.4616V104.455C62.4616 102.21 61.2685 101.159 59.4844 101.159C58.1094 101.159 57.3253 101.733 56.9162 102.636H56.8026V98.3636H55.4616V110H56.8026V104.75ZM67.483 110.205C69.0057 110.205 69.8011 109.386 70.0739 108.818H70.142V110H71.483V104.25C71.483 101.477 69.3693 101.159 68.2557 101.159C66.9375 101.159 65.4375 101.614 64.7557 103.205L66.0284 103.659C66.3239 103.023 67.0227 102.341 68.3011 102.341C69.5341 102.341 70.142 102.994 70.142 104.114V104.159C70.142 104.807 69.483 104.75 67.892 104.955C66.2727 105.165 64.5057 105.523 64.5057 107.523C64.5057 109.227 65.8239 110.205 67.483 110.205ZM67.6875 109C66.6193 109 65.8466 108.523 65.8466 107.591C65.8466 106.568 66.7784 106.25 67.8239 106.114C68.392 106.045 69.9148 105.886 70.142 105.614V106.841C70.142 107.932 69.2784 109 67.6875 109ZM73.9304 110H75.2713V101.273H73.9304V110ZM74.6122 99.8182C75.1349 99.8182 75.5668 99.4091 75.5668 98.9091C75.5668 98.4091 75.1349 98 74.6122 98C74.0895 98 73.6577 98.4091 73.6577 98.9091C73.6577 99.4091 74.0895 99.8182 74.6122 99.8182ZM77.7273 110H79.0682V104.477C79.0682 103.295 80 102.432 81.2727 102.432C81.6307 102.432 82 102.5 82.0909 102.523V101.159C81.9375 101.148 81.5852 101.136 81.3864 101.136C80.3409 101.136 79.4318 101.727 79.1136 102.591H79.0227V101.273H77.7273V110Z" fill="#272343"/>
<path d="M5 140C8.54545 140 10.5455 137.795 10.5455 134.159C10.5455 130.545 8.54545 128.364 5.15909 128.364H1.40909V140H5ZM2.81818 138.75V129.614H5.06818C7.79545 129.614 9.18182 131.341 9.18182 134.159C9.18182 137 7.79545 138.75 4.90909 138.75H2.81818ZM16.3864 140.182C18.1591 140.182 19.4545 139.295 19.8636 137.977L18.5682 137.614C18.2273 138.523 17.4375 138.977 16.3864 138.977C14.8125 138.977 13.7273 137.96 13.6648 136.091H20V135.523C20 132.273 18.0682 131.159 16.25 131.159C13.8864 131.159 12.3182 133.023 12.3182 135.705C12.3182 138.386 13.8636 140.182 16.3864 140.182ZM13.6648 134.932C13.7557 133.574 14.7159 132.364 16.25 132.364C17.7045 132.364 18.6364 133.455 18.6364 134.932H13.6648ZM28.2216 133.227C27.8011 131.989 26.858 131.159 25.1307 131.159C23.2898 131.159 21.9261 132.205 21.9261 133.682C21.9261 134.886 22.642 135.693 24.2443 136.068L25.6989 136.409C26.5795 136.614 26.9943 137.034 26.9943 137.636C26.9943 138.386 26.1989 139 24.9489 139C23.8523 139 23.1648 138.528 22.9261 137.591L21.6534 137.909C21.9659 139.392 23.1875 140.182 24.9716 140.182C27 140.182 28.3807 139.074 28.3807 137.568C28.3807 136.352 27.6193 135.585 26.0625 135.205L24.767 134.886C23.733 134.631 23.267 134.284 23.267 133.614C23.267 132.864 24.0625 132.318 25.1307 132.318C26.3011 132.318 26.7841 132.966 27.017 133.568L28.2216 133.227ZM30.3991 140H31.7401V136.733L32.6776 135.864L35.9446 140H37.6491L33.6889 135L37.3764 131.273H35.7173L31.8991 135.159H31.7401V128.364H30.3991V140ZM53.1477 132C52.7159 129.614 50.8068 128.205 48.4659 128.205C45.4886 128.205 43.3295 130.5 43.3295 134.182C43.3295 137.864 45.4886 140.159 48.4659 140.159C50.8068 140.159 52.7159 138.75 53.1477 136.364H51.7386C51.3977 137.977 50.0114 138.841 48.4659 138.841C46.3523 138.841 44.6932 137.205 44.6932 134.182C44.6932 131.159 46.3523 129.523 48.4659 129.523C50.0114 129.523 51.3977 130.386 51.7386 132H53.1477ZM56.5838 134.75C56.5838 133.227 57.5554 132.364 58.8793 132.364C60.1406 132.364 60.902 133.159 60.902 134.545V140H62.2429V134.455C62.2429 132.21 61.0497 131.159 59.2656 131.159C57.8906 131.159 57.1065 131.733 56.6974 132.636H56.5838V128.364H55.2429V140H56.5838V134.75ZM67.2642 140.205C68.7869 140.205 69.5824 139.386 69.8551 138.818H69.9233V140H71.2642V134.25C71.2642 131.477 69.1506 131.159 68.0369 131.159C66.7188 131.159 65.2188 131.614 64.5369 133.205L65.8097 133.659C66.1051 133.023 66.804 132.341 68.0824 132.341C69.3153 132.341 69.9233 132.994 69.9233 134.114V134.159C69.9233 134.807 69.2642 134.75 67.6733 134.955C66.054 135.165 64.2869 135.523 64.2869 137.523C64.2869 139.227 65.6051 140.205 67.2642 140.205ZM67.4688 139C66.4006 139 65.6278 138.523 65.6278 137.591C65.6278 136.568 66.5597 136.25 67.6051 136.114C68.1733 136.045 69.696 135.886 69.9233 135.614V136.841C69.9233 137.932 69.0597 139 67.4688 139ZM73.7116 140H75.0526V131.273H73.7116V140ZM74.3935 129.818C74.9162 129.818 75.348 129.409 75.348 128.909C75.348 128.409 74.9162 128 74.3935 128C73.8707 128 73.4389 128.409 73.4389 128.909C73.4389 129.409 73.8707 129.818 74.3935 129.818ZM77.5085 140H78.8494V134.477C78.8494 133.295 79.7812 132.432 81.054 132.432C81.4119 132.432 81.7812 132.5 81.8722 132.523V131.159C81.7188 131.148 81.3665 131.136 81.1676 131.136C80.1222 131.136 79.2131 131.727 78.8949 132.591H78.804V131.273H77.5085V140Z" fill="#007580"/>
<path d="M0 143.182H82.2358V144.273H0V143.182Z" fill="#007580"/>
<path d="M3.20455 170H4.52273L6.43182 163.295H6.56818L8.47727 170H9.79545L12.4545 161.273H11.0455L9.15909 167.932H9.06818L7.22727 161.273H5.79545L3.93182 167.955H3.84091L1.95455 161.273H0.545455L3.20455 170ZM17.4759 170.182C19.8395 170.182 21.4304 168.386 21.4304 165.682C21.4304 162.955 19.8395 161.159 17.4759 161.159C15.1122 161.159 13.5213 162.955 13.5213 165.682C13.5213 168.386 15.1122 170.182 17.4759 170.182ZM17.4759 168.977C15.6804 168.977 14.8622 167.432 14.8622 165.682C14.8622 163.932 15.6804 162.364 17.4759 162.364C19.2713 162.364 20.0895 163.932 20.0895 165.682C20.0895 167.432 19.2713 168.977 17.4759 168.977ZM27.0227 170.182C29.3864 170.182 30.9773 168.386 30.9773 165.682C30.9773 162.955 29.3864 161.159 27.0227 161.159C24.6591 161.159 23.0682 162.955 23.0682 165.682C23.0682 168.386 24.6591 170.182 27.0227 170.182ZM27.0227 168.977C25.2273 168.977 24.4091 167.432 24.4091 165.682C24.4091 163.932 25.2273 162.364 27.0227 162.364C28.8182 162.364 29.6364 163.932 29.6364 165.682C29.6364 167.432 28.8182 168.977 27.0227 168.977ZM36.3196 170.182C38.0014 170.182 38.5696 169.136 38.8651 168.659H39.0241V170H40.3196V158.364H38.9787V162.659H38.8651C38.5696 162.205 38.0469 161.159 36.3423 161.159C34.1378 161.159 32.6151 162.909 32.6151 165.659C32.6151 168.432 34.1378 170.182 36.3196 170.182ZM36.5014 168.977C34.8196 168.977 33.956 167.5 33.956 165.636C33.956 163.795 34.7969 162.364 36.5014 162.364C38.1378 162.364 39.0014 163.682 39.0014 165.636C39.0014 167.614 38.1151 168.977 36.5014 168.977ZM46.6207 170.182C48.3935 170.182 49.6889 169.295 50.098 167.977L48.8026 167.614C48.4616 168.523 47.6719 168.977 46.6207 168.977C45.0469 168.977 43.9616 167.96 43.8991 166.091H50.2344V165.523C50.2344 162.273 48.3026 161.159 46.4844 161.159C44.1207 161.159 42.5526 163.023 42.5526 165.705C42.5526 168.386 44.098 170.182 46.6207 170.182ZM43.8991 164.932C43.9901 163.574 44.9503 162.364 46.4844 162.364C47.9389 162.364 48.8707 163.455 48.8707 164.932H43.8991ZM53.6151 164.75C53.6151 163.227 54.5582 162.364 55.8423 162.364C57.0866 162.364 57.8423 163.176 57.8423 164.545V170H59.1832V164.455C59.1832 162.227 57.9957 161.159 56.2287 161.159C54.9105 161.159 54.0923 161.75 53.6832 162.636H53.5696V161.273H52.2741V170H53.6151V164.75ZM75.679 162C75.2472 159.614 73.3381 158.205 70.9972 158.205C68.0199 158.205 65.8608 160.5 65.8608 164.182C65.8608 167.864 68.0199 170.159 70.9972 170.159C73.3381 170.159 75.2472 168.75 75.679 166.364H74.2699C73.929 167.977 72.5426 168.841 70.9972 168.841C68.8835 168.841 67.2244 167.205 67.2244 164.182C67.2244 161.159 68.8835 159.523 70.9972 159.523C72.5426 159.523 73.929 160.386 74.2699 162H75.679ZM79.1151 164.75C79.1151 163.227 80.0866 162.364 81.4105 162.364C82.6719 162.364 83.4332 163.159 83.4332 164.545V170H84.7741V164.455C84.7741 162.21 83.581 161.159 81.7969 161.159C80.4219 161.159 79.6378 161.733 79.2287 162.636H79.1151V158.364H77.7741V170H79.1151V164.75ZM89.7955 170.205C91.3182 170.205 92.1136 169.386 92.3864 168.818H92.4545V170H93.7955V164.25C93.7955 161.477 91.6818 161.159 90.5682 161.159C89.25 161.159 87.75 161.614 87.0682 163.205L88.3409 163.659C88.6364 163.023 89.3352 162.341 90.6136 162.341C91.8466 162.341 92.4545 162.994 92.4545 164.114V164.159C92.4545 164.807 91.7955 164.75 90.2045 164.955C88.5852 165.165 86.8182 165.523 86.8182 167.523C86.8182 169.227 88.1364 170.205 89.7955 170.205ZM90 169C88.9318 169 88.1591 168.523 88.1591 167.591C88.1591 166.568 89.0909 166.25 90.1364 166.114C90.7045 166.045 92.2273 165.886 92.4545 165.614V166.841C92.4545 167.932 91.5909 169 90 169ZM96.2429 170H97.5838V161.273H96.2429V170ZM96.9247 159.818C97.4474 159.818 97.8793 159.409 97.8793 158.909C97.8793 158.409 97.4474 158 96.9247 158C96.402 158 95.9702 158.409 95.9702 158.909C95.9702 159.409 96.402 159.818 96.9247 159.818ZM100.04 170H101.381V164.477C101.381 163.295 102.312 162.432 103.585 162.432C103.943 162.432 104.312 162.5 104.403 162.523V161.159C104.25 161.148 103.898 161.136 103.699 161.136C102.653 161.136 101.744 161.727 101.426 162.591H101.335V161.273H100.04V170Z" fill="#272343"/>
<path d="M1.40909 200H2.81818V195.75H5.36364C8.07386 195.75 9.29545 194.102 9.29545 192.045C9.29545 189.989 8.07386 188.364 5.34091 188.364H1.40909V200ZM2.81818 194.5V189.614H5.29545C7.1875 189.614 7.90909 190.648 7.90909 192.045C7.90909 193.443 7.1875 194.5 5.31818 194.5H2.81818ZM13.9517 200.205C15.4744 200.205 16.2699 199.386 16.5426 198.818H16.6108V200H17.9517V194.25C17.9517 191.477 15.8381 191.159 14.7244 191.159C13.4062 191.159 11.9062 191.614 11.2244 193.205L12.4972 193.659C12.7926 193.023 13.4915 192.341 14.7699 192.341C16.0028 192.341 16.6108 192.994 16.6108 194.114V194.159C16.6108 194.807 15.9517 194.75 14.3608 194.955C12.7415 195.165 10.9744 195.523 10.9744 197.523C10.9744 199.227 12.2926 200.205 13.9517 200.205ZM14.1562 199C13.0881 199 12.3153 198.523 12.3153 197.591C12.3153 196.568 13.2472 196.25 14.2926 196.114C14.8608 196.045 16.3835 195.886 16.6108 195.614V196.841C16.6108 197.932 15.7472 199 14.1562 199ZM20.3991 200H21.7401V194.477C21.7401 193.295 22.6719 192.432 23.9446 192.432C24.3026 192.432 24.6719 192.5 24.7628 192.523V191.159C24.6094 191.148 24.2571 191.136 24.0582 191.136C23.0128 191.136 22.1037 191.727 21.7855 192.591H21.6946V191.273H20.3991V200ZM26.3523 200H27.6932V196.733L28.6307 195.864L31.8977 200H33.6023L29.642 195L33.3295 191.273H31.6705L27.8523 195.159H27.6932V188.364H26.3523V200ZM39.7372 200H43.9418C46.6918 200 47.8281 198.659 47.8281 196.909C47.8281 195.068 46.5554 194.068 45.4872 194V193.886C46.4872 193.614 47.3736 192.955 47.3736 191.455C47.3736 189.75 46.2372 188.364 43.8054 188.364H39.7372V200ZM41.1463 198.75V194.705H44.0099C45.5327 194.705 46.4872 195.727 46.4872 196.909C46.4872 197.932 45.7827 198.75 43.9418 198.75H41.1463ZM41.1463 193.477V189.614H43.8054C45.3509 189.614 46.0327 190.432 46.0327 191.455C46.0327 192.682 45.0327 193.477 43.7599 193.477H41.1463ZM53.6207 200.182C55.3935 200.182 56.6889 199.295 57.098 197.977L55.8026 197.614C55.4616 198.523 54.6719 198.977 53.6207 198.977C52.0469 198.977 50.9616 197.96 50.8991 196.091H57.2344V195.523C57.2344 192.273 55.3026 191.159 53.4844 191.159C51.1207 191.159 49.5526 193.023 49.5526 195.705C49.5526 198.386 51.098 200.182 53.6207 200.182ZM50.8991 194.932C50.9901 193.574 51.9503 192.364 53.4844 192.364C54.9389 192.364 55.8707 193.455 55.8707 194.932H50.8991ZM60.6151 194.75C60.6151 193.227 61.5582 192.364 62.8423 192.364C64.0866 192.364 64.8423 193.176 64.8423 194.545V200H66.1832V194.455C66.1832 192.227 64.9957 191.159 63.2287 191.159C61.9105 191.159 61.0923 191.75 60.6832 192.636H60.5696V191.273H59.2741V200H60.6151V194.75ZM72.179 200.182C74.1108 200.182 75.3835 199 75.6108 197.455H74.2699C74.0199 198.409 73.2244 198.977 72.179 198.977C70.5881 198.977 69.5653 197.659 69.5653 195.636C69.5653 193.659 70.6108 192.364 72.179 192.364C73.3608 192.364 74.0653 193.091 74.2699 193.886H75.6108C75.3835 192.25 73.9972 191.159 72.1562 191.159C69.7926 191.159 68.2244 193.023 68.2244 195.682C68.2244 198.295 69.7244 200.182 72.179 200.182ZM78.9119 194.75C78.9119 193.227 79.8835 192.364 81.2074 192.364C82.4688 192.364 83.2301 193.159 83.2301 194.545V200H84.571V194.455C84.571 192.21 83.3778 191.159 81.5938 191.159C80.2188 191.159 79.4347 191.733 79.0256 192.636H78.9119V188.364H77.571V200H78.9119V194.75Z" fill="#272343"/>
</svg>
