<svg width="1908" height="75" viewBox="0 0 1908 75" fill="none" xmlns="http://www.w3.org/2000/svg">
<g filter="url(#filter0_i_1_594)">
<rect width="1920" height="75" transform="translate(-12)" fill="white"/>
<path d="M296.078 33.026C297.114 33.026 298.015 33.222 298.78 33.614C299.545 34.006 300.133 34.5567 300.544 35.266C300.955 35.966 301.16 36.778 301.16 37.702C301.16 38.4393 301.039 39.1487 300.796 39.83C300.553 40.502 300.199 41.048 299.732 41.468C299.275 41.888 298.738 42.098 298.122 42.098C297.655 42.098 297.296 41.9813 297.044 41.748C296.792 41.5147 296.647 41.1973 296.61 40.796C296.321 41.1973 295.952 41.5147 295.504 41.748C295.065 41.9813 294.599 42.098 294.104 42.098C293.395 42.098 292.835 41.8833 292.424 41.454C292.023 41.0153 291.822 40.4273 291.822 39.69C291.822 38.99 291.967 38.3367 292.256 37.73C292.555 37.1233 292.965 36.638 293.488 36.274C294.011 35.9007 294.603 35.714 295.266 35.714C296.153 35.714 296.75 36.05 297.058 36.722L297.212 35.854H298.318L297.618 39.9C297.59 40.0773 297.576 40.2407 297.576 40.39C297.576 40.95 297.823 41.23 298.318 41.23C298.691 41.23 299.013 41.0527 299.284 40.698C299.564 40.3433 299.774 39.9 299.914 39.368C300.054 38.8267 300.124 38.2947 300.124 37.772C300.124 36.5493 299.755 35.602 299.018 34.93C298.29 34.258 297.259 33.922 295.924 33.922C294.813 33.922 293.81 34.1927 292.914 34.734C292.027 35.266 291.332 35.9987 290.828 36.932C290.324 37.8653 290.072 38.8967 290.072 40.026C290.063 41.258 290.431 42.2053 291.178 42.868C291.925 43.54 292.961 43.876 294.286 43.876C295.163 43.876 295.938 43.7173 296.61 43.4L296.778 44.268C295.947 44.6133 295.033 44.786 294.034 44.786C293.035 44.786 292.153 44.5947 291.388 44.212C290.632 43.8387 290.044 43.2973 289.624 42.588C289.213 41.888 289.008 41.0713 289.008 40.138C289.008 38.822 289.311 37.6227 289.918 36.54C290.525 35.448 291.365 34.5893 292.438 33.964C293.521 33.3387 294.734 33.026 296.078 33.026ZM294.482 41.104C294.902 41.104 295.289 40.9827 295.644 40.74C295.999 40.488 296.279 40.152 296.484 39.732C296.689 39.3027 296.792 38.836 296.792 38.332C296.792 37.8467 296.657 37.4547 296.386 37.156C296.125 36.848 295.751 36.694 295.266 36.694C294.818 36.694 294.421 36.8293 294.076 37.1C293.74 37.3613 293.479 37.7113 293.292 38.15C293.105 38.5793 293.012 39.0273 293.012 39.494C293.012 39.9887 293.138 40.3807 293.39 40.67C293.642 40.9593 294.006 41.104 294.482 41.104ZM306.624 40.978C307.809 40.026 308.738 39.2467 309.41 38.64C310.082 38.024 310.647 37.3847 311.104 36.722C311.571 36.05 311.804 35.392 311.804 34.748C311.804 34.1413 311.655 33.6653 311.356 33.32C311.067 32.9653 310.595 32.788 309.942 32.788C309.307 32.788 308.813 32.9887 308.458 33.39C308.113 33.782 307.926 34.3093 307.898 34.972H306.666C306.703 33.9267 307.021 33.1193 307.618 32.55C308.215 31.9807 308.985 31.696 309.928 31.696C310.889 31.696 311.65 31.962 312.21 32.494C312.779 33.026 313.064 33.7587 313.064 34.692C313.064 35.4667 312.831 36.2227 312.364 36.96C311.907 37.688 311.384 38.332 310.796 38.892C310.208 39.4427 309.457 40.0867 308.542 40.824H313.358V41.888H306.624V40.978ZM314.831 36.834C314.831 35.2287 315.092 33.978 315.615 33.082C316.138 32.1767 317.052 31.724 318.359 31.724C319.656 31.724 320.566 32.1767 321.089 33.082C321.612 33.978 321.873 35.2287 321.873 36.834C321.873 38.4673 321.612 39.7367 321.089 40.642C320.566 41.5473 319.656 42 318.359 42C317.052 42 316.138 41.5473 315.615 40.642C315.092 39.7367 314.831 38.4673 314.831 36.834ZM320.613 36.834C320.613 36.022 320.557 35.336 320.445 34.776C320.342 34.2067 320.123 33.7493 319.787 33.404C319.46 33.0587 318.984 32.886 318.359 32.886C317.724 32.886 317.239 33.0587 316.903 33.404C316.576 33.7493 316.357 34.2067 316.245 34.776C316.142 35.336 316.091 36.022 316.091 36.834C316.091 37.674 316.142 38.3787 316.245 38.948C316.357 39.5173 316.576 39.9747 316.903 40.32C317.239 40.6653 317.724 40.838 318.359 40.838C318.984 40.838 319.46 40.6653 319.787 40.32C320.123 39.9747 320.342 39.5173 320.445 38.948C320.557 38.3787 320.613 37.674 320.613 36.834ZM323.468 40.978C324.653 40.026 325.582 39.2467 326.254 38.64C326.926 38.024 327.491 37.3847 327.948 36.722C328.415 36.05 328.648 35.392 328.648 34.748C328.648 34.1413 328.499 33.6653 328.2 33.32C327.911 32.9653 327.439 32.788 326.786 32.788C326.151 32.788 325.657 32.9887 325.302 33.39C324.957 33.782 324.77 34.3093 324.742 34.972H323.51C323.547 33.9267 323.865 33.1193 324.462 32.55C325.059 31.9807 325.829 31.696 326.772 31.696C327.733 31.696 328.494 31.962 329.054 32.494C329.623 33.026 329.908 33.7587 329.908 34.692C329.908 35.4667 329.675 36.2227 329.208 36.96C328.751 37.688 328.228 38.332 327.64 38.892C327.052 39.4427 326.301 40.0867 325.386 40.824H330.202V41.888H323.468V40.978ZM331.339 33.04V31.878H333.971V42H332.683V33.04H331.339ZM345.421 36.33V37.408H339.835V36.33H345.421ZM356.431 36.974C356.785 37.03 357.107 37.1747 357.397 37.408C357.695 37.6413 357.929 37.9307 358.097 38.276C358.274 38.6213 358.363 38.99 358.363 39.382C358.363 39.8767 358.237 40.3247 357.985 40.726C357.733 41.118 357.364 41.4307 356.879 41.664C356.403 41.888 355.838 42 355.185 42H351.545V32.242H355.045C355.707 32.242 356.272 32.354 356.739 32.578C357.205 32.7927 357.555 33.0867 357.789 33.46C358.022 33.8333 358.139 34.2533 358.139 34.72C358.139 35.2987 357.98 35.7793 357.663 36.162C357.355 36.5353 356.944 36.806 356.431 36.974ZM352.819 36.456H354.961C355.558 36.456 356.02 36.316 356.347 36.036C356.673 35.756 356.837 35.3687 356.837 34.874C356.837 34.3793 356.673 33.992 356.347 33.712C356.02 33.432 355.549 33.292 354.933 33.292H352.819V36.456ZM355.073 40.95C355.707 40.95 356.202 40.8007 356.557 40.502C356.911 40.2033 357.089 39.788 357.089 39.256C357.089 38.7147 356.902 38.29 356.529 37.982C356.155 37.6647 355.656 37.506 355.031 37.506H352.819V40.95H355.073ZM361.405 31.64V42H360.131V31.64H361.405ZM366.922 42.126C366.203 42.126 365.55 41.9627 364.962 41.636C364.383 41.3093 363.926 40.8473 363.59 40.25C363.263 39.6433 363.1 38.9433 363.1 38.15C363.1 37.366 363.268 36.6753 363.604 36.078C363.949 35.4713 364.416 35.0093 365.004 34.692C365.592 34.3653 366.25 34.202 366.978 34.202C367.706 34.202 368.364 34.3653 368.952 34.692C369.54 35.0093 370.002 35.4667 370.338 36.064C370.683 36.6613 370.856 37.3567 370.856 38.15C370.856 38.9433 370.679 39.6433 370.324 40.25C369.979 40.8473 369.507 41.3093 368.91 41.636C368.313 41.9627 367.65 42.126 366.922 42.126ZM366.922 41.006C367.379 41.006 367.809 40.8987 368.21 40.684C368.611 40.4693 368.933 40.1473 369.176 39.718C369.428 39.2887 369.554 38.766 369.554 38.15C369.554 37.534 369.433 37.0113 369.19 36.582C368.947 36.1527 368.63 35.8353 368.238 35.63C367.846 35.4153 367.421 35.308 366.964 35.308C366.497 35.308 366.068 35.4153 365.676 35.63C365.293 35.8353 364.985 36.1527 364.752 36.582C364.519 37.0113 364.402 37.534 364.402 38.15C364.402 38.7753 364.514 39.3027 364.738 39.732C364.971 40.1613 365.279 40.4833 365.662 40.698C366.045 40.9033 366.465 41.006 366.922 41.006ZM375.695 34.202C376.358 34.202 376.936 34.3467 377.431 34.636C377.935 34.9253 378.308 35.2893 378.551 35.728V34.328H379.839V42.168C379.839 42.868 379.69 43.4887 379.391 44.03C379.092 44.5807 378.663 45.01 378.103 45.318C377.552 45.626 376.908 45.78 376.171 45.78C375.163 45.78 374.323 45.542 373.651 45.066C372.979 44.59 372.582 43.9413 372.461 43.12H373.721C373.861 43.5867 374.15 43.96 374.589 44.24C375.028 44.5293 375.555 44.674 376.171 44.674C376.871 44.674 377.44 44.4547 377.879 44.016C378.327 43.5773 378.551 42.9613 378.551 42.168V40.558C378.299 41.006 377.926 41.3793 377.431 41.678C376.936 41.9767 376.358 42.126 375.695 42.126C375.014 42.126 374.393 41.958 373.833 41.622C373.282 41.286 372.848 40.8147 372.531 40.208C372.214 39.6013 372.055 38.9107 372.055 38.136C372.055 37.352 372.214 36.666 372.531 36.078C372.848 35.4807 373.282 35.0187 373.833 34.692C374.393 34.3653 375.014 34.202 375.695 34.202ZM378.551 38.15C378.551 37.5713 378.434 37.0673 378.201 36.638C377.968 36.2087 377.65 35.882 377.249 35.658C376.857 35.4247 376.423 35.308 375.947 35.308C375.471 35.308 375.037 35.42 374.645 35.644C374.253 35.868 373.94 36.1947 373.707 36.624C373.474 37.0533 373.357 37.5573 373.357 38.136C373.357 38.724 373.474 39.2373 373.707 39.676C373.94 40.1053 374.253 40.4367 374.645 40.67C375.037 40.894 375.471 41.006 375.947 41.006C376.423 41.006 376.857 40.894 377.249 40.67C377.65 40.4367 377.968 40.1053 378.201 39.676C378.434 39.2373 378.551 38.7287 378.551 38.15ZM388.6 34.328L383.98 45.612H382.664L384.176 41.916L381.082 34.328H382.496L384.904 40.544L387.284 34.328H388.6ZM398.933 36.33V37.408H393.347V36.33H398.933ZM408.095 32.242C409.159 32.242 410.078 32.4427 410.853 32.844C411.637 33.236 412.234 33.8007 412.645 34.538C413.065 35.2753 413.275 36.1433 413.275 37.142C413.275 38.1407 413.065 39.0087 412.645 39.746C412.234 40.474 411.637 41.034 410.853 41.426C410.078 41.8087 409.159 42 408.095 42H405.057V32.242H408.095ZM408.095 40.95C409.355 40.95 410.316 40.6187 410.979 39.956C411.641 39.284 411.973 38.346 411.973 37.142C411.973 35.9287 411.637 34.9813 410.965 34.3C410.302 33.6187 409.345 33.278 408.095 33.278H406.331V40.95H408.095ZM421.955 37.87C421.955 38.1127 421.941 38.3693 421.913 38.64H415.781C415.828 39.396 416.084 39.9887 416.551 40.418C417.027 40.838 417.601 41.048 418.273 41.048C418.824 41.048 419.281 40.922 419.645 40.67C420.018 40.4087 420.28 40.0633 420.429 39.634H421.801C421.596 40.3713 421.185 40.9733 420.569 41.44C419.953 41.8973 419.188 42.126 418.273 42.126C417.545 42.126 416.892 41.9627 416.313 41.636C415.744 41.3093 415.296 40.8473 414.969 40.25C414.642 39.6433 414.479 38.9433 414.479 38.15C414.479 37.3567 414.638 36.6613 414.955 36.064C415.272 35.4667 415.716 35.0093 416.285 34.692C416.864 34.3653 417.526 34.202 418.273 34.202C419.001 34.202 419.645 34.3607 420.205 34.678C420.765 34.9953 421.194 35.434 421.493 35.994C421.801 36.5447 421.955 37.17 421.955 37.87ZM420.639 37.604C420.639 37.1187 420.532 36.7033 420.317 36.358C420.102 36.0033 419.808 35.7373 419.435 35.56C419.071 35.3733 418.665 35.28 418.217 35.28C417.573 35.28 417.022 35.4853 416.565 35.896C416.117 36.3067 415.86 36.876 415.795 37.604H420.639ZM426.353 42.126C425.765 42.126 425.237 42.028 424.771 41.832C424.304 41.6267 423.935 41.3467 423.665 40.992C423.394 40.628 423.245 40.2127 423.217 39.746H424.533C424.57 40.1287 424.747 40.4413 425.065 40.684C425.391 40.9267 425.816 41.048 426.339 41.048C426.824 41.048 427.207 40.9407 427.487 40.726C427.767 40.5113 427.907 40.2407 427.907 39.914C427.907 39.578 427.757 39.3307 427.459 39.172C427.16 39.004 426.698 38.8407 426.073 38.682C425.503 38.5327 425.037 38.3833 424.673 38.234C424.318 38.0753 424.01 37.8467 423.749 37.548C423.497 37.24 423.371 36.8387 423.371 36.344C423.371 35.952 423.487 35.5927 423.721 35.266C423.954 34.9393 424.285 34.6827 424.715 34.496C425.144 34.3 425.634 34.202 426.185 34.202C427.034 34.202 427.72 34.4167 428.243 34.846C428.765 35.2753 429.045 35.8633 429.083 36.61H427.809C427.781 36.2087 427.617 35.8867 427.319 35.644C427.029 35.4013 426.637 35.28 426.143 35.28C425.685 35.28 425.321 35.378 425.051 35.574C424.78 35.77 424.645 36.0267 424.645 36.344C424.645 36.596 424.724 36.806 424.883 36.974C425.051 37.1327 425.256 37.2633 425.499 37.366C425.751 37.4593 426.096 37.5667 426.535 37.688C427.085 37.8373 427.533 37.9867 427.879 38.136C428.224 38.276 428.518 38.4907 428.761 38.78C429.013 39.0693 429.143 39.4473 429.153 39.914C429.153 40.334 429.036 40.712 428.803 41.048C428.569 41.384 428.238 41.65 427.809 41.846C427.389 42.0327 426.903 42.126 426.353 42.126ZM431.609 33.082C431.366 33.082 431.161 32.998 430.993 32.83C430.825 32.662 430.741 32.4567 430.741 32.214C430.741 31.9713 430.825 31.766 430.993 31.598C431.161 31.43 431.366 31.346 431.609 31.346C431.842 31.346 432.038 31.43 432.197 31.598C432.365 31.766 432.449 31.9713 432.449 32.214C432.449 32.4567 432.365 32.662 432.197 32.83C432.038 32.998 431.842 33.082 431.609 33.082ZM432.225 34.328V42H430.951V34.328H432.225ZM437.56 34.202C438.223 34.202 438.802 34.3467 439.296 34.636C439.8 34.9253 440.174 35.2893 440.416 35.728V34.328H441.704V42.168C441.704 42.868 441.555 43.4887 441.256 44.03C440.958 44.5807 440.528 45.01 439.968 45.318C439.418 45.626 438.774 45.78 438.036 45.78C437.028 45.78 436.188 45.542 435.516 45.066C434.844 44.59 434.448 43.9413 434.326 43.12H435.586C435.726 43.5867 436.016 43.96 436.454 44.24C436.893 44.5293 437.42 44.674 438.036 44.674C438.736 44.674 439.306 44.4547 439.744 44.016C440.192 43.5773 440.416 42.9613 440.416 42.168V40.558C440.164 41.006 439.791 41.3793 439.296 41.678C438.802 41.9767 438.223 42.126 437.56 42.126C436.879 42.126 436.258 41.958 435.698 41.622C435.148 41.286 434.714 40.8147 434.396 40.208C434.079 39.6013 433.92 38.9107 433.92 38.136C433.92 37.352 434.079 36.666 434.396 36.078C434.714 35.4807 435.148 35.0187 435.698 34.692C436.258 34.3653 436.879 34.202 437.56 34.202ZM440.416 38.15C440.416 37.5713 440.3 37.0673 440.066 36.638C439.833 36.2087 439.516 35.882 439.114 35.658C438.722 35.4247 438.288 35.308 437.812 35.308C437.336 35.308 436.902 35.42 436.51 35.644C436.118 35.868 435.806 36.1947 435.572 36.624C435.339 37.0533 435.222 37.5573 435.222 38.136C435.222 38.724 435.339 39.2373 435.572 39.676C435.806 40.1053 436.118 40.4367 436.51 40.67C436.902 40.894 437.336 41.006 437.812 41.006C438.288 41.006 438.722 40.894 439.114 40.67C439.516 40.4367 439.833 40.1053 440.066 39.676C440.3 39.2373 440.416 38.7287 440.416 38.15ZM447.595 34.188C448.529 34.188 449.285 34.4727 449.863 35.042C450.442 35.602 450.731 36.414 450.731 37.478V42H449.471V37.66C449.471 36.8947 449.28 36.3113 448.897 35.91C448.515 35.4993 447.992 35.294 447.329 35.294C446.657 35.294 446.121 35.504 445.719 35.924C445.327 36.344 445.131 36.9553 445.131 37.758V42H443.857V34.328H445.131V35.42C445.383 35.028 445.724 34.7247 446.153 34.51C446.592 34.2953 447.073 34.188 447.595 34.188ZM459.812 37.87C459.812 38.1127 459.798 38.3693 459.77 38.64H453.638C453.685 39.396 453.942 39.9887 454.408 40.418C454.884 40.838 455.458 41.048 456.13 41.048C456.681 41.048 457.138 40.922 457.502 40.67C457.876 40.4087 458.137 40.0633 458.286 39.634H459.658C459.453 40.3713 459.042 40.9733 458.426 41.44C457.81 41.8973 457.045 42.126 456.13 42.126C455.402 42.126 454.749 41.9627 454.17 41.636C453.601 41.3093 453.153 40.8473 452.826 40.25C452.5 39.6433 452.336 38.9433 452.336 38.15C452.336 37.3567 452.495 36.6613 452.812 36.064C453.13 35.4667 453.573 35.0093 454.142 34.692C454.721 34.3653 455.384 34.202 456.13 34.202C456.858 34.202 457.502 34.3607 458.062 34.678C458.622 34.9953 459.052 35.434 459.35 35.994C459.658 36.5447 459.812 37.17 459.812 37.87ZM458.496 37.604C458.496 37.1187 458.389 36.7033 458.174 36.358C457.96 36.0033 457.666 35.7373 457.292 35.56C456.928 35.3733 456.522 35.28 456.074 35.28C455.43 35.28 454.88 35.4853 454.422 35.896C453.974 36.3067 453.718 36.876 453.652 37.604H458.496ZM461.018 38.136C461.018 37.352 461.177 36.666 461.494 36.078C461.811 35.4807 462.245 35.0187 462.796 34.692C463.356 34.3653 463.981 34.202 464.672 34.202C465.269 34.202 465.825 34.342 466.338 34.622C466.851 34.8927 467.243 35.252 467.514 35.7V31.64H468.802V42H467.514V40.558C467.262 41.0153 466.889 41.3933 466.394 41.692C465.899 41.9813 465.321 42.126 464.658 42.126C463.977 42.126 463.356 41.958 462.796 41.622C462.245 41.286 461.811 40.8147 461.494 40.208C461.177 39.6013 461.018 38.9107 461.018 38.136ZM467.514 38.15C467.514 37.5713 467.397 37.0673 467.164 36.638C466.931 36.2087 466.613 35.882 466.212 35.658C465.82 35.4247 465.386 35.308 464.91 35.308C464.434 35.308 464 35.42 463.608 35.644C463.216 35.868 462.903 36.1947 462.67 36.624C462.437 37.0533 462.32 37.5573 462.32 38.136C462.32 38.724 462.437 39.2373 462.67 39.676C462.903 40.1053 463.216 40.4367 463.608 40.67C464 40.894 464.434 41.006 464.91 41.006C465.386 41.006 465.82 40.894 466.212 40.67C466.613 40.4367 466.931 40.1053 467.164 39.676C467.397 39.2373 467.514 38.7287 467.514 38.15ZM482.177 42L480.903 40.712C480.427 41.2067 479.919 41.5753 479.377 41.818C478.836 42.0513 478.225 42.168 477.543 42.168C476.871 42.168 476.274 42.0467 475.751 41.804C475.238 41.5613 474.837 41.216 474.547 40.768C474.267 40.32 474.127 39.7973 474.127 39.2C474.127 38.5187 474.319 37.9213 474.701 37.408C475.093 36.8853 475.667 36.4747 476.423 36.176C476.125 35.8213 475.91 35.4947 475.779 35.196C475.649 34.8973 475.583 34.5707 475.583 34.216C475.583 33.8053 475.686 33.4367 475.891 33.11C476.106 32.774 476.409 32.5127 476.801 32.326C477.193 32.1393 477.646 32.046 478.159 32.046C478.663 32.046 479.102 32.144 479.475 32.34C479.849 32.536 480.129 32.8113 480.315 33.166C480.502 33.5113 480.586 33.8987 480.567 34.328H479.293C479.303 33.9453 479.195 33.6467 478.971 33.432C478.747 33.208 478.458 33.096 478.103 33.096C477.73 33.096 477.427 33.2033 477.193 33.418C476.969 33.6233 476.857 33.8893 476.857 34.216C476.857 34.496 476.932 34.7667 477.081 35.028C477.24 35.2893 477.501 35.6113 477.865 35.994L480.777 38.92L481.029 38.528L481.981 36.932H483.353L482.205 38.92C482.047 39.2 481.86 39.494 481.645 39.802L483.843 42H482.177ZM477.543 41.076C478.047 41.076 478.5 40.978 478.901 40.782C479.312 40.586 479.699 40.2827 480.063 39.872L477.193 36.988C475.999 37.4453 475.401 38.1687 475.401 39.158C475.401 39.7087 475.597 40.166 475.989 40.53C476.391 40.894 476.909 41.076 477.543 41.076ZM491.807 32.242C492.871 32.242 493.791 32.4427 494.565 32.844C495.349 33.236 495.947 33.8007 496.357 34.538C496.777 35.2753 496.987 36.1433 496.987 37.142C496.987 38.1407 496.777 39.0087 496.357 39.746C495.947 40.474 495.349 41.034 494.565 41.426C493.791 41.8087 492.871 42 491.807 42H488.769V32.242H491.807ZM491.807 40.95C493.067 40.95 494.029 40.6187 494.691 39.956C495.354 39.284 495.685 38.346 495.685 37.142C495.685 35.9287 495.349 34.9813 494.677 34.3C494.015 33.6187 493.058 33.278 491.807 33.278H490.043V40.95H491.807ZM505.668 37.87C505.668 38.1127 505.654 38.3693 505.626 38.64H499.494C499.541 39.396 499.797 39.9887 500.264 40.418C500.74 40.838 501.314 41.048 501.986 41.048C502.537 41.048 502.994 40.922 503.358 40.67C503.731 40.4087 503.993 40.0633 504.142 39.634H505.514C505.309 40.3713 504.898 40.9733 504.282 41.44C503.666 41.8973 502.901 42.126 501.986 42.126C501.258 42.126 500.605 41.9627 500.026 41.636C499.457 41.3093 499.009 40.8473 498.682 40.25C498.355 39.6433 498.192 38.9433 498.192 38.15C498.192 37.3567 498.351 36.6613 498.668 36.064C498.985 35.4667 499.429 35.0093 499.998 34.692C500.577 34.3653 501.239 34.202 501.986 34.202C502.714 34.202 503.358 34.3607 503.918 34.678C504.478 34.9953 504.907 35.434 505.206 35.994C505.514 36.5447 505.668 37.17 505.668 37.87ZM504.352 37.604C504.352 37.1187 504.245 36.7033 504.03 36.358C503.815 36.0033 503.521 35.7373 503.148 35.56C502.784 35.3733 502.378 35.28 501.93 35.28C501.286 35.28 500.735 35.4853 500.278 35.896C499.83 36.3067 499.573 36.876 499.508 37.604H504.352ZM510.205 40.824L512.585 34.328H513.943L510.933 42H509.449L506.439 34.328H507.811L510.205 40.824ZM522.197 37.87C522.197 38.1127 522.183 38.3693 522.155 38.64H516.023C516.07 39.396 516.326 39.9887 516.793 40.418C517.269 40.838 517.843 41.048 518.515 41.048C519.066 41.048 519.523 40.922 519.887 40.67C520.26 40.4087 520.522 40.0633 520.671 39.634H522.043C521.838 40.3713 521.427 40.9733 520.811 41.44C520.195 41.8973 519.43 42.126 518.515 42.126C517.787 42.126 517.134 41.9627 516.555 41.636C515.986 41.3093 515.538 40.8473 515.211 40.25C514.884 39.6433 514.721 38.9433 514.721 38.15C514.721 37.3567 514.88 36.6613 515.197 36.064C515.514 35.4667 515.958 35.0093 516.527 34.692C517.106 34.3653 517.768 34.202 518.515 34.202C519.243 34.202 519.887 34.3607 520.447 34.678C521.007 34.9953 521.436 35.434 521.735 35.994C522.043 36.5447 522.197 37.17 522.197 37.87ZM520.881 37.604C520.881 37.1187 520.774 36.7033 520.559 36.358C520.344 36.0033 520.05 35.7373 519.677 35.56C519.313 35.3733 518.907 35.28 518.459 35.28C517.815 35.28 517.264 35.4853 516.807 35.896C516.359 36.3067 516.102 36.876 516.037 37.604H520.881ZM525.153 31.64V42H523.879V31.64H525.153ZM530.67 42.126C529.951 42.126 529.298 41.9627 528.71 41.636C528.131 41.3093 527.674 40.8473 527.338 40.25C527.011 39.6433 526.848 38.9433 526.848 38.15C526.848 37.366 527.016 36.6753 527.352 36.078C527.697 35.4713 528.164 35.0093 528.752 34.692C529.34 34.3653 529.998 34.202 530.726 34.202C531.454 34.202 532.112 34.3653 532.7 34.692C533.288 35.0093 533.75 35.4667 534.086 36.064C534.431 36.6613 534.604 37.3567 534.604 38.15C534.604 38.9433 534.427 39.6433 534.072 40.25C533.727 40.8473 533.255 41.3093 532.658 41.636C532.061 41.9627 531.398 42.126 530.67 42.126ZM530.67 41.006C531.127 41.006 531.557 40.8987 531.958 40.684C532.359 40.4693 532.681 40.1473 532.924 39.718C533.176 39.2887 533.302 38.766 533.302 38.15C533.302 37.534 533.181 37.0113 532.938 36.582C532.695 36.1527 532.378 35.8353 531.986 35.63C531.594 35.4153 531.169 35.308 530.712 35.308C530.245 35.308 529.816 35.4153 529.424 35.63C529.041 35.8353 528.733 36.1527 528.5 36.582C528.267 37.0113 528.15 37.534 528.15 38.15C528.15 38.7753 528.262 39.3027 528.486 39.732C528.719 40.1613 529.027 40.4833 529.41 40.698C529.793 40.9033 530.213 41.006 530.67 41.006ZM537.553 35.742C537.805 35.3033 538.179 34.9393 538.673 34.65C539.177 34.3513 539.761 34.202 540.423 34.202C541.105 34.202 541.721 34.3653 542.271 34.692C542.831 35.0187 543.27 35.4807 543.587 36.078C543.905 36.666 544.063 37.352 544.063 38.136C544.063 38.9107 543.905 39.6013 543.587 40.208C543.27 40.8147 542.831 41.286 542.271 41.622C541.721 41.958 541.105 42.126 540.423 42.126C539.77 42.126 539.191 41.9813 538.687 41.692C538.193 41.3933 537.815 41.0247 537.553 40.586V45.64H536.279V34.328H537.553V35.742ZM542.761 38.136C542.761 37.5573 542.645 37.0533 542.411 36.624C542.178 36.1947 541.861 35.868 541.459 35.644C541.067 35.42 540.633 35.308 540.157 35.308C539.691 35.308 539.257 35.4247 538.855 35.658C538.463 35.882 538.146 36.2133 537.903 36.652C537.67 37.0813 537.553 37.5807 537.553 38.15C537.553 38.7287 537.67 39.2373 537.903 39.676C538.146 40.1053 538.463 40.4367 538.855 40.67C539.257 40.894 539.691 41.006 540.157 41.006C540.633 41.006 541.067 40.894 541.459 40.67C541.861 40.4367 542.178 40.1053 542.411 39.676C542.645 39.2373 542.761 38.724 542.761 38.136ZM550.747 35.756C551.008 35.2987 551.391 34.9253 551.895 34.636C552.399 34.3467 552.973 34.202 553.617 34.202C554.307 34.202 554.928 34.3653 555.479 34.692C556.029 35.0187 556.463 35.4807 556.781 36.078C557.098 36.666 557.257 37.352 557.257 38.136C557.257 38.9107 557.098 39.6013 556.781 40.208C556.463 40.8147 556.025 41.286 555.465 41.622C554.914 41.958 554.298 42.126 553.617 42.126C552.954 42.126 552.371 41.9813 551.867 41.692C551.372 41.4027 550.999 41.034 550.747 40.586V42H549.473V31.64H550.747V35.756ZM555.955 38.136C555.955 37.5573 555.838 37.0533 555.605 36.624C555.371 36.1947 555.054 35.868 554.653 35.644C554.261 35.42 553.827 35.308 553.351 35.308C552.884 35.308 552.45 35.4247 552.049 35.658C551.657 35.882 551.339 36.2133 551.097 36.652C550.863 37.0813 550.747 37.5807 550.747 38.15C550.747 38.7287 550.863 39.2373 551.097 39.676C551.339 40.1053 551.657 40.4367 552.049 40.67C552.45 40.894 552.884 41.006 553.351 41.006C553.827 41.006 554.261 40.894 554.653 40.67C555.054 40.4367 555.371 40.1053 555.605 39.676C555.838 39.2373 555.955 38.724 555.955 38.136ZM565.541 34.328L560.921 45.612H559.605L561.117 41.916L558.023 34.328H559.437L561.845 40.544L564.225 34.328H565.541Z" fill="#9A9CAA"/>
<path d="M571.633 40.894H576.393V42H570.121V40.992L574.853 33.348H570.177V32.242H576.365V33.25L571.633 40.894ZM577.653 38.136C577.653 37.352 577.811 36.666 578.129 36.078C578.446 35.4807 578.88 35.0187 579.431 34.692C579.991 34.3653 580.611 34.202 581.293 34.202C581.965 34.202 582.548 34.3467 583.043 34.636C583.537 34.9253 583.906 35.2893 584.149 35.728V34.328H585.437V42H584.149V40.572C583.897 41.02 583.519 41.3933 583.015 41.692C582.52 41.9813 581.941 42.126 581.279 42.126C580.597 42.126 579.981 41.958 579.431 41.622C578.88 41.286 578.446 40.8147 578.129 40.208C577.811 39.6013 577.653 38.9107 577.653 38.136ZM584.149 38.15C584.149 37.5713 584.032 37.0673 583.799 36.638C583.565 36.2087 583.248 35.882 582.847 35.658C582.455 35.4247 582.021 35.308 581.545 35.308C581.069 35.308 580.635 35.42 580.243 35.644C579.851 35.868 579.538 36.1947 579.305 36.624C579.071 37.0533 578.955 37.5573 578.955 38.136C578.955 38.724 579.071 39.2373 579.305 39.676C579.538 40.1053 579.851 40.4367 580.243 40.67C580.635 40.894 581.069 41.006 581.545 41.006C582.021 41.006 582.455 40.894 582.847 40.67C583.248 40.4367 583.565 40.1053 583.799 39.676C584.032 39.2373 584.149 38.7287 584.149 38.15ZM591.874 42L588.864 38.612V42H587.59V31.64H588.864V37.73L591.818 34.328H593.596L589.984 38.15L593.61 42H591.874ZM595.453 33.082C595.21 33.082 595.005 32.998 594.837 32.83C594.669 32.662 594.585 32.4567 594.585 32.214C594.585 31.9713 594.669 31.766 594.837 31.598C595.005 31.43 595.21 31.346 595.453 31.346C595.686 31.346 595.882 31.43 596.041 31.598C596.209 31.766 596.293 31.9713 596.293 32.214C596.293 32.4567 596.209 32.662 596.041 32.83C595.882 32.998 595.686 33.082 595.453 33.082ZM596.069 34.328V42H594.795V34.328H596.069ZM599.514 35.574C599.738 35.1353 600.055 34.7947 600.466 34.552C600.886 34.3093 601.395 34.188 601.992 34.188V35.504H601.656C600.228 35.504 599.514 36.2787 599.514 37.828V42H598.24V34.328H599.514V35.574ZM606.179 42.126C605.591 42.126 605.063 42.028 604.597 41.832C604.13 41.6267 603.761 41.3467 603.491 40.992C603.22 40.628 603.071 40.2127 603.043 39.746H604.359C604.396 40.1287 604.573 40.4413 604.891 40.684C605.217 40.9267 605.642 41.048 606.165 41.048C606.65 41.048 607.033 40.9407 607.313 40.726C607.593 40.5113 607.733 40.2407 607.733 39.914C607.733 39.578 607.583 39.3307 607.285 39.172C606.986 39.004 606.524 38.8407 605.899 38.682C605.329 38.5327 604.863 38.3833 604.499 38.234C604.144 38.0753 603.836 37.8467 603.575 37.548C603.323 37.24 603.197 36.8387 603.197 36.344C603.197 35.952 603.313 35.5927 603.547 35.266C603.78 34.9393 604.111 34.6827 604.541 34.496C604.97 34.3 605.46 34.202 606.011 34.202C606.86 34.202 607.546 34.4167 608.069 34.846C608.591 35.2753 608.871 35.8633 608.909 36.61H607.635C607.607 36.2087 607.443 35.8867 607.145 35.644C606.855 35.4013 606.463 35.28 605.969 35.28C605.511 35.28 605.147 35.378 604.877 35.574C604.606 35.77 604.471 36.0267 604.471 36.344C604.471 36.596 604.55 36.806 604.709 36.974C604.877 37.1327 605.082 37.2633 605.325 37.366C605.577 37.4593 605.922 37.5667 606.361 37.688C606.911 37.8373 607.359 37.9867 607.705 38.136C608.05 38.276 608.344 38.4907 608.587 38.78C608.839 39.0693 608.969 39.4473 608.979 39.914C608.979 40.334 608.862 40.712 608.629 41.048C608.395 41.384 608.064 41.65 607.635 41.846C607.215 42.0327 606.729 42.126 606.179 42.126ZM614.123 42.126C613.405 42.126 612.751 41.9627 612.163 41.636C611.585 41.3093 611.127 40.8473 610.791 40.25C610.465 39.6433 610.301 38.9433 610.301 38.15C610.301 37.366 610.469 36.6753 610.805 36.078C611.151 35.4713 611.617 35.0093 612.205 34.692C612.793 34.3653 613.451 34.202 614.179 34.202C614.907 34.202 615.565 34.3653 616.153 34.692C616.741 35.0093 617.203 35.4667 617.539 36.064C617.885 36.6613 618.057 37.3567 618.057 38.15C618.057 38.9433 617.88 39.6433 617.525 40.25C617.18 40.8473 616.709 41.3093 616.111 41.636C615.514 41.9627 614.851 42.126 614.123 42.126ZM614.123 41.006C614.581 41.006 615.01 40.8987 615.411 40.684C615.813 40.4693 616.135 40.1473 616.377 39.718C616.629 39.2887 616.755 38.766 616.755 38.15C616.755 37.534 616.634 37.0113 616.391 36.582C616.149 36.1527 615.831 35.8353 615.439 35.63C615.047 35.4153 614.623 35.308 614.165 35.308C613.699 35.308 613.269 35.4153 612.877 35.63C612.495 35.8353 612.187 36.1527 611.953 36.582C611.72 37.0113 611.603 37.534 611.603 38.15C611.603 38.7753 611.715 39.3027 611.939 39.732C612.173 40.1613 612.481 40.4833 612.863 40.698C613.246 40.9033 613.666 41.006 614.123 41.006ZM622.854 35.378H621.244V42H619.97V35.378H618.976V34.328H619.97V33.782C619.97 32.9233 620.19 32.298 620.628 31.906C621.076 31.5047 621.79 31.304 622.77 31.304V32.368C622.21 32.368 621.814 32.48 621.58 32.704C621.356 32.9187 621.244 33.278 621.244 33.782V34.328H622.854V35.378ZM625.894 35.378V39.9C625.894 40.2733 625.973 40.5393 626.132 40.698C626.29 40.8473 626.566 40.922 626.958 40.922H627.896V42H626.748C626.038 42 625.506 41.8367 625.152 41.51C624.797 41.1833 624.62 40.6467 624.62 39.9V35.378H623.626V34.328H624.62V32.396H625.894V34.328H627.896V35.378H625.894Z" fill="#272343"/>
<g opacity="0.5">
<path d="M1416.65 44.3936V43.9617H1416.54L1416.41 44.2581L1416.28 43.9617H1416.17V44.3936H1416.25V44.0682L1416.37 44.349H1416.45L1416.57 44.0675V44.3936H1416.65H1416.65ZM1415.94 44.3936V44.0356H1416.08V43.9628H1415.71V44.0356H1415.86V44.3936H1415.94H1415.94Z" fill="#F79410"/>
<path d="M1403.87 46.2465H1394.13V28.7527H1403.87L1403.87 46.2465Z" fill="#FF5F00"/>
<path d="M1394.75 37.4999C1394.75 33.9513 1396.41 30.7902 1399 28.753C1397.04 27.2087 1394.62 26.3706 1392.12 26.3743C1385.98 26.3743 1381 31.3553 1381 37.4999C1381 43.6446 1385.98 48.6256 1392.12 48.6256C1394.62 48.6293 1397.04 47.7912 1399 46.2469C1396.41 44.2101 1394.75 41.0487 1394.75 37.4999Z" fill="#EB001B"/>
<path d="M1417 37.4999C1417 43.6446 1412.02 48.6256 1405.88 48.6256C1403.38 48.6293 1400.96 47.7911 1399 46.2469C1401.59 44.2097 1403.25 41.0487 1403.25 37.4999C1403.25 33.9512 1401.59 30.7902 1399 28.753C1400.96 27.2088 1403.38 26.3707 1405.88 26.3743C1412.02 26.3743 1417 31.3553 1417 37.4999" fill="#F79E1B"/>
<path d="M1433.72 30.0396H1429.36C1429.22 30.0395 1429.08 30.0909 1428.97 30.1845C1428.86 30.2782 1428.79 30.4079 1428.77 30.5503L1427 41.7197C1427 41.7715 1427 41.8245 1427.01 41.8749C1427.03 41.9254 1427.05 41.9721 1427.09 42.012C1427.12 42.0518 1427.16 42.0838 1427.21 42.1056C1427.26 42.1275 1427.31 42.1388 1427.36 42.1387H1429.44C1429.59 42.1388 1429.73 42.0873 1429.84 41.9935C1429.95 41.8998 1430.02 41.7699 1430.04 41.6273L1430.52 38.6148C1430.54 38.4723 1430.61 38.3425 1430.72 38.2488C1430.83 38.155 1430.97 38.1034 1431.11 38.1033H1432.49C1435.36 38.1033 1437.02 36.7149 1437.45 33.9635C1437.65 32.7598 1437.46 31.814 1436.89 31.1516C1436.28 30.4242 1435.18 30.0396 1433.72 30.0396ZM1434.22 34.1189C1433.98 35.6819 1432.79 35.6819 1431.64 35.6819H1430.98L1431.44 32.7629C1431.45 32.6775 1431.5 32.5998 1431.56 32.5436C1431.63 32.4874 1431.71 32.4566 1431.8 32.4566H1432.1C1432.89 32.4566 1433.63 32.4566 1434.01 32.905C1434.24 33.1725 1434.31 33.5699 1434.22 34.1189ZM1446.74 34.0686H1444.65C1444.57 34.0686 1444.48 34.0994 1444.42 34.1556C1444.35 34.2118 1444.31 34.2895 1444.3 34.3749L1444.2 34.9583L1444.06 34.7469C1443.61 34.0915 1442.6 33.8724 1441.59 33.8724C1439.29 33.8724 1437.32 35.6182 1436.94 38.067C1436.74 39.2886 1437.02 40.4567 1437.71 41.2713C1438.35 42.0203 1439.26 42.3324 1440.34 42.3324C1442.2 42.3324 1443.23 41.1382 1443.23 41.1382L1443.14 41.7178C1443.13 41.7696 1443.13 41.8226 1443.14 41.8731C1443.16 41.9236 1443.18 41.9705 1443.22 42.0104C1443.25 42.0504 1443.29 42.0825 1443.34 42.1045C1443.39 42.1266 1443.44 42.138 1443.49 42.1381H1445.37C1445.52 42.1382 1445.66 42.0867 1445.77 41.9929C1445.88 41.8991 1445.95 41.7692 1445.97 41.6267L1447.1 34.4877C1447.11 34.436 1447.1 34.3831 1447.09 34.3327C1447.07 34.2822 1447.05 34.2355 1447.02 34.1956C1446.98 34.1558 1446.94 34.1238 1446.89 34.1019C1446.84 34.0799 1446.79 34.0686 1446.74 34.0686ZM1443.83 38.1282C1443.63 39.3198 1442.69 40.1198 1441.48 40.1198C1440.87 40.1198 1440.39 39.9255 1440.08 39.5574C1439.77 39.1918 1439.65 38.6715 1439.75 38.0919C1439.94 36.9104 1440.9 36.0844 1442.09 36.0844C1442.68 36.0844 1443.16 36.2812 1443.48 36.6525C1443.8 37.0276 1443.92 37.5512 1443.83 38.1282ZM1457.85 34.0686H1455.75C1455.65 34.0687 1455.56 34.093 1455.47 34.1393C1455.38 34.1856 1455.31 34.2525 1455.25 34.3342L1452.36 38.5925L1451.14 34.5004C1451.1 34.3756 1451.02 34.2662 1450.92 34.1884C1450.81 34.1107 1450.68 34.0686 1450.55 34.0686H1448.49C1448.44 34.0684 1448.38 34.0821 1448.33 34.1084C1448.28 34.1348 1448.23 34.173 1448.2 34.22C1448.17 34.267 1448.14 34.3213 1448.13 34.3785C1448.13 34.4357 1448.13 34.4941 1448.15 34.5488L1450.46 41.3242L1448.29 44.3883C1448.25 44.4426 1448.23 44.5065 1448.22 44.573C1448.22 44.6394 1448.23 44.7059 1448.26 44.7651C1448.29 44.8243 1448.34 44.8739 1448.4 44.9086C1448.45 44.9432 1448.52 44.9615 1448.58 44.9615H1450.68C1450.78 44.9616 1450.87 44.9381 1450.96 44.8928C1451.05 44.8475 1451.12 44.7819 1451.18 44.7016L1458.15 34.6386C1458.18 34.5842 1458.21 34.5204 1458.21 34.4543C1458.22 34.3881 1458.2 34.3221 1458.17 34.2634C1458.14 34.2047 1458.09 34.1555 1458.04 34.1211C1457.98 34.0868 1457.92 34.0686 1457.85 34.0686Z" fill="#253B80"/>
<path d="M1464.79 30.0392H1460.43C1460.29 30.0393 1460.15 30.0908 1460.04 30.1844C1459.93 30.278 1459.86 30.4077 1459.83 30.55L1458.07 41.7193C1458.06 41.7711 1458.07 41.824 1458.08 41.8744C1458.1 41.9248 1458.12 41.9715 1458.16 42.0114C1458.19 42.0512 1458.23 42.0832 1458.28 42.1051C1458.33 42.1271 1458.38 42.1384 1458.43 42.1384H1460.67C1460.77 42.1383 1460.86 42.1021 1460.94 42.0365C1461.02 41.9709 1461.07 41.8801 1461.08 41.7805L1461.58 38.6144C1461.61 38.472 1461.68 38.3422 1461.79 38.2484C1461.9 38.1547 1462.04 38.1031 1462.18 38.103H1463.56C1466.43 38.103 1468.09 36.7146 1468.52 33.9632C1468.71 32.7594 1468.53 31.8136 1467.96 31.1512C1467.34 30.4239 1466.25 30.0392 1464.79 30.0392ZM1465.29 34.1186C1465.05 35.6815 1463.86 35.6815 1462.7 35.6815H1462.05L1462.51 32.7626C1462.52 32.6772 1462.57 32.5994 1462.63 32.5432C1462.7 32.487 1462.78 32.4561 1462.87 32.4562H1463.17C1463.95 32.4562 1464.7 32.4562 1465.08 32.9046C1465.31 33.1721 1465.38 33.5696 1465.29 34.1186ZM1477.81 34.0682H1475.72C1475.64 34.068 1475.55 34.0988 1475.49 34.155C1475.42 34.2112 1475.38 34.2891 1475.37 34.3746L1475.27 34.958L1475.13 34.7465C1474.68 34.0912 1473.67 33.8721 1472.66 33.8721C1470.36 33.8721 1468.39 35.6178 1468.01 38.0667C1467.81 39.2883 1468.09 40.4564 1468.78 41.271C1469.42 42.0199 1470.33 42.332 1471.41 42.332C1473.27 42.332 1474.3 41.1378 1474.3 41.1378L1474.21 41.7174C1474.2 41.7693 1474.2 41.8225 1474.21 41.8731C1474.23 41.9237 1474.25 41.9706 1474.29 42.0106C1474.32 42.0506 1474.36 42.0826 1474.41 42.1046C1474.46 42.1266 1474.51 42.1379 1474.56 42.1378H1476.44C1476.59 42.1377 1476.73 42.0861 1476.84 41.9923C1476.95 41.8986 1477.02 41.7688 1477.04 41.6263L1478.17 34.4873C1478.18 34.4355 1478.17 34.3825 1478.16 34.332C1478.14 34.2816 1478.12 34.2348 1478.08 34.195C1478.05 34.1552 1478.01 34.1232 1477.96 34.1014C1477.91 34.0795 1477.86 34.0682 1477.81 34.0682ZM1474.9 38.1278C1474.7 39.3195 1473.75 40.1194 1472.55 40.1194C1471.94 40.1194 1471.46 39.9252 1471.15 39.5571C1470.84 39.1915 1470.72 38.6711 1470.82 38.0915C1471.01 36.9101 1471.97 36.084 1473.16 36.084C1473.75 36.084 1474.23 36.2808 1474.55 36.6521C1474.87 37.0273 1474.99 37.5508 1474.9 38.1278ZM1480.27 30.3456L1478.48 41.7193C1478.47 41.7711 1478.47 41.824 1478.49 41.8744C1478.5 41.9248 1478.53 41.9715 1478.56 42.0114C1478.6 42.0512 1478.64 42.0832 1478.69 42.1051C1478.73 42.1271 1478.78 42.1384 1478.84 42.1384H1480.63C1480.93 42.1384 1481.19 41.9219 1481.23 41.627L1483 30.4583C1483 30.4065 1483 30.3536 1482.99 30.3031C1482.97 30.2527 1482.95 30.2059 1482.91 30.166C1482.88 30.1262 1482.84 30.0941 1482.79 30.0721C1482.74 30.0501 1482.69 30.0387 1482.64 30.0386H1480.63C1480.54 30.0389 1480.46 30.0699 1480.39 30.1262C1480.32 30.1824 1480.28 30.2602 1480.27 30.3456Z" fill="#179BD7"/>
<path fill-rule="evenodd" clip-rule="evenodd" d="M1543 44.094C1543 45.3506 1542.21 45.9363 1540.79 45.9363H1538.09V44.6797H1540.79C1541.04 44.6797 1541.25 44.6381 1541.34 44.5546C1541.42 44.4705 1541.5 44.3448 1541.5 44.1775C1541.5 44.0096 1541.42 43.8423 1541.34 43.7589C1541.25 43.6748 1541.09 43.6332 1540.84 43.6332C1539.55 43.591 1537.92 43.6748 1537.92 41.8322C1537.92 40.9943 1538.46 40.0728 1539.92 40.0728H1542.71V41.3294H1540.13C1539.88 41.3294 1539.71 41.3294 1539.59 41.4129C1539.46 41.5386 1539.38 41.6643 1539.38 41.8738C1539.38 42.0833 1539.5 42.209 1539.67 42.2931C1539.84 42.3347 1540 42.3766 1540.21 42.3766H1540.96C1541.75 42.3766 1542.25 42.5438 1542.58 42.8374C1542.83 43.1304 1543 43.5078 1543 44.094ZM1537.13 42.8374C1536.8 42.5438 1536.3 42.3766 1535.51 42.3766H1534.76C1534.55 42.3766 1534.38 42.3344 1534.22 42.2931C1534.05 42.209 1533.92 42.0833 1533.92 41.8738C1533.92 41.6643 1533.97 41.5386 1534.13 41.4129C1534.26 41.3294 1534.42 41.3294 1534.67 41.3294H1537.25V40.0728H1534.47C1532.97 40.0728 1532.47 40.9943 1532.47 41.8322C1532.47 43.6745 1534.09 43.591 1535.38 43.6332C1535.63 43.6332 1535.8 43.6748 1535.88 43.7589C1535.96 43.8423 1536.05 44.0096 1536.05 44.1775C1536.05 44.3448 1535.96 44.4705 1535.88 44.5546C1535.76 44.6381 1535.59 44.6797 1535.34 44.6797H1532.63V45.9363H1535.34C1536.75 45.9363 1537.55 45.3503 1537.55 44.094C1537.55 43.5078 1537.38 43.1304 1537.13 42.8374ZM1531.8 44.7222H1528.51V43.5494H1531.72V42.3772H1528.51V41.2878H1531.8V40.0734H1527.14V45.9366H1531.8V44.7222ZM1525.64 40.3667C1525.18 40.1153 1524.64 40.0731 1523.93 40.0731H1520.73V45.9363H1522.14V43.8004H1523.64C1524.14 43.8004 1524.43 43.8426 1524.64 44.0518C1524.89 44.3448 1524.89 44.8476 1524.89 45.2246V45.9363H1526.26V44.8054C1526.26 44.261 1526.22 44.0096 1526.06 43.7167C1525.93 43.5488 1525.68 43.3396 1525.35 43.2139C1525.72 43.0888 1526.35 42.586 1526.35 41.6643C1526.35 40.9946 1526.1 40.6175 1525.64 40.3667ZM1517.73 40.0731H1513.27L1511.48 41.9998L1509.78 40.0731H1504.16V45.9363H1509.69L1511.48 44.0096L1513.19 45.9363H1515.9V43.9683H1517.65C1518.85 43.9683 1520.06 43.6332 1520.06 41.9998C1520.06 40.4083 1518.81 40.0731 1517.73 40.0731ZM1524.52 42.5026C1524.31 42.586 1524.1 42.586 1523.85 42.586L1522.14 42.6282V41.2875H1523.85C1524.1 41.2875 1524.35 41.2875 1524.52 41.4132C1524.68 41.4973 1524.81 41.6646 1524.81 41.916C1524.81 42.1674 1524.68 42.3769 1524.52 42.5026ZM1517.73 42.7955H1515.9V41.2875H1517.73C1518.23 41.2875 1518.56 41.4973 1518.56 41.9998C1518.56 42.5026 1518.23 42.7955 1517.73 42.7955ZM1512.36 43.0047L1514.52 40.7016V45.4341L1512.36 43.0047ZM1508.99 44.7222H1505.53V43.5494H1508.61V42.3772H1505.53V41.2878H1509.03L1510.57 43.005L1508.99 44.7222ZM1539.13 35.8431H1537.13L1534.51 31.4454V35.8431H1531.68L1531.13 34.5446H1528.22L1527.68 35.8431H1526.06C1525.39 35.8431 1524.52 35.6755 1524.02 35.1727C1523.56 34.6703 1523.31 34.0002 1523.31 32.9531C1523.31 32.0736 1523.43 31.2778 1524.06 30.6497C1524.47 30.1888 1525.22 29.9796 1526.18 29.9796H1527.51V31.2362H1526.18C1525.68 31.2362 1525.39 31.32 1525.1 31.5714C1524.85 31.8228 1524.72 32.2834 1524.72 32.9115C1524.72 33.5397 1524.85 34.0005 1525.1 34.2938C1525.31 34.503 1525.68 34.5868 1526.06 34.5868H1526.68L1528.68 29.9799H1530.76L1533.09 35.5082V29.9796H1535.26L1537.71 34.0421V29.9796H1539.13V35.8431H1539.13ZM1522.6 29.9796H1521.19V35.8431H1522.6V29.9796ZM1519.64 30.231C1519.19 29.9796 1518.69 29.9796 1517.98 29.9796H1514.77V35.8431H1516.15V33.7069H1517.65C1518.15 33.7069 1518.48 33.7488 1518.69 33.9583C1518.94 34.2516 1518.89 34.7544 1518.89 35.0892V35.8431H1520.31V34.6703C1520.31 34.1678 1520.27 33.9164 1520.06 33.6231C1519.94 33.4556 1519.69 33.2461 1519.39 33.1207C1519.77 32.9531 1520.39 32.4925 1520.39 31.5711C1520.39 30.9011 1520.1 30.524 1519.64 30.231ZM1513.77 34.6287H1510.53V33.4559H1513.73V32.2415H1510.53V31.1943H1513.77V29.9799H1509.11V35.8434H1513.77V34.6287ZM1508.07 29.9796H1505.78L1504.07 33.9583L1502.24 29.9796H1499.99V35.5079L1497.62 29.9796H1495.54L1493.04 35.8431H1494.54L1495.08 34.5446H1498L1498.54 35.8431H1501.37V31.2362L1503.41 35.8431H1504.62L1506.66 31.2362V35.8431H1508.07V29.9796H1508.07ZM1530.64 33.2883L1529.68 30.9849L1528.72 33.2883H1530.64ZM1518.56 32.3671C1518.35 32.4928 1518.15 32.4928 1517.85 32.4928H1516.15V31.1946H1517.85C1518.1 31.1946 1518.4 31.1946 1518.56 31.2784C1518.73 31.4041 1518.81 31.5717 1518.81 31.8228C1518.81 32.0739 1518.73 32.2831 1518.56 32.3671ZM1495.58 33.2883L1496.54 30.9849L1497.5 33.2883H1495.58ZM1542.67 24H1493V32.702L1494.71 28.8071H1498.33L1498.83 29.7705V28.8071H1503.07L1504.03 30.9011L1504.95 28.8071H1518.48C1519.1 28.8071 1519.64 28.9328 1520.06 29.2677V28.8071H1523.77V29.2677C1524.39 28.9325 1525.18 28.8071 1526.1 28.8071H1531.47L1531.97 29.7705V28.8071H1535.92L1536.51 29.7705V28.8071H1540.38V37.0159H1536.46L1535.71 35.7596V37.0159H1530.84L1530.3 35.6758H1529.09L1528.55 37.0159H1526.01C1525.02 37.0159 1524.27 36.7645 1523.77 36.5134V37.0159H1517.73V35.1311C1517.73 34.8797 1517.69 34.8379 1517.52 34.8379H1517.31V37.0156H1505.66V35.9685L1505.24 37.0156H1502.78L1502.37 36.0104V37.0156H1497.66L1497.16 35.6755H1495.96L1495.41 37.0156H1493V51H1542.67V46.732C1542.13 46.9834 1541.38 47.1091 1540.63 47.1091H1537V46.6063C1536.59 46.9418 1535.84 47.1091 1535.13 47.1091H1523.72V45.2246C1523.72 44.9733 1523.68 44.9733 1523.47 44.9733H1523.27V47.1091H1519.52V44.8895C1518.9 45.1824 1518.19 45.1824 1517.56 45.1824H1517.15V47.1091H1512.57L1511.48 45.8525L1510.28 47.1091H1502.91V38.9006H1510.4L1511.48 40.1566L1512.65 38.9006H1517.69C1518.27 38.9006 1519.23 38.9841 1519.64 39.4028V38.9006H1524.14C1524.6 38.9006 1525.47 38.9841 1526.06 39.4028V38.9006H1532.84V39.4031C1533.22 39.0679 1533.92 38.9009 1534.55 38.9009H1538.34V39.4031C1538.75 39.1101 1539.34 38.9009 1540.09 38.9009H1542.67V24Z" fill="#9A9CAA"/>
<path fill-rule="evenodd" clip-rule="evenodd" d="M1572.36 46.1241H1576.84L1579.65 28.8864H1575.16L1572.36 46.1241ZM1564.3 40.7426L1568.58 28.8864H1573.41L1566.27 46.1246H1561.59L1557.69 31.1485C1555.16 29.6283 1553 29.1783 1553 29.1783L1553 29.1778C1553 29.1778 1553 29.1778 1553 29.1778L1553.08 28.8859H1560.16C1562.1 28.8859 1562.29 30.438 1562.29 30.438L1563.8 38.19C1563.8 38.19 1563.8 38.1898 1563.8 38.1893L1563.8 38.1905L1563.79 38.1895L1564.3 40.7426ZM1608 46.1241H1603.88L1603.35 43.5637H1597.65L1596.71 46.1241H1592.03L1598.73 30.1705C1598.73 30.1705 1599.13 28.8859 1600.8 28.8859H1604.41L1608 46.1241ZM1601.3 33.5758L1598.94 40.0266H1602.63L1601.3 33.5758ZM1593.03 29.33L1592.39 33.0317C1590.46 31.9734 1586.09 31.7231 1586.09 33.6721C1586.09 34.4464 1587.08 34.979 1588.27 35.6208C1590.08 36.5942 1592.36 37.819 1592.36 40.5199C1592.36 44.8358 1587.74 46.4216 1584.67 46.4216C1581.61 46.4216 1579.61 45.4482 1579.61 45.4482L1580.28 41.5777C1582.11 43.0528 1587.68 43.4719 1587.68 41.1327C1587.68 40.1498 1586.58 39.5701 1585.31 38.898C1583.56 37.9705 1581.47 36.8669 1581.47 34.2849C1581.47 29.5518 1586.76 28.5784 1588.99 28.5784C1591.05 28.5784 1593.03 29.33 1593.03 29.33Z" fill="#E6A540"/>
</g>
<g style="mix-blend-mode:color">
<rect x="1381" y="24" width="227" height="27" fill="black"/>
</g>
</g>
<defs>
<filter id="filter0_i_1_594" x="-12" y="0" width="1920" height="75" filterUnits="userSpaceOnUse" color-interpolation-filters="sRGB">
<feFlood flood-opacity="0" result="BackgroundImageFix"/>
<feBlend mode="normal" in="SourceGraphic" in2="BackgroundImageFix" result="shape"/>
<feColorMatrix in="SourceAlpha" type="matrix" values="0 0 0 0 0 0 0 0 0 0 0 0 0 0 0 0 0 0 127 0" result="hardAlpha"/>
<feOffset dy="1"/>
<feComposite in2="hardAlpha" operator="arithmetic" k2="-1" k3="1"/>
<feColorMatrix type="matrix" values="0 0 0 0 0.882 0 0 0 0 0.891 0 0 0 0 0.9 0 0 0 1 0"/>
<feBlend mode="normal" in2="shape" result="effect1_innerShadow_1_594"/>
</filter>
</defs>
</svg>
