<svg width="351" height="295" viewBox="0 0 351 295" fill="none" xmlns="http://www.w3.org/2000/svg">
<path d="M18.0078 11.7393C17.9283 11.0334 17.6001 10.4865 17.0234 10.0987C16.4467 9.70597 15.7209 9.50959 14.8459 9.50959C14.2195 9.50959 13.6776 9.60902 13.2202 9.80788C12.7628 10.0018 12.4073 10.2702 12.1538 10.6133C11.9052 10.9513 11.7809 11.3366 11.7809 11.7692C11.7809 12.1321 11.8654 12.4453 12.0344 12.7088C12.2085 12.9723 12.4347 13.1935 12.7131 13.3725C12.9964 13.5465 13.2997 13.6932 13.6229 13.8125C13.946 13.9268 14.2567 14.0213 14.555 14.0959L16.0465 14.4837C16.5337 14.603 17.0334 14.7646 17.5455 14.9684C18.0575 15.1722 18.5323 15.4407 18.9698 15.7738C19.4073 16.1069 19.7603 16.5195 20.0288 17.0117C20.3022 17.5039 20.4389 18.093 20.4389 18.7791C20.4389 19.6442 20.2152 20.4123 19.7678 21.0835C19.3253 21.7546 18.6815 22.2841 17.8363 22.6719C16.9961 23.0597 15.9794 23.2536 14.7862 23.2536C13.6428 23.2536 12.6534 23.0721 11.8182 22.7092C10.983 22.3462 10.3292 21.8317 9.85689 21.1655C9.38459 20.4943 9.12358 19.6989 9.07386 18.7791H11.3857C11.4304 19.331 11.6094 19.7908 11.9226 20.1587C12.2408 20.5217 12.646 20.7926 13.1381 20.9716C13.6353 21.1456 14.1797 21.2326 14.7713 21.2326C15.4226 21.2326 16.0018 21.1307 16.5089 20.9268C17.021 20.718 17.4237 20.4297 17.717 20.0618C18.0103 19.6889 18.157 19.2539 18.157 18.7567C18.157 18.3043 18.0277 17.9339 17.7692 17.6456C17.5156 17.3572 17.1701 17.1186 16.7326 16.9297C16.3001 16.7408 15.8104 16.5742 15.2635 16.43L13.4588 15.9379C12.2358 15.6048 11.2663 15.1151 10.5504 14.4688C9.83949 13.8224 9.48402 12.9673 9.48402 11.9034C9.48402 11.0234 9.72266 10.2553 10.1999 9.59908C10.6772 8.94283 11.3235 8.43324 12.1388 8.07031C12.9542 7.70241 13.8739 7.51847 14.8981 7.51847C15.9322 7.51847 16.8445 7.69993 17.6349 8.06285C18.4304 8.42578 19.0568 8.92543 19.5142 9.56179C19.9716 10.1932 20.2102 10.919 20.2301 11.7393H18.0078ZM30.2696 18.2496V11.5455H32.5068V23H30.3144V21.0163H30.195C29.9316 21.6278 29.509 22.1374 28.9273 22.5451C28.3506 22.9478 27.6322 23.1491 26.7721 23.1491C26.0363 23.1491 25.385 22.9876 24.8183 22.6644C24.2565 22.3363 23.814 21.8516 23.4909 21.2102C23.1727 20.5689 23.0136 19.7759 23.0136 18.8313V11.5455H25.2433V18.5629C25.2433 19.3434 25.4596 19.9648 25.8921 20.4272C26.3247 20.8896 26.8865 21.1207 27.5775 21.1207C27.9951 21.1207 28.4102 21.0163 28.8229 20.8075C29.2405 20.5987 29.586 20.283 29.8595 19.8604C30.1379 19.4379 30.2746 18.9009 30.2696 18.2496ZM35.5028 23V11.5455H37.6431V13.4098H37.7848C38.0234 12.7784 38.4137 12.2862 38.9556 11.9332C39.4975 11.5753 40.1463 11.3963 40.902 11.3963C41.6676 11.3963 42.3089 11.5753 42.826 11.9332C43.348 12.2912 43.7333 12.7834 43.9819 13.4098H44.1012C44.3746 12.7983 44.8097 12.3111 45.4062 11.9482C46.0028 11.5803 46.7138 11.3963 47.5391 11.3963C48.5781 11.3963 49.4258 11.7219 50.082 12.3732C50.7433 13.0245 51.0739 14.0064 51.0739 15.3189V23H48.8441V15.5277C48.8441 14.7521 48.6328 14.1903 48.2102 13.8423C47.7876 13.4943 47.283 13.3203 46.6964 13.3203C45.9705 13.3203 45.4062 13.544 45.0036 13.9915C44.6009 14.4339 44.3995 15.0032 44.3995 15.6992V23H42.1772V15.386C42.1772 14.7646 41.9833 14.2649 41.5955 13.8871C41.2077 13.5092 40.7031 13.3203 40.0817 13.3203C39.6591 13.3203 39.2688 13.4322 38.9109 13.6559C38.5579 13.8746 38.272 14.1804 38.0533 14.5732C37.8395 14.9659 37.7326 15.4208 37.7326 15.9379V23H35.5028ZM54.0624 23V11.5455H56.2027V13.4098H56.3444C56.583 12.7784 56.9733 12.2862 57.5152 11.9332C58.0571 11.5753 58.7059 11.3963 59.4616 11.3963C60.2272 11.3963 60.8685 11.5753 61.3856 11.9332C61.9076 12.2912 62.2929 12.7834 62.5415 13.4098H62.6608C62.9342 12.7983 63.3692 12.3111 63.9658 11.9482C64.5624 11.5803 65.2733 11.3963 66.0986 11.3963C67.1377 11.3963 67.9854 11.7219 68.6416 12.3732C69.3028 13.0245 69.6334 14.0064 69.6334 15.3189V23H67.4037V15.5277C67.4037 14.7521 67.1924 14.1903 66.7698 13.8423C66.3472 13.4943 65.8426 13.3203 65.2559 13.3203C64.5301 13.3203 63.9658 13.544 63.5631 13.9915C63.1604 14.4339 62.9591 15.0032 62.9591 15.6992V23H60.7368V15.386C60.7368 14.7646 60.5429 14.2649 60.1551 13.8871C59.7673 13.5092 59.2627 13.3203 58.6412 13.3203C58.2187 13.3203 57.8284 13.4322 57.4704 13.6559C57.1175 13.8746 56.8316 14.1804 56.6128 14.5732C56.3991 14.9659 56.2922 15.4208 56.2922 15.9379V23H54.0624ZM75.9554 23.2536C75.2296 23.2536 74.5733 23.1193 73.9867 22.8509C73.4 22.5774 72.9352 22.1822 72.5922 21.6651C72.2541 21.1481 72.085 20.5142 72.085 19.7635C72.085 19.1172 72.2093 18.5852 72.4579 18.1676C72.7065 17.75 73.0421 17.4194 73.4647 17.1758C73.8873 16.9322 74.3596 16.7482 74.8816 16.6239C75.4036 16.4996 75.9355 16.4052 76.4775 16.3406C77.1635 16.261 77.7203 16.1964 78.1479 16.1467C78.5755 16.092 78.8862 16.005 79.0801 15.8857C79.274 15.7663 79.3709 15.5724 79.3709 15.304V15.2518C79.3709 14.6005 79.187 14.0959 78.8191 13.7379C78.4561 13.38 77.9142 13.201 77.1934 13.201C76.4426 13.201 75.851 13.3675 75.4185 13.7006C74.9909 14.0288 74.6951 14.3942 74.5311 14.7969L72.4355 14.3196C72.6841 13.6236 73.0471 13.0618 73.5243 12.6342C74.0066 12.2017 74.5609 11.8885 75.1873 11.6946C75.8137 11.4957 76.4725 11.3963 77.1635 11.3963C77.6209 11.3963 78.1056 11.451 78.6177 11.5604C79.1348 11.6648 79.617 11.8587 80.0645 12.142C80.5169 12.4254 80.8873 12.8306 81.1756 13.3576C81.464 13.8796 81.6081 14.5582 81.6081 15.3935V23H79.4306V21.4339H79.3411C79.1969 21.7223 78.9806 22.0057 78.6923 22.2841C78.4039 22.5625 78.0336 22.7937 77.5811 22.9776C77.1287 23.1616 76.5868 23.2536 75.9554 23.2536ZM76.4402 21.4638C77.0566 21.4638 77.5836 21.342 78.0211 21.0984C78.4636 20.8548 78.7992 20.5366 79.0279 20.1438C79.2615 19.7461 79.3784 19.321 79.3784 18.8686V17.392C79.2988 17.4716 79.1447 17.5462 78.916 17.6158C78.6923 17.6804 78.4363 17.7376 78.1479 17.7873C77.8596 17.832 77.5787 17.8743 77.3052 17.9141C77.0318 17.9489 76.8031 17.9787 76.6191 18.0036C76.1866 18.0582 75.7914 18.1502 75.4334 18.2795C75.0804 18.4087 74.7971 18.5952 74.5833 18.8388C74.3745 19.0774 74.2701 19.3956 74.2701 19.7933C74.2701 20.3452 74.4739 20.7628 74.8816 21.0462C75.2892 21.3246 75.8088 21.4638 76.4402 21.4638ZM84.578 23V11.5455H86.7332V13.3651H86.8525C87.0613 12.7486 87.4292 12.2638 87.9562 11.9109C88.4882 11.5529 89.0898 11.3739 89.7609 11.3739C89.9001 11.3739 90.0642 11.3789 90.2531 11.3888C90.447 11.3988 90.5986 11.4112 90.708 11.4261V13.5589C90.6185 13.5341 90.4594 13.5067 90.2307 13.4769C90.002 13.4421 89.7733 13.4247 89.5447 13.4247C89.0177 13.4247 88.5479 13.5366 88.1352 13.7603C87.7275 13.979 87.4044 14.2848 87.1657 14.6776C86.9271 15.0653 86.8078 15.5078 86.8078 16.005V23H84.578ZM94.3957 27.2955C94.0626 27.2955 93.7593 27.2681 93.4859 27.2134C93.2124 27.1637 93.0086 27.109 92.8744 27.0494L93.4113 25.2223C93.819 25.3317 94.1819 25.3789 94.5001 25.364C94.8183 25.3491 95.0992 25.2298 95.3428 25.006C95.5914 24.7823 95.8101 24.4169 95.999 23.9098L96.2749 23.1491L92.0839 11.5455H94.4703L97.3712 20.4347H97.4905L100.391 11.5455H102.785L98.0647 24.5288C97.846 25.1254 97.5676 25.63 97.2295 26.0426C96.8914 26.4602 96.4887 26.7734 96.0214 26.9822C95.5541 27.1911 95.0122 27.2955 94.3957 27.2955Z" fill="#111111"/>
<path d="M15.2869 67.8182C15.223 67.2784 14.9638 66.8594 14.5092 66.5611C14.0547 66.2628 13.4972 66.1136 12.8366 66.1136C12.3537 66.1136 11.9311 66.1918 11.5689 66.348C11.2102 66.5043 10.9297 66.7191 10.7273 66.9925C10.5284 67.266 10.429 67.5767 10.429 67.9247C10.429 68.2159 10.4982 68.4663 10.6367 68.6758C10.7788 68.8817 10.9599 69.054 11.18 69.1925C11.4002 69.3274 11.631 69.4393 11.8725 69.5281C12.114 69.6133 12.3359 69.6825 12.5384 69.7358L13.6463 70.0341C13.9304 70.1087 14.2464 70.2116 14.5945 70.343C14.946 70.4744 15.2816 70.6538 15.6012 70.881C15.9244 71.1048 16.1907 71.3924 16.4002 71.744C16.6097 72.0955 16.7145 72.527 16.7145 73.0384C16.7145 73.6278 16.56 74.1605 16.2511 74.6364C15.9457 75.1122 15.4982 75.4904 14.9087 75.771C14.3228 76.0515 13.6108 76.1918 12.7727 76.1918C11.9915 76.1918 11.315 76.0657 10.7433 75.8136C10.1751 75.5614 9.72763 75.2099 9.40092 74.7589C9.07777 74.3079 8.89489 73.7841 8.85227 73.1875H10.2159C10.2514 73.5994 10.3899 73.9403 10.6314 74.2102C10.8764 74.4766 11.1854 74.6754 11.5582 74.8068C11.9347 74.9347 12.3395 74.9986 12.7727 74.9986C13.277 74.9986 13.7298 74.9169 14.131 74.7536C14.5323 74.5866 14.8501 74.3558 15.0845 74.0611C15.3189 73.7628 15.4361 73.4148 15.4361 73.017C15.4361 72.6548 15.3349 72.3601 15.1325 72.1328C14.93 71.9055 14.6637 71.7209 14.3335 71.5788C14.0032 71.4368 13.6463 71.3125 13.2628 71.206L11.9205 70.8224C11.0682 70.5774 10.3935 70.2276 9.89631 69.7731C9.39915 69.3185 9.15057 68.7237 9.15057 67.9886C9.15057 67.3778 9.3157 66.8452 9.64595 66.3906C9.97976 65.9325 10.4272 65.5774 10.9883 65.3253C11.5529 65.0696 12.1832 64.9418 12.8793 64.9418C13.5824 64.9418 14.2074 65.0678 14.7543 65.32C15.3011 65.5685 15.7344 65.9094 16.054 66.3427C16.3771 66.7759 16.5476 67.2678 16.5653 67.8182H15.2869ZM23.8722 72.6548V67.8182H25.1294V76H23.8722V74.6151H23.787C23.5953 75.0305 23.297 75.3839 22.8921 75.6751C22.4873 75.9627 21.9759 76.1065 21.358 76.1065C20.8467 76.1065 20.3921 75.9947 19.9944 75.771C19.5967 75.5437 19.2842 75.2028 19.0569 74.7482C18.8296 74.2901 18.716 73.7131 18.716 73.017V67.8182H19.9731V72.9318C19.9731 73.5284 20.14 74.0043 20.4738 74.3594C20.8112 74.7145 21.2409 74.892 21.7629 74.892C22.0754 74.892 22.3932 74.8121 22.7164 74.6523C23.0431 74.4925 23.3165 74.2475 23.5367 73.9173C23.7604 73.587 23.8722 73.1662 23.8722 72.6548ZM27.6023 76V65.0909H28.8594V69.1179H28.9659C29.0582 68.9759 29.1861 68.7947 29.3494 68.5746C29.5163 68.3509 29.7543 68.152 30.0632 67.978C30.3757 67.8004 30.7983 67.7116 31.331 67.7116C32.0199 67.7116 32.6271 67.8839 33.1527 68.2283C33.6783 68.5728 34.0884 69.0611 34.3832 69.6932C34.6779 70.3253 34.8253 71.071 34.8253 71.9304C34.8253 72.7969 34.6779 73.5479 34.3832 74.1836C34.0884 74.8157 33.68 75.3058 33.158 75.6538C32.636 75.9982 32.0341 76.1705 31.3523 76.1705C30.8267 76.1705 30.4059 76.0835 30.0898 75.9094C29.7738 75.7319 29.5305 75.5312 29.3601 75.3075C29.1896 75.0803 29.0582 74.892 28.9659 74.7429H28.8168V76H27.6023ZM28.8381 71.9091C28.8381 72.527 28.9286 73.0721 29.1097 73.5444C29.2908 74.0131 29.5554 74.3807 29.9034 74.647C30.2514 74.9098 30.6776 75.0412 31.1818 75.0412C31.7074 75.0412 32.146 74.9027 32.4975 74.6257C32.8526 74.3452 33.119 73.9687 33.2965 73.4964C33.4776 73.0206 33.5682 72.4915 33.5682 71.9091C33.5682 71.3338 33.4794 70.8153 33.3018 70.3537C33.1278 69.8885 32.8633 69.521 32.5082 69.2511C32.1566 68.9776 31.7145 68.8409 31.1818 68.8409C30.6705 68.8409 30.2408 68.9705 29.8928 69.2298C29.5447 69.4854 29.282 69.8441 29.1044 70.3058C28.9268 70.7638 28.8381 71.2983 28.8381 71.9091ZM40.3065 67.8182V68.8835H36.0664V67.8182H40.3065ZM37.3022 65.858H38.5593V73.6562C38.5593 74.0114 38.6108 74.2777 38.7138 74.4553C38.8203 74.6293 38.9553 74.7464 39.1186 74.8068C39.2855 74.8636 39.4613 74.892 39.646 74.892C39.7844 74.892 39.8981 74.8849 39.9869 74.8707C40.0756 74.853 40.1467 74.8388 40.1999 74.8281L40.4556 75.9574C40.3704 75.9893 40.2514 76.0213 40.0987 76.0533C39.946 76.0888 39.7525 76.1065 39.5181 76.1065C39.163 76.1065 38.815 76.0302 38.4741 75.8775C38.1367 75.7248 37.8562 75.4922 37.6325 75.1797C37.4123 74.8672 37.3022 74.473 37.3022 73.9972V65.858ZM45.4334 76.1705C44.6948 76.1705 44.0467 75.9947 43.4892 75.6431C42.9352 75.2915 42.502 74.7997 42.1895 74.1676C41.8805 73.5355 41.726 72.7969 41.726 71.9517C41.726 71.0994 41.8805 70.3555 42.1895 69.7198C42.502 69.0842 42.9352 68.5906 43.4892 68.239C44.0467 67.8874 44.6948 67.7116 45.4334 67.7116C46.1721 67.7116 46.8184 67.8874 47.3723 68.239C47.9299 68.5906 48.3631 69.0842 48.6721 69.7198C48.9846 70.3555 49.1408 71.0994 49.1408 71.9517C49.1408 72.7969 48.9846 73.5355 48.6721 74.1676C48.3631 74.7997 47.9299 75.2915 47.3723 75.6431C46.8184 75.9947 46.1721 76.1705 45.4334 76.1705ZM45.4334 75.0412C45.9945 75.0412 46.4561 74.8974 46.8184 74.6097C47.1806 74.3221 47.4487 73.9439 47.6227 73.4751C47.7967 73.0064 47.8837 72.4986 47.8837 71.9517C47.8837 71.4048 47.7967 70.8952 47.6227 70.4229C47.4487 69.9506 47.1806 69.5689 46.8184 69.2777C46.4561 68.9865 45.9945 68.8409 45.4334 68.8409C44.8723 68.8409 44.4107 68.9865 44.0485 69.2777C43.6863 69.5689 43.4181 69.9506 43.2441 70.4229C43.0701 70.8952 42.9831 71.4048 42.9831 71.9517C42.9831 72.4986 43.0701 73.0064 43.2441 73.4751C43.4181 73.9439 43.6863 74.3221 44.0485 74.6097C44.4107 74.8974 44.8723 75.0412 45.4334 75.0412ZM54.618 67.8182V68.8835H50.3779V67.8182H54.618ZM51.6137 65.858H52.8708V73.6562C52.8708 74.0114 52.9223 74.2777 53.0253 74.4553C53.1318 74.6293 53.2668 74.7464 53.4301 74.8068C53.597 74.8636 53.7728 74.892 53.9575 74.892C54.096 74.892 54.2096 74.8849 54.2984 74.8707C54.3872 74.853 54.4582 74.8388 54.5115 74.8281L54.7671 75.9574C54.6819 75.9893 54.5629 76.0213 54.4102 76.0533C54.2575 76.0888 54.064 76.1065 53.8296 76.1065C53.4745 76.1065 53.1265 76.0302 52.7856 75.8775C52.4482 75.7248 52.1677 75.4922 51.944 75.1797C51.7238 74.8672 51.6137 74.473 51.6137 73.9972V65.858ZM58.9166 76.1918C58.3982 76.1918 57.9276 76.0941 57.5051 75.8988C57.0825 75.6999 56.7469 75.4141 56.4983 75.0412C56.2497 74.6648 56.1254 74.2102 56.1254 73.6776C56.1254 73.2088 56.2178 72.8288 56.4024 72.5376C56.5871 72.2429 56.8339 72.0121 57.1428 71.8452C57.4518 71.6783 57.7927 71.554 58.1656 71.4723C58.542 71.3871 58.9202 71.3196 59.3002 71.2699C59.7973 71.206 60.2004 71.158 60.5093 71.1261C60.8218 71.0906 61.0491 71.032 61.1911 70.9503C61.3367 70.8686 61.4095 70.7266 61.4095 70.5241V70.4815C61.4095 69.956 61.2657 69.5476 60.9781 69.2564C60.694 68.9652 60.2625 68.8196 59.6837 68.8196C59.0835 68.8196 58.613 68.951 58.2721 69.2138C57.9312 69.4766 57.6915 69.7571 57.553 70.0554L56.3598 69.6293C56.5729 69.1321 56.857 68.745 57.2121 68.468C57.5708 68.1875 57.9614 67.9922 58.384 67.8821C58.8101 67.7685 59.2291 67.7116 59.6411 67.7116C59.9039 67.7116 60.2057 67.7436 60.5466 67.8075C60.8911 67.8679 61.2231 67.994 61.5427 68.1857C61.8659 68.3775 62.134 68.6669 62.347 69.054C62.5601 69.4411 62.6666 69.9595 62.6666 70.6094V76H61.4095V74.892H61.3456C61.2604 75.0696 61.1183 75.2596 60.9195 75.462C60.7206 75.6644 60.4561 75.8366 60.1258 75.9787C59.7955 76.1207 59.3925 76.1918 58.9166 76.1918ZM59.1084 75.0625C59.6056 75.0625 60.0246 74.9648 60.3655 74.7695C60.71 74.5742 60.9692 74.3221 61.1432 74.0131C61.3208 73.7042 61.4095 73.3793 61.4095 73.0384V71.8878C61.3563 71.9517 61.2391 72.0103 61.058 72.0636C60.8804 72.1133 60.6744 72.1577 60.4401 72.1967C60.2093 72.2322 59.9838 72.2642 59.7636 72.2926C59.547 72.3175 59.3712 72.3388 59.2362 72.3565C58.9095 72.3991 58.6041 72.4684 58.32 72.5643C58.0395 72.6566 57.8122 72.7969 57.6382 72.9851C57.4678 73.1697 57.3825 73.4219 57.3825 73.7415C57.3825 74.1783 57.5441 74.5085 57.8673 74.7322C58.194 74.9524 58.6077 75.0625 59.1084 75.0625ZM66.2182 65.0909V76H64.9611V65.0909H66.2182Z" fill="#111111"/>
<rect width="12" height="28" transform="translate(76.1719 57)" fill="white"/>
<path d="M288.379 79.2727V66.5455H289.195V79.2727H288.379ZM290.93 70.4929C290.877 70.0223 290.658 69.6577 290.273 69.3991C289.889 69.1373 289.405 69.0064 288.822 69.0064C288.404 69.0064 288.043 69.0727 287.738 69.2053C287.433 69.3345 287.196 69.5135 287.027 69.7422C286.861 69.9676 286.778 70.2244 286.778 70.5128C286.778 70.7547 286.835 70.9635 286.947 71.1392C287.063 71.3149 287.214 71.4624 287.4 71.5817C287.589 71.6977 287.791 71.7955 288.006 71.875C288.222 71.9512 288.429 72.0142 288.628 72.0639L289.622 72.3224C289.947 72.402 290.28 72.5097 290.621 72.6456C290.963 72.7815 291.279 72.9605 291.571 73.1825C291.863 73.4046 292.098 73.6797 292.277 74.0078C292.459 74.3359 292.55 74.7287 292.55 75.1861C292.55 75.7628 292.401 76.2749 292.103 76.7223C291.808 77.1697 291.379 77.5227 290.815 77.7812C290.255 78.0398 289.577 78.169 288.782 78.169C288.02 78.169 287.36 78.0481 286.803 77.8061C286.246 77.5642 285.811 77.2211 285.496 76.777C285.181 76.3295 285.007 75.7992 284.974 75.1861H286.515C286.545 75.554 286.664 75.8606 286.873 76.1058C287.085 76.3478 287.355 76.5284 287.683 76.6477C288.015 76.7637 288.378 76.8217 288.772 76.8217C289.206 76.8217 289.592 76.7538 289.93 76.6179C290.272 76.4787 290.54 76.2865 290.736 76.0412C290.931 75.7926 291.029 75.5026 291.029 75.1712C291.029 74.8696 290.943 74.6226 290.771 74.4304C290.602 74.2382 290.371 74.0791 290.08 73.9531C289.791 73.8272 289.465 73.7161 289.1 73.62L287.897 73.2919C287.082 73.0698 286.435 72.7434 285.958 72.3125C285.484 71.8816 285.247 71.3116 285.247 70.6023C285.247 70.0156 285.406 69.5036 285.724 69.0661C286.043 68.6286 286.473 68.2888 287.017 68.0469C287.561 67.8016 288.174 67.679 288.857 67.679C289.546 67.679 290.154 67.8 290.681 68.0419C291.211 68.2839 291.629 68.617 291.934 69.0412C292.239 69.4621 292.398 69.946 292.411 70.4929H290.93ZM298.11 67.8182V78H296.569V69.3594H296.509L294.073 70.9503V69.4787L296.613 67.8182H298.11ZM304.25 67.679C304.704 67.6823 305.151 67.7652 305.592 67.9276C306.033 68.09 306.431 68.3551 306.785 68.723C307.143 69.0909 307.428 69.5881 307.64 70.2145C307.856 70.8376 307.965 71.6132 307.969 72.5412C307.969 73.4328 307.879 74.2266 307.7 74.9226C307.521 75.6153 307.264 76.2003 306.93 76.6776C306.598 77.1548 306.195 77.5178 305.721 77.7663C305.247 78.0149 304.714 78.1392 304.121 78.1392C303.514 78.1392 302.975 78.0199 302.505 77.7812C302.034 77.5426 301.651 77.2128 301.356 76.7919C301.061 76.3677 300.877 75.8804 300.805 75.3303H302.321C302.42 75.7678 302.622 76.1224 302.927 76.3942C303.236 76.6626 303.633 76.7969 304.121 76.7969C304.866 76.7969 305.448 76.4721 305.866 75.8224C306.283 75.1695 306.494 74.258 306.497 73.0881H306.417C306.245 73.3731 306.03 73.6184 305.771 73.8239C305.516 74.0294 305.229 74.1884 304.911 74.3011C304.593 74.4138 304.253 74.4702 303.892 74.4702C303.305 74.4702 302.772 74.326 302.291 74.0376C301.81 73.7493 301.428 73.3532 301.143 72.8494C300.858 72.3456 300.715 71.7706 300.715 71.1243C300.715 70.4813 300.861 69.898 301.153 69.3743C301.448 68.8506 301.858 68.4363 302.385 68.1314C302.916 67.8232 303.537 67.6723 304.25 67.679ZM304.255 68.9716C303.867 68.9716 303.517 69.0677 303.206 69.2599C302.898 69.4489 302.654 69.7057 302.475 70.0305C302.296 70.352 302.206 70.71 302.206 71.1044C302.206 71.4988 302.293 71.8568 302.465 72.1783C302.641 72.4964 302.879 72.75 303.181 72.9389C303.486 73.1245 303.834 73.2173 304.225 73.2173C304.517 73.2173 304.788 73.161 305.04 73.0483C305.292 72.9356 305.513 72.7798 305.702 72.581C305.89 72.3788 306.038 72.1501 306.144 71.8949C306.25 71.6397 306.303 71.3712 306.303 71.0895C306.303 70.715 306.214 70.367 306.035 70.0455C305.859 69.724 305.617 69.4654 305.309 69.2699C305.001 69.071 304.649 68.9716 304.255 68.9716ZM313.205 78.1392C312.492 78.1392 311.863 78.0166 311.316 77.7713C310.772 77.526 310.346 77.188 310.038 76.7571C309.73 76.3262 309.577 75.8357 309.581 75.2855C309.577 74.8546 309.665 74.4586 309.844 74.0973C310.026 73.7327 310.273 73.4295 310.585 73.1875C310.896 72.9422 311.244 72.7865 311.629 72.7202V72.6605C311.122 72.5379 310.716 72.2661 310.411 71.8452C310.106 71.4242 309.955 70.9403 309.958 70.3935C309.955 69.8731 310.093 69.4091 310.371 69.0014C310.653 68.5904 311.039 68.2673 311.529 68.032C312.02 67.7966 312.578 67.679 313.205 67.679C313.825 67.679 314.378 67.7983 314.865 68.0369C315.356 68.2723 315.742 68.5954 316.024 69.0064C316.306 69.4141 316.448 69.8764 316.451 70.3935C316.448 70.9403 316.292 71.4242 315.984 71.8452C315.676 72.2661 315.275 72.5379 314.781 72.6605V72.7202C315.162 72.7865 315.505 72.9422 315.81 73.1875C316.118 73.4295 316.364 73.7327 316.546 74.0973C316.731 74.4586 316.826 74.8546 316.829 75.2855C316.826 75.8357 316.67 76.3262 316.362 76.7571C316.054 77.188 315.626 77.526 315.079 77.7713C314.536 78.0166 313.911 78.1392 313.205 78.1392ZM313.205 76.8814C313.626 76.8814 313.99 76.8118 314.299 76.6726C314.607 76.5301 314.846 76.3329 315.015 76.081C315.184 75.8258 315.27 75.5275 315.273 75.1861C315.27 74.8314 315.177 74.5182 314.995 74.2464C314.816 73.9747 314.572 73.7609 314.264 73.6051C313.956 73.4493 313.603 73.3714 313.205 73.3714C312.804 73.3714 312.448 73.4493 312.136 73.6051C311.824 73.7609 311.579 73.9747 311.4 74.2464C311.221 74.5182 311.133 74.8314 311.137 75.1861C311.133 75.5275 311.215 75.8258 311.38 76.081C311.549 76.3329 311.79 76.5301 312.101 76.6726C312.413 76.8118 312.781 76.8814 313.205 76.8814ZM313.205 72.1435C313.543 72.1435 313.843 72.0755 314.105 71.9396C314.367 71.8037 314.572 71.6148 314.721 71.3729C314.874 71.1309 314.952 70.8475 314.955 70.5227C314.952 70.2045 314.875 69.9261 314.726 69.6875C314.58 69.4489 314.377 69.2649 314.115 69.1357C313.853 69.0031 313.55 68.9368 313.205 68.9368C312.854 68.9368 312.545 69.0031 312.28 69.1357C312.018 69.2649 311.815 69.4489 311.669 69.6875C311.523 69.9261 311.452 70.2045 311.455 70.5227C311.452 70.8475 311.525 71.1309 311.674 71.3729C311.823 71.6148 312.028 71.8037 312.29 71.9396C312.555 72.0755 312.86 72.1435 313.205 72.1435ZM319.309 78.0945C319.037 78.0945 318.803 77.9983 318.608 77.8061C318.412 77.6106 318.314 77.3752 318.314 77.1001C318.314 76.8284 318.412 76.5964 318.608 76.4041C318.803 76.2086 319.037 76.1108 319.309 76.1108C319.581 76.1108 319.814 76.2086 320.01 76.4041C320.205 76.5964 320.303 76.8284 320.303 77.1001C320.303 77.2824 320.257 77.4498 320.164 77.6023C320.074 77.7514 319.955 77.8707 319.806 77.9602C319.657 78.0497 319.491 78.0945 319.309 78.0945ZM325.45 78.169C324.664 78.1657 323.993 77.9586 323.436 77.5476C322.88 77.1366 322.454 76.5384 322.159 75.7528C321.864 74.9673 321.716 74.0211 321.716 72.9141C321.716 71.8104 321.864 70.8674 322.159 70.0852C322.457 69.303 322.885 68.7064 323.441 68.2955C324.002 67.8845 324.671 67.679 325.45 67.679C326.229 67.679 326.897 67.8861 327.453 68.3004C328.01 68.7114 328.436 69.308 328.731 70.0902C329.029 70.8691 329.179 71.8104 329.179 72.9141C329.179 74.0244 329.031 74.9723 328.736 75.7578C328.441 76.54 328.015 77.1383 327.458 77.5526C326.902 77.9635 326.232 78.169 325.45 78.169ZM325.45 76.8416C326.139 76.8416 326.678 76.5052 327.066 75.8324C327.457 75.1596 327.652 74.1868 327.652 72.9141C327.652 72.0689 327.563 71.3546 327.384 70.7713C327.208 70.1847 326.955 69.7405 326.623 69.4389C326.295 69.134 325.904 68.9815 325.45 68.9815C324.764 68.9815 324.225 69.3196 323.834 69.9957C323.443 70.6719 323.246 71.6446 323.243 72.9141C323.243 73.7625 323.33 74.4801 323.506 75.0668C323.685 75.6501 323.939 76.0926 324.267 76.3942C324.595 76.6925 324.989 76.8416 325.45 76.8416ZM334.487 78.169C333.702 78.1657 333.03 77.9586 332.474 77.5476C331.917 77.1366 331.491 76.5384 331.196 75.7528C330.901 74.9673 330.753 74.0211 330.753 72.9141C330.753 71.8104 330.901 70.8674 331.196 70.0852C331.494 69.303 331.922 68.7064 332.479 68.2955C333.039 67.8845 333.708 67.679 334.487 67.679C335.266 67.679 335.934 67.8861 336.491 68.3004C337.047 68.7114 337.473 69.308 337.768 70.0902C338.067 70.8691 338.216 71.8104 338.216 72.9141C338.216 74.0244 338.068 74.9723 337.773 75.7578C337.478 76.54 337.052 77.1383 336.496 77.5526C335.939 77.9635 335.269 78.169 334.487 78.169ZM334.487 76.8416C335.176 76.8416 335.715 76.5052 336.103 75.8324C336.494 75.1596 336.689 74.1868 336.689 72.9141C336.689 72.0689 336.6 71.3546 336.421 70.7713C336.245 70.1847 335.992 69.7405 335.66 69.4389C335.332 69.134 334.941 68.9815 334.487 68.9815C333.801 68.9815 333.262 69.3196 332.871 69.9957C332.48 70.6719 332.283 71.6446 332.28 72.9141C332.28 73.7625 332.367 74.4801 332.543 75.0668C332.722 75.6501 332.976 76.0926 333.304 76.3942C333.632 76.6925 334.026 76.8416 334.487 76.8416Z" fill="#111111"/>
<path d="M9.32102 112V101.091H15.9048V102.263H10.642V105.949H15.5639V107.121H10.642V110.828H15.9901V112H9.32102ZM23.9109 105.651L22.7816 105.97C22.7106 105.782 22.6058 105.599 22.4673 105.422C22.3324 105.24 22.1477 105.091 21.9134 104.974C21.679 104.857 21.3789 104.798 21.0131 104.798C20.5124 104.798 20.0952 104.914 19.7614 105.145C19.4311 105.372 19.266 105.661 19.266 106.013C19.266 106.325 19.3796 106.572 19.6069 106.753C19.8342 106.934 20.1893 107.085 20.6722 107.206L21.8867 107.504C22.6183 107.682 23.1634 107.953 23.522 108.319C23.8807 108.681 24.06 109.148 24.06 109.72C24.06 110.189 23.9251 110.608 23.6552 110.977C23.3888 111.347 23.016 111.638 22.5366 111.851C22.0572 112.064 21.4996 112.17 20.864 112.17C20.0295 112.17 19.3388 111.989 18.7919 111.627C18.245 111.265 17.8988 110.736 17.7532 110.04L18.9464 109.741C19.06 110.182 19.2749 110.512 19.5909 110.732C19.9105 110.952 20.3278 111.062 20.8427 111.062C21.4286 111.062 21.8938 110.938 22.2383 110.69C22.5863 110.437 22.7603 110.136 22.7603 109.784C22.7603 109.5 22.6609 109.262 22.462 109.07C22.2631 108.875 21.9577 108.729 21.5458 108.634L20.1822 108.314C19.4329 108.136 18.8825 107.861 18.5309 107.488C18.1829 107.112 18.0089 106.641 18.0089 106.077C18.0089 105.615 18.1385 105.207 18.3977 104.852C18.6605 104.496 19.0174 104.218 19.4684 104.015C19.9229 103.813 20.4379 103.712 21.0131 103.712C21.8228 103.712 22.4585 103.889 22.9201 104.244C23.3853 104.599 23.7156 105.068 23.9109 105.651ZM29.5106 103.818V104.884H25.2705V103.818H29.5106ZM26.5063 101.858H27.7634V109.656C27.7634 110.011 27.8149 110.278 27.9179 110.455C28.0244 110.629 28.1594 110.746 28.3227 110.807C28.4896 110.864 28.6654 110.892 28.8501 110.892C28.9885 110.892 29.1022 110.885 29.191 110.871C29.2797 110.853 29.3508 110.839 29.404 110.828L29.6597 111.957C29.5745 111.989 29.4555 112.021 29.3028 112.053C29.1501 112.089 28.9566 112.107 28.7222 112.107C28.3671 112.107 28.0191 112.03 27.6782 111.877C27.3408 111.725 27.0603 111.492 26.8366 111.18C26.6164 110.867 26.5063 110.473 26.5063 109.997V101.858ZM31.4015 112V103.818H32.6586V112H31.4015ZM32.0407 102.455C31.7957 102.455 31.5844 102.371 31.4069 102.204C31.2329 102.037 31.1459 101.837 31.1459 101.602C31.1459 101.368 31.2329 101.167 31.4069 101C31.5844 100.833 31.7957 100.75 32.0407 100.75C32.2858 100.75 32.4953 100.833 32.6693 101C32.8469 101.167 32.9356 101.368 32.9356 101.602C32.9356 101.837 32.8469 102.037 32.6693 102.204C32.4953 102.371 32.2858 102.455 32.0407 102.455ZM34.9611 112V103.818H36.1756V105.097H36.2821C36.4526 104.66 36.7278 104.321 37.1078 104.079C37.4877 103.834 37.9441 103.712 38.4767 103.712C39.0165 103.712 39.4657 103.834 39.8244 104.079C40.1866 104.321 40.4689 104.66 40.6713 105.097H40.7566C40.9661 104.674 41.2804 104.338 41.6994 104.09C42.1184 103.838 42.6209 103.712 43.2069 103.712C43.9384 103.712 44.5368 103.941 45.002 104.399C45.4672 104.853 45.6998 105.562 45.6998 106.524V112H44.4426V106.524C44.4426 105.92 44.2775 105.489 43.9473 105.23C43.617 104.971 43.2282 104.841 42.7807 104.841C42.2054 104.841 41.7598 105.015 41.4437 105.363C41.1277 105.707 40.9696 106.144 40.9696 106.673V112H39.6912V106.396C39.6912 105.931 39.5403 105.556 39.2385 105.272C38.9366 104.985 38.5478 104.841 38.0719 104.841C37.7452 104.841 37.4398 104.928 37.1557 105.102C36.8752 105.276 36.6479 105.517 36.4739 105.826C36.3034 106.132 36.2182 106.485 36.2182 106.886V112H34.9611ZM50.4059 112.192C49.8874 112.192 49.4169 112.094 48.9943 111.899C48.5717 111.7 48.2362 111.414 47.9876 111.041C47.739 110.665 47.6147 110.21 47.6147 109.678C47.6147 109.209 47.707 108.829 47.8917 108.538C48.0763 108.243 48.3232 108.012 48.6321 107.845C48.9411 107.678 49.282 107.554 49.6548 107.472C50.0313 107.387 50.4094 107.32 50.7894 107.27C51.2866 107.206 51.6896 107.158 51.9986 107.126C52.3111 107.091 52.5384 107.032 52.6804 106.95C52.826 106.869 52.8988 106.727 52.8988 106.524V106.482C52.8988 105.956 52.755 105.548 52.4673 105.256C52.1832 104.965 51.7518 104.82 51.1729 104.82C50.5728 104.82 50.1023 104.951 49.7614 105.214C49.4205 105.477 49.1808 105.757 49.0423 106.055L47.8491 105.629C48.0621 105.132 48.3462 104.745 48.7013 104.468C49.06 104.187 49.4506 103.992 49.8732 103.882C50.2994 103.768 50.7184 103.712 51.1303 103.712C51.3931 103.712 51.695 103.744 52.0359 103.808C52.3803 103.868 52.7124 103.994 53.032 104.186C53.3551 104.377 53.6232 104.667 53.8363 105.054C54.0494 105.441 54.1559 105.96 54.1559 106.609V112H52.8988V110.892H52.8349C52.7496 111.07 52.6076 111.26 52.4087 111.462C52.2099 111.664 51.9453 111.837 51.6151 111.979C51.2848 112.121 50.8817 112.192 50.4059 112.192ZM50.5977 111.062C51.0948 111.062 51.5138 110.965 51.8548 110.77C52.1992 110.574 52.4585 110.322 52.6325 110.013C52.81 109.704 52.8988 109.379 52.8988 109.038V107.888C52.8455 107.952 52.7283 108.01 52.5472 108.064C52.3697 108.113 52.1637 108.158 51.9293 108.197C51.6985 108.232 51.473 108.264 51.2528 108.293C51.0362 108.317 50.8604 108.339 50.7255 108.357C50.3988 108.399 50.0934 108.468 49.8093 108.564C49.5288 108.657 49.3015 108.797 49.1275 108.985C48.957 109.17 48.8718 109.422 48.8718 109.741C48.8718 110.178 49.0334 110.509 49.3565 110.732C49.6832 110.952 50.0969 111.062 50.5977 111.062ZM60.0086 103.818V104.884H55.7686V103.818H60.0086ZM57.0044 101.858H58.2615V109.656C58.2615 110.011 58.3129 110.278 58.4159 110.455C58.5225 110.629 58.6574 110.746 58.8208 110.807C58.9877 110.864 59.1634 110.892 59.3481 110.892C59.4866 110.892 59.6002 110.885 59.689 110.871C59.7778 110.853 59.8488 110.839 59.9021 110.828L60.1578 111.957C60.0725 111.989 59.9536 112.021 59.8009 112.053C59.6482 112.089 59.4546 112.107 59.2203 112.107C58.8651 112.107 58.5171 112.03 58.1762 111.877C57.8389 111.725 57.5583 111.492 57.3346 111.18C57.1144 110.867 57.0044 110.473 57.0044 109.997V101.858ZM65.2421 112.17C64.4537 112.17 63.7737 111.996 63.202 111.648C62.6338 111.297 62.1952 110.807 61.8863 110.178C61.5809 109.546 61.4282 108.811 61.4282 107.973C61.4282 107.135 61.5809 106.396 61.8863 105.757C62.1952 105.114 62.6249 104.614 63.1753 104.255C63.7293 103.893 64.3756 103.712 65.1143 103.712C65.5404 103.712 65.9612 103.783 66.3767 103.925C66.7922 104.067 67.1704 104.298 67.5113 104.617C67.8522 104.933 68.1238 105.352 68.3263 105.874C68.5287 106.396 68.6299 107.039 68.6299 107.803V108.335H62.3231V107.249H67.3515C67.3515 106.787 67.2591 106.375 67.0745 106.013C66.8934 105.651 66.6341 105.365 66.2968 105.155C65.963 104.946 65.5688 104.841 65.1143 104.841C64.6135 104.841 64.1803 104.965 63.8145 105.214C63.4523 105.459 63.1736 105.778 62.9782 106.173C62.7829 106.567 62.6853 106.989 62.6853 107.44V108.165C62.6853 108.783 62.7918 109.306 63.0049 109.736C63.2215 110.162 63.5216 110.487 63.9051 110.711C64.2886 110.931 64.7343 111.041 65.2421 111.041C65.5724 111.041 65.8707 110.995 66.137 110.903C66.4069 110.807 66.6395 110.665 66.8348 110.477C67.0301 110.285 67.181 110.047 67.2876 109.763L68.502 110.104C68.3742 110.516 68.1594 110.878 67.8575 111.19C67.5557 111.499 67.1828 111.741 66.7389 111.915C66.295 112.085 65.7961 112.17 65.2421 112.17ZM73.6317 112.17C72.9498 112.17 72.3479 111.998 71.8259 111.654C71.3039 111.306 70.8955 110.816 70.6008 110.184C70.306 109.548 70.1586 108.797 70.1586 107.93C70.1586 107.071 70.306 106.325 70.6008 105.693C70.8955 105.061 71.3057 104.573 71.8312 104.228C72.3568 103.884 72.964 103.712 73.653 103.712C74.1856 103.712 74.6064 103.8 74.9154 103.978C75.2279 104.152 75.4658 104.351 75.6292 104.575C75.7961 104.795 75.9257 104.976 76.018 105.118H76.1246V101.091H77.3817V112H76.1672V110.743H76.018C75.9257 110.892 75.7943 111.08 75.6238 111.308C75.4534 111.531 75.2101 111.732 74.8941 111.909C74.578 112.083 74.1572 112.17 73.6317 112.17ZM73.8021 111.041C74.3064 111.041 74.7325 110.91 75.0805 110.647C75.4285 110.381 75.6931 110.013 75.8742 109.544C76.0553 109.072 76.1459 108.527 76.1459 107.909C76.1459 107.298 76.0571 106.764 75.8795 106.306C75.702 105.844 75.4392 105.485 75.0912 105.23C74.7432 104.971 74.3135 104.841 73.8021 104.841C73.2694 104.841 72.8256 104.978 72.4704 105.251C72.1189 105.521 71.8543 105.888 71.6768 106.354C71.5028 106.815 71.4157 107.334 71.4157 107.909C71.4157 108.491 71.5045 109.021 71.6821 109.496C71.8632 109.969 72.1295 110.345 72.4811 110.626C72.8362 110.903 73.2765 111.041 73.8021 111.041ZM87.6143 112H84.2478V101.091H87.7634C88.8216 101.091 89.7272 101.309 90.48 101.746C91.2329 102.179 91.8099 102.803 92.2112 103.616C92.6125 104.425 92.8131 105.395 92.8131 106.524C92.8131 107.661 92.6107 108.639 92.2059 109.459C91.801 110.276 91.2116 110.904 90.4374 111.345C89.6633 111.782 88.7222 112 87.6143 112ZM85.5688 110.828H87.529C88.431 110.828 89.1785 110.654 89.7716 110.306C90.3646 109.958 90.8067 109.463 91.0979 108.82C91.3891 108.177 91.5347 107.412 91.5347 106.524C91.5347 105.643 91.3909 104.885 91.1032 104.25C90.8156 103.61 90.3859 103.12 89.8142 102.779C89.2425 102.435 88.5305 102.263 87.6782 102.263H85.5688V110.828ZM98.289 112.17C97.5006 112.17 96.8206 111.996 96.2488 111.648C95.6807 111.297 95.2421 110.807 94.9331 110.178C94.6278 109.546 94.4751 108.811 94.4751 107.973C94.4751 107.135 94.6278 106.396 94.9331 105.757C95.2421 105.114 95.6718 104.614 96.2222 104.255C96.7762 103.893 97.4225 103.712 98.1611 103.712C98.5873 103.712 99.0081 103.783 99.4236 103.925C99.839 104.067 100.217 104.298 100.558 104.617C100.899 104.933 101.171 105.352 101.373 105.874C101.576 106.396 101.677 107.039 101.677 107.803V108.335H95.3699V107.249H100.398C100.398 106.787 100.306 106.375 100.121 106.013C99.9403 105.651 99.681 105.365 99.3437 105.155C99.0099 104.946 98.6157 104.841 98.1611 104.841C97.6604 104.841 97.2272 104.965 96.8614 105.214C96.4992 105.459 96.2204 105.778 96.0251 106.173C95.8298 106.567 95.7322 106.989 95.7322 107.44V108.165C95.7322 108.783 95.8387 109.306 96.0518 109.736C96.2684 110.162 96.5684 110.487 96.952 110.711C97.3355 110.931 97.7812 111.041 98.289 111.041C98.6192 111.041 98.9175 110.995 99.1839 110.903C99.4537 110.807 99.6863 110.665 99.8817 110.477C100.077 110.285 100.228 110.047 100.334 109.763L101.549 110.104C101.421 110.516 101.206 110.878 100.904 111.19C100.603 111.499 100.23 111.741 99.7858 111.915C99.3419 112.085 98.843 112.17 98.289 112.17ZM104.846 101.091V112H103.589V101.091H104.846ZM107.149 112V103.818H108.406V112H107.149ZM107.788 102.455C107.543 102.455 107.331 102.371 107.154 102.204C106.98 102.037 106.893 101.837 106.893 101.602C106.893 101.368 106.98 101.167 107.154 101C107.331 100.833 107.543 100.75 107.788 100.75C108.033 100.75 108.242 100.833 108.416 101C108.594 101.167 108.683 101.368 108.683 101.602C108.683 101.837 108.594 102.037 108.416 102.204C108.242 102.371 108.033 102.455 107.788 102.455ZM117.399 103.818L114.373 112H113.095L110.069 103.818H111.433L113.691 110.338H113.776L116.035 103.818H117.399ZM122.195 112.17C121.407 112.17 120.727 111.996 120.155 111.648C119.587 111.297 119.148 110.807 118.839 110.178C118.534 109.546 118.381 108.811 118.381 107.973C118.381 107.135 118.534 106.396 118.839 105.757C119.148 105.114 119.578 104.614 120.128 104.255C120.682 103.893 121.329 103.712 122.067 103.712C122.494 103.712 122.914 103.783 123.33 103.925C123.745 104.067 124.123 104.298 124.464 104.617C124.805 104.933 125.077 105.352 125.279 105.874C125.482 106.396 125.583 107.039 125.583 107.803V108.335H119.276V107.249H124.305C124.305 106.787 124.212 106.375 124.028 106.013C123.847 105.651 123.587 105.365 123.25 105.155C122.916 104.946 122.522 104.841 122.067 104.841C121.567 104.841 121.133 104.965 120.768 105.214C120.405 105.459 120.127 105.778 119.931 106.173C119.736 106.567 119.638 106.989 119.638 107.44V108.165C119.638 108.783 119.745 109.306 119.958 109.736C120.175 110.162 120.475 110.487 120.858 110.711C121.242 110.931 121.687 111.041 122.195 111.041C122.525 111.041 122.824 110.995 123.09 110.903C123.36 110.807 123.593 110.665 123.788 110.477C123.983 110.285 124.134 110.047 124.241 109.763L125.455 110.104C125.327 110.516 125.112 110.878 124.811 111.19C124.509 111.499 124.136 111.741 123.692 111.915C123.248 112.085 122.749 112.17 122.195 112.17ZM127.495 112V103.818H128.71V105.054H128.795C128.944 104.649 129.214 104.321 129.605 104.069C129.995 103.816 130.436 103.69 130.926 103.69C131.018 103.69 131.133 103.692 131.272 103.696C131.41 103.699 131.515 103.705 131.586 103.712V104.99C131.544 104.979 131.446 104.963 131.293 104.942C131.144 104.917 130.986 104.905 130.819 104.905C130.421 104.905 130.066 104.988 129.754 105.155C129.445 105.319 129.2 105.546 129.019 105.837C128.841 106.125 128.752 106.453 128.752 106.822V112H127.495ZM134.135 115.068C133.922 115.068 133.732 115.05 133.565 115.015C133.398 114.983 133.283 114.951 133.219 114.919L133.538 113.811C133.844 113.889 134.114 113.918 134.348 113.896C134.582 113.875 134.79 113.77 134.971 113.582C135.156 113.397 135.325 113.097 135.477 112.682L135.712 112.043L132.686 103.818H134.05L136.308 110.338H136.394L138.652 103.818H140.016L136.543 113.193C136.386 113.616 136.193 113.966 135.962 114.243C135.731 114.523 135.463 114.731 135.158 114.866C134.856 115.001 134.515 115.068 134.135 115.068ZM148.983 112.149C148.266 112.149 147.648 112.018 147.13 111.755C146.611 111.492 146.212 111.132 145.931 110.674C145.65 110.216 145.51 109.692 145.51 109.102C145.51 108.648 145.606 108.245 145.798 107.893C145.993 107.538 146.261 107.21 146.602 106.908C146.947 106.602 147.343 106.297 147.79 105.991L149.367 104.82C149.676 104.617 149.922 104.401 150.107 104.17C150.295 103.939 150.389 103.637 150.389 103.264C150.389 102.987 150.267 102.719 150.022 102.46C149.78 102.201 149.463 102.071 149.068 102.071C148.791 102.071 148.546 102.142 148.333 102.284C148.124 102.423 147.959 102.6 147.838 102.817C147.721 103.03 147.662 103.25 147.662 103.477C147.662 103.733 147.731 103.992 147.87 104.255C148.012 104.514 148.191 104.781 148.408 105.054C148.628 105.324 148.855 105.601 149.09 105.885L154.097 112H152.584L148.451 107.014C148.067 106.553 147.719 106.134 147.407 105.757C147.094 105.381 146.845 105.01 146.661 104.644C146.476 104.278 146.384 103.882 146.384 103.456C146.384 102.966 146.492 102.536 146.709 102.167C146.929 101.794 147.236 101.505 147.63 101.299C148.028 101.089 148.493 100.984 149.026 100.984C149.573 100.984 150.043 101.091 150.437 101.304C150.832 101.513 151.135 101.792 151.348 102.14C151.561 102.485 151.668 102.859 151.668 103.264C151.668 103.786 151.538 104.239 151.279 104.623C151.02 105.006 150.666 105.363 150.219 105.693L148.046 107.312C147.556 107.675 147.224 108.026 147.05 108.367C146.876 108.708 146.789 108.953 146.789 109.102C146.789 109.443 146.877 109.761 147.055 110.056C147.233 110.35 147.483 110.588 147.806 110.77C148.129 110.951 148.507 111.041 148.941 111.041C149.353 111.041 149.754 110.954 150.144 110.78C150.535 110.603 150.888 110.347 151.204 110.013C151.524 109.679 151.776 109.278 151.961 108.809C152.149 108.341 152.243 107.813 152.243 107.227H153.458C153.458 107.952 153.374 108.543 153.207 109.001C153.04 109.459 152.852 109.818 152.643 110.077C152.433 110.336 152.264 110.53 152.137 110.658C152.094 110.711 152.055 110.764 152.019 110.817C151.984 110.871 151.945 110.924 151.902 110.977C151.551 111.371 151.107 111.666 150.571 111.862C150.034 112.053 149.505 112.149 148.983 112.149ZM159.878 112V101.091H161.199V105.949H167.015V101.091H168.336V112H167.015V107.121H161.199V112H159.878ZM173.218 112.192C172.7 112.192 172.229 112.094 171.807 111.899C171.384 111.7 171.049 111.414 170.8 111.041C170.551 110.665 170.427 110.21 170.427 109.678C170.427 109.209 170.52 108.829 170.704 108.538C170.889 108.243 171.136 108.012 171.445 107.845C171.754 107.678 172.094 107.554 172.467 107.472C172.844 107.387 173.222 107.32 173.602 107.27C174.099 107.206 174.502 107.158 174.811 107.126C175.124 107.091 175.351 107.032 175.493 106.95C175.638 106.869 175.711 106.727 175.711 106.524V106.482C175.711 105.956 175.567 105.548 175.28 105.256C174.996 104.965 174.564 104.82 173.985 104.82C173.385 104.82 172.915 104.951 172.574 105.214C172.233 105.477 171.993 105.757 171.855 106.055L170.662 105.629C170.875 105.132 171.159 104.745 171.514 104.468C171.873 104.187 172.263 103.992 172.686 103.882C173.112 103.768 173.531 103.712 173.943 103.712C174.206 103.712 174.507 103.744 174.848 103.808C175.193 103.868 175.525 103.994 175.844 104.186C176.168 104.377 176.436 104.667 176.649 105.054C176.862 105.441 176.968 105.96 176.968 106.609V112H175.711V110.892H175.647C175.562 111.07 175.42 111.26 175.221 111.462C175.022 111.664 174.758 111.837 174.428 111.979C174.097 112.121 173.694 112.192 173.218 112.192ZM173.41 111.062C173.907 111.062 174.326 110.965 174.667 110.77C175.012 110.574 175.271 110.322 175.445 110.013C175.623 109.704 175.711 109.379 175.711 109.038V107.888C175.658 107.952 175.541 108.01 175.36 108.064C175.182 108.113 174.976 108.158 174.742 108.197C174.511 108.232 174.286 108.264 174.065 108.293C173.849 108.317 173.673 108.339 173.538 108.357C173.211 108.399 172.906 108.468 172.622 108.564C172.341 108.657 172.114 108.797 171.94 108.985C171.77 109.17 171.684 109.422 171.684 109.741C171.684 110.178 171.846 110.509 172.169 110.732C172.496 110.952 172.909 111.062 173.41 111.062ZM180.52 107.078V112H179.263V103.818H180.477V105.097H180.584C180.776 104.681 181.067 104.347 181.457 104.095C181.848 103.839 182.352 103.712 182.97 103.712C183.524 103.712 184.009 103.825 184.424 104.053C184.84 104.276 185.163 104.617 185.394 105.075C185.625 105.53 185.74 106.105 185.74 106.801V112H184.483V106.886C184.483 106.244 184.316 105.743 183.982 105.384C183.649 105.022 183.19 104.841 182.608 104.841C182.207 104.841 181.848 104.928 181.532 105.102C181.22 105.276 180.973 105.53 180.792 105.864C180.611 106.197 180.52 106.602 180.52 107.078ZM191.127 112.17C190.445 112.17 189.843 111.998 189.321 111.654C188.799 111.306 188.391 110.816 188.096 110.184C187.801 109.548 187.654 108.797 187.654 107.93C187.654 107.071 187.801 106.325 188.096 105.693C188.391 105.061 188.801 104.573 189.326 104.228C189.852 103.884 190.459 103.712 191.148 103.712C191.681 103.712 192.102 103.8 192.411 103.978C192.723 104.152 192.961 104.351 193.124 104.575C193.291 104.795 193.421 104.976 193.513 105.118H193.62V101.091H194.877V112H193.662V110.743H193.513C193.421 110.892 193.289 111.08 193.119 111.308C192.949 111.531 192.705 111.732 192.389 111.909C192.073 112.083 191.652 112.17 191.127 112.17ZM191.297 111.041C191.801 111.041 192.228 110.91 192.576 110.647C192.924 110.381 193.188 110.013 193.369 109.544C193.55 109.072 193.641 108.527 193.641 107.909C193.641 107.298 193.552 106.764 193.375 106.306C193.197 105.844 192.934 105.485 192.586 105.23C192.238 104.971 191.809 104.841 191.297 104.841C190.765 104.841 190.321 104.978 189.966 105.251C189.614 105.521 189.349 105.888 189.172 106.354C188.998 106.815 188.911 107.334 188.911 107.909C188.911 108.491 189 109.021 189.177 109.496C189.358 109.969 189.625 110.345 189.976 110.626C190.331 110.903 190.772 111.041 191.297 111.041ZM198.611 101.091V112H197.354V101.091H198.611ZM200.913 112V103.818H202.17V112H200.913ZM201.552 102.455C201.307 102.455 201.096 102.371 200.919 102.204C200.745 102.037 200.658 101.837 200.658 101.602C200.658 101.368 200.745 101.167 200.919 101C201.096 100.833 201.307 100.75 201.552 100.75C201.797 100.75 202.007 100.833 202.181 101C202.359 101.167 202.447 101.368 202.447 101.602C202.447 101.837 202.359 102.037 202.181 102.204C202.007 102.371 201.797 102.455 201.552 102.455ZM205.73 107.078V112H204.473V103.818H205.687V105.097H205.794C205.986 104.681 206.277 104.347 206.667 104.095C207.058 103.839 207.562 103.712 208.18 103.712C208.734 103.712 209.219 103.825 209.634 104.053C210.05 104.276 210.373 104.617 210.604 105.075C210.835 105.53 210.95 106.105 210.95 106.801V112H209.693V106.886C209.693 106.244 209.526 105.743 209.192 105.384C208.858 105.022 208.4 104.841 207.818 104.841C207.417 104.841 207.058 104.928 206.742 105.102C206.43 105.276 206.183 105.53 206.002 105.864C205.82 106.197 205.73 106.602 205.73 107.078ZM216.55 115.239C215.943 115.239 215.421 115.161 214.984 115.004C214.547 114.852 214.183 114.649 213.892 114.397C213.604 114.148 213.375 113.882 213.205 113.598L214.206 112.895C214.32 113.044 214.464 113.214 214.638 113.406C214.812 113.602 215.049 113.77 215.351 113.912C215.657 114.058 216.056 114.131 216.55 114.131C217.21 114.131 217.755 113.971 218.185 113.651C218.615 113.332 218.83 112.831 218.83 112.149V110.487H218.723C218.631 110.636 218.499 110.821 218.329 111.041C218.162 111.258 217.921 111.451 217.604 111.622C217.292 111.789 216.869 111.872 216.337 111.872C215.676 111.872 215.083 111.716 214.558 111.403C214.036 111.091 213.622 110.636 213.316 110.04C213.015 109.443 212.864 108.719 212.864 107.866C212.864 107.028 213.011 106.299 213.306 105.677C213.601 105.052 214.011 104.569 214.536 104.228C215.062 103.884 215.669 103.712 216.358 103.712C216.891 103.712 217.313 103.8 217.626 103.978C217.942 104.152 218.183 104.351 218.35 104.575C218.521 104.795 218.652 104.976 218.744 105.118H218.872V103.818H220.087V112.234C220.087 112.938 219.927 113.509 219.607 113.95C219.291 114.393 218.865 114.718 218.329 114.924C217.796 115.134 217.203 115.239 216.55 115.239ZM216.507 110.743C217.011 110.743 217.438 110.627 217.786 110.397C218.134 110.166 218.398 109.834 218.579 109.401C218.76 108.967 218.851 108.449 218.851 107.845C218.851 107.256 218.762 106.735 218.585 106.284C218.407 105.833 218.144 105.48 217.796 105.224C217.448 104.969 217.019 104.841 216.507 104.841C215.975 104.841 215.531 104.976 215.176 105.246C214.824 105.516 214.559 105.878 214.382 106.332C214.208 106.787 214.121 107.291 214.121 107.845C214.121 108.413 214.21 108.916 214.387 109.353C214.568 109.786 214.835 110.127 215.186 110.375C215.541 110.62 215.982 110.743 216.507 110.743Z" fill="#111111"/>
<path d="M312.062 112V101.091H318.603V102.263H313.383V105.949H318.113V107.121H313.383V112H312.062ZM320.608 112V103.818H321.822V105.054H321.907C322.056 104.649 322.326 104.321 322.717 104.069C323.108 103.816 323.548 103.69 324.038 103.69C324.13 103.69 324.246 103.692 324.384 103.696C324.523 103.699 324.627 103.705 324.699 103.712V104.99C324.656 104.979 324.558 104.963 324.406 104.942C324.256 104.917 324.098 104.905 323.931 104.905C323.534 104.905 323.179 104.988 322.866 105.155C322.557 105.319 322.312 105.546 322.131 105.837C321.953 106.125 321.865 106.453 321.865 106.822V112H320.608ZM329.37 112.17C328.582 112.17 327.902 111.996 327.33 111.648C326.762 111.297 326.323 110.807 326.014 110.178C325.709 109.546 325.556 108.811 325.556 107.973C325.556 107.135 325.709 106.396 326.014 105.757C326.323 105.114 326.753 104.614 327.303 104.255C327.857 103.893 328.504 103.712 329.242 103.712C329.668 103.712 330.089 103.783 330.505 103.925C330.92 104.067 331.298 104.298 331.639 104.617C331.98 104.933 332.252 105.352 332.454 105.874C332.657 106.396 332.758 107.039 332.758 107.803V108.335H326.451V107.249H331.479C331.479 106.787 331.387 106.375 331.202 106.013C331.021 105.651 330.762 105.365 330.425 105.155C330.091 104.946 329.697 104.841 329.242 104.841C328.741 104.841 328.308 104.965 327.942 105.214C327.58 105.459 327.301 105.778 327.106 106.173C326.911 106.567 326.813 106.989 326.813 107.44V108.165C326.813 108.783 326.92 109.306 327.133 109.736C327.349 110.162 327.65 110.487 328.033 110.711C328.417 110.931 328.862 111.041 329.37 111.041C329.7 111.041 329.999 110.995 330.265 110.903C330.535 110.807 330.767 110.665 330.963 110.477C331.158 110.285 331.309 110.047 331.415 109.763L332.63 110.104C332.502 110.516 332.287 110.878 331.985 111.19C331.684 111.499 331.311 111.741 330.867 111.915C330.423 112.085 329.924 112.17 329.37 112.17ZM338.1 112.17C337.312 112.17 336.632 111.996 336.06 111.648C335.492 111.297 335.054 110.807 334.745 110.178C334.439 109.546 334.287 108.811 334.287 107.973C334.287 107.135 334.439 106.396 334.745 105.757C335.054 105.114 335.483 104.614 336.034 104.255C336.588 103.893 337.234 103.712 337.973 103.712C338.399 103.712 338.82 103.783 339.235 103.925C339.651 104.067 340.029 104.298 340.37 104.617C340.711 104.933 340.982 105.352 341.185 105.874C341.387 106.396 341.488 107.039 341.488 107.803V108.335H335.181V107.249H340.21C340.21 106.787 340.118 106.375 339.933 106.013C339.752 105.651 339.493 105.365 339.155 105.155C338.821 104.946 338.427 104.841 337.973 104.841C337.472 104.841 337.039 104.965 336.673 105.214C336.311 105.459 336.032 105.778 335.837 106.173C335.641 106.567 335.544 106.989 335.544 107.44V108.165C335.544 108.783 335.65 109.306 335.863 109.736C336.08 110.162 336.38 110.487 336.763 110.711C337.147 110.931 337.593 111.041 338.1 111.041C338.431 111.041 338.729 110.995 338.995 110.903C339.265 110.807 339.498 110.665 339.693 110.477C339.888 110.285 340.039 110.047 340.146 109.763L341.36 110.104C341.233 110.516 341.018 110.878 340.716 111.19C340.414 111.499 340.041 111.741 339.597 111.915C339.153 112.085 338.654 112.17 338.1 112.17Z" fill="#111111"/>
<mask id="path-6-inside-1_13_766" fill="white">
<path d="M8 141H348.375V203H8V141Z"/>
</mask>
<path d="M8 142H348.375V140H8V142ZM348.375 202H8V204H348.375V202Z" fill="#E5E5E5" mask="url(#path-6-inside-1_13_766)"/>
<path d="M9.15075 167.912V166.818H16.7871V167.912H13.5854V177H12.3525V167.912H9.15075ZM20.5257 177.159C19.8364 177.159 19.2315 176.995 18.7111 176.667C18.1941 176.339 17.7897 175.88 17.498 175.29C17.2097 174.7 17.0655 174.01 17.0655 173.222C17.0655 172.426 17.2097 171.732 17.498 171.138C17.7897 170.545 18.1941 170.085 18.7111 169.756C19.2315 169.428 19.8364 169.264 20.5257 169.264C21.2151 169.264 21.8184 169.428 22.3354 169.756C22.8558 170.085 23.2601 170.545 23.5485 171.138C23.8401 171.732 23.986 172.426 23.986 173.222C23.986 174.01 23.8401 174.7 23.5485 175.29C23.2601 175.88 22.8558 176.339 22.3354 176.667C21.8184 176.995 21.2151 177.159 20.5257 177.159ZM20.5257 176.105C21.0494 176.105 21.4803 175.971 21.8184 175.702C22.1564 175.434 22.4067 175.081 22.5691 174.643C22.7315 174.206 22.8127 173.732 22.8127 173.222C22.8127 172.711 22.7315 172.236 22.5691 171.795C22.4067 171.354 22.1564 170.998 21.8184 170.726C21.4803 170.454 21.0494 170.318 20.5257 170.318C20.0021 170.318 19.5712 170.454 19.2331 170.726C18.8951 170.998 18.6448 171.354 18.4824 171.795C18.32 172.236 18.2388 172.711 18.2388 173.222C18.2388 173.732 18.32 174.206 18.4824 174.643C18.6448 175.081 18.8951 175.434 19.2331 175.702C19.5712 175.971 20.0021 176.105 20.5257 176.105ZM29.098 169.364V170.358H25.1406V169.364H29.098ZM26.294 167.534H27.4673V174.812C27.4673 175.144 27.5154 175.393 27.6115 175.558C27.7109 175.721 27.8369 175.83 27.9893 175.886C28.1451 175.939 28.3092 175.966 28.4815 175.966C28.6108 175.966 28.7169 175.959 28.7997 175.946C28.8826 175.929 28.9489 175.916 28.9986 175.906L29.2372 176.96C29.1577 176.99 29.0466 177.02 28.9041 177.05C28.7616 177.083 28.581 177.099 28.3622 177.099C28.0308 177.099 27.706 177.028 27.3878 176.886C27.0729 176.743 26.8111 176.526 26.6023 176.234C26.3968 175.943 26.294 175.575 26.294 175.131V167.534ZM33.1101 177.179C32.6262 177.179 32.187 177.088 31.7926 176.906C31.3982 176.72 31.085 176.453 30.853 176.105C30.621 175.754 30.505 175.33 30.505 174.832C30.505 174.395 30.5911 174.04 30.7635 173.768C30.9358 173.493 31.1662 173.278 31.4545 173.122C31.7429 172.966 32.0611 172.85 32.4091 172.774C32.7604 172.695 33.1134 172.632 33.468 172.585C33.9321 172.526 34.3082 172.481 34.5966 172.451C34.8883 172.418 35.1004 172.363 35.233 172.287C35.3688 172.211 35.4368 172.078 35.4368 171.889V171.849C35.4368 171.359 35.3026 170.978 35.0341 170.706C34.7689 170.434 34.3662 170.298 33.826 170.298C33.2659 170.298 32.8267 170.421 32.5085 170.666C32.1903 170.911 31.9666 171.173 31.8374 171.452L30.7237 171.054C30.9226 170.59 31.1877 170.229 31.5192 169.97C31.8539 169.708 32.2185 169.526 32.6129 169.423C33.0107 169.317 33.4018 169.264 33.7862 169.264C34.0315 169.264 34.3132 169.294 34.6314 169.354C34.9529 169.41 35.2628 169.528 35.5611 169.707C35.8627 169.886 36.1129 170.156 36.3118 170.517C36.5107 170.878 36.6101 171.362 36.6101 171.969V177H35.4368V175.966H35.3771C35.2976 176.132 35.165 176.309 34.9794 176.498C34.7938 176.687 34.5469 176.848 34.2386 176.98C33.9304 177.113 33.5542 177.179 33.1101 177.179ZM33.2891 176.125C33.7531 176.125 34.1442 176.034 34.4624 175.852C34.7839 175.669 35.0258 175.434 35.1882 175.146C35.3539 174.857 35.4368 174.554 35.4368 174.236V173.162C35.3871 173.222 35.2777 173.276 35.1087 173.326C34.9429 173.372 34.7507 173.414 34.532 173.45C34.3165 173.483 34.1061 173.513 33.9006 173.54C33.6984 173.563 33.5343 173.583 33.4084 173.599C33.1035 173.639 32.8184 173.704 32.5533 173.793C32.2914 173.879 32.0793 174.01 31.9169 174.186C31.7578 174.358 31.6783 174.594 31.6783 174.892C31.6783 175.3 31.8291 175.608 32.1307 175.817C32.4356 176.022 32.8217 176.125 33.2891 176.125ZM39.9249 166.818V177H38.7516V166.818H39.9249Z" fill="#111111"/>
<path d="M293.379 178.273V165.545H294.195V178.273H293.379ZM295.93 169.493C295.877 169.022 295.658 168.658 295.273 168.399C294.889 168.137 294.405 168.006 293.822 168.006C293.404 168.006 293.043 168.073 292.738 168.205C292.433 168.335 292.196 168.513 292.027 168.742C291.861 168.968 291.778 169.224 291.778 169.513C291.778 169.755 291.835 169.964 291.947 170.139C292.063 170.315 292.214 170.462 292.4 170.582C292.589 170.698 292.791 170.795 293.006 170.875C293.222 170.951 293.429 171.014 293.628 171.064L294.622 171.322C294.947 171.402 295.28 171.51 295.621 171.646C295.963 171.781 296.279 171.96 296.571 172.183C296.863 172.405 297.098 172.68 297.277 173.008C297.459 173.336 297.55 173.729 297.55 174.186C297.55 174.763 297.401 175.275 297.103 175.722C296.808 176.17 296.379 176.523 295.815 176.781C295.255 177.04 294.577 177.169 293.782 177.169C293.02 177.169 292.36 177.048 291.803 176.806C291.246 176.564 290.811 176.221 290.496 175.777C290.181 175.33 290.007 174.799 289.974 174.186H291.515C291.545 174.554 291.664 174.861 291.873 175.106C292.085 175.348 292.355 175.528 292.683 175.648C293.015 175.764 293.378 175.822 293.772 175.822C294.206 175.822 294.592 175.754 294.93 175.618C295.272 175.479 295.54 175.286 295.736 175.041C295.931 174.793 296.029 174.503 296.029 174.171C296.029 173.87 295.943 173.623 295.771 173.43C295.602 173.238 295.371 173.079 295.08 172.953C294.791 172.827 294.465 172.716 294.1 172.62L292.897 172.292C292.082 172.07 291.435 171.743 290.958 171.312C290.484 170.882 290.247 170.312 290.247 169.602C290.247 169.016 290.406 168.504 290.724 168.066C291.043 167.629 291.473 167.289 292.017 167.047C292.561 166.802 293.174 166.679 293.857 166.679C294.546 166.679 295.154 166.8 295.681 167.042C296.211 167.284 296.629 167.617 296.934 168.041C297.239 168.462 297.398 168.946 297.411 169.493H295.93ZM303.11 166.818V177H301.569V168.359H301.509L299.073 169.95V168.479L301.613 166.818H303.11ZM309.25 166.679C309.704 166.682 310.151 166.765 310.592 166.928C311.033 167.09 311.431 167.355 311.785 167.723C312.143 168.091 312.428 168.588 312.64 169.214C312.856 169.838 312.965 170.613 312.969 171.541C312.969 172.433 312.879 173.227 312.7 173.923C312.521 174.615 312.264 175.2 311.93 175.678C311.598 176.155 311.195 176.518 310.721 176.766C310.247 177.015 309.714 177.139 309.121 177.139C308.514 177.139 307.975 177.02 307.505 176.781C307.034 176.543 306.651 176.213 306.356 175.792C306.061 175.368 305.877 174.88 305.805 174.33H307.321C307.42 174.768 307.622 175.122 307.927 175.394C308.236 175.663 308.633 175.797 309.121 175.797C309.866 175.797 310.448 175.472 310.866 174.822C311.283 174.17 311.494 173.258 311.497 172.088H311.417C311.245 172.373 311.03 172.618 310.771 172.824C310.516 173.029 310.229 173.188 309.911 173.301C309.593 173.414 309.253 173.47 308.892 173.47C308.305 173.47 307.772 173.326 307.291 173.038C306.81 172.749 306.428 172.353 306.143 171.849C305.858 171.346 305.715 170.771 305.715 170.124C305.715 169.481 305.861 168.898 306.153 168.374C306.448 167.851 306.858 167.436 307.385 167.131C307.916 166.823 308.537 166.672 309.25 166.679ZM309.255 167.972C308.867 167.972 308.517 168.068 308.206 168.26C307.898 168.449 307.654 168.706 307.475 169.031C307.296 169.352 307.206 169.71 307.206 170.104C307.206 170.499 307.293 170.857 307.465 171.178C307.641 171.496 307.879 171.75 308.181 171.939C308.486 172.125 308.834 172.217 309.225 172.217C309.517 172.217 309.788 172.161 310.04 172.048C310.292 171.936 310.513 171.78 310.702 171.581C310.89 171.379 311.038 171.15 311.144 170.895C311.25 170.64 311.303 170.371 311.303 170.089C311.303 169.715 311.214 169.367 311.035 169.045C310.859 168.724 310.617 168.465 310.309 168.27C310.001 168.071 309.649 167.972 309.255 167.972ZM318.205 177.139C317.492 177.139 316.863 177.017 316.316 176.771C315.772 176.526 315.346 176.188 315.038 175.757C314.73 175.326 314.577 174.836 314.581 174.286C314.577 173.855 314.665 173.459 314.844 173.097C315.026 172.733 315.273 172.429 315.585 172.188C315.896 171.942 316.244 171.786 316.629 171.72V171.661C316.122 171.538 315.716 171.266 315.411 170.845C315.106 170.424 314.955 169.94 314.958 169.393C314.955 168.873 315.093 168.409 315.371 168.001C315.653 167.59 316.039 167.267 316.529 167.032C317.02 166.797 317.578 166.679 318.205 166.679C318.825 166.679 319.378 166.798 319.865 167.037C320.356 167.272 320.742 167.595 321.024 168.006C321.306 168.414 321.448 168.876 321.451 169.393C321.448 169.94 321.292 170.424 320.984 170.845C320.676 171.266 320.275 171.538 319.781 171.661V171.72C320.162 171.786 320.505 171.942 320.81 172.188C321.118 172.429 321.364 172.733 321.546 173.097C321.731 173.459 321.826 173.855 321.829 174.286C321.826 174.836 321.67 175.326 321.362 175.757C321.054 176.188 320.626 176.526 320.079 176.771C319.536 177.017 318.911 177.139 318.205 177.139ZM318.205 175.881C318.626 175.881 318.99 175.812 319.299 175.673C319.607 175.53 319.846 175.333 320.015 175.081C320.184 174.826 320.27 174.527 320.273 174.186C320.27 173.831 320.177 173.518 319.995 173.246C319.816 172.975 319.572 172.761 319.264 172.605C318.956 172.449 318.603 172.371 318.205 172.371C317.804 172.371 317.448 172.449 317.136 172.605C316.824 172.761 316.579 172.975 316.4 173.246C316.221 173.518 316.133 173.831 316.137 174.186C316.133 174.527 316.215 174.826 316.38 175.081C316.549 175.333 316.79 175.53 317.101 175.673C317.413 175.812 317.781 175.881 318.205 175.881ZM318.205 171.143C318.543 171.143 318.843 171.076 319.105 170.94C319.367 170.804 319.572 170.615 319.721 170.373C319.874 170.131 319.952 169.848 319.955 169.523C319.952 169.205 319.875 168.926 319.726 168.688C319.58 168.449 319.377 168.265 319.115 168.136C318.853 168.003 318.55 167.937 318.205 167.937C317.854 167.937 317.545 168.003 317.28 168.136C317.018 168.265 316.815 168.449 316.669 168.688C316.523 168.926 316.452 169.205 316.455 169.523C316.452 169.848 316.525 170.131 316.674 170.373C316.823 170.615 317.028 170.804 317.29 170.94C317.555 171.076 317.86 171.143 318.205 171.143ZM324.309 177.094C324.037 177.094 323.803 176.998 323.608 176.806C323.412 176.611 323.314 176.375 323.314 176.1C323.314 175.828 323.412 175.596 323.608 175.404C323.803 175.209 324.037 175.111 324.309 175.111C324.581 175.111 324.814 175.209 325.01 175.404C325.205 175.596 325.303 175.828 325.303 176.1C325.303 176.282 325.257 176.45 325.164 176.602C325.074 176.751 324.955 176.871 324.806 176.96C324.657 177.05 324.491 177.094 324.309 177.094ZM330.45 177.169C329.664 177.166 328.993 176.959 328.436 176.548C327.88 176.137 327.454 175.538 327.159 174.753C326.864 173.967 326.716 173.021 326.716 171.914C326.716 170.81 326.864 169.867 327.159 169.085C327.457 168.303 327.885 167.706 328.441 167.295C329.002 166.884 329.671 166.679 330.45 166.679C331.229 166.679 331.897 166.886 332.453 167.3C333.01 167.711 333.436 168.308 333.731 169.09C334.029 169.869 334.179 170.81 334.179 171.914C334.179 173.024 334.031 173.972 333.736 174.758C333.441 175.54 333.015 176.138 332.458 176.553C331.902 176.964 331.232 177.169 330.45 177.169ZM330.45 175.842C331.139 175.842 331.678 175.505 332.066 174.832C332.457 174.16 332.652 173.187 332.652 171.914C332.652 171.069 332.563 170.355 332.384 169.771C332.208 169.185 331.955 168.741 331.623 168.439C331.295 168.134 330.904 167.982 330.45 167.982C329.764 167.982 329.225 168.32 328.834 168.996C328.443 169.672 328.246 170.645 328.243 171.914C328.243 172.763 328.33 173.48 328.506 174.067C328.685 174.65 328.939 175.093 329.267 175.394C329.595 175.692 329.989 175.842 330.45 175.842ZM339.487 177.169C338.702 177.166 338.03 176.959 337.474 176.548C336.917 176.137 336.491 175.538 336.196 174.753C335.901 173.967 335.753 173.021 335.753 171.914C335.753 170.81 335.901 169.867 336.196 169.085C336.494 168.303 336.922 167.706 337.479 167.295C338.039 166.884 338.708 166.679 339.487 166.679C340.266 166.679 340.934 166.886 341.491 167.3C342.047 167.711 342.473 168.308 342.768 169.09C343.067 169.869 343.216 170.81 343.216 171.914C343.216 173.024 343.068 173.972 342.773 174.758C342.478 175.54 342.052 176.138 341.496 176.553C340.939 176.964 340.269 177.169 339.487 177.169ZM339.487 175.842C340.176 175.842 340.715 175.505 341.103 174.832C341.494 174.16 341.689 173.187 341.689 171.914C341.689 171.069 341.6 170.355 341.421 169.771C341.245 169.185 340.992 168.741 340.66 168.439C340.332 168.134 339.941 167.982 339.487 167.982C338.801 167.982 338.262 168.32 337.871 168.996C337.48 169.672 337.283 170.645 337.28 171.914C337.28 172.763 337.367 173.48 337.543 174.067C337.722 174.65 337.976 175.093 338.304 175.394C338.632 175.692 339.026 175.842 339.487 175.842Z" fill="#111111"/>
<rect x="8" y="235" width="334.672" height="60" rx="30" fill="#029FAE"/>
<path d="M110.392 259.091H112.389L115.862 267.571H115.99L119.463 259.091H121.461V270H119.895V262.106H119.794L116.576 269.984H115.276L112.059 262.1H111.958V270H110.392V259.091ZM127.252 270.165C126.446 270.165 125.752 269.993 125.169 269.648C124.591 269.3 124.143 268.812 123.827 268.184C123.515 267.551 123.358 266.811 123.358 265.962C123.358 265.124 123.515 264.386 123.827 263.746C124.143 263.107 124.584 262.608 125.148 262.25C125.716 261.891 126.38 261.712 127.14 261.712C127.602 261.712 128.049 261.788 128.483 261.941C128.916 262.093 129.305 262.333 129.649 262.66C129.994 262.987 130.265 263.411 130.464 263.933C130.663 264.451 130.763 265.082 130.763 265.824V266.388H124.259V265.195H129.202C129.202 264.776 129.117 264.405 128.946 264.082C128.776 263.755 128.536 263.498 128.227 263.31C127.922 263.121 127.563 263.027 127.151 263.027C126.704 263.027 126.313 263.137 125.979 263.358C125.649 263.574 125.393 263.858 125.212 264.21C125.035 264.558 124.946 264.936 124.946 265.344V266.277C124.946 266.824 125.042 267.289 125.233 267.672C125.429 268.056 125.7 268.349 126.048 268.551C126.396 268.75 126.803 268.849 127.268 268.849C127.57 268.849 127.845 268.807 128.094 268.722C128.342 268.633 128.557 268.501 128.738 268.327C128.919 268.153 129.058 267.939 129.154 267.683L130.661 267.955C130.541 268.398 130.324 268.787 130.011 269.121C129.703 269.451 129.314 269.709 128.845 269.893C128.38 270.075 127.849 270.165 127.252 270.165ZM132.53 270V261.818H134.058V263.15H134.16C134.33 262.699 134.609 262.347 134.996 262.095C135.383 261.839 135.846 261.712 136.386 261.712C136.933 261.712 137.391 261.839 137.76 262.095C138.133 262.351 138.409 262.702 138.586 263.15H138.671C138.867 262.713 139.177 262.365 139.604 262.106C140.03 261.843 140.537 261.712 141.127 261.712C141.869 261.712 142.475 261.944 142.943 262.409C143.416 262.875 143.652 263.576 143.652 264.513V270H142.059V264.663C142.059 264.109 141.908 263.707 141.606 263.459C141.305 263.21 140.944 263.086 140.525 263.086C140.007 263.086 139.604 263.246 139.316 263.565C139.028 263.881 138.884 264.288 138.884 264.785V270H137.297V264.561C137.297 264.118 137.159 263.761 136.882 263.491C136.605 263.221 136.244 263.086 135.8 263.086C135.498 263.086 135.22 263.166 134.964 263.326C134.712 263.482 134.508 263.7 134.351 263.981C134.199 264.261 134.122 264.586 134.122 264.956V270H132.53ZM145.914 270V259.091H147.507V263.145H147.603C147.695 262.974 147.828 262.777 148.002 262.553C148.176 262.33 148.418 262.134 148.727 261.967C149.036 261.797 149.444 261.712 149.952 261.712C150.612 261.712 151.202 261.879 151.72 262.212C152.239 262.546 152.646 263.027 152.94 263.656C153.239 264.284 153.388 265.041 153.388 265.925C153.388 266.809 153.24 267.567 152.946 268.2C152.651 268.828 152.246 269.313 151.731 269.654C151.216 269.991 150.628 270.16 149.968 270.16C149.471 270.16 149.064 270.076 148.748 269.909C148.436 269.743 148.191 269.547 148.013 269.324C147.835 269.1 147.699 268.901 147.603 268.727H147.47V270H145.914ZM147.475 265.909C147.475 266.484 147.559 266.989 147.725 267.422C147.892 267.855 148.134 268.194 148.45 268.439C148.766 268.681 149.153 268.801 149.611 268.801C150.087 268.801 150.485 268.675 150.804 268.423C151.124 268.168 151.365 267.821 151.529 267.385C151.696 266.948 151.779 266.456 151.779 265.909C151.779 265.369 151.697 264.885 151.534 264.455C151.374 264.025 151.133 263.686 150.81 263.438C150.49 263.189 150.09 263.065 149.611 263.065C149.149 263.065 148.759 263.184 148.439 263.422C148.123 263.659 147.883 263.991 147.72 264.418C147.557 264.844 147.475 265.341 147.475 265.909ZM158.702 270.165C157.896 270.165 157.202 269.993 156.62 269.648C156.041 269.3 155.593 268.812 155.277 268.184C154.965 267.551 154.809 266.811 154.809 265.962C154.809 265.124 154.965 264.386 155.277 263.746C155.593 263.107 156.034 262.608 156.598 262.25C157.167 261.891 157.831 261.712 158.591 261.712C159.052 261.712 159.5 261.788 159.933 261.941C160.366 262.093 160.755 262.333 161.099 262.66C161.444 262.987 161.716 263.411 161.914 263.933C162.113 264.451 162.213 265.082 162.213 265.824V266.388H155.709V265.195H160.652C160.652 264.776 160.567 264.405 160.396 264.082C160.226 263.755 159.986 263.498 159.677 263.31C159.372 263.121 159.013 263.027 158.601 263.027C158.154 263.027 157.763 263.137 157.429 263.358C157.099 263.574 156.843 263.858 156.662 264.21C156.485 264.558 156.396 264.936 156.396 265.344V266.277C156.396 266.824 156.492 267.289 156.684 267.672C156.879 268.056 157.151 268.349 157.499 268.551C157.847 268.75 158.253 268.849 158.718 268.849C159.02 268.849 159.295 268.807 159.544 268.722C159.793 268.633 160.007 268.501 160.189 268.327C160.37 268.153 160.508 267.939 160.604 267.683L162.112 267.955C161.991 268.398 161.774 268.787 161.462 269.121C161.153 269.451 160.764 269.709 160.295 269.893C159.83 270.075 159.299 270.165 158.702 270.165ZM163.98 270V261.818H165.519V263.118H165.604C165.754 262.678 166.016 262.331 166.393 262.079C166.773 261.824 167.203 261.696 167.682 261.696C167.781 261.696 167.899 261.699 168.033 261.706C168.172 261.713 168.28 261.722 168.358 261.733V263.256C168.294 263.239 168.181 263.219 168.017 263.198C167.854 263.173 167.691 263.161 167.527 263.161C167.151 263.161 166.815 263.24 166.521 263.4C166.229 263.556 165.999 263.775 165.828 264.055C165.658 264.332 165.573 264.648 165.573 265.004V270H163.98ZM182.895 262.638H181.233C181.169 262.283 181.05 261.971 180.876 261.701C180.702 261.431 180.489 261.202 180.237 261.014C179.985 260.826 179.703 260.684 179.39 260.588C179.081 260.492 178.753 260.444 178.405 260.444C177.776 260.444 177.213 260.602 176.716 260.918C176.222 261.234 175.832 261.697 175.544 262.308C175.26 262.919 175.118 263.665 175.118 264.545C175.118 265.433 175.26 266.183 175.544 266.793C175.832 267.404 176.224 267.866 176.721 268.178C177.218 268.491 177.778 268.647 178.399 268.647C178.744 268.647 179.07 268.601 179.379 268.509C179.692 268.413 179.974 268.272 180.226 268.088C180.478 267.903 180.691 267.678 180.866 267.411C181.043 267.141 181.166 266.832 181.233 266.484L182.895 266.49C182.806 267.026 182.634 267.52 182.378 267.971C182.126 268.418 181.801 268.805 181.403 269.132C181.009 269.455 180.558 269.705 180.051 269.883C179.543 270.06 178.989 270.149 178.389 270.149C177.444 270.149 176.602 269.925 175.864 269.478C175.125 269.027 174.543 268.382 174.117 267.544C173.694 266.706 173.483 265.707 173.483 264.545C173.483 263.381 173.696 262.381 174.122 261.547C174.548 260.708 175.13 260.066 175.869 259.618C176.608 259.167 177.448 258.942 178.389 258.942C178.967 258.942 179.507 259.025 180.008 259.192C180.512 259.355 180.965 259.597 181.366 259.917C181.767 260.233 182.1 260.62 182.362 261.078C182.625 261.532 182.803 262.053 182.895 262.638ZM186.329 265.142V270H184.737V259.091H186.308V263.15H186.409C186.601 262.71 186.894 262.36 187.288 262.1C187.682 261.841 188.197 261.712 188.833 261.712C189.394 261.712 189.884 261.827 190.303 262.058C190.726 262.289 191.052 262.633 191.283 263.091C191.518 263.546 191.635 264.114 191.635 264.796V270H190.042V264.988C190.042 264.387 189.888 263.922 189.579 263.592C189.27 263.258 188.84 263.091 188.29 263.091C187.913 263.091 187.576 263.171 187.278 263.331C186.983 263.491 186.75 263.725 186.58 264.034C186.413 264.339 186.329 264.709 186.329 265.142ZM197.286 270.165C196.48 270.165 195.786 269.993 195.204 269.648C194.625 269.3 194.177 268.812 193.861 268.184C193.549 267.551 193.393 266.811 193.393 265.962C193.393 265.124 193.549 264.386 193.861 263.746C194.177 263.107 194.618 262.608 195.182 262.25C195.751 261.891 196.415 261.712 197.175 261.712C197.636 261.712 198.084 261.788 198.517 261.941C198.95 262.093 199.339 262.333 199.683 262.66C200.028 262.987 200.3 263.411 200.498 263.933C200.697 264.451 200.797 265.082 200.797 265.824V266.388H194.293V265.195H199.236C199.236 264.776 199.151 264.405 198.98 264.082C198.81 263.755 198.57 263.498 198.261 263.31C197.956 263.121 197.597 263.027 197.185 263.027C196.738 263.027 196.347 263.137 196.013 263.358C195.683 263.574 195.427 263.858 195.246 264.21C195.069 264.558 194.98 264.936 194.98 265.344V266.277C194.98 266.824 195.076 267.289 195.268 267.672C195.463 268.056 195.735 268.349 196.083 268.551C196.431 268.75 196.837 268.849 197.302 268.849C197.604 268.849 197.879 268.807 198.128 268.722C198.377 268.633 198.591 268.501 198.773 268.327C198.954 268.153 199.092 267.939 199.188 267.683L200.695 267.955C200.575 268.398 200.358 268.787 200.046 269.121C199.737 269.451 199.348 269.709 198.879 269.893C198.414 270.075 197.883 270.165 197.286 270.165ZM206.01 270.165C205.218 270.165 204.536 269.986 203.965 269.627C203.397 269.265 202.96 268.766 202.654 268.13C202.349 267.495 202.196 266.767 202.196 265.946C202.196 265.115 202.353 264.382 202.665 263.746C202.978 263.107 203.418 262.608 203.986 262.25C204.554 261.891 205.224 261.712 205.994 261.712C206.616 261.712 207.17 261.827 207.656 262.058C208.143 262.285 208.535 262.605 208.833 263.017C209.135 263.429 209.315 263.91 209.371 264.46H207.821C207.736 264.077 207.541 263.746 207.235 263.469C206.934 263.192 206.529 263.054 206.021 263.054C205.577 263.054 205.188 263.171 204.854 263.406C204.524 263.636 204.267 263.967 204.082 264.396C203.897 264.822 203.805 265.327 203.805 265.909C203.805 266.506 203.896 267.021 204.077 267.454C204.258 267.887 204.513 268.223 204.844 268.461C205.177 268.699 205.57 268.817 206.021 268.817C206.323 268.817 206.596 268.762 206.841 268.652C207.09 268.539 207.297 268.377 207.464 268.168C207.635 267.958 207.754 267.706 207.821 267.411H209.371C209.315 267.94 209.142 268.413 208.855 268.828C208.567 269.244 208.182 269.57 207.699 269.808C207.219 270.046 206.657 270.165 206.01 270.165ZM212.539 267.225L212.529 265.281H212.806L216.066 261.818H217.973L214.255 265.76H214.004L212.539 267.225ZM211.075 270V259.091H212.667V270H211.075ZM216.241 270L213.312 266.112L214.409 264.998L218.196 270H216.241ZM222.534 270.165C221.767 270.165 221.097 269.989 220.525 269.638C219.954 269.286 219.51 268.794 219.194 268.162C218.878 267.53 218.72 266.792 218.72 265.946C218.72 265.098 218.878 264.355 219.194 263.72C219.51 263.084 219.954 262.591 220.525 262.239C221.097 261.887 221.767 261.712 222.534 261.712C223.301 261.712 223.97 261.887 224.542 262.239C225.114 262.591 225.557 263.084 225.873 263.72C226.19 264.355 226.348 265.098 226.348 265.946C226.348 266.792 226.19 267.53 225.873 268.162C225.557 268.794 225.114 269.286 224.542 269.638C223.97 269.989 223.301 270.165 222.534 270.165ZM222.539 268.828C223.036 268.828 223.448 268.697 223.775 268.434C224.101 268.171 224.343 267.821 224.499 267.385C224.659 266.948 224.739 266.467 224.739 265.941C224.739 265.419 224.659 264.94 224.499 264.503C224.343 264.062 224.101 263.709 223.775 263.443C223.448 263.176 223.036 263.043 222.539 263.043C222.038 263.043 221.623 263.176 221.293 263.443C220.966 263.709 220.723 264.062 220.563 264.503C220.407 264.94 220.328 265.419 220.328 265.941C220.328 266.467 220.407 266.948 220.563 267.385C220.723 267.821 220.966 268.171 221.293 268.434C221.623 268.697 222.038 268.828 222.539 268.828ZM233.308 266.607V261.818H234.906V270H233.34V268.583H233.255C233.067 269.02 232.765 269.384 232.349 269.675C231.938 269.963 231.424 270.107 230.81 270.107C230.284 270.107 229.819 269.991 229.414 269.76C229.013 269.526 228.697 269.18 228.466 268.722C228.239 268.263 228.125 267.697 228.125 267.022V261.818H229.718V266.831C229.718 267.388 229.873 267.832 230.181 268.162C230.49 268.493 230.892 268.658 231.385 268.658C231.684 268.658 231.98 268.583 232.275 268.434C232.573 268.285 232.82 268.059 233.015 267.757C233.214 267.456 233.312 267.072 233.308 266.607ZM240.866 261.818V263.097H236.396V261.818H240.866ZM237.595 259.858H239.188V267.598C239.188 267.907 239.234 268.139 239.326 268.295C239.418 268.448 239.537 268.553 239.683 268.61C239.832 268.663 239.994 268.69 240.168 268.69C240.296 268.69 240.407 268.681 240.503 268.663C240.599 268.645 240.674 268.631 240.727 268.62L241.015 269.936C240.922 269.972 240.791 270.007 240.62 270.043C240.45 270.082 240.237 270.103 239.981 270.107C239.562 270.114 239.172 270.039 238.809 269.883C238.447 269.727 238.154 269.485 237.93 269.158C237.707 268.832 237.595 268.422 237.595 267.928V259.858Z" fill="white"/>
</svg>
