<svg width="157" height="144" viewBox="0 0 157 144" fill="none" xmlns="http://www.w3.org/2000/svg">
<path d="M7.17188 5.4929H8.65341C8.60867 3.86222 7.1669 2.67898 5.09872 2.67898C3.0554 2.67898 1.48935 3.8473 1.48935 5.60227C1.48935 7.01918 2.50355 7.84943 4.1392 8.2919L5.34233 8.62003C6.43111 8.90838 7.27131 9.26634 7.27131 10.1712C7.27131 11.1655 6.32173 11.8217 5.0142 11.8217C3.83097 11.8217 2.84659 11.2947 2.7571 10.1861H1.21591C1.31534 12.0305 2.74219 13.169 5.02415 13.169C7.41548 13.169 8.79261 11.9112 8.79261 10.1861C8.79261 8.35156 7.15696 7.64062 5.86435 7.32244L4.87003 7.06392C4.07457 6.86009 3.01562 6.48722 3.0206 5.51278C3.0206 4.64773 3.81108 4.00639 5.06392 4.00639C6.23224 4.00639 7.0625 4.55327 7.17188 5.4929ZM18.016 2.81818V9.39062C18.016 10.7727 17.0614 11.767 15.5103 11.767C13.9641 11.767 13.0046 10.7727 13.0046 9.39062V2.81818H11.4684V9.51491C11.4684 11.6527 13.0692 13.169 15.5103 13.169C17.9513 13.169 19.5572 11.6527 19.5572 9.51491V2.81818H18.016ZM22.6306 13H24.1669V9.42045H26.2549C28.6164 9.42045 29.7848 7.99361 29.7848 6.11435C29.7848 4.24006 28.6264 2.81818 26.2599 2.81818H22.6306V13ZM24.1669 8.1179V4.13565H26.0958C27.6171 4.13565 28.2386 4.96094 28.2386 6.11435C28.2386 7.26776 27.6171 8.1179 26.1157 8.1179H24.1669ZM32.4257 13H33.9619V9.42045H36.05C38.4115 9.42045 39.5798 7.99361 39.5798 6.11435C39.5798 4.24006 38.4215 2.81818 36.055 2.81818H32.4257V13ZM33.9619 8.1179V4.13565H35.8909C37.4122 4.13565 38.0337 4.96094 38.0337 6.11435C38.0337 7.26776 37.4122 8.1179 35.9108 8.1179H33.9619ZM51.0653 7.90909C51.0653 4.6527 49.1164 2.67898 46.4814 2.67898C43.8366 2.67898 41.8927 4.6527 41.8927 7.90909C41.8927 11.1605 43.8366 13.1392 46.4814 13.1392C49.1164 13.1392 51.0653 11.1655 51.0653 7.90909ZM49.544 7.90909C49.544 10.3899 48.2315 11.7372 46.4814 11.7372C44.7265 11.7372 43.4189 10.3899 43.4189 7.90909C43.4189 5.42827 44.7265 4.08097 46.4814 4.08097C48.2315 4.08097 49.544 5.42827 49.544 7.90909ZM53.8206 13H55.3568V9.14702H57.4449C57.4797 9.14702 57.5095 9.14702 57.5443 9.14702L59.6125 13H61.3625L59.1054 8.87855C60.3532 8.41619 60.9747 7.37713 60.9747 6.00994C60.9747 4.13565 59.8113 2.81818 57.4498 2.81818H53.8206V13ZM55.3568 7.82457V4.13565H57.2858C58.8021 4.13565 59.4285 4.85653 59.4285 6.00994C59.4285 7.15838 58.8021 7.82457 57.3056 7.82457H55.3568ZM63.1819 4.14062H66.3537V13H67.885V4.14062H71.0618V2.81818H63.1819V4.14062Z" fill="#9A9CAA"/>
<path d="M1.90909 50H3.31818V44.7955H9.52273V50H10.9318V38.3636H9.52273V43.5455H3.31818V38.3636H1.90909V50ZM17.2301 50.1818C19.0028 50.1818 20.2983 49.2955 20.7074 47.9773L19.4119 47.6136C19.071 48.5227 18.2812 48.9773 17.2301 48.9773C15.6562 48.9773 14.571 47.9602 14.5085 46.0909H20.8438V45.5227C20.8438 42.2727 18.9119 41.1591 17.0938 41.1591C14.7301 41.1591 13.1619 43.0227 13.1619 45.7045C13.1619 48.3864 14.7074 50.1818 17.2301 50.1818ZM14.5085 44.9318C14.5994 43.5739 15.5597 42.3636 17.0938 42.3636C18.5483 42.3636 19.4801 43.4545 19.4801 44.9318H14.5085ZM24.2244 38.3636H22.8835V50H24.2244V38.3636ZM26.6804 53.2727H28.0213V48.6591H28.1349C28.4304 49.1364 28.9986 50.1818 30.6804 50.1818C32.8622 50.1818 34.3849 48.4318 34.3849 45.6591C34.3849 42.9091 32.8622 41.1591 30.6577 41.1591C28.9531 41.1591 28.4304 42.2045 28.1349 42.6591H27.9759V41.2727H26.6804V53.2727ZM27.9986 45.6364C27.9986 43.6818 28.8622 42.3636 30.4986 42.3636C32.2031 42.3636 33.044 43.7955 33.044 45.6364C33.044 47.5 32.1804 48.9773 30.4986 48.9773C28.8849 48.9773 27.9986 47.6136 27.9986 45.6364ZM44.2259 50.1591C45.294 50.1591 46.4872 49.7841 47.2429 49.0114L48.0668 50H49.6804L48.0724 48.0398C48.5099 47.4773 48.9986 46.5341 48.9986 44.9091H47.7031C47.7031 45.7045 47.5213 46.4091 47.2202 46.9943L44.6918 43.9091L45.544 43.2727C46.4986 42.5682 47.0895 41.7955 47.0895 40.6818C47.0895 39.3864 46.0213 38.25 44.2713 38.25C42.5668 38.25 41.4531 39.3182 41.4531 40.8864C41.4531 41.9205 42.0156 42.7159 42.8168 43.6818C41.4588 44.625 40.5213 45.5 40.5213 46.9091C40.5213 48.7955 41.9304 50.1591 44.2259 50.1591ZM46.4418 48.0398C45.7997 48.642 44.9872 48.9773 44.1804 48.9773C42.794 48.9773 41.8849 48 41.8849 46.9091C41.8849 46.5909 42.1804 45.7727 43.2259 45L43.6577 44.6818L46.4418 48.0398ZM43.8679 42.9091C43.2997 42.2159 42.8168 41.5568 42.8168 40.9091C42.8168 40.1818 43.4304 39.4091 44.3168 39.4091C45.1577 39.4091 45.7259 40.0909 45.7259 40.6818C45.7259 41.4773 45.294 41.9091 44.6349 42.3409L43.8679 42.9091ZM62.2102 41.2727H63.5739C63.5114 39.517 61.892 38.2045 59.642 38.2045C57.4148 38.2045 55.6648 39.5 55.6648 41.4545C55.6648 43.0227 56.8011 43.9545 58.6193 44.4773L60.0511 44.8864C61.2784 45.2273 62.3693 45.6591 62.3693 46.8182C62.3693 48.0909 61.142 48.9318 59.5284 48.9318C58.142 48.9318 56.9148 48.3182 56.8011 47H55.3466C55.483 48.9091 57.0284 50.2045 59.5284 50.2045C62.2102 50.2045 63.733 48.7273 63.733 46.8409C63.733 44.6591 61.6648 43.9545 60.4602 43.6364L59.2784 43.3182C58.4148 43.0909 57.0284 42.6364 57.0284 41.3864C57.0284 40.2727 58.0511 39.4545 59.5966 39.4545C61.0057 39.4545 62.0739 40.125 62.2102 41.2727ZM71.3679 46.4318C71.3679 48.0682 70.1179 48.8182 69.1179 48.8182C68.0043 48.8182 67.2088 48 67.2088 46.7273V41.2727H65.8679V46.8182C65.8679 49.0455 67.0497 50.1136 68.6861 50.1136C70.0043 50.1136 70.8679 49.4091 71.277 48.5227H71.3679V50H72.7088V41.2727H71.3679V46.4318ZM75.1648 53.2727H76.5057V48.6591H76.6193C76.9148 49.1364 77.483 50.1818 79.1648 50.1818C81.3466 50.1818 82.8693 48.4318 82.8693 45.6591C82.8693 42.9091 81.3466 41.1591 79.142 41.1591C77.4375 41.1591 76.9148 42.2045 76.6193 42.6591H76.4602V41.2727H75.1648V53.2727ZM76.483 45.6364C76.483 43.6818 77.3466 42.3636 78.983 42.3636C80.6875 42.3636 81.5284 43.7955 81.5284 45.6364C81.5284 47.5 80.6648 48.9773 78.983 48.9773C77.3693 48.9773 76.483 47.6136 76.483 45.6364ZM84.9148 53.2727H86.2557V48.6591H86.3693C86.6648 49.1364 87.233 50.1818 88.9148 50.1818C91.0966 50.1818 92.6193 48.4318 92.6193 45.6591C92.6193 42.9091 91.0966 41.1591 88.892 41.1591C87.1875 41.1591 86.6648 42.2045 86.3693 42.6591H86.2102V41.2727H84.9148V53.2727ZM86.233 45.6364C86.233 43.6818 87.0966 42.3636 88.733 42.3636C90.4375 42.3636 91.2784 43.7955 91.2784 45.6364C91.2784 47.5 90.4148 48.9773 88.733 48.9773C87.1193 48.9773 86.233 47.6136 86.233 45.6364ZM98.2102 50.1818C100.574 50.1818 102.165 48.3864 102.165 45.6818C102.165 42.9545 100.574 41.1591 98.2102 41.1591C95.8466 41.1591 94.2557 42.9545 94.2557 45.6818C94.2557 48.3864 95.8466 50.1818 98.2102 50.1818ZM98.2102 48.9773C96.4148 48.9773 95.5966 47.4318 95.5966 45.6818C95.5966 43.9318 96.4148 42.3636 98.2102 42.3636C100.006 42.3636 100.824 43.9318 100.824 45.6818C100.824 47.4318 100.006 48.9773 98.2102 48.9773ZM104.212 50H105.553V44.4773C105.553 43.2955 106.484 42.4318 107.757 42.4318C108.115 42.4318 108.484 42.5 108.575 42.5227V41.1591C108.422 41.1477 108.07 41.1364 107.871 41.1364C106.825 41.1364 105.916 41.7273 105.598 42.5909H105.507V41.2727H104.212V50ZM114.507 41.2727H112.643V39.1818H111.303V41.2727H109.984V42.4091H111.303V47.8636C111.303 49.3864 112.53 50.1136 113.666 50.1136C114.166 50.1136 114.484 50.0227 114.666 49.9545L114.393 48.75C114.28 48.7727 114.098 48.8182 113.803 48.8182C113.212 48.8182 112.643 48.6364 112.643 47.5V42.4091H114.507V41.2727Z" fill="#272343"/>
<path d="M1.27273 69.6136H4.93182V80H6.34091V69.6136H10V68.3636H1.27273V69.6136ZM14.3864 80.1818C16.1591 80.1818 17.4545 79.2955 17.8636 77.9773L16.5682 77.6136C16.2273 78.5227 15.4375 78.9773 14.3864 78.9773C12.8125 78.9773 11.7273 77.9602 11.6648 76.0909H18V75.5227C18 72.2727 16.0682 71.1591 14.25 71.1591C11.8864 71.1591 10.3182 73.0227 10.3182 75.7045C10.3182 78.3864 11.8636 80.1818 14.3864 80.1818ZM11.6648 74.9318C11.7557 73.5739 12.7159 72.3636 14.25 72.3636C15.7045 72.3636 16.6364 73.4545 16.6364 74.9318H11.6648ZM22.608 80.2045C24.1307 80.2045 24.9261 79.3864 25.1989 78.8182H25.267V80H26.608V74.25C26.608 71.4773 24.4943 71.1591 23.3807 71.1591C22.0625 71.1591 20.5625 71.6136 19.8807 73.2045L21.1534 73.6591C21.4489 73.0227 22.1477 72.3409 23.4261 72.3409C24.6591 72.3409 25.267 72.9943 25.267 74.1136V74.1591C25.267 74.8068 24.608 74.75 23.017 74.9545C21.3977 75.1648 19.6307 75.5227 19.6307 77.5227C19.6307 79.2273 20.9489 80.2045 22.608 80.2045ZM22.8125 79C21.7443 79 20.9716 78.5227 20.9716 77.5909C20.9716 76.5682 21.9034 76.25 22.9489 76.1136C23.517 76.0455 25.0398 75.8864 25.267 75.6136V76.8409C25.267 77.9318 24.4034 79 22.8125 79ZM29.0554 80H30.3963V74.4773C30.3963 73.2955 31.3281 72.4318 32.6009 72.4318C32.9588 72.4318 33.3281 72.5 33.419 72.5227V71.1591C33.2656 71.1477 32.9134 71.1364 32.7145 71.1364C31.669 71.1364 30.7599 71.7273 30.4418 72.5909H30.3509V71.2727H29.0554V80ZM35.0085 80H36.3494V74.5455C36.3494 73.267 37.2812 72.3636 38.3267 72.3636C39.3438 72.3636 40.054 73.0284 40.054 74.0227V80H41.4176V74.3182C41.4176 73.1932 42.1222 72.3636 43.3494 72.3636C44.304 72.3636 45.1222 72.8693 45.1222 74.1591V80H46.4631V74.1591C46.4631 72.108 45.3608 71.1591 43.804 71.1591C42.554 71.1591 41.6392 71.733 41.1903 72.6364H41.0994C40.6676 71.7045 39.9062 71.1591 38.7585 71.1591C37.6222 71.1591 36.7812 71.7045 36.4176 72.6364H36.304V71.2727H35.0085V80ZM55.0966 73.2273C54.6761 71.9886 53.733 71.1591 52.0057 71.1591C50.1648 71.1591 48.8011 72.2045 48.8011 73.6818C48.8011 74.8864 49.517 75.6932 51.1193 76.0682L52.5739 76.4091C53.4545 76.6136 53.8693 77.0341 53.8693 77.6364C53.8693 78.3864 53.0739 79 51.8239 79C50.7273 79 50.0398 78.5284 49.8011 77.5909L48.5284 77.9091C48.8409 79.392 50.0625 80.1818 51.8466 80.1818C53.875 80.1818 55.2557 79.0739 55.2557 77.5682C55.2557 76.3523 54.4943 75.5852 52.9375 75.2045L51.642 74.8864C50.608 74.6307 50.142 74.2841 50.142 73.6136C50.142 72.8636 50.9375 72.3182 52.0057 72.3182C53.1761 72.3182 53.6591 72.9659 53.892 73.5682L55.0966 73.2273ZM65.0696 80.1591C66.1378 80.1591 67.331 79.7841 68.0866 79.0114L68.9105 80H70.5241L68.9162 78.0398C69.3537 77.4773 69.8423 76.5341 69.8423 74.9091H68.5469C68.5469 75.7045 68.3651 76.4091 68.0639 76.9943L65.5355 73.9091L66.3878 73.2727C67.3423 72.5682 67.9332 71.7955 67.9332 70.6818C67.9332 69.3864 66.8651 68.25 65.1151 68.25C63.4105 68.25 62.2969 69.3182 62.2969 70.8864C62.2969 71.9205 62.8594 72.7159 63.6605 73.6818C62.3026 74.625 61.3651 75.5 61.3651 76.9091C61.3651 78.7955 62.7741 80.1591 65.0696 80.1591ZM67.2855 78.0398C66.6435 78.642 65.831 78.9773 65.0241 78.9773C63.6378 78.9773 62.7287 78 62.7287 76.9091C62.7287 76.5909 63.0241 75.7727 64.0696 75L64.5014 74.6818L67.2855 78.0398ZM64.7116 72.9091C64.1435 72.2159 63.6605 71.5568 63.6605 70.9091C63.6605 70.1818 64.2741 69.4091 65.1605 69.4091C66.0014 69.4091 66.5696 70.0909 66.5696 70.6818C66.5696 71.4773 66.1378 71.9091 65.4787 72.3409L64.7116 72.9091ZM86.054 72C85.6222 69.6136 83.7131 68.2045 81.3722 68.2045C78.3949 68.2045 76.2358 70.5 76.2358 74.1818C76.2358 77.8636 78.3949 80.1591 81.3722 80.1591C83.7131 80.1591 85.6222 78.75 86.054 76.3636H84.6449C84.304 77.9773 82.9176 78.8409 81.3722 78.8409C79.2585 78.8409 77.5994 77.2045 77.5994 74.1818C77.5994 71.1591 79.2585 69.5227 81.3722 69.5227C82.9176 69.5227 84.304 70.3864 84.6449 72H86.054ZM91.6946 80.1818C94.0582 80.1818 95.6491 78.3864 95.6491 75.6818C95.6491 72.9545 94.0582 71.1591 91.6946 71.1591C89.331 71.1591 87.7401 72.9545 87.7401 75.6818C87.7401 78.3864 89.331 80.1818 91.6946 80.1818ZM91.6946 78.9773C89.8991 78.9773 89.081 77.4318 89.081 75.6818C89.081 73.9318 89.8991 72.3636 91.6946 72.3636C93.4901 72.3636 94.3082 73.9318 94.3082 75.6818C94.3082 77.4318 93.4901 78.9773 91.6946 78.9773ZM99.0369 74.75C99.0369 73.2273 99.9801 72.3636 101.264 72.3636C102.509 72.3636 103.264 73.1761 103.264 74.5455V80H104.605V74.4545C104.605 72.2273 103.418 71.1591 101.651 71.1591C100.332 71.1591 99.5142 71.75 99.1051 72.6364H98.9915V71.2727H97.696V80H99.0369V74.75ZM110.351 80.1818C112.033 80.1818 112.601 79.1364 112.896 78.6591H113.055V80H114.351V68.3636H113.01V72.6591H112.896C112.601 72.2045 112.078 71.1591 110.374 71.1591C108.169 71.1591 106.646 72.9091 106.646 75.6591C106.646 78.4318 108.169 80.1818 110.351 80.1818ZM110.533 78.9773C108.851 78.9773 107.987 77.5 107.987 75.6364C107.987 73.7955 108.828 72.3636 110.533 72.3636C112.169 72.3636 113.033 73.6818 113.033 75.6364C113.033 77.6136 112.146 78.9773 110.533 78.9773ZM116.993 80H118.334V71.2727H116.993V80ZM117.675 69.8182C118.197 69.8182 118.629 69.4091 118.629 68.9091C118.629 68.4091 118.197 68 117.675 68C117.152 68 116.72 68.4091 116.72 68.9091C116.72 69.4091 117.152 69.8182 117.675 69.8182ZM124.585 71.2727H122.722V69.1818H121.381V71.2727H120.062V72.4091H121.381V77.8636C121.381 79.3864 122.608 80.1136 123.744 80.1136C124.244 80.1136 124.562 80.0227 124.744 79.9545L124.472 78.75C124.358 78.7727 124.176 78.8182 123.881 78.8182C123.29 78.8182 122.722 78.6364 122.722 77.5V72.4091H124.585V71.2727ZM126.602 80H127.943V71.2727H126.602V80ZM127.284 69.8182C127.807 69.8182 128.239 69.4091 128.239 68.9091C128.239 68.4091 127.807 68 127.284 68C126.761 68 126.33 68.4091 126.33 68.9091C126.33 69.4091 126.761 69.8182 127.284 69.8182ZM133.945 80.1818C136.308 80.1818 137.899 78.3864 137.899 75.6818C137.899 72.9545 136.308 71.1591 133.945 71.1591C131.581 71.1591 129.99 72.9545 129.99 75.6818C129.99 78.3864 131.581 80.1818 133.945 80.1818ZM133.945 78.9773C132.149 78.9773 131.331 77.4318 131.331 75.6818C131.331 73.9318 132.149 72.3636 133.945 72.3636C135.74 72.3636 136.558 73.9318 136.558 75.6818C136.558 77.4318 135.74 78.9773 133.945 78.9773ZM141.287 74.75C141.287 73.2273 142.23 72.3636 143.514 72.3636C144.759 72.3636 145.514 73.1761 145.514 74.5455V80H146.855V74.4545C146.855 72.2273 145.668 71.1591 143.901 71.1591C142.582 71.1591 141.764 71.75 141.355 72.6364H141.241V71.2727H139.946V80H141.287V74.75ZM155.487 73.2273C155.067 71.9886 154.124 71.1591 152.396 71.1591C150.555 71.1591 149.192 72.2045 149.192 73.6818C149.192 74.8864 149.908 75.6932 151.51 76.0682L152.964 76.4091C153.845 76.6136 154.26 77.0341 154.26 77.6364C154.26 78.3864 153.464 79 152.214 79C151.118 79 150.43 78.5284 150.192 77.5909L148.919 77.9091C149.232 79.392 150.453 80.1818 152.237 80.1818C154.266 80.1818 155.646 79.0739 155.646 77.5682C155.646 76.3523 154.885 75.5852 153.328 75.2045L152.033 74.8864C150.999 74.6307 150.533 74.2841 150.533 73.6136C150.533 72.8636 151.328 72.3182 152.396 72.3182C153.567 72.3182 154.05 72.9659 154.283 73.5682L155.487 73.2273Z" fill="#272343"/>
<path d="M1.90909 110H3.31818V105.75H5.86364C8.57386 105.75 9.79545 104.102 9.79545 102.045C9.79545 99.9886 8.57386 98.3636 5.84091 98.3636H1.90909V110ZM3.31818 104.5V99.6136H5.79545C7.6875 99.6136 8.40909 100.648 8.40909 102.045C8.40909 103.443 7.6875 104.5 5.81818 104.5H3.31818ZM11.8835 110H13.2244V104.477C13.2244 103.295 14.1562 102.432 15.429 102.432C15.7869 102.432 16.1562 102.5 16.2472 102.523V101.159C16.0938 101.148 15.7415 101.136 15.5426 101.136C14.4972 101.136 13.5881 101.727 13.2699 102.591H13.179V101.273H11.8835V110ZM17.8366 110H19.1776V101.273H17.8366V110ZM18.5185 99.8182C19.0412 99.8182 19.473 99.4091 19.473 98.9091C19.473 98.4091 19.0412 98 18.5185 98C17.9957 98 17.5639 98.4091 17.5639 98.9091C17.5639 99.4091 17.9957 99.8182 18.5185 99.8182ZM28.7699 101.273H27.3153L24.9062 108.227H24.8153L22.4062 101.273H20.9517L24.179 110H25.5426L28.7699 101.273ZM32.8423 110.205C34.3651 110.205 35.1605 109.386 35.4332 108.818H35.5014V110H36.8423V104.25C36.8423 101.477 34.7287 101.159 33.6151 101.159C32.2969 101.159 30.7969 101.614 30.1151 103.205L31.3878 103.659C31.6832 103.023 32.3821 102.341 33.6605 102.341C34.8935 102.341 35.5014 102.994 35.5014 104.114V104.159C35.5014 104.807 34.8423 104.75 33.2514 104.955C31.6321 105.165 29.8651 105.523 29.8651 107.523C29.8651 109.227 31.1832 110.205 32.8423 110.205ZM33.0469 109C31.9787 109 31.206 108.523 31.206 107.591C31.206 106.568 32.1378 106.25 33.1832 106.114C33.7514 106.045 35.2741 105.886 35.5014 105.614V106.841C35.5014 107.932 34.6378 109 33.0469 109ZM42.8352 110.182C44.767 110.182 46.0398 109 46.267 107.455H44.9261C44.6761 108.409 43.8807 108.977 42.8352 108.977C41.2443 108.977 40.2216 107.659 40.2216 105.636C40.2216 103.659 41.267 102.364 42.8352 102.364C44.017 102.364 44.7216 103.091 44.9261 103.886H46.267C46.0398 102.25 44.6534 101.159 42.8125 101.159C40.4489 101.159 38.8807 103.023 38.8807 105.682C38.8807 108.295 40.3807 110.182 42.8352 110.182ZM49.0909 113.273C50.3011 113.273 51.1534 112.631 51.6591 111.273L55.375 101.295L53.9091 101.273L51.5 108.227H51.4091L49 101.273H47.5455L50.7727 110.045L50.5227 110.727C50.0341 112.057 49.4318 112.182 48.4545 111.932L48.1136 113.114C48.25 113.182 48.6364 113.273 49.0909 113.273ZM61.831 110H63.2401V105.75H65.7855C68.4957 105.75 69.7173 104.102 69.7173 102.045C69.7173 99.9886 68.4957 98.3636 65.7628 98.3636H61.831V110ZM63.2401 104.5V99.6136H65.7173C67.6094 99.6136 68.331 100.648 68.331 102.045C68.331 103.443 67.6094 104.5 65.7401 104.5H63.2401ZM75.2571 110.182C77.6207 110.182 79.2116 108.386 79.2116 105.682C79.2116 102.955 77.6207 101.159 75.2571 101.159C72.8935 101.159 71.3026 102.955 71.3026 105.682C71.3026 108.386 72.8935 110.182 75.2571 110.182ZM75.2571 108.977C73.4616 108.977 72.6435 107.432 72.6435 105.682C72.6435 103.932 73.4616 102.364 75.2571 102.364C77.0526 102.364 77.8707 103.932 77.8707 105.682C77.8707 107.432 77.0526 108.977 75.2571 108.977ZM82.5994 98.3636H81.2585V110H82.5994V98.3636ZM85.0554 110H86.3963V101.273H85.0554V110ZM85.7372 99.8182C86.2599 99.8182 86.6918 99.4091 86.6918 98.9091C86.6918 98.4091 86.2599 98 85.7372 98C85.2145 98 84.7827 98.4091 84.7827 98.9091C84.7827 99.4091 85.2145 99.8182 85.7372 99.8182ZM92.3977 110.182C94.3295 110.182 95.6023 109 95.8295 107.455H94.4886C94.2386 108.409 93.4432 108.977 92.3977 108.977C90.8068 108.977 89.7841 107.659 89.7841 105.636C89.7841 103.659 90.8295 102.364 92.3977 102.364C93.5795 102.364 94.2841 103.091 94.4886 103.886H95.8295C95.6023 102.25 94.2159 101.159 92.375 101.159C90.0114 101.159 88.4432 103.023 88.4432 105.682C88.4432 108.295 89.9432 110.182 92.3977 110.182ZM98.6534 113.273C99.8636 113.273 100.716 112.631 101.222 111.273L104.938 101.295L103.472 101.273L101.062 108.227H100.972L98.5625 101.273H97.108L100.335 110.045L100.085 110.727C99.5966 112.057 98.9943 112.182 98.017 111.932L97.6761 113.114C97.8125 113.182 98.1989 113.273 98.6534 113.273Z" fill="#272343"/>
<path d="M1.90909 140H3.31818V134.795H9.52273V140H10.9318V128.364H9.52273V133.545H3.31818V128.364H1.90909V140ZM17.2301 140.182C19.0028 140.182 20.2983 139.295 20.7074 137.977L19.4119 137.614C19.071 138.523 18.2812 138.977 17.2301 138.977C15.6562 138.977 14.571 137.96 14.5085 136.091H20.8438V135.523C20.8438 132.273 18.9119 131.159 17.0938 131.159C14.7301 131.159 13.1619 133.023 13.1619 135.705C13.1619 138.386 14.7074 140.182 17.2301 140.182ZM14.5085 134.932C14.5994 133.574 15.5597 132.364 17.0938 132.364C18.5483 132.364 19.4801 133.455 19.4801 134.932H14.5085ZM24.2244 128.364H22.8835V140H24.2244V128.364ZM26.6804 143.273H28.0213V138.659H28.1349C28.4304 139.136 28.9986 140.182 30.6804 140.182C32.8622 140.182 34.3849 138.432 34.3849 135.659C34.3849 132.909 32.8622 131.159 30.6577 131.159C28.9531 131.159 28.4304 132.205 28.1349 132.659H27.9759V131.273H26.6804V143.273ZM27.9986 135.636C27.9986 133.682 28.8622 132.364 30.4986 132.364C32.2031 132.364 33.044 133.795 33.044 135.636C33.044 137.5 32.1804 138.977 30.4986 138.977C28.8849 138.977 27.9986 137.614 27.9986 135.636Z" fill="#272343"/>
</svg>
