<svg width="424" height="142" viewBox="0 0 424 142" fill="none" xmlns="http://www.w3.org/2000/svg">
<path d="M9.33665 2.81818V13H7.92472L2.74929 5.53267H2.65483V13H1.11861V2.81818H2.54048L7.72088 10.2955H7.81534V2.81818H9.33665ZM12.4176 13V2.81818H18.8011V4.14062H13.9538V7.2429H18.468V8.56037H13.9538V11.6776H18.8608V13H12.4176ZM23.6867 13L20.8629 2.81818H22.4787L24.4623 10.7031H24.5568L26.62 2.81818H28.2208L30.284 10.7081H30.3785L32.3572 2.81818H33.9779L31.1491 13H29.6029L27.4602 5.37358H27.3806L25.2379 13H23.6867ZM41.7446 5.4929C41.6916 5.02225 41.4728 4.65767 41.0884 4.39915C40.7039 4.13731 40.22 4.00639 39.6367 4.00639C39.219 4.00639 38.8578 4.07268 38.5528 4.20526C38.2479 4.33452 38.0109 4.51349 37.8419 4.74219C37.6762 4.96757 37.5933 5.22443 37.5933 5.51278C37.5933 5.75473 37.6497 5.96354 37.7624 6.1392C37.8784 6.31487 38.0292 6.46236 38.2148 6.58168C38.4037 6.69768 38.6059 6.79545 38.8213 6.875C39.0367 6.95123 39.2439 7.0142 39.4428 7.06392L40.4371 7.32244C40.7619 7.40199 41.095 7.50971 41.4364 7.6456C41.7778 7.78149 42.0943 7.96046 42.3859 8.18253C42.6776 8.40459 42.9129 8.67969 43.0919 9.00781C43.2742 9.33594 43.3653 9.72869 43.3653 10.1861C43.3653 10.7628 43.2162 11.2749 42.9179 11.7223C42.6229 12.1697 42.1937 12.5227 41.6303 12.7812C41.0701 13.0398 40.3923 13.169 39.5969 13.169C38.8346 13.169 38.175 13.0481 37.6182 12.8061C37.0614 12.5642 36.6255 12.2211 36.3107 11.777C35.9958 11.3295 35.8218 10.7992 35.7886 10.1861H37.3298C37.3597 10.554 37.479 10.8606 37.6878 11.1058C37.8999 11.3478 38.17 11.5284 38.4982 11.6477C38.8296 11.7637 39.1925 11.8217 39.5869 11.8217C40.0211 11.8217 40.4073 11.7538 40.7453 11.6179C41.0867 11.4787 41.3552 11.2865 41.5507 11.0412C41.7463 10.7926 41.844 10.5026 41.844 10.1712C41.844 9.86955 41.7579 9.62263 41.5855 9.4304C41.4165 9.23816 41.1861 9.07907 40.8945 8.95312C40.6061 8.82718 40.2796 8.71615 39.9151 8.62003L38.7119 8.2919C37.8966 8.06984 37.2503 7.74337 36.773 7.3125C36.2991 6.88163 36.0621 6.31155 36.0621 5.60227C36.0621 5.01562 36.2212 4.50355 36.5394 4.06605C36.8575 3.62855 37.2884 3.28883 37.832 3.04688C38.3755 2.80161 38.9887 2.67898 39.6715 2.67898C40.3609 2.67898 40.969 2.79995 41.496 3.0419C42.0263 3.28385 42.4439 3.61695 42.7489 4.04119C43.0538 4.46212 43.2129 4.94602 43.2261 5.4929H41.7446ZM46.0411 13V2.81818H47.5773V11.6776H52.191V13H46.0411ZM54.7835 13V2.81818H61.167V4.14062H56.3197V7.2429H60.8339V8.56037H56.3197V11.6776H61.2266V13H54.7835ZM63.5569 4.14062V2.81818H71.4368V4.14062H68.26V13H66.7287V4.14062H63.5569ZM73.516 4.14062V2.81818H81.396V4.14062H78.2191V13H76.6879V4.14062H73.516ZM83.9773 13V2.81818H90.3608V4.14062H85.5135V7.2429H90.0277V8.56037H85.5135V11.6776H90.4205V13H83.9773ZM93.2528 13V2.81818H96.8821C97.6709 2.81818 98.3255 2.95407 98.8459 3.22585C99.3695 3.49763 99.7606 3.87382 100.019 4.3544C100.278 4.83168 100.407 5.38352 100.407 6.00994C100.407 6.63305 100.276 7.18158 100.014 7.65554C99.7557 8.12618 99.3646 8.49242 98.8409 8.75426C98.3205 9.0161 97.6659 9.14702 96.8771 9.14702H94.1278V7.82457H96.7379C97.2351 7.82457 97.6394 7.75331 97.951 7.6108C98.2658 7.46828 98.4962 7.26113 98.642 6.98935C98.7879 6.71757 98.8608 6.3911 98.8608 6.00994C98.8608 5.62547 98.7862 5.29238 98.6371 5.01065C98.4912 4.72893 98.2609 4.51349 97.946 4.36435C97.6345 4.21188 97.2251 4.13565 96.718 4.13565H94.789V13H93.2528ZM98.2791 8.40625L100.795 13H99.0447L96.5788 8.40625H98.2791Z" fill="#9A9CAA"/>
<rect x="297" y="35" width="127" height="46" rx="8" fill="#029FAE"/>
<path d="M328.823 55.5625H330.852C330.812 53.5966 329.136 52.2045 326.658 52.2045C324.215 52.2045 322.38 53.5795 322.386 55.6364C322.386 57.3068 323.573 58.267 325.488 58.7614L326.812 59.1023C328.067 59.4205 328.897 59.8125 328.903 60.7159C328.897 61.7102 327.954 62.375 326.579 62.375C325.261 62.375 324.238 61.7841 324.153 60.5625H322.079C322.164 62.875 323.886 64.1761 326.596 64.1761C329.386 64.1761 331.005 62.7841 331.011 60.733C331.005 58.7159 329.34 57.7955 327.59 57.3807L326.499 57.108C325.545 56.8807 324.511 56.4773 324.522 55.5057C324.528 54.6307 325.312 53.9886 326.63 53.9886C327.886 53.9886 328.715 54.5739 328.823 55.5625ZM338.362 60.3295C338.362 61.6591 337.413 62.3182 336.504 62.3182C335.515 62.3182 334.856 61.6193 334.856 60.5114V55.2727H332.799V60.8295C332.799 62.9261 333.992 64.1136 335.708 64.1136C337.015 64.1136 337.935 63.4261 338.333 62.4489H338.424V64H340.418V55.2727H338.362V60.3295ZM342.624 64H344.647V62.625H344.766C345.09 63.2614 345.766 64.1534 347.266 64.1534C349.323 64.1534 350.863 62.5227 350.863 59.6477C350.863 56.7386 349.278 55.1591 347.261 55.1591C345.721 55.1591 345.079 56.0852 344.766 56.7159H344.681V52.3636H342.624V64ZM344.641 59.6364C344.641 57.9432 345.369 56.8466 346.692 56.8466C348.062 56.8466 348.766 58.0114 348.766 59.6364C348.766 61.2727 348.05 62.4659 346.692 62.4659C345.38 62.4659 344.641 61.3295 344.641 59.6364ZM359.509 57.5795C359.225 56.1023 358.043 55.1591 355.998 55.1591C353.896 55.1591 352.464 56.1932 352.469 57.8068C352.464 59.0795 353.248 59.9205 354.924 60.267L356.413 60.5795C357.214 60.7557 357.589 61.0795 357.589 61.5739C357.589 62.1705 356.941 62.6193 355.964 62.6193C355.021 62.6193 354.407 62.2102 354.231 61.4261L352.225 61.6193C352.481 63.2216 353.827 64.1705 355.969 64.1705C358.151 64.1705 359.691 63.0398 359.697 61.3864C359.691 60.142 358.89 59.3807 357.242 59.0227L355.754 58.7045C354.867 58.5057 354.515 58.1989 354.521 57.6932C354.515 57.1023 355.168 56.6932 356.026 56.6932C356.975 56.6932 357.475 57.2102 357.634 57.7841L359.509 57.5795ZM365.2 64.1705C367.393 64.1705 368.79 62.8693 368.938 61.017H366.972C366.796 61.9545 366.12 62.4943 365.217 62.4943C363.933 62.4943 363.103 61.4205 363.103 59.6364C363.103 57.875 363.95 56.8182 365.217 56.8182C366.205 56.8182 366.813 57.4545 366.972 58.2955H368.938C368.796 56.4034 367.319 55.1591 365.188 55.1591C362.631 55.1591 361.018 57.0057 361.018 59.6705C361.018 62.3125 362.592 64.1705 365.2 64.1705ZM370.627 64H372.684V58.8693C372.684 57.7614 373.519 56.9773 374.65 56.9773C374.996 56.9773 375.428 57.0398 375.604 57.0966V55.2045C375.417 55.1705 375.093 55.1477 374.866 55.1477C373.866 55.1477 373.031 55.7159 372.712 56.7273H372.621V55.2727H370.627V64ZM376.971 64H379.028V55.2727H376.971V64ZM378.005 54.0341C378.658 54.0341 379.192 53.5341 379.192 52.9205C379.192 52.3011 378.658 51.8011 378.005 51.8011C377.346 51.8011 376.812 52.3011 376.812 52.9205C376.812 53.5341 377.346 54.0341 378.005 54.0341ZM381.234 64H383.256V62.625H383.376C383.7 63.2614 384.376 64.1534 385.876 64.1534C387.933 64.1534 389.472 62.5227 389.472 59.6477C389.472 56.7386 387.887 55.1591 385.87 55.1591C384.33 55.1591 383.688 56.0852 383.376 56.7159H383.29V52.3636H381.234V64ZM383.251 59.6364C383.251 57.9432 383.978 56.8466 385.302 56.8466C386.671 56.8466 387.376 58.0114 387.376 59.6364C387.376 61.2727 386.66 62.4659 385.302 62.4659C383.989 62.4659 383.251 61.3295 383.251 59.6364ZM395.085 64.1705C397.119 64.1705 398.516 63.1761 398.88 61.6591L396.96 61.4432C396.681 62.1818 395.999 62.5682 395.113 62.5682C393.783 62.5682 392.903 61.6932 392.886 60.1989H398.965V59.5682C398.965 56.5057 397.124 55.1591 394.977 55.1591C392.477 55.1591 390.846 56.9943 390.846 59.6875C390.846 62.4261 392.454 64.1705 395.085 64.1705ZM392.891 58.8125C392.954 57.6989 393.778 56.7614 395.005 56.7614C396.187 56.7614 396.982 57.625 396.994 58.8125H392.891Z" fill="white"/>
<rect x="0.5" y="35.5" width="284" height="45" rx="7.5" fill="white" stroke="#E1E3E6"/>
<path d="M20.4091 52.3636H22.0227L25.25 57.7955H25.3864L28.6136 52.3636H30.2273L26.0227 59.2045V64H24.6136V59.2045L20.4091 52.3636ZM34.179 64.1818C33.3911 64.1818 32.6998 63.9943 32.1051 63.6193C31.5142 63.2443 31.0521 62.7197 30.7188 62.0455C30.3892 61.3712 30.2244 60.5833 30.2244 59.6818C30.2244 58.7727 30.3892 57.9792 30.7188 57.3011C31.0521 56.6231 31.5142 56.0966 32.1051 55.7216C32.6998 55.3466 33.3911 55.1591 34.179 55.1591C34.9669 55.1591 35.6563 55.3466 36.2472 55.7216C36.8419 56.0966 37.304 56.6231 37.6335 57.3011C37.9669 57.9792 38.1335 58.7727 38.1335 59.6818C38.1335 60.5833 37.9669 61.3712 37.6335 62.0455C37.304 62.7197 36.8419 63.2443 36.2472 63.6193C35.6563 63.9943 34.9669 64.1818 34.179 64.1818ZM34.179 62.9773C34.7775 62.9773 35.2699 62.8239 35.6562 62.517C36.0426 62.2102 36.3286 61.8068 36.5142 61.3068C36.6998 60.8068 36.7926 60.2652 36.7926 59.6818C36.7926 59.0985 36.6998 58.5549 36.5142 58.0511C36.3286 57.5473 36.0426 57.1402 35.6562 56.8295C35.2699 56.5189 34.7775 56.3636 34.179 56.3636C33.5805 56.3636 33.0881 56.5189 32.7017 56.8295C32.3153 57.1402 32.0294 57.5473 31.8438 58.0511C31.6581 58.5549 31.5653 59.0985 31.5653 59.6818C31.5653 60.2652 31.6581 60.8068 31.8438 61.3068C32.0294 61.8068 32.3153 62.2102 32.7017 62.517C33.0881 62.8239 33.5805 62.9773 34.179 62.9773ZM45.6804 60.4318V55.2727H47.0213V64H45.6804V62.5227H45.5895C45.3849 62.9659 45.0668 63.3428 44.6349 63.6534C44.2031 63.9602 43.6577 64.1136 42.9986 64.1136C42.4531 64.1136 41.9683 63.9943 41.544 63.7557C41.1198 63.5133 40.7865 63.1496 40.544 62.6648C40.3016 62.1761 40.1804 61.5606 40.1804 60.8182V55.2727H41.5213V60.7273C41.5213 61.3636 41.6993 61.8712 42.0554 62.25C42.4152 62.6288 42.8736 62.8182 43.4304 62.8182C43.7637 62.8182 44.1027 62.733 44.4474 62.5625C44.7959 62.392 45.0876 62.1307 45.3224 61.7784C45.5611 61.4261 45.6804 60.9773 45.6804 60.4318ZM49.4773 64V55.2727H50.7727V56.5909H50.8636C51.0227 56.1591 51.3106 55.8087 51.7273 55.5398C52.1439 55.2708 52.6136 55.1364 53.1364 55.1364C53.2348 55.1364 53.358 55.1383 53.5057 55.142C53.6534 55.1458 53.7652 55.1515 53.8409 55.1591V56.5227C53.7955 56.5114 53.6913 56.4943 53.5284 56.4716C53.3693 56.4451 53.2008 56.4318 53.0227 56.4318C52.5985 56.4318 52.2197 56.5208 51.8864 56.6989C51.5568 56.8731 51.2955 57.1155 51.1023 57.4261C50.9129 57.733 50.8182 58.0833 50.8182 58.4773V64H49.4773ZM63.5895 64.1818C62.7486 64.1818 62.0232 63.9962 61.4134 63.625C60.8073 63.25 60.3395 62.7273 60.0099 62.0568C59.6842 61.3826 59.5213 60.5985 59.5213 59.7045C59.5213 58.8106 59.6842 58.0227 60.0099 57.3409C60.3395 56.6553 60.7978 56.1212 61.3849 55.7386C61.9759 55.3523 62.6652 55.1591 63.4531 55.1591C63.9077 55.1591 64.3565 55.2348 64.7997 55.3864C65.2429 55.5379 65.6463 55.7841 66.0099 56.125C66.3736 56.4621 66.6634 56.9091 66.8793 57.4659C67.0952 58.0227 67.2031 58.7083 67.2031 59.5227V60.0909H60.4759V58.9318H65.8395C65.8395 58.4394 65.741 58 65.544 57.6136C65.3509 57.2273 65.0743 56.9223 64.7145 56.6989C64.3584 56.4754 63.938 56.3636 63.4531 56.3636C62.919 56.3636 62.4569 56.4962 62.0668 56.7614C61.6804 57.0227 61.383 57.3636 61.1747 57.7841C60.9664 58.2045 60.8622 58.6553 60.8622 59.1364V59.9091C60.8622 60.5682 60.9759 61.1269 61.2031 61.5852C61.4342 62.0398 61.7543 62.3864 62.1634 62.625C62.5724 62.8598 63.0478 62.9773 63.5895 62.9773C63.9418 62.9773 64.2599 62.928 64.544 62.8295C64.8319 62.7273 65.08 62.5758 65.2884 62.375C65.4967 62.1705 65.6577 61.9167 65.7713 61.6136L67.0668 61.9773C66.9304 62.4167 66.7012 62.803 66.3793 63.1364C66.0573 63.4659 65.6596 63.7235 65.1861 63.9091C64.7126 64.0909 64.1804 64.1818 63.5895 64.1818ZM69.2429 64V55.2727H70.5384V56.6364H70.652C70.8338 56.1705 71.1274 55.8087 71.5327 55.5511C71.938 55.2898 72.4247 55.1591 72.9929 55.1591C73.5687 55.1591 74.0478 55.2898 74.4304 55.5511C74.8168 55.8087 75.1179 56.1705 75.3338 56.6364H75.4247C75.6482 56.1856 75.9834 55.8277 76.4304 55.5625C76.8774 55.2936 77.4134 55.1591 78.0384 55.1591C78.8187 55.1591 79.4569 55.4034 79.9531 55.892C80.4493 56.3769 80.6974 57.1326 80.6974 58.1591V64H79.3565V58.1591C79.3565 57.5152 79.1804 57.0549 78.8281 56.7784C78.4759 56.5019 78.0611 56.3636 77.5838 56.3636C76.9702 56.3636 76.4948 56.5492 76.1577 56.9205C75.8205 57.2879 75.652 57.7538 75.652 58.3182V64H74.2884V58.0227C74.2884 57.5265 74.1274 57.1269 73.8054 56.8239C73.4834 56.517 73.0687 56.3636 72.5611 56.3636C72.2126 56.3636 71.8868 56.4564 71.5838 56.642C71.2846 56.8277 71.0421 57.0852 70.8565 57.4148C70.6747 57.7405 70.5838 58.1174 70.5838 58.5455V64H69.2429ZM85.7173 64.2045C85.1643 64.2045 84.6624 64.1004 84.2116 63.892C83.7609 63.6799 83.4029 63.375 83.1378 62.9773C82.8726 62.5758 82.7401 62.0909 82.7401 61.5227C82.7401 61.0227 82.8385 60.6174 83.0355 60.3068C83.2325 59.9924 83.4957 59.7462 83.8253 59.5682C84.1548 59.3902 84.5185 59.2576 84.9162 59.1705C85.3177 59.0795 85.7211 59.0076 86.1264 58.9545C86.6567 58.8864 87.0866 58.8352 87.4162 58.8011C87.7495 58.7633 87.992 58.7008 88.1435 58.6136C88.2988 58.5265 88.3764 58.375 88.3764 58.1591V58.1136C88.3764 57.553 88.223 57.1174 87.9162 56.8068C87.6132 56.4962 87.1529 56.3409 86.5355 56.3409C85.8954 56.3409 85.3935 56.4811 85.0298 56.7614C84.6662 57.0417 84.4105 57.3409 84.2628 57.6591L82.9901 57.2045C83.2173 56.6742 83.5204 56.2614 83.8991 55.9659C84.2817 55.6667 84.6984 55.4583 85.1491 55.3409C85.6037 55.2197 86.0507 55.1591 86.4901 55.1591C86.7704 55.1591 87.0923 55.1932 87.456 55.2614C87.8234 55.3258 88.1776 55.4602 88.5185 55.6648C88.8632 55.8693 89.1491 56.178 89.3764 56.5909C89.6037 57.0038 89.7173 57.5568 89.7173 58.25V64H88.3764V62.8182H88.3082C88.2173 63.0076 88.0658 63.2102 87.8537 63.4261C87.6416 63.642 87.3594 63.8258 87.0071 63.9773C86.6548 64.1288 86.2249 64.2045 85.7173 64.2045ZM85.9219 63C86.4522 63 86.8991 62.8958 87.2628 62.6875C87.6302 62.4792 87.9067 62.2102 88.0923 61.8807C88.2817 61.5511 88.3764 61.2045 88.3764 60.8409V59.6136C88.3196 59.6818 88.1946 59.7443 88.0014 59.8011C87.812 59.8542 87.5923 59.9015 87.3423 59.9432C87.0961 59.9811 86.8556 60.0152 86.6207 60.0455C86.3897 60.072 86.2022 60.0947 86.0582 60.1136C85.7098 60.1591 85.384 60.233 85.081 60.3352C84.7817 60.4337 84.5393 60.5833 84.3537 60.7841C84.1719 60.9811 84.081 61.25 84.081 61.5909C84.081 62.0568 84.2533 62.4091 84.598 62.6477C84.9465 62.8826 85.3878 63 85.9219 63ZM92.1648 64V55.2727H93.5057V64H92.1648ZM92.8466 53.8182C92.5852 53.8182 92.3598 53.7292 92.1705 53.5511C91.9848 53.3731 91.892 53.1591 91.892 52.9091C91.892 52.6591 91.9848 52.4451 92.1705 52.267C92.3598 52.089 92.5852 52 92.8466 52C93.108 52 93.3314 52.089 93.517 52.267C93.7064 52.4451 93.8011 52.6591 93.8011 52.9091C93.8011 53.1591 93.7064 53.3731 93.517 53.5511C93.3314 53.7292 93.108 53.8182 92.8466 53.8182ZM97.3026 52.3636V64H95.9616V52.3636H97.3026Z" fill="#9A9CAA"/>
<path opacity="0.6" d="M1.32102 113V102.091H2.64205V111.828H7.71307V113H1.32102ZM12.9119 113.17C12.1733 113.17 11.5252 112.995 10.9677 112.643C10.4137 112.292 9.98047 111.8 9.66797 111.168C9.35902 110.536 9.20455 109.797 9.20455 108.952C9.20455 108.099 9.35902 107.355 9.66797 106.72C9.98047 106.084 10.4137 105.591 10.9677 105.239C11.5252 104.887 12.1733 104.712 12.9119 104.712C13.6506 104.712 14.2969 104.887 14.8509 105.239C15.4084 105.591 15.8416 106.084 16.1506 106.72C16.4631 107.355 16.6193 108.099 16.6193 108.952C16.6193 109.797 16.4631 110.536 16.1506 111.168C15.8416 111.8 15.4084 112.292 14.8509 112.643C14.2969 112.995 13.6506 113.17 12.9119 113.17ZM12.9119 112.041C13.473 112.041 13.9347 111.897 14.2969 111.61C14.6591 111.322 14.9272 110.944 15.1012 110.475C15.2752 110.006 15.3622 109.499 15.3622 108.952C15.3622 108.405 15.2752 107.895 15.1012 107.423C14.9272 106.951 14.6591 106.569 14.2969 106.278C13.9347 105.987 13.473 105.841 12.9119 105.841C12.3509 105.841 11.8892 105.987 11.527 106.278C11.1648 106.569 10.8967 106.951 10.7227 107.423C10.5487 107.895 10.4616 108.405 10.4616 108.952C10.4616 109.499 10.5487 110.006 10.7227 110.475C10.8967 110.944 11.1648 111.322 11.527 111.61C11.8892 111.897 12.3509 112.041 12.9119 112.041ZM18.5383 113V104.818H19.7528V106.054H19.838C19.9871 105.649 20.257 105.321 20.6476 105.069C21.0383 104.816 21.4786 104.69 21.9687 104.69C22.061 104.69 22.1764 104.692 22.3149 104.696C22.4534 104.699 22.5582 104.705 22.6292 104.712V105.99C22.5866 105.979 22.4889 105.963 22.3362 105.942C22.1871 105.917 22.029 105.905 21.8621 105.905C21.4644 105.905 21.1093 105.988 20.7968 106.155C20.4878 106.319 20.2428 106.546 20.0617 106.837C19.8841 107.125 19.7954 107.453 19.7954 107.822V113H18.5383ZM27.3007 113.17C26.5123 113.17 25.8323 112.996 25.2606 112.648C24.6924 112.297 24.2538 111.807 23.9449 111.178C23.6395 110.546 23.4868 109.811 23.4868 108.973C23.4868 108.135 23.6395 107.396 23.9449 106.757C24.2538 106.114 24.6835 105.614 25.2339 105.255C25.7879 104.893 26.4342 104.712 27.1729 104.712C27.599 104.712 28.0198 104.783 28.4353 104.925C28.8508 105.067 29.229 105.298 29.5699 105.617C29.9108 105.933 30.1824 106.352 30.3849 106.874C30.5873 107.396 30.6885 108.039 30.6885 108.803V109.335H24.3817V108.249H29.4101C29.4101 107.787 29.3177 107.375 29.1331 107.013C28.952 106.651 28.6927 106.365 28.3554 106.155C28.0216 105.946 27.6274 105.841 27.1729 105.841C26.6721 105.841 26.2389 105.965 25.8731 106.214C25.5109 106.459 25.2322 106.778 25.0368 107.173C24.8415 107.567 24.7439 107.989 24.7439 108.44V109.165C24.7439 109.783 24.8504 110.306 25.0635 110.736C25.2801 111.162 25.5802 111.487 25.9637 111.711C26.3472 111.931 26.7929 112.041 27.3007 112.041C27.6309 112.041 27.9292 111.995 28.1956 111.903C28.4655 111.807 28.6981 111.665 28.8934 111.477C29.0887 111.285 29.2396 111.047 29.3461 110.763L30.5606 111.104C30.4328 111.516 30.218 111.878 29.9161 112.19C29.6143 112.499 29.2414 112.741 28.7975 112.915C28.3536 113.085 27.8547 113.17 27.3007 113.17ZM32.6008 113V104.818H33.8153V106.097H33.9218C34.0922 105.66 34.3675 105.321 34.7474 105.079C35.1274 104.834 35.5837 104.712 36.1164 104.712C36.6562 104.712 37.1054 104.834 37.464 105.079C37.8263 105.321 38.1086 105.66 38.311 106.097H38.3962C38.6057 105.674 38.92 105.338 39.339 105.09C39.7581 104.838 40.2606 104.712 40.8465 104.712C41.578 104.712 42.1764 104.941 42.6416 105.399C43.1068 105.853 43.3394 106.562 43.3394 107.524V113H42.0823V107.524C42.0823 106.92 41.9172 106.489 41.5869 106.23C41.2567 105.971 40.8678 105.841 40.4204 105.841C39.8451 105.841 39.3994 106.015 39.0834 106.363C38.7673 106.707 38.6093 107.144 38.6093 107.673V113H37.3309V107.396C37.3309 106.931 37.18 106.556 36.8781 106.272C36.5763 105.985 36.1874 105.841 35.7116 105.841C35.3849 105.841 35.0795 105.928 34.7954 106.102C34.5148 106.276 34.2876 106.517 34.1135 106.826C33.9431 107.132 33.8579 107.485 33.8579 107.886V113H32.6008ZM49.8566 113V104.818H51.1137V113H49.8566ZM50.4958 103.455C50.2508 103.455 50.0395 103.371 49.8619 103.204C49.6879 103.037 49.6009 102.837 49.6009 102.602C49.6009 102.368 49.6879 102.167 49.8619 102C50.0395 101.833 50.2508 101.75 50.4958 101.75C50.7409 101.75 50.9504 101.833 51.1244 102C51.3019 102.167 51.3907 102.368 51.3907 102.602C51.3907 102.837 51.3019 103.037 51.1244 103.204C50.9504 103.371 50.7409 103.455 50.4958 103.455ZM53.4162 116.068V104.818H54.6307V106.118H54.7798C54.8722 105.976 55 105.795 55.1634 105.575C55.3303 105.351 55.5682 105.152 55.8771 104.978C56.1896 104.8 56.6122 104.712 57.1449 104.712C57.8338 104.712 58.4411 104.884 58.9666 105.228C59.4922 105.573 59.9023 106.061 60.1971 106.693C60.4918 107.325 60.6392 108.071 60.6392 108.93C60.6392 109.797 60.4918 110.548 60.1971 111.184C59.9023 111.816 59.494 112.306 58.9719 112.654C58.4499 112.998 57.848 113.17 57.1662 113.17C56.6406 113.17 56.2198 113.083 55.9038 112.909C55.5877 112.732 55.3445 112.531 55.174 112.308C55.0036 112.08 54.8722 111.892 54.7798 111.743H54.6733V116.068H53.4162ZM54.652 108.909C54.652 109.527 54.7425 110.072 54.9237 110.544C55.1048 111.013 55.3693 111.381 55.7173 111.647C56.0653 111.91 56.4915 112.041 56.9957 112.041C57.5213 112.041 57.9599 111.903 58.3114 111.626C58.6665 111.345 58.9329 110.969 59.1104 110.496C59.2915 110.021 59.3821 109.491 59.3821 108.909C59.3821 108.334 59.2933 107.815 59.1158 107.354C58.9418 106.888 58.6772 106.521 58.3221 106.251C57.9705 105.978 57.5284 105.841 56.9957 105.841C56.4844 105.841 56.0547 105.971 55.7067 106.23C55.3587 106.485 55.0959 106.844 54.9183 107.306C54.7408 107.764 54.652 108.298 54.652 108.909ZM68.3523 106.651L67.223 106.97C67.152 106.782 67.0472 106.599 66.9087 106.422C66.7738 106.24 66.5891 106.091 66.3548 105.974C66.1204 105.857 65.8203 105.798 65.4545 105.798C64.9538 105.798 64.5366 105.914 64.2028 106.145C63.8725 106.372 63.7074 106.661 63.7074 107.013C63.7074 107.325 63.821 107.572 64.0483 107.753C64.2756 107.934 64.6307 108.085 65.1136 108.206L66.3281 108.504C67.0597 108.682 67.6048 108.953 67.9634 109.319C68.3221 109.681 68.5014 110.148 68.5014 110.72C68.5014 111.189 68.3665 111.608 68.0966 111.977C67.8303 112.347 67.4574 112.638 66.978 112.851C66.4986 113.064 65.9411 113.17 65.3054 113.17C64.4709 113.17 63.7802 112.989 63.2333 112.627C62.6864 112.265 62.3402 111.736 62.1946 111.04L63.3878 110.741C63.5014 111.182 63.7163 111.512 64.0323 111.732C64.3519 111.952 64.7692 112.062 65.2841 112.062C65.87 112.062 66.3352 111.938 66.6797 111.69C67.0277 111.437 67.2017 111.136 67.2017 110.784C67.2017 110.5 67.1023 110.262 66.9034 110.07C66.7045 109.875 66.3991 109.729 65.9872 109.634L64.6236 109.314C63.8743 109.136 63.3239 108.861 62.9723 108.488C62.6243 108.112 62.4503 107.641 62.4503 107.077C62.4503 106.615 62.5799 106.207 62.8391 105.852C63.1019 105.496 63.4588 105.218 63.9098 105.015C64.3643 104.813 64.8793 104.712 65.4545 104.712C66.2642 104.712 66.8999 104.889 67.3615 105.244C67.8267 105.599 68.157 106.068 68.3523 106.651ZM75.55 109.655V104.818H76.8071V113H75.55V111.615H75.4648C75.273 112.031 74.9747 112.384 74.5699 112.675C74.165 112.963 73.6537 113.107 73.0358 113.107C72.5244 113.107 72.0699 112.995 71.6721 112.771C71.2744 112.544 70.9619 112.203 70.7346 111.748C70.5074 111.29 70.3937 110.713 70.3937 110.017V104.818H71.6508V109.932C71.6508 110.528 71.8177 111.004 72.1515 111.359C72.4889 111.714 72.9186 111.892 73.4406 111.892C73.7531 111.892 74.0709 111.812 74.3941 111.652C74.7208 111.493 74.9942 111.248 75.2144 110.917C75.4381 110.587 75.55 110.166 75.55 109.655ZM79.1096 113V104.818H80.324V106.097H80.4306C80.601 105.66 80.8762 105.321 81.2562 105.079C81.6362 104.834 82.0925 104.712 82.6252 104.712C83.165 104.712 83.6142 104.834 83.9728 105.079C84.335 105.321 84.6174 105.66 84.8198 106.097H84.905C85.1145 105.674 85.4288 105.338 85.8478 105.09C86.2669 104.838 86.7694 104.712 87.3553 104.712C88.0868 104.712 88.6852 104.941 89.1504 105.399C89.6156 105.853 89.8482 106.562 89.8482 107.524V113H88.5911V107.524C88.5911 106.92 88.426 106.489 88.0957 106.23C87.7654 105.971 87.3766 105.841 86.9292 105.841C86.3539 105.841 85.9082 106.015 85.5922 106.363C85.2761 106.707 85.1181 107.144 85.1181 107.673V113H83.8397V107.396C83.8397 106.931 83.6887 106.556 83.3869 106.272C83.085 105.985 82.6962 105.841 82.2203 105.841C81.8936 105.841 81.5882 105.928 81.3042 106.102C81.0236 106.276 80.7963 106.517 80.6223 106.826C80.4519 107.132 80.3667 107.485 80.3667 107.886V113H79.1096ZM99.4549 113.17C98.7731 113.17 98.1712 112.998 97.6491 112.654C97.1271 112.306 96.7188 111.816 96.424 111.184C96.1293 110.548 95.9819 109.797 95.9819 108.93C95.9819 108.071 96.1293 107.325 96.424 106.693C96.7188 106.061 97.1289 105.573 97.6545 105.228C98.18 104.884 98.7873 104.712 99.4762 104.712C100.009 104.712 100.43 104.8 100.739 104.978C101.051 105.152 101.289 105.351 101.452 105.575C101.619 105.795 101.749 105.976 101.841 106.118H101.948V102.091H103.205V113H101.99V111.743H101.841C101.749 111.892 101.618 112.08 101.447 112.308C101.277 112.531 101.033 112.732 100.717 112.909C100.401 113.083 99.9805 113.17 99.4549 113.17ZM99.6254 112.041C100.13 112.041 100.556 111.91 100.904 111.647C101.252 111.381 101.516 111.013 101.697 110.544C101.879 110.072 101.969 109.527 101.969 108.909C101.969 108.298 101.88 107.764 101.703 107.306C101.525 106.844 101.262 106.485 100.914 106.23C100.566 105.971 100.137 105.841 99.6254 105.841C99.0927 105.841 98.6488 105.978 98.2937 106.251C97.9421 106.521 97.6776 106.888 97.5 107.354C97.326 107.815 97.239 108.334 97.239 108.909C97.239 109.491 97.3278 110.021 97.5053 110.496C97.6864 110.969 97.9528 111.345 98.3043 111.626C98.6594 111.903 99.0998 112.041 99.6254 112.041ZM109.006 113.17C108.267 113.17 107.619 112.995 107.061 112.643C106.507 112.292 106.074 111.8 105.762 111.168C105.453 110.536 105.298 109.797 105.298 108.952C105.298 108.099 105.453 107.355 105.762 106.72C106.074 106.084 106.507 105.591 107.061 105.239C107.619 104.887 108.267 104.712 109.006 104.712C109.744 104.712 110.391 104.887 110.945 105.239C111.502 105.591 111.935 106.084 112.244 106.72C112.557 107.355 112.713 108.099 112.713 108.952C112.713 109.797 112.557 110.536 112.244 111.168C111.935 111.8 111.502 112.292 110.945 112.643C110.391 112.995 109.744 113.17 109.006 113.17ZM109.006 112.041C109.567 112.041 110.028 111.897 110.391 111.61C110.753 111.322 111.021 110.944 111.195 110.475C111.369 110.006 111.456 109.499 111.456 108.952C111.456 108.405 111.369 107.895 111.195 107.423C111.021 106.951 110.753 106.569 110.391 106.278C110.028 105.987 109.567 105.841 109.006 105.841C108.445 105.841 107.983 105.987 107.621 106.278C107.259 106.569 106.99 106.951 106.816 107.423C106.642 107.895 106.555 108.405 106.555 108.952C106.555 109.499 106.642 110.006 106.816 110.475C106.99 110.944 107.259 111.322 107.621 111.61C107.983 111.897 108.445 112.041 109.006 112.041ZM115.889 102.091V113H114.632V102.091H115.889ZM121.515 113.17C120.777 113.17 120.129 112.995 119.571 112.643C119.017 112.292 118.584 111.8 118.271 111.168C117.963 110.536 117.808 109.797 117.808 108.952C117.808 108.099 117.963 107.355 118.271 106.72C118.584 106.084 119.017 105.591 119.571 105.239C120.129 104.887 120.777 104.712 121.515 104.712C122.254 104.712 122.9 104.887 123.454 105.239C124.012 105.591 124.445 106.084 124.754 106.72C125.067 107.355 125.223 108.099 125.223 108.952C125.223 109.797 125.067 110.536 124.754 111.168C124.445 111.8 124.012 112.292 123.454 112.643C122.9 112.995 122.254 113.17 121.515 113.17ZM121.515 112.041C122.077 112.041 122.538 111.897 122.9 111.61C123.263 111.322 123.531 110.944 123.705 110.475C123.879 110.006 123.966 109.499 123.966 108.952C123.966 108.405 123.879 107.895 123.705 107.423C123.531 106.951 123.263 106.569 122.9 106.278C122.538 105.987 122.077 105.841 121.515 105.841C120.954 105.841 120.493 105.987 120.131 106.278C119.768 106.569 119.5 106.951 119.326 107.423C119.152 107.895 119.065 108.405 119.065 108.952C119.065 109.499 119.152 110.006 119.326 110.475C119.5 110.944 119.768 111.322 120.131 111.61C120.493 111.897 120.954 112.041 121.515 112.041ZM127.142 113V104.818H128.356V106.054H128.441C128.591 105.649 128.861 105.321 129.251 105.069C129.642 104.816 130.082 104.69 130.572 104.69C130.665 104.69 130.78 104.692 130.918 104.696C131.057 104.699 131.162 104.705 131.233 104.712V105.99C131.19 105.979 131.092 105.963 130.94 105.942C130.791 105.917 130.633 105.905 130.466 105.905C130.068 105.905 129.713 105.988 129.4 106.155C129.091 106.319 128.846 106.546 128.665 106.837C128.488 107.125 128.399 107.453 128.399 107.822V113H127.142ZM142.737 106.651L141.608 106.97C141.537 106.782 141.432 106.599 141.294 106.422C141.159 106.24 140.974 106.091 140.74 105.974C140.505 105.857 140.205 105.798 139.839 105.798C139.339 105.798 138.921 105.914 138.588 106.145C138.257 106.372 138.092 106.661 138.092 107.013C138.092 107.325 138.206 107.572 138.433 107.753C138.66 107.934 139.015 108.085 139.498 108.206L140.713 108.504C141.444 108.682 141.99 108.953 142.348 109.319C142.707 109.681 142.886 110.148 142.886 110.72C142.886 111.189 142.751 111.608 142.481 111.977C142.215 112.347 141.842 112.638 141.363 112.851C140.883 113.064 140.326 113.17 139.69 113.17C138.856 113.17 138.165 112.989 137.618 112.627C137.071 112.265 136.725 111.736 136.579 111.04L137.773 110.741C137.886 111.182 138.101 111.512 138.417 111.732C138.737 111.952 139.154 112.062 139.669 112.062C140.255 112.062 140.72 111.938 141.064 111.69C141.412 111.437 141.586 111.136 141.586 110.784C141.586 110.5 141.487 110.262 141.288 110.07C141.089 109.875 140.784 109.729 140.372 109.634L139.008 109.314C138.259 109.136 137.709 108.861 137.357 108.488C137.009 108.112 136.835 107.641 136.835 107.077C136.835 106.615 136.965 106.207 137.224 105.852C137.487 105.496 137.844 105.218 138.295 105.015C138.749 104.813 139.264 104.712 139.839 104.712C140.649 104.712 141.285 104.889 141.746 105.244C142.211 105.599 142.542 106.068 142.737 106.651ZM144.778 113V104.818H146.036V113H144.778ZM145.418 103.455C145.173 103.455 144.961 103.371 144.784 103.204C144.61 103.037 144.523 102.837 144.523 102.602C144.523 102.368 144.61 102.167 144.784 102C144.961 101.833 145.173 101.75 145.418 101.75C145.663 101.75 145.872 101.833 146.046 102C146.224 102.167 146.313 102.368 146.313 102.602C146.313 102.837 146.224 103.037 146.046 103.204C145.872 103.371 145.663 103.455 145.418 103.455ZM151.896 104.818V105.884H147.656V104.818H151.896ZM148.892 102.858H150.149V110.656C150.149 111.011 150.201 111.278 150.304 111.455C150.41 111.629 150.545 111.746 150.708 111.807C150.875 111.864 151.051 111.892 151.236 111.892C151.374 111.892 151.488 111.885 151.577 111.871C151.665 111.853 151.737 111.839 151.79 111.828L152.045 112.957C151.96 112.989 151.841 113.021 151.689 113.053C151.536 113.089 151.342 113.107 151.108 113.107C150.753 113.107 150.405 113.03 150.064 112.877C149.727 112.725 149.446 112.492 149.222 112.18C149.002 111.867 148.892 111.473 148.892 110.997V102.858ZM160.414 113.192C159.895 113.192 159.425 113.094 159.002 112.899C158.58 112.7 158.244 112.414 157.995 112.041C157.747 111.665 157.623 111.21 157.623 110.678C157.623 110.209 157.715 109.829 157.9 109.538C158.084 109.243 158.331 109.012 158.64 108.845C158.949 108.678 159.29 108.554 159.663 108.472C160.039 108.387 160.417 108.32 160.797 108.27C161.294 108.206 161.697 108.158 162.006 108.126C162.319 108.091 162.546 108.032 162.688 107.95C162.834 107.869 162.907 107.727 162.907 107.524V107.482C162.907 106.956 162.763 106.548 162.475 106.256C162.191 105.965 161.76 105.82 161.181 105.82C160.581 105.82 160.11 105.951 159.769 106.214C159.428 106.477 159.189 106.757 159.05 107.055L157.857 106.629C158.07 106.132 158.354 105.745 158.709 105.468C159.068 105.187 159.458 104.992 159.881 104.882C160.307 104.768 160.726 104.712 161.138 104.712C161.401 104.712 161.703 104.744 162.044 104.808C162.388 104.868 162.72 104.994 163.04 105.186C163.363 105.377 163.631 105.667 163.844 106.054C164.057 106.441 164.164 106.96 164.164 107.609V113H162.907V111.892H162.843C162.757 112.07 162.615 112.26 162.417 112.462C162.218 112.664 161.953 112.837 161.623 112.979C161.293 113.121 160.89 113.192 160.414 113.192ZM160.605 112.062C161.103 112.062 161.522 111.965 161.863 111.77C162.207 111.574 162.466 111.322 162.64 111.013C162.818 110.704 162.907 110.379 162.907 110.038V108.888C162.853 108.952 162.736 109.01 162.555 109.064C162.377 109.113 162.172 109.158 161.937 109.197C161.706 109.232 161.481 109.264 161.261 109.293C161.044 109.317 160.868 109.339 160.733 109.357C160.407 109.399 160.101 109.468 159.817 109.564C159.537 109.657 159.309 109.797 159.135 109.985C158.965 110.17 158.88 110.422 158.88 110.741C158.88 111.178 159.041 111.509 159.364 111.732C159.691 111.952 160.105 112.062 160.605 112.062ZM166.458 113V104.818H167.673V106.097H167.779C167.95 105.66 168.225 105.321 168.605 105.079C168.985 104.834 169.441 104.712 169.974 104.712C170.514 104.712 170.963 104.834 171.321 105.079C171.684 105.321 171.966 105.66 172.168 106.097H172.254C172.463 105.674 172.777 105.338 173.196 105.09C173.616 104.838 174.118 104.712 174.704 104.712C175.435 104.712 176.034 104.941 176.499 105.399C176.964 105.853 177.197 106.562 177.197 107.524V113H175.94V107.524C175.94 106.92 175.775 106.489 175.444 106.23C175.114 105.971 174.725 105.841 174.278 105.841C173.703 105.841 173.257 106.015 172.941 106.363C172.625 106.707 172.467 107.144 172.467 107.673V113H171.188V107.396C171.188 106.931 171.037 106.556 170.736 106.272C170.434 105.985 170.045 105.841 169.569 105.841C169.242 105.841 168.937 105.928 168.653 106.102C168.372 106.276 168.145 106.517 167.971 106.826C167.801 107.132 167.715 107.485 167.715 107.886V113H166.458ZM182.926 113.17C182.137 113.17 181.457 112.996 180.886 112.648C180.317 112.297 179.879 111.807 179.57 111.178C179.264 110.546 179.112 109.811 179.112 108.973C179.112 108.135 179.264 107.396 179.57 106.757C179.879 106.114 180.309 105.614 180.859 105.255C181.413 104.893 182.059 104.712 182.798 104.712C183.224 104.712 183.645 104.783 184.06 104.925C184.476 105.067 184.854 105.298 185.195 105.617C185.536 105.933 185.807 106.352 186.01 106.874C186.212 107.396 186.313 108.039 186.313 108.803V109.335H180.007V108.249H185.035C185.035 107.787 184.943 107.375 184.758 107.013C184.577 106.651 184.318 106.365 183.98 106.155C183.647 105.946 183.252 105.841 182.798 105.841C182.297 105.841 181.864 105.965 181.498 106.214C181.136 106.459 180.857 106.778 180.662 107.173C180.467 107.567 180.369 107.989 180.369 108.44V109.165C180.369 109.783 180.475 110.306 180.688 110.736C180.905 111.162 181.205 111.487 181.589 111.711C181.972 111.931 182.418 112.041 182.926 112.041C183.256 112.041 183.554 111.995 183.821 111.903C184.09 111.807 184.323 111.665 184.518 111.477C184.714 111.285 184.865 111.047 184.971 110.763L186.186 111.104C186.058 111.516 185.843 111.878 185.541 112.19C185.239 112.499 184.866 112.741 184.422 112.915C183.979 113.085 183.48 113.17 182.926 113.17ZM191.784 104.818V105.884H187.544V104.818H191.784ZM188.78 102.858H190.037V110.656C190.037 111.011 190.088 111.278 190.191 111.455C190.298 111.629 190.433 111.746 190.596 111.807C190.763 111.864 190.939 111.892 191.123 111.892C191.262 111.892 191.376 111.885 191.464 111.871C191.553 111.853 191.624 111.839 191.677 111.828L191.933 112.957C191.848 112.989 191.729 113.021 191.576 113.053C191.424 113.089 191.23 113.107 190.996 113.107C190.641 113.107 190.293 113.03 189.952 112.877C189.614 112.725 189.334 112.492 189.11 112.18C188.89 111.867 188.78 111.473 188.78 110.997V102.858ZM195.55 111.509L195.465 112.084C195.404 112.489 195.312 112.922 195.188 113.384C195.067 113.845 194.941 114.28 194.81 114.689C194.678 115.097 194.57 115.422 194.485 115.663H193.526C193.572 115.436 193.632 115.136 193.707 114.763C193.782 114.39 193.856 113.973 193.931 113.511C194.009 113.053 194.073 112.585 194.122 112.105L194.186 111.509H195.55ZM205.422 113.17C204.655 113.17 203.994 112.989 203.44 112.627C202.886 112.265 202.46 111.766 202.162 111.13C201.863 110.495 201.714 109.768 201.714 108.952C201.714 108.121 201.867 107.387 202.172 106.752C202.481 106.113 202.911 105.614 203.461 105.255C204.015 104.893 204.662 104.712 205.4 104.712C205.976 104.712 206.494 104.818 206.956 105.031C207.417 105.244 207.796 105.543 208.09 105.926C208.385 106.31 208.568 106.757 208.639 107.268H207.382C207.286 106.896 207.073 106.565 206.743 106.278C206.416 105.987 205.976 105.841 205.422 105.841C204.932 105.841 204.502 105.969 204.133 106.224C203.767 106.477 203.481 106.833 203.275 107.295C203.073 107.753 202.971 108.291 202.971 108.909C202.971 109.541 203.071 110.092 203.27 110.56C203.472 111.029 203.756 111.393 204.122 111.652C204.491 111.912 204.925 112.041 205.422 112.041C205.748 112.041 206.045 111.984 206.311 111.871C206.578 111.757 206.803 111.594 206.988 111.381C207.172 111.168 207.304 110.912 207.382 110.614H208.639C208.568 111.097 208.392 111.532 208.112 111.919C207.835 112.302 207.467 112.608 207.009 112.835C206.555 113.059 206.025 113.17 205.422 113.17ZM213.801 113.17C213.062 113.17 212.414 112.995 211.856 112.643C211.302 112.292 210.869 111.8 210.557 111.168C210.248 110.536 210.093 109.797 210.093 108.952C210.093 108.099 210.248 107.355 210.557 106.72C210.869 106.084 211.302 105.591 211.856 105.239C212.414 104.887 213.062 104.712 213.801 104.712C214.539 104.712 215.186 104.887 215.74 105.239C216.297 105.591 216.73 106.084 217.039 106.72C217.352 107.355 217.508 108.099 217.508 108.952C217.508 109.797 217.352 110.536 217.039 111.168C216.73 111.8 216.297 112.292 215.74 112.643C215.186 112.995 214.539 113.17 213.801 113.17ZM213.801 112.041C214.362 112.041 214.823 111.897 215.186 111.61C215.548 111.322 215.816 110.944 215.99 110.475C216.164 110.006 216.251 109.499 216.251 108.952C216.251 108.405 216.164 107.895 215.99 107.423C215.816 106.951 215.548 106.569 215.186 106.278C214.823 105.987 214.362 105.841 213.801 105.841C213.24 105.841 212.778 105.987 212.416 106.278C212.053 106.569 211.785 106.951 211.611 107.423C211.437 107.895 211.35 108.405 211.35 108.952C211.35 109.499 211.437 110.006 211.611 110.475C211.785 110.944 212.053 111.322 212.416 111.61C212.778 111.897 213.24 112.041 213.801 112.041ZM220.684 108.078V113H219.427V104.818H220.641V106.097H220.748C220.94 105.681 221.231 105.347 221.622 105.095C222.012 104.839 222.516 104.712 223.134 104.712C223.688 104.712 224.173 104.825 224.589 105.053C225.004 105.276 225.327 105.617 225.558 106.075C225.789 106.53 225.904 107.105 225.904 107.801V113H224.647V107.886C224.647 107.244 224.48 106.743 224.146 106.384C223.813 106.022 223.354 105.841 222.772 105.841C222.371 105.841 222.012 105.928 221.696 106.102C221.384 106.276 221.137 106.53 220.956 106.864C220.775 107.197 220.684 107.602 220.684 108.078ZM233.997 106.651L232.868 106.97C232.797 106.782 232.692 106.599 232.553 106.422C232.418 106.24 232.234 106.091 231.999 105.974C231.765 105.857 231.465 105.798 231.099 105.798C230.598 105.798 230.181 105.914 229.847 106.145C229.517 106.372 229.352 106.661 229.352 107.013C229.352 107.325 229.466 107.572 229.693 107.753C229.92 107.934 230.275 108.085 230.758 108.206L231.973 108.504C232.704 108.682 233.249 108.953 233.608 109.319C233.967 109.681 234.146 110.148 234.146 110.72C234.146 111.189 234.011 111.608 233.741 111.977C233.475 112.347 233.102 112.638 232.623 112.851C232.143 113.064 231.586 113.17 230.95 113.17C230.115 113.17 229.425 112.989 228.878 112.627C228.331 112.265 227.985 111.736 227.839 111.04L229.032 110.741C229.146 111.182 229.361 111.512 229.677 111.732C229.996 111.952 230.414 112.062 230.929 112.062C231.515 112.062 231.98 111.938 232.324 111.69C232.672 111.437 232.846 111.136 232.846 110.784C232.846 110.5 232.747 110.262 232.548 110.07C232.349 109.875 232.044 109.729 231.632 109.634L230.268 109.314C229.519 109.136 228.968 108.861 228.617 108.488C228.269 108.112 228.095 107.641 228.095 107.077C228.095 106.615 228.224 106.207 228.484 105.852C228.746 105.496 229.103 105.218 229.554 105.015C230.009 104.813 230.524 104.712 231.099 104.712C231.909 104.712 232.544 104.889 233.006 105.244C233.471 105.599 233.801 106.068 233.997 106.651ZM239.469 113.17C238.68 113.17 238 112.996 237.429 112.648C236.86 112.297 236.422 111.807 236.113 111.178C235.807 110.546 235.655 109.811 235.655 108.973C235.655 108.135 235.807 107.396 236.113 106.757C236.422 106.114 236.851 105.614 237.402 105.255C237.956 104.893 238.602 104.712 239.341 104.712C239.767 104.712 240.188 104.783 240.603 104.925C241.019 105.067 241.397 105.298 241.738 105.617C242.079 105.933 242.35 106.352 242.553 106.874C242.755 107.396 242.856 108.039 242.856 108.803V109.335H236.55V108.249H241.578C241.578 107.787 241.486 107.375 241.301 107.013C241.12 106.651 240.861 106.365 240.523 106.155C240.19 105.946 239.795 105.841 239.341 105.841C238.84 105.841 238.407 105.965 238.041 106.214C237.679 106.459 237.4 106.778 237.205 107.173C237.009 107.567 236.912 107.989 236.912 108.44V109.165C236.912 109.783 237.018 110.306 237.231 110.736C237.448 111.162 237.748 111.487 238.132 111.711C238.515 111.931 238.961 112.041 239.469 112.041C239.799 112.041 240.097 111.995 240.364 111.903C240.633 111.807 240.866 111.665 241.061 111.477C241.257 111.285 241.408 111.047 241.514 110.763L242.729 111.104C242.601 111.516 242.386 111.878 242.084 112.19C241.782 112.499 241.409 112.741 240.965 112.915C240.522 113.085 240.023 113.17 239.469 113.17ZM248.093 113.17C247.326 113.17 246.665 112.989 246.111 112.627C245.557 112.265 245.131 111.766 244.833 111.13C244.534 110.495 244.385 109.768 244.385 108.952C244.385 108.121 244.538 107.387 244.843 106.752C245.152 106.113 245.582 105.614 246.132 105.255C246.686 104.893 247.333 104.712 248.071 104.712C248.647 104.712 249.165 104.818 249.627 105.031C250.088 105.244 250.467 105.543 250.761 105.926C251.056 106.31 251.239 106.757 251.31 107.268H250.053C249.957 106.896 249.744 106.565 249.414 106.278C249.087 105.987 248.647 105.841 248.093 105.841C247.603 105.841 247.173 105.969 246.804 106.224C246.438 106.477 246.152 106.833 245.946 107.295C245.744 107.753 245.642 108.291 245.642 108.909C245.642 109.541 245.742 110.092 245.941 110.56C246.143 111.029 246.427 111.393 246.793 111.652C247.162 111.912 247.595 112.041 248.093 112.041C248.419 112.041 248.716 111.984 248.982 111.871C249.248 111.757 249.474 111.594 249.659 111.381C249.843 111.168 249.975 110.912 250.053 110.614H251.31C251.239 111.097 251.063 111.532 250.783 111.919C250.506 112.302 250.138 112.608 249.68 112.835C249.225 113.059 248.696 113.17 248.093 113.17ZM256.706 104.818V105.884H252.466V104.818H256.706ZM253.702 102.858H254.959V110.656C254.959 111.011 255.01 111.278 255.113 111.455C255.22 111.629 255.355 111.746 255.518 111.807C255.685 111.864 255.861 111.892 256.045 111.892C256.184 111.892 256.297 111.885 256.386 111.871C256.475 111.853 256.546 111.839 256.599 111.828L256.855 112.957C256.77 112.989 256.651 113.021 256.498 113.053C256.345 113.089 256.152 113.107 255.918 113.107C255.562 113.107 255.214 113.03 254.873 112.877C254.536 112.725 254.256 112.492 254.032 112.18C253.812 111.867 253.702 111.473 253.702 110.997V102.858ZM261.939 113.17C261.151 113.17 260.471 112.996 259.899 112.648C259.331 112.297 258.892 111.807 258.584 111.178C258.278 110.546 258.125 109.811 258.125 108.973C258.125 108.135 258.278 107.396 258.584 106.757C258.892 106.114 259.322 105.614 259.873 105.255C260.427 104.893 261.073 104.712 261.812 104.712C262.238 104.712 262.658 104.783 263.074 104.925C263.489 105.067 263.868 105.298 264.209 105.617C264.549 105.933 264.821 106.352 265.024 106.874C265.226 107.396 265.327 108.039 265.327 108.803V109.335H259.02V108.249H264.049C264.049 107.787 263.956 107.375 263.772 107.013C263.591 106.651 263.331 106.365 262.994 106.155C262.66 105.946 262.266 105.841 261.812 105.841C261.311 105.841 260.878 105.965 260.512 106.214C260.15 106.459 259.871 106.778 259.676 107.173C259.48 107.567 259.383 107.989 259.383 108.44V109.165C259.383 109.783 259.489 110.306 259.702 110.736C259.919 111.162 260.219 111.487 260.602 111.711C260.986 111.931 261.432 112.041 261.939 112.041C262.27 112.041 262.568 111.995 262.834 111.903C263.104 111.807 263.337 111.665 263.532 111.477C263.727 111.285 263.878 111.047 263.985 110.763L265.199 111.104C265.071 111.516 264.857 111.878 264.555 112.19C264.253 112.499 263.88 112.741 263.436 112.915C262.992 113.085 262.493 113.17 261.939 113.17ZM270.798 104.818V105.884H266.558V104.818H270.798ZM267.793 102.858H269.051V110.656C269.051 111.011 269.102 111.278 269.205 111.455C269.312 111.629 269.446 111.746 269.61 111.807C269.777 111.864 269.953 111.892 270.137 111.892C270.276 111.892 270.389 111.885 270.478 111.871C270.567 111.853 270.638 111.839 270.691 111.828L270.947 112.957C270.862 112.989 270.743 113.021 270.59 113.053C270.437 113.089 270.244 113.107 270.009 113.107C269.654 113.107 269.306 113.03 268.965 112.877C268.628 112.725 268.347 112.492 268.124 112.18C267.903 111.867 267.793 111.473 267.793 110.997V102.858ZM277.845 109.655V104.818H279.102V113H277.845V111.615H277.76C277.568 112.031 277.27 112.384 276.865 112.675C276.46 112.963 275.949 113.107 275.331 113.107C274.819 113.107 274.365 112.995 273.967 112.771C273.569 112.544 273.257 112.203 273.03 111.748C272.802 111.29 272.689 110.713 272.689 110.017V104.818H273.946V109.932C273.946 110.528 274.113 111.004 274.446 111.359C274.784 111.714 275.214 111.892 275.736 111.892C276.048 111.892 276.366 111.812 276.689 111.652C277.016 111.493 277.289 111.248 277.509 110.917C277.733 110.587 277.845 110.166 277.845 109.655ZM281.404 113V104.818H282.619V106.054H282.704C282.853 105.649 283.123 105.321 283.514 105.069C283.904 104.816 284.345 104.69 284.835 104.69C284.927 104.69 285.043 104.692 285.181 104.696C285.32 104.699 285.424 104.705 285.495 104.712V105.99C285.453 105.979 285.355 105.963 285.202 105.942C285.053 105.917 284.895 105.905 284.728 105.905C284.331 105.905 283.975 105.988 283.663 106.155C283.354 106.319 283.109 106.546 282.928 106.837C282.75 107.125 282.662 107.453 282.662 107.822V113H281.404ZM293.612 113.192C293.093 113.192 292.623 113.094 292.2 112.899C291.778 112.7 291.442 112.414 291.194 112.041C290.945 111.665 290.821 111.21 290.821 110.678C290.821 110.209 290.913 109.829 291.098 109.538C291.282 109.243 291.529 109.012 291.838 108.845C292.147 108.678 292.488 108.554 292.861 108.472C293.237 108.387 293.616 108.32 293.995 108.27C294.493 108.206 294.896 108.158 295.205 108.126C295.517 108.091 295.744 108.032 295.886 107.95C296.032 107.869 296.105 107.727 296.105 107.524V107.482C296.105 106.956 295.961 106.548 295.673 106.256C295.389 105.965 294.958 105.82 294.379 105.82C293.779 105.82 293.308 105.951 292.967 106.214C292.627 106.477 292.387 106.757 292.248 107.055L291.055 106.629C291.268 106.132 291.552 105.745 291.907 105.468C292.266 105.187 292.657 104.992 293.079 104.882C293.505 104.768 293.924 104.712 294.336 104.712C294.599 104.712 294.901 104.744 295.242 104.808C295.586 104.868 295.918 104.994 296.238 105.186C296.561 105.377 296.829 105.667 297.042 106.054C297.255 106.441 297.362 106.96 297.362 107.609V113H296.105V111.892H296.041C295.956 112.07 295.814 112.26 295.615 112.462C295.416 112.664 295.151 112.837 294.821 112.979C294.491 113.121 294.088 113.192 293.612 113.192ZM293.804 112.062C294.301 112.062 294.72 111.965 295.061 111.77C295.405 111.574 295.665 111.322 295.839 111.013C296.016 110.704 296.105 110.379 296.105 110.038V108.888C296.052 108.952 295.934 109.01 295.753 109.064C295.576 109.113 295.37 109.158 295.135 109.197C294.905 109.232 294.679 109.264 294.459 109.293C294.242 109.317 294.066 109.339 293.932 109.357C293.605 109.399 293.299 109.468 293.015 109.564C292.735 109.657 292.508 109.797 292.334 109.985C292.163 110.17 292.078 110.422 292.078 110.741C292.078 111.178 292.239 111.509 292.563 111.732C292.889 111.952 293.303 112.062 293.804 112.062ZM302.746 113.17C302.064 113.17 301.462 112.998 300.94 112.654C300.418 112.306 300.01 111.816 299.715 111.184C299.42 110.548 299.273 109.797 299.273 108.93C299.273 108.071 299.42 107.325 299.715 106.693C300.01 106.061 300.42 105.573 300.945 105.228C301.471 104.884 302.078 104.712 302.767 104.712C303.3 104.712 303.721 104.8 304.03 104.978C304.342 105.152 304.58 105.351 304.743 105.575C304.91 105.795 305.04 105.976 305.132 106.118H305.239V102.091H306.496V113H305.281V111.743H305.132C305.04 111.892 304.909 112.08 304.738 112.308C304.568 112.531 304.324 112.732 304.008 112.909C303.692 113.083 303.271 113.17 302.746 113.17ZM302.916 112.041C303.421 112.041 303.847 111.91 304.195 111.647C304.543 111.381 304.807 111.013 304.988 110.544C305.17 110.072 305.26 109.527 305.26 108.909C305.26 108.298 305.171 107.764 304.994 107.306C304.816 106.844 304.553 106.485 304.205 106.23C303.857 105.971 303.428 105.841 302.916 105.841C302.384 105.841 301.94 105.978 301.585 106.251C301.233 106.521 300.969 106.888 300.791 107.354C300.617 107.815 300.53 108.334 300.53 108.909C300.53 109.491 300.619 110.021 300.796 110.496C300.977 110.969 301.244 111.345 301.595 111.626C301.95 111.903 302.391 112.041 302.916 112.041ZM308.973 113V104.818H310.23V113H308.973ZM309.612 103.455C309.367 103.455 309.156 103.371 308.978 103.204C308.804 103.037 308.717 102.837 308.717 102.602C308.717 102.368 308.804 102.167 308.978 102C309.156 101.833 309.367 101.75 309.612 101.75C309.857 101.75 310.067 101.833 310.241 102C310.418 102.167 310.507 102.368 310.507 102.602C310.507 102.837 310.418 103.037 310.241 103.204C310.067 103.371 309.857 103.455 309.612 103.455ZM312.532 116.068V104.818H313.747V106.118H313.896C313.988 105.976 314.116 105.795 314.28 105.575C314.446 105.351 314.684 105.152 314.993 104.978C315.306 104.8 315.728 104.712 316.261 104.712C316.95 104.712 317.557 104.884 318.083 105.228C318.608 105.573 319.019 106.061 319.313 106.693C319.608 107.325 319.755 108.071 319.755 108.93C319.755 109.797 319.608 110.548 319.313 111.184C319.019 111.816 318.61 112.306 318.088 112.654C317.566 112.998 316.964 113.17 316.282 113.17C315.757 113.17 315.336 113.083 315.02 112.909C314.704 112.732 314.461 112.531 314.29 112.308C314.12 112.08 313.988 111.892 313.896 111.743H313.79V116.068H312.532ZM313.768 108.909C313.768 109.527 313.859 110.072 314.04 110.544C314.221 111.013 314.486 111.381 314.834 111.647C315.182 111.91 315.608 112.041 316.112 112.041C316.638 112.041 317.076 111.903 317.428 111.626C317.783 111.345 318.049 110.969 318.227 110.496C318.408 110.021 318.498 109.491 318.498 108.909C318.498 108.334 318.41 107.815 318.232 107.354C318.058 106.888 317.793 106.521 317.438 106.251C317.087 105.978 316.645 105.841 316.112 105.841C315.601 105.841 315.171 105.971 314.823 106.23C314.475 106.485 314.212 106.844 314.035 107.306C313.857 107.764 313.768 108.298 313.768 108.909ZM321.673 113V104.818H322.93V113H321.673ZM322.312 103.455C322.067 103.455 321.856 103.371 321.678 103.204C321.504 103.037 321.417 102.837 321.417 102.602C321.417 102.368 321.504 102.167 321.678 102C321.856 101.833 322.067 101.75 322.312 101.75C322.557 101.75 322.767 101.833 322.941 102C323.118 102.167 323.207 102.368 323.207 102.602C323.207 102.837 323.118 103.037 322.941 103.204C322.767 103.371 322.557 103.455 322.312 103.455ZM331.028 106.651L329.899 106.97C329.828 106.782 329.723 106.599 329.585 106.422C329.45 106.24 329.265 106.091 329.031 105.974C328.796 105.857 328.496 105.798 328.13 105.798C327.63 105.798 327.212 105.914 326.879 106.145C326.548 106.372 326.383 106.661 326.383 107.013C326.383 107.325 326.497 107.572 326.724 107.753C326.951 107.934 327.306 108.085 327.789 108.206L329.004 108.504C329.735 108.682 330.281 108.953 330.639 109.319C330.998 109.681 331.177 110.148 331.177 110.72C331.177 111.189 331.042 111.608 330.772 111.977C330.506 112.347 330.133 112.638 329.654 112.851C329.174 113.064 328.617 113.17 327.981 113.17C327.147 113.17 326.456 112.989 325.909 112.627C325.362 112.265 325.016 111.736 324.87 111.04L326.064 110.741C326.177 111.182 326.392 111.512 326.708 111.732C327.028 111.952 327.445 112.062 327.96 112.062C328.546 112.062 329.011 111.938 329.355 111.69C329.703 111.437 329.877 111.136 329.877 110.784C329.877 110.5 329.778 110.262 329.579 110.07C329.38 109.875 329.075 109.729 328.663 109.634L327.299 109.314C326.55 109.136 326 108.861 325.648 108.488C325.3 108.112 325.126 107.641 325.126 107.077C325.126 106.615 325.256 106.207 325.515 105.852C325.778 105.496 326.135 105.218 326.586 105.015C327.04 104.813 327.555 104.712 328.13 104.712C328.94 104.712 329.576 104.889 330.037 105.244C330.502 105.599 330.833 106.068 331.028 106.651ZM336.393 113.17C335.626 113.17 334.966 112.989 334.412 112.627C333.858 112.265 333.432 111.766 333.133 111.13C332.835 110.495 332.686 109.768 332.686 108.952C332.686 108.121 332.839 107.387 333.144 106.752C333.453 106.113 333.883 105.614 334.433 105.255C334.987 104.893 335.633 104.712 336.372 104.712C336.947 104.712 337.466 104.818 337.927 105.031C338.389 105.244 338.767 105.543 339.062 105.926C339.357 106.31 339.54 106.757 339.611 107.268H338.354C338.258 106.896 338.045 106.565 337.714 106.278C337.388 105.987 336.947 105.841 336.393 105.841C335.903 105.841 335.474 105.969 335.104 106.224C334.739 106.477 334.453 106.833 334.247 107.295C334.044 107.753 333.943 108.291 333.943 108.909C333.943 109.541 334.043 110.092 334.241 110.56C334.444 111.029 334.728 111.393 335.094 111.652C335.463 111.912 335.896 112.041 336.393 112.041C336.72 112.041 337.017 111.984 337.283 111.871C337.549 111.757 337.775 111.594 337.959 111.381C338.144 111.168 338.275 110.912 338.354 110.614H339.611C339.54 111.097 339.364 111.532 339.083 111.919C338.806 112.302 338.439 112.608 337.981 112.835C337.526 113.059 336.997 113.17 336.393 113.17ZM341.448 113V104.818H342.706V113H341.448ZM342.088 103.455C341.843 103.455 341.631 103.371 341.454 103.204C341.28 103.037 341.193 102.837 341.193 102.602C341.193 102.368 341.28 102.167 341.454 102C341.631 101.833 341.843 101.75 342.088 101.75C342.333 101.75 342.542 101.833 342.716 102C342.894 102.167 342.983 102.368 342.983 102.602C342.983 102.837 342.894 103.037 342.716 103.204C342.542 103.371 342.333 103.455 342.088 103.455ZM346.265 108.078V113H345.008V104.818H346.222V106.097H346.329C346.521 105.681 346.812 105.347 347.203 105.095C347.593 104.839 348.097 104.712 348.715 104.712C349.269 104.712 349.754 104.825 350.17 105.053C350.585 105.276 350.908 105.617 351.139 106.075C351.37 106.53 351.485 107.105 351.485 107.801V113H350.228V107.886C350.228 107.244 350.061 106.743 349.727 106.384C349.394 106.022 348.936 105.841 348.353 105.841C347.952 105.841 347.593 105.928 347.277 106.102C346.965 106.276 346.718 106.53 346.537 106.864C346.356 107.197 346.265 107.602 346.265 108.078ZM357.085 116.239C356.478 116.239 355.956 116.161 355.519 116.004C355.082 115.852 354.718 115.649 354.427 115.397C354.139 115.148 353.91 114.882 353.74 114.598L354.741 113.895C354.855 114.044 354.999 114.214 355.173 114.406C355.347 114.602 355.585 114.77 355.886 114.912C356.192 115.058 356.591 115.131 357.085 115.131C357.745 115.131 358.291 114.971 358.72 114.651C359.15 114.332 359.365 113.831 359.365 113.149V111.487H359.258C359.166 111.636 359.035 111.821 358.864 112.041C358.697 112.258 358.456 112.451 358.14 112.622C357.827 112.789 357.405 112.872 356.872 112.872C356.211 112.872 355.618 112.716 355.093 112.403C354.571 112.091 354.157 111.636 353.852 111.04C353.55 110.443 353.399 109.719 353.399 108.866C353.399 108.028 353.546 107.299 353.841 106.677C354.136 106.052 354.546 105.569 355.071 105.228C355.597 104.884 356.204 104.712 356.893 104.712C357.426 104.712 357.848 104.8 358.161 104.978C358.477 105.152 358.718 105.351 358.885 105.575C359.056 105.795 359.187 105.976 359.28 106.118H359.407V104.818H360.622V113.234C360.622 113.938 360.462 114.509 360.142 114.95C359.826 115.393 359.4 115.718 358.864 115.924C358.331 116.134 357.738 116.239 357.085 116.239ZM357.042 111.743C357.547 111.743 357.973 111.627 358.321 111.397C358.669 111.166 358.933 110.834 359.114 110.401C359.296 109.967 359.386 109.449 359.386 108.845C359.386 108.256 359.297 107.735 359.12 107.284C358.942 106.833 358.679 106.48 358.331 106.224C357.983 105.969 357.554 105.841 357.042 105.841C356.51 105.841 356.066 105.976 355.711 106.246C355.359 106.516 355.095 106.878 354.917 107.332C354.743 107.787 354.656 108.291 354.656 108.845C354.656 109.413 354.745 109.916 354.922 110.353C355.103 110.786 355.37 111.127 355.721 111.375C356.076 111.62 356.517 111.743 357.042 111.743ZM370.572 113.17C369.784 113.17 369.104 112.996 368.532 112.648C367.964 112.297 367.525 111.807 367.216 111.178C366.911 110.546 366.758 109.811 366.758 108.973C366.758 108.135 366.911 107.396 367.216 106.757C367.525 106.114 367.955 105.614 368.505 105.255C369.059 104.893 369.706 104.712 370.444 104.712C370.87 104.712 371.291 104.783 371.707 104.925C372.122 105.067 372.5 105.298 372.841 105.617C373.182 105.933 373.454 106.352 373.656 106.874C373.859 107.396 373.96 108.039 373.96 108.803V109.335H367.653V108.249H372.682C372.682 107.787 372.589 107.375 372.405 107.013C372.223 106.651 371.964 106.365 371.627 106.155C371.293 105.946 370.899 105.841 370.444 105.841C369.944 105.841 369.51 105.965 369.145 106.214C368.782 106.459 368.504 106.778 368.308 107.173C368.113 107.567 368.015 107.989 368.015 108.44V109.165C368.015 109.783 368.122 110.306 368.335 110.736C368.552 111.162 368.852 111.487 369.235 111.711C369.619 111.931 370.064 112.041 370.572 112.041C370.902 112.041 371.201 111.995 371.467 111.903C371.737 111.807 371.97 111.665 372.165 111.477C372.36 111.285 372.511 111.047 372.618 110.763L373.832 111.104C373.704 111.516 373.489 111.878 373.188 112.19C372.886 112.499 372.513 112.741 372.069 112.915C371.625 113.085 371.126 113.17 370.572 113.17ZM377.129 102.091V113H375.872V102.091H377.129ZM379.432 113V104.818H380.689V113H379.432ZM380.071 103.455C379.826 103.455 379.615 103.371 379.437 103.204C379.263 103.037 379.176 102.837 379.176 102.602C379.176 102.368 379.263 102.167 379.437 102C379.615 101.833 379.826 101.75 380.071 101.75C380.316 101.75 380.526 101.833 380.7 102C380.877 102.167 380.966 102.368 380.966 102.602C380.966 102.837 380.877 103.037 380.7 103.204C380.526 103.371 380.316 103.455 380.071 103.455ZM386.55 104.818V105.884H382.31V104.818H386.55ZM383.545 102.858H384.802V110.656C384.802 111.011 384.854 111.278 384.957 111.455C385.063 111.629 385.198 111.746 385.362 111.807C385.529 111.864 385.704 111.892 385.889 111.892C386.028 111.892 386.141 111.885 386.23 111.871C386.319 111.853 386.39 111.839 386.443 111.828L386.699 112.957C386.614 112.989 386.495 113.021 386.342 113.053C386.189 113.089 385.996 113.107 385.761 113.107C385.406 113.107 385.058 113.03 384.717 112.877C384.38 112.725 384.099 112.492 383.876 112.18C383.655 111.867 383.545 111.473 383.545 110.997V102.858ZM389.357 113.085C389.094 113.085 388.869 112.991 388.68 112.803C388.492 112.615 388.398 112.389 388.398 112.126C388.398 111.864 388.492 111.638 388.68 111.45C388.869 111.262 389.094 111.168 389.357 111.168C389.62 111.168 389.845 111.262 390.033 111.45C390.222 111.638 390.316 111.864 390.316 112.126C390.316 112.3 390.271 112.46 390.182 112.606C390.097 112.751 389.982 112.869 389.836 112.957C389.694 113.043 389.534 113.085 389.357 113.085ZM9.97159 125.091V136H8.69318L2.74858 127.435H2.64205V136H1.32102V125.091H2.59943L8.56534 133.678H8.67188V125.091H9.97159ZM17.6008 132.655V127.818H18.8579V136H17.6008V134.615H17.5155C17.3238 135.031 17.0255 135.384 16.6207 135.675C16.2158 135.963 15.7045 136.107 15.0866 136.107C14.5752 136.107 14.1206 135.995 13.7229 135.771C13.3252 135.544 13.0127 135.203 12.7854 134.748C12.5581 134.29 12.4445 133.713 12.4445 133.017V127.818H13.7016V132.932C13.7016 133.528 13.8685 134.004 14.2023 134.359C14.5397 134.714 14.9694 134.892 15.4914 134.892C15.8039 134.892 16.1217 134.812 16.4449 134.652C16.7716 134.493 17.045 134.248 17.2652 133.917C17.4889 133.587 17.6008 133.166 17.6008 132.655ZM22.4174 125.091V136H21.1603V125.091H22.4174ZM25.977 125.091V136H24.7199V125.091H25.977ZM30.6871 136.192C30.1687 136.192 29.6982 136.094 29.2756 135.899C28.853 135.7 28.5174 135.414 28.2688 135.041C28.0202 134.665 27.896 134.21 27.896 133.678C27.896 133.209 27.9883 132.829 28.1729 132.538C28.3576 132.243 28.6044 132.012 28.9134 131.845C29.2223 131.678 29.5632 131.554 29.9361 131.472C30.3125 131.387 30.6907 131.32 31.0707 131.27C31.5678 131.206 31.9709 131.158 32.2798 131.126C32.5923 131.091 32.8196 131.032 32.9616 130.95C33.1072 130.869 33.18 130.727 33.18 130.524V130.482C33.18 129.956 33.0362 129.548 32.7486 129.256C32.4645 128.965 32.033 128.82 31.4542 128.82C30.854 128.82 30.3835 128.951 30.0426 129.214C29.7017 129.477 29.462 129.757 29.3235 130.055L28.1303 129.629C28.3434 129.132 28.6275 128.745 28.9826 128.468C29.3413 128.187 29.7319 127.992 30.1545 127.882C30.5806 127.768 30.9996 127.712 31.4116 127.712C31.6744 127.712 31.9762 127.744 32.3171 127.808C32.6616 127.868 32.9936 127.994 33.3132 128.186C33.6364 128.377 33.9045 128.667 34.1175 129.054C34.3306 129.441 34.4371 129.96 34.4371 130.609V136H33.18V134.892H33.1161C33.0309 135.07 32.8888 135.26 32.69 135.462C32.4911 135.664 32.2266 135.837 31.8963 135.979C31.5661 136.121 31.163 136.192 30.6871 136.192ZM30.8789 135.062C31.3761 135.062 31.7951 134.965 32.136 134.77C32.4805 134.574 32.7397 134.322 32.9137 134.013C33.0913 133.704 33.18 133.379 33.18 133.038V131.888C33.1268 131.952 33.0096 132.01 32.8285 132.064C32.6509 132.113 32.445 132.158 32.2106 132.197C31.9798 132.232 31.7543 132.264 31.5341 132.293C31.3175 132.317 31.1417 132.339 31.0067 132.357C30.68 132.399 30.3746 132.468 30.0906 132.564C29.81 132.657 29.5827 132.797 29.4087 132.985C29.2383 133.17 29.1531 133.422 29.1531 133.741C29.1531 134.178 29.3146 134.509 29.6378 134.732C29.9645 134.952 30.3782 135.062 30.8789 135.062ZM36.7316 136V127.818H37.9461V129.097H38.0526C38.2231 128.66 38.4983 128.321 38.8783 128.079C39.2583 127.834 39.7146 127.712 40.2472 127.712C40.787 127.712 41.2362 127.834 41.5949 128.079C41.9571 128.321 42.2394 128.66 42.4419 129.097H42.5271C42.7366 128.674 43.0509 128.338 43.4699 128.09C43.8889 127.838 44.3914 127.712 44.9774 127.712C45.7089 127.712 46.3073 127.941 46.7725 128.399C47.2377 128.853 47.4703 129.562 47.4703 130.524V136H46.2132V130.524C46.2132 129.92 46.048 129.489 45.7178 129.23C45.3875 128.971 44.9987 128.841 44.5512 128.841C43.9759 128.841 43.5303 129.015 43.2142 129.363C42.8982 129.707 42.7401 130.144 42.7401 130.673V136H41.4617V130.396C41.4617 129.931 41.3108 129.556 41.009 129.272C40.7071 128.985 40.3183 128.841 39.8424 128.841C39.5157 128.841 39.2103 128.928 38.9262 129.102C38.6457 129.276 38.4184 129.517 38.2444 129.826C38.074 130.132 37.9887 130.485 37.9887 130.886V136H36.7316ZM57.5457 127.818V128.884H53.3057V127.818H57.5457ZM54.5415 125.858H55.7986V133.656C55.7986 134.011 55.8501 134.278 55.953 134.455C56.0596 134.629 56.1945 134.746 56.3579 134.807C56.5248 134.864 56.7006 134.892 56.8852 134.892C57.0237 134.892 57.1373 134.885 57.2261 134.871C57.3149 134.853 57.3859 134.839 57.4392 134.828L57.6949 135.957C57.6096 135.989 57.4907 136.021 57.338 136.053C57.1853 136.089 56.9917 136.107 56.7574 136.107C56.4023 136.107 56.0542 136.03 55.7133 135.877C55.376 135.725 55.0954 135.492 54.8717 135.18C54.6515 134.867 54.5415 134.473 54.5415 133.997V125.858ZM59.4367 136V127.818H60.6938V136H59.4367ZM60.0759 126.455C59.8309 126.455 59.6196 126.371 59.442 126.204C59.268 126.037 59.181 125.837 59.181 125.602C59.181 125.368 59.268 125.167 59.442 125C59.6196 124.833 59.8309 124.75 60.0759 124.75C60.3209 124.75 60.5305 124.833 60.7045 125C60.882 125.167 60.9708 125.368 60.9708 125.602C60.9708 125.837 60.882 126.037 60.7045 126.204C60.5305 126.371 60.3209 126.455 60.0759 126.455ZM64.2534 131.078V136H62.9963V127.818H64.2108V129.097H64.3173C64.5091 128.681 64.8002 128.347 65.1909 128.095C65.5815 127.839 66.0858 127.712 66.7037 127.712C67.2576 127.712 67.7424 127.825 68.1578 128.053C68.5733 128.276 68.8965 128.617 69.1273 129.075C69.3581 129.53 69.4735 130.105 69.4735 130.801V136H68.2164V130.886C68.2164 130.244 68.0495 129.743 67.7157 129.384C67.3819 129.022 66.9238 128.841 66.3414 128.841C65.9402 128.841 65.5815 128.928 65.2654 129.102C64.9529 129.276 64.7061 129.53 64.525 129.864C64.3439 130.197 64.2534 130.602 64.2534 131.078ZM75.0945 136.17C74.3275 136.17 73.667 135.989 73.113 135.627C72.559 135.265 72.1329 134.766 71.8346 134.13C71.5363 133.495 71.3872 132.768 71.3872 131.952C71.3872 131.121 71.5399 130.387 71.8453 129.752C72.1542 129.113 72.5839 128.614 73.1343 128.255C73.6883 127.893 74.3346 127.712 75.0732 127.712C75.6485 127.712 76.167 127.818 76.6286 128.031C77.0903 128.244 77.4685 128.543 77.7632 128.926C78.058 129.31 78.2409 129.757 78.3119 130.268H77.0548C76.9589 129.896 76.7458 129.565 76.4156 129.278C76.0889 128.987 75.6485 128.841 75.0945 128.841C74.6045 128.841 74.1748 128.969 73.8055 129.224C73.4397 129.477 73.1539 129.833 72.9479 130.295C72.7455 130.753 72.6443 131.291 72.6443 131.909C72.6443 132.541 72.7437 133.092 72.9426 133.56C73.145 134.029 73.4291 134.393 73.7948 134.652C74.1642 134.912 74.5974 135.041 75.0945 135.041C75.4213 135.041 75.7178 134.984 75.9841 134.871C76.2504 134.757 76.4759 134.594 76.6606 134.381C76.8453 134.168 76.9767 133.912 77.0548 133.614H78.3119C78.2409 134.097 78.0651 134.532 77.7845 134.919C77.5075 135.302 77.14 135.608 76.6819 135.835C76.2274 136.059 75.6982 136.17 75.0945 136.17ZM80.1496 136V127.818H81.4067V136H80.1496ZM80.7888 126.455C80.5438 126.455 80.3325 126.371 80.1549 126.204C79.9809 126.037 79.8939 125.837 79.8939 125.602C79.8939 125.368 79.9809 125.167 80.1549 125C80.3325 124.833 80.5438 124.75 80.7888 124.75C81.0338 124.75 81.2433 124.833 81.4173 125C81.5949 125.167 81.6837 125.368 81.6837 125.602C81.6837 125.837 81.5949 126.037 81.4173 126.204C81.2433 126.371 81.0338 126.455 80.7888 126.455ZM86.7987 136.17C86.1168 136.17 85.5149 135.998 84.9929 135.654C84.4709 135.306 84.0625 134.816 83.7678 134.184C83.473 133.548 83.3256 132.797 83.3256 131.93C83.3256 131.071 83.473 130.325 83.7678 129.693C84.0625 129.061 84.4727 128.573 84.9982 128.228C85.5238 127.884 86.131 127.712 86.82 127.712C87.3526 127.712 87.7734 127.8 88.0824 127.978C88.3949 128.152 88.6328 128.351 88.7962 128.575C88.9631 128.795 89.0927 128.976 89.185 129.118H89.2915V125.091H90.5487V136H89.3342V134.743H89.185C89.0927 134.892 88.9613 135.08 88.7908 135.308C88.6204 135.531 88.3771 135.732 88.0611 135.909C87.745 136.083 87.3242 136.17 86.7987 136.17ZM86.9691 135.041C87.4734 135.041 87.8995 134.91 88.2475 134.647C88.5955 134.381 88.8601 134.013 89.0412 133.544C89.2223 133.072 89.3129 132.527 89.3129 131.909C89.3129 131.298 89.2241 130.764 89.0465 130.306C88.869 129.844 88.6062 129.485 88.2582 129.23C87.9102 128.971 87.4805 128.841 86.9691 128.841C86.4364 128.841 85.9925 128.978 85.6374 129.251C85.2859 129.521 85.0213 129.888 84.8438 130.354C84.6697 130.815 84.5827 131.334 84.5827 131.909C84.5827 132.491 84.6715 133.021 84.8491 133.496C85.0302 133.969 85.2965 134.345 85.6481 134.626C86.0032 134.903 86.4435 135.041 86.9691 135.041ZM98.1818 132.655V127.818H99.4389V136H98.1818V134.615H98.0966C97.9048 135.031 97.6065 135.384 97.2017 135.675C96.7969 135.963 96.2855 136.107 95.6676 136.107C95.1562 136.107 94.7017 135.995 94.304 135.771C93.9063 135.544 93.5938 135.203 93.3665 134.748C93.1392 134.29 93.0256 133.713 93.0256 133.017V127.818H94.2827V132.932C94.2827 133.528 94.4496 134.004 94.7834 134.359C95.1207 134.714 95.5504 134.892 96.0724 134.892C96.3849 134.892 96.7028 134.812 97.0259 134.652C97.3526 134.493 97.6261 134.248 97.8462 133.917C98.07 133.587 98.1818 133.166 98.1818 132.655ZM102.998 131.078V136H101.741V127.818H102.956V129.097H103.062C103.254 128.681 103.545 128.347 103.936 128.095C104.327 127.839 104.831 127.712 105.449 127.712C106.003 127.712 106.487 127.825 106.903 128.053C107.318 128.276 107.642 128.617 107.872 129.075C108.103 129.53 108.219 130.105 108.219 130.801V136H106.962V130.886C106.962 130.244 106.795 129.743 106.461 129.384C106.127 129.022 105.669 128.841 105.087 128.841C104.685 128.841 104.327 128.928 104.011 129.102C103.698 129.276 103.451 129.53 103.27 129.864C103.089 130.197 102.998 130.602 102.998 131.078ZM114.074 127.818V128.884H109.834V127.818H114.074ZM111.07 125.858H112.327V133.656C112.327 134.011 112.378 134.278 112.481 134.455C112.588 134.629 112.723 134.746 112.886 134.807C113.053 134.864 113.229 134.892 113.414 134.892C113.552 134.892 113.666 134.885 113.754 134.871C113.843 134.853 113.914 134.839 113.968 134.828L114.223 135.957C114.138 135.989 114.019 136.021 113.866 136.053C113.714 136.089 113.52 136.107 113.286 136.107C112.931 136.107 112.583 136.03 112.242 135.877C111.904 135.725 111.624 135.492 111.4 135.18C111.18 134.867 111.07 134.473 111.07 133.997V125.858ZM123.614 136.17C122.826 136.17 122.146 135.996 121.574 135.648C121.006 135.297 120.567 134.807 120.258 134.178C119.953 133.546 119.8 132.811 119.8 131.973C119.8 131.135 119.953 130.396 120.258 129.757C120.567 129.114 120.997 128.614 121.547 128.255C122.101 127.893 122.748 127.712 123.486 127.712C123.912 127.712 124.333 127.783 124.749 127.925C125.164 128.067 125.542 128.298 125.883 128.617C126.224 128.933 126.496 129.352 126.698 129.874C126.901 130.396 127.002 131.039 127.002 131.803V132.335H120.695V131.249H125.724C125.724 130.787 125.631 130.375 125.447 130.013C125.265 129.651 125.006 129.365 124.669 129.155C124.335 128.946 123.941 128.841 123.486 128.841C122.986 128.841 122.552 128.965 122.187 129.214C121.824 129.459 121.546 129.778 121.35 130.173C121.155 130.567 121.057 130.989 121.057 131.44V132.165C121.057 132.783 121.164 133.306 121.377 133.736C121.594 134.162 121.894 134.487 122.277 134.711C122.661 134.931 123.106 135.041 123.614 135.041C123.944 135.041 124.243 134.995 124.509 134.903C124.779 134.807 125.012 134.665 125.207 134.477C125.402 134.285 125.553 134.047 125.66 133.763L126.874 134.104C126.746 134.516 126.531 134.878 126.23 135.19C125.928 135.499 125.555 135.741 125.111 135.915C124.667 136.085 124.168 136.17 123.614 136.17ZM128.914 136V127.818H130.129V129.054H130.214C130.363 128.649 130.633 128.321 131.024 128.069C131.414 127.816 131.855 127.69 132.345 127.69C132.437 127.69 132.552 127.692 132.691 127.696C132.829 127.699 132.934 127.705 133.005 127.712V128.99C132.963 128.979 132.865 128.963 132.712 128.942C132.563 128.917 132.405 128.905 132.238 128.905C131.84 128.905 131.485 128.988 131.173 129.155C130.864 129.319 130.619 129.546 130.438 129.837C130.26 130.125 130.171 130.453 130.171 130.822V136H128.914ZM136.903 136.192C136.384 136.192 135.914 136.094 135.491 135.899C135.069 135.7 134.733 135.414 134.485 135.041C134.236 134.665 134.112 134.21 134.112 133.678C134.112 133.209 134.204 132.829 134.389 132.538C134.573 132.243 134.82 132.012 135.129 131.845C135.438 131.678 135.779 131.554 136.152 131.472C136.528 131.387 136.907 131.32 137.286 131.27C137.784 131.206 138.187 131.158 138.496 131.126C138.808 131.091 139.035 131.032 139.177 130.95C139.323 130.869 139.396 130.727 139.396 130.524V130.482C139.396 129.956 139.252 129.548 138.964 129.256C138.68 128.965 138.249 128.82 137.67 128.82C137.07 128.82 136.599 128.951 136.258 129.214C135.918 129.477 135.678 129.757 135.539 130.055L134.346 129.629C134.559 129.132 134.843 128.745 135.198 128.468C135.557 128.187 135.948 127.992 136.37 127.882C136.796 127.768 137.215 127.712 137.627 127.712C137.89 127.712 138.192 127.744 138.533 127.808C138.877 127.868 139.209 127.994 139.529 128.186C139.852 128.377 140.12 128.667 140.333 129.054C140.546 129.441 140.653 129.96 140.653 130.609V136H139.396V134.892H139.332C139.247 135.07 139.105 135.26 138.906 135.462C138.707 135.664 138.442 135.837 138.112 135.979C137.782 136.121 137.379 136.192 136.903 136.192ZM137.095 135.062C137.592 135.062 138.011 134.965 138.352 134.77C138.696 134.574 138.956 134.322 139.13 134.013C139.307 133.704 139.396 133.379 139.396 133.038V131.888C139.343 131.952 139.225 132.01 139.044 132.064C138.867 132.113 138.661 132.158 138.426 132.197C138.196 132.232 137.97 132.264 137.75 132.293C137.533 132.317 137.358 132.339 137.223 132.357C136.896 132.399 136.59 132.468 136.306 132.564C136.026 132.657 135.799 132.797 135.625 132.985C135.454 133.17 135.369 133.422 135.369 133.741C135.369 134.178 135.53 134.509 135.854 134.732C136.18 134.952 136.594 135.062 137.095 135.062ZM146.506 127.818V128.884H142.266V127.818H146.506ZM143.501 125.858H144.759V133.656C144.759 134.011 144.81 134.278 144.913 134.455C145.02 134.629 145.154 134.746 145.318 134.807C145.485 134.864 145.661 134.892 145.845 134.892C145.984 134.892 146.097 134.885 146.186 134.871C146.275 134.853 146.346 134.839 146.399 134.828L146.655 135.957C146.57 135.989 146.451 136.021 146.298 136.053C146.145 136.089 145.952 136.107 145.717 136.107C145.362 136.107 145.014 136.03 144.673 135.877C144.336 135.725 144.055 135.492 143.832 135.18C143.612 134.867 143.501 134.473 143.501 133.997V125.858ZM156.046 136.17C155.257 136.17 154.577 135.996 154.006 135.648C153.438 135.297 152.999 134.807 152.69 134.178C152.385 133.546 152.232 132.811 152.232 131.973C152.232 131.135 152.385 130.396 152.69 129.757C152.999 129.114 153.429 128.614 153.979 128.255C154.533 127.893 155.179 127.712 155.918 127.712C156.344 127.712 156.765 127.783 157.18 127.925C157.596 128.067 157.974 128.298 158.315 128.617C158.656 128.933 158.928 129.352 159.13 129.874C159.332 130.396 159.434 131.039 159.434 131.803V132.335H153.127V131.249H158.155C158.155 130.787 158.063 130.375 157.878 130.013C157.697 129.651 157.438 129.365 157.1 129.155C156.767 128.946 156.373 128.841 155.918 128.841C155.417 128.841 154.984 128.965 154.618 129.214C154.256 129.459 153.977 129.778 153.782 130.173C153.587 130.567 153.489 130.989 153.489 131.44V132.165C153.489 132.783 153.596 133.306 153.809 133.736C154.025 134.162 154.325 134.487 154.709 134.711C155.092 134.931 155.538 135.041 156.046 135.041C156.376 135.041 156.674 134.995 156.941 134.903C157.211 134.807 157.443 134.665 157.638 134.477C157.834 134.285 157.985 134.047 158.091 133.763L159.306 134.104C159.178 134.516 158.963 134.878 158.661 135.19C158.359 135.499 157.987 135.741 157.543 135.915C157.099 136.085 156.6 136.17 156.046 136.17ZM162.603 131.078V136H161.346V127.818H162.56V129.097H162.667C162.859 128.681 163.15 128.347 163.54 128.095C163.931 127.839 164.435 127.712 165.053 127.712C165.607 127.712 166.092 127.825 166.507 128.053C166.923 128.276 167.246 128.617 167.477 129.075C167.708 129.53 167.823 130.105 167.823 130.801V136H166.566V130.886C166.566 130.244 166.399 129.743 166.065 129.384C165.732 129.022 165.273 128.841 164.691 128.841C164.29 128.841 163.931 128.928 163.615 129.102C163.303 129.276 163.056 129.53 162.875 129.864C162.694 130.197 162.603 130.602 162.603 131.078ZM170.12 136V127.818H171.377V136H170.12ZM170.759 126.455C170.514 126.455 170.303 126.371 170.126 126.204C169.952 126.037 169.865 125.837 169.865 125.602C169.865 125.368 169.952 125.167 170.126 125C170.303 124.833 170.514 124.75 170.759 124.75C171.005 124.75 171.214 124.833 171.388 125C171.566 125.167 171.654 125.368 171.654 125.602C171.654 125.837 171.566 126.037 171.388 126.204C171.214 126.371 171.005 126.455 170.759 126.455ZM173.68 136V127.818H174.894V129.097H175.001C175.171 128.66 175.447 128.321 175.827 128.079C176.206 127.834 176.663 127.712 177.195 127.712C177.735 127.712 178.184 127.834 178.543 128.079C178.905 128.321 179.188 128.66 179.39 129.097H179.475C179.685 128.674 179.999 128.338 180.418 128.09C180.837 127.838 181.34 127.712 181.926 127.712C182.657 127.712 183.256 127.941 183.721 128.399C184.186 128.853 184.419 129.562 184.419 130.524V136H183.161V130.524C183.161 129.92 182.996 129.489 182.666 129.23C182.336 128.971 181.947 128.841 181.499 128.841C180.924 128.841 180.479 129.015 180.162 129.363C179.846 129.707 179.688 130.144 179.688 130.673V136H178.41V130.396C178.41 129.931 178.259 129.556 177.957 129.272C177.655 128.985 177.267 128.841 176.791 128.841C176.464 128.841 176.159 128.928 175.874 129.102C175.594 129.276 175.367 129.517 175.193 129.826C175.022 130.132 174.937 130.485 174.937 130.886V136H173.68ZM187.633 136.085C187.37 136.085 187.145 135.991 186.957 135.803C186.768 135.615 186.674 135.389 186.674 135.126C186.674 134.864 186.768 134.638 186.957 134.45C187.145 134.262 187.37 134.168 187.633 134.168C187.896 134.168 188.121 134.262 188.31 134.45C188.498 134.638 188.592 134.864 188.592 135.126C188.592 135.3 188.548 135.46 188.459 135.606C188.374 135.751 188.258 135.869 188.113 135.957C187.971 136.043 187.811 136.085 187.633 136.085Z" fill="#272343"/>
</svg>
