<svg width="332" height="64" viewBox="0 0 332 64" fill="none" xmlns="http://www.w3.org/2000/svg">
<path opacity="0.6" d="M1.88636 0.363636H0.409091L4.68182 12H6.13636L10.4091 0.363636H8.93182L5.47727 10.1591H5.34091L1.88636 0.363636ZM12.0398 12H13.3807V3.27273H12.0398V12ZM12.7216 1.81818C13.2443 1.81818 13.6761 1.40909 13.6761 0.909091C13.6761 0.409091 13.2443 0 12.7216 0C12.1989 0 11.767 0.409091 11.767 0.909091C11.767 1.40909 12.1989 1.81818 12.7216 1.81818ZM22.973 3.27273H21.5185L19.1094 10.2273H19.0185L16.6094 3.27273H15.1548L18.3821 12H19.7457L22.973 3.27273ZM27.0455 12.2045C28.5682 12.2045 29.3636 11.3864 29.6364 10.8182H29.7045V12H31.0455V6.25C31.0455 3.47727 28.9318 3.15909 27.8182 3.15909C26.5 3.15909 25 3.61364 24.3182 5.20455L25.5909 5.65909C25.8864 5.02273 26.5852 4.34091 27.8636 4.34091C29.0966 4.34091 29.7045 4.99432 29.7045 6.11364V6.15909C29.7045 6.80682 29.0455 6.75 27.4545 6.95455C25.8352 7.16477 24.0682 7.52273 24.0682 9.52273C24.0682 11.2273 25.3864 12.2045 27.0455 12.2045ZM27.25 11C26.1818 11 25.4091 10.5227 25.4091 9.59091C25.4091 8.56818 26.3409 8.25 27.3864 8.11364C27.9545 8.04545 29.4773 7.88636 29.7045 7.61364V8.84091C29.7045 9.93182 28.8409 11 27.25 11ZM33.4929 12H34.8338V6.54545C34.8338 5.26705 35.7656 4.36364 36.8111 4.36364C37.8281 4.36364 38.5384 5.02841 38.5384 6.02273V12H39.902V6.31818C39.902 5.19318 40.6065 4.36364 41.8338 4.36364C42.7884 4.36364 43.6065 4.86932 43.6065 6.15909V12H44.9474V6.15909C44.9474 4.10795 43.8452 3.15909 42.2884 3.15909C41.0384 3.15909 40.1236 3.73295 39.6747 4.63636H39.5838C39.152 3.70455 38.3906 3.15909 37.2429 3.15909C36.1065 3.15909 35.2656 3.70455 34.902 4.63636H34.7884V3.27273H33.4929V12ZM52.8991 8.43182C52.8991 10.0682 51.6491 10.8182 50.6491 10.8182C49.5355 10.8182 48.7401 10 48.7401 8.72727V3.27273H47.3991V8.81818C47.3991 11.0455 48.581 12.1136 50.2173 12.1136C51.5355 12.1136 52.3991 11.4091 52.8082 10.5227H52.8991V12H54.2401V3.27273H52.8991V8.43182ZM62.8778 5.22727C62.4574 3.98864 61.5142 3.15909 59.7869 3.15909C57.946 3.15909 56.5824 4.20455 56.5824 5.68182C56.5824 6.88636 57.2983 7.69318 58.9006 8.06818L60.3551 8.40909C61.2358 8.61364 61.6506 9.03409 61.6506 9.63636C61.6506 10.3864 60.8551 11 59.6051 11C58.5085 11 57.821 10.5284 57.5824 9.59091L56.3097 9.90909C56.6222 11.392 57.8438 12.1818 59.6278 12.1818C61.6562 12.1818 63.0369 11.0739 63.0369 9.56818C63.0369 8.35227 62.2756 7.58523 60.7188 7.20455L59.4233 6.88636C58.3892 6.63068 57.9233 6.28409 57.9233 5.61364C57.9233 4.86364 58.7188 4.31818 59.7869 4.31818C60.9574 4.31818 61.4403 4.96591 61.6733 5.56818L62.8778 5.22727ZM73.3509 3.27273H71.4872V1.18182H70.1463V3.27273H68.8281V4.40909H70.1463V9.86364C70.1463 11.3864 71.3736 12.1136 72.5099 12.1136C73.0099 12.1136 73.3281 12.0227 73.5099 11.9545L73.2372 10.75C73.1236 10.7727 72.9418 10.8182 72.6463 10.8182C72.0554 10.8182 71.4872 10.6364 71.4872 9.5V4.40909H73.3509V3.27273ZM75.3679 12H76.7088V6.47727C76.7088 5.29545 77.6406 4.43182 78.9134 4.43182C79.2713 4.43182 79.6406 4.5 79.7315 4.52273V3.15909C79.5781 3.14773 79.2259 3.13636 79.027 3.13636C77.9815 3.13636 77.0724 3.72727 76.7543 4.59091H76.6634V3.27273H75.3679V12ZM81.321 12H82.6619V3.27273H81.321V12ZM82.0028 1.81818C82.5256 1.81818 82.9574 1.40909 82.9574 0.909091C82.9574 0.409091 82.5256 0 82.0028 0C81.4801 0 81.0483 0.409091 81.0483 0.909091C81.0483 1.40909 81.4801 1.81818 82.0028 1.81818ZM91.2997 5.22727C90.8793 3.98864 89.9361 3.15909 88.2088 3.15909C86.3679 3.15909 85.0043 4.20455 85.0043 5.68182C85.0043 6.88636 85.7202 7.69318 87.3224 8.06818L88.777 8.40909C89.6577 8.61364 90.0724 9.03409 90.0724 9.63636C90.0724 10.3864 89.277 11 88.027 11C86.9304 11 86.2429 10.5284 86.0043 9.59091L84.7315 9.90909C85.044 11.392 86.2656 12.1818 88.0497 12.1818C90.0781 12.1818 91.4588 11.0739 91.4588 9.56818C91.4588 8.35227 90.6974 7.58523 89.1406 7.20455L87.8452 6.88636C86.8111 6.63068 86.3452 6.28409 86.3452 5.61364C86.3452 4.86364 87.1406 4.31818 88.2088 4.31818C89.3793 4.31818 89.8622 4.96591 90.0952 5.56818L91.2997 5.22727ZM97.2727 3.27273H95.4091V1.18182H94.0682V3.27273H92.75V4.40909H94.0682V9.86364C94.0682 11.3864 95.2955 12.1136 96.4318 12.1136C96.9318 12.1136 97.25 12.0227 97.4318 11.9545L97.1591 10.75C97.0455 10.7727 96.8636 10.8182 96.5682 10.8182C95.9773 10.8182 95.4091 10.6364 95.4091 9.5V4.40909H97.2727V3.27273ZM99.2898 12H100.631V3.27273H99.2898V12ZM99.9716 1.81818C100.494 1.81818 100.926 1.40909 100.926 0.909091C100.926 0.409091 100.494 0 99.9716 0C99.4489 0 99.017 0.409091 99.017 0.909091C99.017 1.40909 99.4489 1.81818 99.9716 1.81818ZM110.382 15.2727V3.27273H109.087V4.65909H108.928C108.632 4.20455 108.109 3.15909 106.405 3.15909C104.2 3.15909 102.678 4.90909 102.678 7.65909C102.678 10.4318 104.2 12.1818 106.382 12.1818C108.064 12.1818 108.632 11.1364 108.928 10.6591H109.041V15.2727H110.382ZM109.064 7.63636C109.064 9.61364 108.178 10.9773 106.564 10.9773C104.882 10.9773 104.018 9.5 104.018 7.63636C104.018 5.79545 104.859 4.36364 106.564 4.36364C108.2 4.36364 109.064 5.68182 109.064 7.63636ZM118.337 8.43182C118.337 10.0682 117.087 10.8182 116.087 10.8182C114.973 10.8182 114.178 10 114.178 8.72727V3.27273H112.837V8.81818C112.837 11.0455 114.018 12.1136 115.655 12.1136C116.973 12.1136 117.837 11.4091 118.246 10.5227H118.337V12H119.678V3.27273H118.337V8.43182ZM125.793 12.1818C127.565 12.1818 128.861 11.2955 129.27 9.97727L127.974 9.61364C127.634 10.5227 126.844 10.9773 125.793 10.9773C124.219 10.9773 123.134 9.96023 123.071 8.09091H129.406V7.52273C129.406 4.27273 127.474 3.15909 125.656 3.15909C123.293 3.15909 121.724 5.02273 121.724 7.70455C121.724 10.3864 123.27 12.1818 125.793 12.1818ZM123.071 6.93182C123.162 5.57386 124.122 4.36364 125.656 4.36364C127.111 4.36364 128.043 5.45455 128.043 6.93182H123.071ZM139.491 12.1818C141.855 12.1818 143.446 10.3864 143.446 7.68182C143.446 4.95455 141.855 3.15909 139.491 3.15909C137.128 3.15909 135.537 4.95455 135.537 7.68182C135.537 10.3864 137.128 12.1818 139.491 12.1818ZM139.491 10.9773C137.696 10.9773 136.878 9.43182 136.878 7.68182C136.878 5.93182 137.696 4.36364 139.491 4.36364C141.287 4.36364 142.105 5.93182 142.105 7.68182C142.105 9.43182 141.287 10.9773 139.491 10.9773ZM148.788 12.1818C150.47 12.1818 151.038 11.1364 151.334 10.6591H151.493V12H152.788V0.363636H151.447V4.65909H151.334C151.038 4.20455 150.516 3.15909 148.811 3.15909C146.607 3.15909 145.084 4.90909 145.084 7.65909C145.084 10.4318 146.607 12.1818 148.788 12.1818ZM148.97 10.9773C147.288 10.9773 146.425 9.5 146.425 7.63636C146.425 5.79545 147.266 4.36364 148.97 4.36364C150.607 4.36364 151.47 5.68182 151.47 7.63636C151.47 9.61364 150.584 10.9773 148.97 10.9773ZM155.43 12H156.771V3.27273H155.43V12ZM156.112 1.81818C156.635 1.81818 157.067 1.40909 157.067 0.909091C157.067 0.409091 156.635 0 156.112 0C155.589 0 155.158 0.409091 155.158 0.909091C155.158 1.40909 155.589 1.81818 156.112 1.81818ZM162.773 12.1818C165.136 12.1818 166.727 10.3864 166.727 7.68182C166.727 4.95455 165.136 3.15909 162.773 3.15909C160.409 3.15909 158.818 4.95455 158.818 7.68182C158.818 10.3864 160.409 12.1818 162.773 12.1818ZM162.773 10.9773C160.977 10.9773 160.159 9.43182 160.159 7.68182C160.159 5.93182 160.977 4.36364 162.773 4.36364C164.568 4.36364 165.386 5.93182 165.386 7.68182C165.386 9.43182 164.568 10.9773 162.773 10.9773ZM179.456 5.22727C179.036 3.98864 178.092 3.15909 176.365 3.15909C174.524 3.15909 173.161 4.20455 173.161 5.68182C173.161 6.88636 173.876 7.69318 175.479 8.06818L176.933 8.40909C177.814 8.61364 178.229 9.03409 178.229 9.63636C178.229 10.3864 177.433 11 176.183 11C175.087 11 174.399 10.5284 174.161 9.59091L172.888 9.90909C173.2 11.392 174.422 12.1818 176.206 12.1818C178.234 12.1818 179.615 11.0739 179.615 9.56818C179.615 8.35227 178.854 7.58523 177.297 7.20455L176.001 6.88636C174.967 6.63068 174.501 6.28409 174.501 5.61364C174.501 4.86364 175.297 4.31818 176.365 4.31818C177.536 4.31818 178.018 4.96591 178.251 5.56818L179.456 5.22727ZM181.634 12H182.974V3.27273H181.634V12ZM182.315 1.81818C182.838 1.81818 183.27 1.40909 183.27 0.909091C183.27 0.409091 182.838 0 182.315 0C181.793 0 181.361 0.409091 181.361 0.909091C181.361 1.40909 181.793 1.81818 182.315 1.81818ZM189.226 3.27273H187.362V1.18182H186.021V3.27273H184.703V4.40909H186.021V9.86364C186.021 11.3864 187.249 12.1136 188.385 12.1136C188.885 12.1136 189.203 12.0227 189.385 11.9545L189.112 10.75C188.999 10.7727 188.817 10.8182 188.521 10.8182C187.93 10.8182 187.362 10.6364 187.362 9.5V4.40909H189.226V3.27273ZM198.311 12.2045C199.834 12.2045 200.629 11.3864 200.902 10.8182H200.97V12H202.311V6.25C202.311 3.47727 200.197 3.15909 199.084 3.15909C197.766 3.15909 196.266 3.61364 195.584 5.20455L196.857 5.65909C197.152 5.02273 197.851 4.34091 199.129 4.34091C200.362 4.34091 200.97 4.99432 200.97 6.11364V6.15909C200.97 6.80682 200.311 6.75 198.72 6.95455C197.101 7.16477 195.334 7.52273 195.334 9.52273C195.334 11.2273 196.652 12.2045 198.311 12.2045ZM198.516 11C197.447 11 196.675 10.5227 196.675 9.59091C196.675 8.56818 197.607 8.25 198.652 8.11364C199.22 8.04545 200.743 7.88636 200.97 7.61364V8.84091C200.97 9.93182 200.107 11 198.516 11ZM204.759 12H206.099V6.54545C206.099 5.26705 207.031 4.36364 208.077 4.36364C209.094 4.36364 209.804 5.02841 209.804 6.02273V12H211.168V6.31818C211.168 5.19318 211.872 4.36364 213.099 4.36364C214.054 4.36364 214.872 4.86932 214.872 6.15909V12H216.213V6.15909C216.213 4.10795 215.111 3.15909 213.554 3.15909C212.304 3.15909 211.389 3.73295 210.94 4.63636H210.849C210.418 3.70455 209.656 3.15909 208.509 3.15909C207.372 3.15909 206.531 3.70455 206.168 4.63636H206.054V3.27273H204.759V12ZM222.324 12.1818C224.097 12.1818 225.392 11.2955 225.801 9.97727L224.506 9.61364C224.165 10.5227 223.375 10.9773 222.324 10.9773C220.75 10.9773 219.665 9.96023 219.602 8.09091H225.938V7.52273C225.938 4.27273 224.006 3.15909 222.188 3.15909C219.824 3.15909 218.256 5.02273 218.256 7.70455C218.256 10.3864 219.801 12.1818 222.324 12.1818ZM219.602 6.93182C219.693 5.57386 220.653 4.36364 222.188 4.36364C223.642 4.36364 224.574 5.45455 224.574 6.93182H219.602ZM231.773 3.27273H229.909V1.18182H228.568V3.27273H227.25V4.40909H228.568V9.86364C228.568 11.3864 229.795 12.1136 230.932 12.1136C231.432 12.1136 231.75 12.0227 231.932 11.9545L231.659 10.75C231.545 10.7727 231.364 10.8182 231.068 10.8182C230.477 10.8182 229.909 10.6364 229.909 9.5V4.40909H231.773V3.27273ZM245.426 3.27273H243.972L241.562 10.2273H241.472L239.062 3.27273H237.608L240.835 12H242.199L245.426 3.27273ZM250.543 12.1818C252.315 12.1818 253.611 11.2955 254.02 9.97727L252.724 9.61364C252.384 10.5227 251.594 10.9773 250.543 10.9773C248.969 10.9773 247.884 9.96023 247.821 8.09091H254.156V7.52273C254.156 4.27273 252.224 3.15909 250.406 3.15909C248.043 3.15909 246.474 5.02273 246.474 7.70455C246.474 10.3864 248.02 12.1818 250.543 12.1818ZM247.821 6.93182C247.912 5.57386 248.872 4.36364 250.406 4.36364C251.861 4.36364 252.793 5.45455 252.793 6.93182H247.821ZM257.537 0.363636H256.196V12H257.537V0.363636ZM259.993 12H261.334V3.27273H259.993V12ZM260.675 1.81818C261.197 1.81818 261.629 1.40909 261.629 0.909091C261.629 0.409091 261.197 0 260.675 0C260.152 0 259.72 0.409091 259.72 0.909091C259.72 1.40909 260.152 1.81818 260.675 1.81818ZM267.585 3.27273H265.722V1.18182H264.381V3.27273H263.062V4.40909H264.381V9.86364C264.381 11.3864 265.608 12.1136 266.744 12.1136C267.244 12.1136 267.562 12.0227 267.744 11.9545L267.472 10.75C267.358 10.7727 267.176 10.8182 266.881 10.8182C266.29 10.8182 265.722 10.6364 265.722 9.5V4.40909H267.585V3.27273ZM280.284 5.22727C279.864 3.98864 278.92 3.15909 277.193 3.15909C275.352 3.15909 273.989 4.20455 273.989 5.68182C273.989 6.88636 274.705 7.69318 276.307 8.06818L277.761 8.40909C278.642 8.61364 279.057 9.03409 279.057 9.63636C279.057 10.3864 278.261 11 277.011 11C275.915 11 275.227 10.5284 274.989 9.59091L273.716 9.90909C274.028 11.392 275.25 12.1818 277.034 12.1818C279.062 12.1818 280.443 11.0739 280.443 9.56818C280.443 8.35227 279.682 7.58523 278.125 7.20455L276.83 6.88636C275.795 6.63068 275.33 6.28409 275.33 5.61364C275.33 4.86364 276.125 4.31818 277.193 4.31818C278.364 4.31818 278.847 4.96591 279.08 5.56818L280.284 5.22727ZM286.121 12.1818C287.893 12.1818 289.189 11.2955 289.598 9.97727L288.303 9.61364C287.962 10.5227 287.172 10.9773 286.121 10.9773C284.547 10.9773 283.462 9.96023 283.399 8.09091H289.734V7.52273C289.734 4.27273 287.803 3.15909 285.984 3.15909C283.621 3.15909 282.053 5.02273 282.053 7.70455C282.053 10.3864 283.598 12.1818 286.121 12.1818ZM283.399 6.93182C283.49 5.57386 284.45 4.36364 285.984 4.36364C287.439 4.36364 288.371 5.45455 288.371 6.93182H283.399ZM291.774 12H293.115V6.54545C293.115 5.26705 294.047 4.36364 295.092 4.36364C296.109 4.36364 296.82 5.02841 296.82 6.02273V12H298.183V6.31818C298.183 5.19318 298.888 4.36364 300.115 4.36364C301.07 4.36364 301.888 4.86932 301.888 6.15909V12H303.229V6.15909C303.229 4.10795 302.126 3.15909 300.57 3.15909C299.32 3.15909 298.405 3.73295 297.956 4.63636H297.865C297.433 3.70455 296.672 3.15909 295.524 3.15909C294.388 3.15909 293.547 3.70455 293.183 4.63636H293.07V3.27273H291.774V12ZM305.68 15.2727H307.021V10.6591H307.135C307.43 11.1364 307.999 12.1818 309.68 12.1818C311.862 12.1818 313.385 10.4318 313.385 7.65909C313.385 4.90909 311.862 3.15909 309.658 3.15909C307.953 3.15909 307.43 4.20455 307.135 4.65909H306.976V3.27273H305.68V15.2727ZM306.999 7.63636C306.999 5.68182 307.862 4.36364 309.499 4.36364C311.203 4.36364 312.044 5.79545 312.044 7.63636C312.044 9.5 311.18 10.9773 309.499 10.9773C307.885 10.9773 306.999 9.61364 306.999 7.63636ZM319.089 12.1818C320.862 12.1818 322.158 11.2955 322.567 9.97727L321.271 9.61364C320.93 10.5227 320.141 10.9773 319.089 10.9773C317.516 10.9773 316.43 9.96023 316.368 8.09091H322.703V7.52273C322.703 4.27273 320.771 3.15909 318.953 3.15909C316.589 3.15909 315.021 5.02273 315.021 7.70455C315.021 10.3864 316.567 12.1818 319.089 12.1818ZM316.368 6.93182C316.459 5.57386 317.419 4.36364 318.953 4.36364C320.408 4.36364 321.339 5.45455 321.339 6.93182H316.368ZM324.743 12H326.084V6.47727C326.084 5.29545 327.016 4.43182 328.288 4.43182C328.646 4.43182 329.016 4.5 329.107 4.52273V3.15909C328.953 3.14773 328.601 3.13636 328.402 3.13636C327.357 3.13636 326.447 3.72727 326.129 4.59091H326.038V3.27273H324.743V12ZM331.696 10.4091H330.241L330.173 11.0455C330.009 12.5852 329.685 14.1193 329.537 14.8409H330.56C330.832 14.0682 331.412 12.3182 331.605 11.0227L331.696 10.4091ZM4.88636 36.1818C6.65909 36.1818 7.95455 35.2955 8.36364 33.9773L7.06818 33.6136C6.72727 34.5227 5.9375 34.9773 4.88636 34.9773C3.3125 34.9773 2.22727 33.9602 2.16477 32.0909H8.5V31.5227C8.5 28.2727 6.56818 27.1591 4.75 27.1591C2.38636 27.1591 0.818182 29.0227 0.818182 31.7045C0.818182 34.3864 2.36364 36.1818 4.88636 36.1818ZM2.16477 30.9318C2.25568 29.5739 3.21591 28.3636 4.75 28.3636C6.20455 28.3636 7.13636 29.4545 7.13636 30.9318H2.16477ZM16.0398 32.4318C16.0398 34.0682 14.7898 34.8182 13.7898 34.8182C12.6761 34.8182 11.8807 34 11.8807 32.7273V27.2727H10.5398V32.8182C10.5398 35.0455 11.7216 36.1136 13.358 36.1136C14.6761 36.1136 15.5398 35.4091 15.9489 34.5227H16.0398V36H17.3807V27.2727H16.0398V32.4318ZM24.3366 39.2727H25.6776V34.6591H25.7912C26.0866 35.1364 26.6548 36.1818 28.3366 36.1818C30.5185 36.1818 32.0412 34.4318 32.0412 31.6591C32.0412 28.9091 30.5185 27.1591 28.3139 27.1591C26.6094 27.1591 26.0866 28.2045 25.7912 28.6591H25.6321V27.2727H24.3366V39.2727ZM25.6548 31.6364C25.6548 29.6818 26.5185 28.3636 28.1548 28.3636C29.8594 28.3636 30.7003 29.7955 30.7003 31.6364C30.7003 33.5 29.8366 34.9773 28.1548 34.9773C26.5412 34.9773 25.6548 33.6136 25.6548 31.6364ZM37.6321 36.1818C39.9957 36.1818 41.5866 34.3864 41.5866 31.6818C41.5866 28.9545 39.9957 27.1591 37.6321 27.1591C35.2685 27.1591 33.6776 28.9545 33.6776 31.6818C33.6776 34.3864 35.2685 36.1818 37.6321 36.1818ZM37.6321 34.9773C35.8366 34.9773 35.0185 33.4318 35.0185 31.6818C35.0185 29.9318 35.8366 28.3636 37.6321 28.3636C39.4276 28.3636 40.2457 29.9318 40.2457 31.6818C40.2457 33.4318 39.4276 34.9773 37.6321 34.9773ZM49.8153 29.2273C49.3949 27.9886 48.4517 27.1591 46.7244 27.1591C44.8835 27.1591 43.5199 28.2045 43.5199 29.6818C43.5199 30.8864 44.2358 31.6932 45.8381 32.0682L47.2926 32.4091C48.1733 32.6136 48.5881 33.0341 48.5881 33.6364C48.5881 34.3864 47.7926 35 46.5426 35C45.446 35 44.7585 34.5284 44.5199 33.5909L43.2472 33.9091C43.5597 35.392 44.7812 36.1818 46.5653 36.1818C48.5938 36.1818 49.9744 35.0739 49.9744 33.5682C49.9744 32.3523 49.2131 31.5852 47.6562 31.2045L46.3608 30.8864C45.3267 30.6307 44.8608 30.2841 44.8608 29.6136C44.8608 28.8636 45.6562 28.3182 46.7244 28.3182C47.8949 28.3182 48.3778 28.9659 48.6108 29.5682L49.8153 29.2273ZM57.4929 32.4318C57.4929 34.0682 56.2429 34.8182 55.2429 34.8182C54.1293 34.8182 53.3338 34 53.3338 32.7273V27.2727H51.9929V32.8182C51.9929 35.0455 53.1747 36.1136 54.8111 36.1136C56.1293 36.1136 56.9929 35.4091 57.402 34.5227H57.4929V36H58.8338V27.2727H57.4929V32.4318ZM64.9489 36.1818C66.7216 36.1818 68.017 35.2955 68.4261 33.9773L67.1307 33.6136C66.7898 34.5227 66 34.9773 64.9489 34.9773C63.375 34.9773 62.2898 33.9602 62.2273 32.0909H68.5625V31.5227C68.5625 28.2727 66.6307 27.1591 64.8125 27.1591C62.4489 27.1591 60.8807 29.0227 60.8807 31.7045C60.8807 34.3864 62.4261 36.1818 64.9489 36.1818ZM62.2273 30.9318C62.3182 29.5739 63.2784 28.3636 64.8125 28.3636C66.267 28.3636 67.1989 29.4545 67.1989 30.9318H62.2273ZM70.6023 36H71.9432V30.4773C71.9432 29.2955 72.875 28.4318 74.1477 28.4318C74.5057 28.4318 74.875 28.5 74.9659 28.5227V27.1591C74.8125 27.1477 74.4602 27.1364 74.2614 27.1364C73.2159 27.1364 72.3068 27.7273 71.9886 28.5909H71.8977V27.2727H70.6023V36ZM79.9489 36.1818C81.7216 36.1818 83.017 35.2955 83.4261 33.9773L82.1307 33.6136C81.7898 34.5227 81 34.9773 79.9489 34.9773C78.375 34.9773 77.2898 33.9602 77.2273 32.0909H83.5625V31.5227C83.5625 28.2727 81.6307 27.1591 79.8125 27.1591C77.4489 27.1591 75.8807 29.0227 75.8807 31.7045C75.8807 34.3864 77.4261 36.1818 79.9489 36.1818ZM77.2273 30.9318C77.3182 29.5739 78.2784 28.3636 79.8125 28.3636C81.267 28.3636 82.1989 29.4545 82.1989 30.9318H77.2273ZM93.8977 27.2727H92.0341V25.1818H90.6932V27.2727H89.375V28.4091H90.6932V33.8636C90.6932 35.3864 91.9205 36.1136 93.0568 36.1136C93.5568 36.1136 93.875 36.0227 94.0568 35.9545L93.7841 34.75C93.6705 34.7727 93.4886 34.8182 93.1932 34.8182C92.6023 34.8182 92.0341 34.6364 92.0341 33.5V28.4091H93.8977V27.2727ZM101.415 32.4318C101.415 34.0682 100.165 34.8182 99.1648 34.8182C98.0511 34.8182 97.2557 34 97.2557 32.7273V27.2727H95.9148V32.8182C95.9148 35.0455 97.0966 36.1136 98.733 36.1136C100.051 36.1136 100.915 35.4091 101.324 34.5227H101.415V36H102.756V27.2727H101.415V32.4318ZM105.212 36H106.553V30.4773C106.553 29.2955 107.484 28.4318 108.757 28.4318C109.115 28.4318 109.484 28.5 109.575 28.5227V27.1591C109.422 27.1477 109.07 27.1364 108.871 27.1364C107.825 27.1364 106.916 27.7273 106.598 28.5909H106.507V27.2727H105.212V36ZM111.165 39.2727H112.506V34.6591H112.619C112.915 35.1364 113.483 36.1818 115.165 36.1818C117.347 36.1818 118.869 34.4318 118.869 31.6591C118.869 28.9091 117.347 27.1591 115.142 27.1591C113.438 27.1591 112.915 28.2045 112.619 28.6591H112.46V27.2727H111.165V39.2727ZM112.483 31.6364C112.483 29.6818 113.347 28.3636 114.983 28.3636C116.688 28.3636 117.528 29.7955 117.528 31.6364C117.528 33.5 116.665 34.9773 114.983 34.9773C113.369 34.9773 112.483 33.6136 112.483 31.6364ZM120.915 36H122.256V27.2727H120.915V36ZM121.597 25.8182C122.119 25.8182 122.551 25.4091 122.551 24.9091C122.551 24.4091 122.119 24 121.597 24C121.074 24 120.642 24.4091 120.642 24.9091C120.642 25.4091 121.074 25.8182 121.597 25.8182ZM130.893 29.2273C130.473 27.9886 129.53 27.1591 127.803 27.1591C125.962 27.1591 124.598 28.2045 124.598 29.6818C124.598 30.8864 125.314 31.6932 126.916 32.0682L128.371 32.4091C129.251 32.6136 129.666 33.0341 129.666 33.6364C129.666 34.3864 128.871 35 127.621 35C126.524 35 125.837 34.5284 125.598 33.5909L124.325 33.9091C124.638 35.392 125.859 36.1818 127.643 36.1818C129.672 36.1818 131.053 35.0739 131.053 33.5682C131.053 32.3523 130.291 31.5852 128.734 31.2045L127.439 30.8864C126.405 30.6307 125.939 30.2841 125.939 29.6136C125.939 28.8636 126.734 28.3182 127.803 28.3182C128.973 28.3182 129.456 28.9659 129.689 29.5682L130.893 29.2273ZM137.571 36H138.912V27.2727H137.571V36ZM138.253 25.8182C138.776 25.8182 139.207 25.4091 139.207 24.9091C139.207 24.4091 138.776 24 138.253 24C137.73 24 137.298 24.4091 137.298 24.9091C137.298 25.4091 137.73 25.8182 138.253 25.8182ZM142.709 30.75C142.709 29.2273 143.652 28.3636 144.936 28.3636C146.18 28.3636 146.936 29.1761 146.936 30.5455V36H148.277V30.4545C148.277 28.2273 147.089 27.1591 145.322 27.1591C144.004 27.1591 143.186 27.75 142.777 28.6364H142.663V27.2727H141.368V36H142.709V30.75ZM154.523 27.2727H152.659V25.1818H151.318V27.2727H150V28.4091H151.318V33.8636C151.318 35.3864 152.545 36.1136 153.682 36.1136C154.182 36.1136 154.5 36.0227 154.682 35.9545L154.409 34.75C154.295 34.7727 154.114 34.8182 153.818 34.8182C153.227 34.8182 152.659 34.6364 152.659 33.5V28.4091H154.523V27.2727ZM160.105 36.1818C161.878 36.1818 163.173 35.2955 163.582 33.9773L162.287 33.6136C161.946 34.5227 161.156 34.9773 160.105 34.9773C158.531 34.9773 157.446 33.9602 157.384 32.0909H163.719V31.5227C163.719 28.2727 161.787 27.1591 159.969 27.1591C157.605 27.1591 156.037 29.0227 156.037 31.7045C156.037 34.3864 157.582 36.1818 160.105 36.1818ZM157.384 30.9318C157.474 29.5739 158.435 28.3636 159.969 28.3636C161.423 28.3636 162.355 29.4545 162.355 30.9318H157.384ZM165.759 36H167.099V30.4773C167.099 29.2955 168.031 28.4318 169.304 28.4318C169.662 28.4318 170.031 28.5 170.122 28.5227V27.1591C169.969 27.1477 169.616 27.1364 169.418 27.1364C168.372 27.1364 167.463 27.7273 167.145 28.5909H167.054V27.2727H165.759V36ZM174.741 36.1818C176.423 36.1818 176.991 35.1364 177.287 34.6591H177.446V36H178.741V24.3636H177.401V28.6591H177.287C176.991 28.2045 176.469 27.1591 174.764 27.1591C172.56 27.1591 171.037 28.9091 171.037 31.6591C171.037 34.4318 172.56 36.1818 174.741 36.1818ZM174.923 34.9773C173.241 34.9773 172.378 33.5 172.378 31.6364C172.378 29.7955 173.219 28.3636 174.923 28.3636C176.56 28.3636 177.423 29.6818 177.423 31.6364C177.423 33.6136 176.537 34.9773 174.923 34.9773ZM186.884 32.4318C186.884 34.0682 185.634 34.8182 184.634 34.8182C183.52 34.8182 182.724 34 182.724 32.7273V27.2727H181.384V32.8182C181.384 35.0455 182.565 36.1136 184.202 36.1136C185.52 36.1136 186.384 35.4091 186.793 34.5227H186.884V36H188.224V27.2727H186.884V32.4318ZM190.68 36H192.021V30.5455C192.021 29.267 192.953 28.3636 193.999 28.3636C195.016 28.3636 195.726 29.0284 195.726 30.0227V36H197.089V30.3182C197.089 29.1932 197.794 28.3636 199.021 28.3636C199.976 28.3636 200.794 28.8693 200.794 30.1591V36H202.135V30.1591C202.135 28.108 201.033 27.1591 199.476 27.1591C198.226 27.1591 197.311 27.733 196.862 28.6364H196.771C196.339 27.7045 195.578 27.1591 194.43 27.1591C193.294 27.1591 192.453 27.7045 192.089 28.6364H191.976V27.2727H190.68V36ZM205.564 36.0909C206.126 36.0909 206.587 35.6307 206.587 35.0682C206.587 34.5057 206.126 34.0455 205.564 34.0455C205.001 34.0455 204.541 34.5057 204.541 35.0682C204.541 35.6307 205.001 36.0909 205.564 36.0909ZM10.7727 52C10.3409 49.6136 8.43182 48.2045 6.09091 48.2045C3.11364 48.2045 0.954545 50.5 0.954545 54.1818C0.954545 57.8636 3.11364 60.1591 6.09091 60.1591C8.43182 60.1591 10.3409 58.75 10.7727 56.3636H9.36364C9.02273 57.9773 7.63636 58.8409 6.09091 58.8409C3.97727 58.8409 2.31818 57.2045 2.31818 54.1818C2.31818 51.1591 3.97727 49.5227 6.09091 49.5227C7.63636 49.5227 9.02273 50.3864 9.36364 52H10.7727ZM12.8679 60H14.2088V54.4773C14.2088 53.2955 15.1406 52.4318 16.4134 52.4318C16.7713 52.4318 17.1406 52.5 17.2315 52.5227V51.1591C17.0781 51.1477 16.7259 51.1364 16.527 51.1364C15.4815 51.1364 14.5724 51.7273 14.2543 52.5909H14.1634V51.2727H12.8679V60ZM21.3892 60.2045C22.9119 60.2045 23.7074 59.3864 23.9801 58.8182H24.0483V60H25.3892V54.25C25.3892 51.4773 23.2756 51.1591 22.1619 51.1591C20.8438 51.1591 19.3438 51.6136 18.6619 53.2045L19.9347 53.6591C20.2301 53.0227 20.929 52.3409 22.2074 52.3409C23.4403 52.3409 24.0483 52.9943 24.0483 54.1136V54.1591C24.0483 54.8068 23.3892 54.75 21.7983 54.9545C20.179 55.1648 18.4119 55.5227 18.4119 57.5227C18.4119 59.2273 19.7301 60.2045 21.3892 60.2045ZM21.5938 59C20.5256 59 19.7528 58.5227 19.7528 57.5909C19.7528 56.5682 20.6847 56.25 21.7301 56.1136C22.2983 56.0455 23.821 55.8864 24.0483 55.6136V56.8409C24.0483 57.9318 23.1847 59 21.5938 59ZM34.0185 53.2273C33.598 51.9886 32.6548 51.1591 30.9276 51.1591C29.0866 51.1591 27.723 52.2045 27.723 53.6818C27.723 54.8864 28.4389 55.6932 30.0412 56.0682L31.4957 56.4091C32.3764 56.6136 32.7912 57.0341 32.7912 57.6364C32.7912 58.3864 31.9957 59 30.7457 59C29.6491 59 28.9616 58.5284 28.723 57.5909L27.4503 57.9091C27.7628 59.392 28.9844 60.1818 30.7685 60.1818C32.7969 60.1818 34.1776 59.0739 34.1776 57.5682C34.1776 56.3523 33.4162 55.5852 31.8594 55.2045L30.5639 54.8864C29.5298 54.6307 29.0639 54.2841 29.0639 53.6136C29.0639 52.8636 29.8594 52.3182 30.9276 52.3182C32.098 52.3182 32.581 52.9659 32.8139 53.5682L34.0185 53.2273ZM44.3551 60.1818C46.1278 60.1818 47.4233 59.2955 47.8324 57.9773L46.5369 57.6136C46.196 58.5227 45.4062 58.9773 44.3551 58.9773C42.7812 58.9773 41.696 57.9602 41.6335 56.0909H47.9688V55.5227C47.9688 52.2727 46.0369 51.1591 44.2188 51.1591C41.8551 51.1591 40.2869 53.0227 40.2869 55.7045C40.2869 58.3864 41.8324 60.1818 44.3551 60.1818ZM41.6335 54.9318C41.7244 53.5739 42.6847 52.3636 44.2188 52.3636C45.6733 52.3636 46.6051 53.4545 46.6051 54.9318H41.6335ZM53.5312 63.4545C55.6222 63.4545 57.304 62.5 57.304 60.25V51.2727H56.0085V52.6591H55.8722C55.5767 52.2045 55.0312 51.1591 53.3267 51.1591C51.1222 51.1591 49.5994 52.9091 49.5994 55.5909C49.5994 58.3182 51.1903 59.8636 53.304 59.8636C55.0085 59.8636 55.554 58.8636 55.8494 58.3864H55.9631V60.1591C55.9631 61.6136 54.9403 62.2727 53.5312 62.2727C51.946 62.2727 51.3892 61.4375 51.0312 60.9545L49.9631 61.7045C50.5085 62.6193 51.5824 63.4545 53.5312 63.4545ZM53.4858 58.6591C51.804 58.6591 50.9403 57.3864 50.9403 55.5682C50.9403 53.7955 51.7812 52.3636 53.4858 52.3636C55.1222 52.3636 55.9858 53.6818 55.9858 55.5682C55.9858 57.5 55.0994 58.6591 53.4858 58.6591ZM63.4176 60.1818C65.1903 60.1818 66.4858 59.2955 66.8949 57.9773L65.5994 57.6136C65.2585 58.5227 64.4688 58.9773 63.4176 58.9773C61.8438 58.9773 60.7585 57.9602 60.696 56.0909H67.0312V55.5227C67.0312 52.2727 65.0994 51.1591 63.2812 51.1591C60.9176 51.1591 59.3494 53.0227 59.3494 55.7045C59.3494 58.3864 60.8949 60.1818 63.4176 60.1818ZM60.696 54.9318C60.7869 53.5739 61.7472 52.3636 63.2812 52.3636C64.7358 52.3636 65.6676 53.4545 65.6676 54.9318H60.696ZM75.2528 53.2273C74.8324 51.9886 73.8892 51.1591 72.1619 51.1591C70.321 51.1591 68.9574 52.2045 68.9574 53.6818C68.9574 54.8864 69.6733 55.6932 71.2756 56.0682L72.7301 56.4091C73.6108 56.6136 74.0256 57.0341 74.0256 57.6364C74.0256 58.3864 73.2301 59 71.9801 59C70.8835 59 70.196 58.5284 69.9574 57.5909L68.6847 57.9091C68.9972 59.392 70.2188 60.1818 72.0028 60.1818C74.0312 60.1818 75.4119 59.0739 75.4119 57.5682C75.4119 56.3523 74.6506 55.5852 73.0938 55.2045L71.7983 54.8864C70.7642 54.6307 70.2983 54.2841 70.2983 53.6136C70.2983 52.8636 71.0938 52.3182 72.1619 52.3182C73.3324 52.3182 73.8153 52.9659 74.0483 53.5682L75.2528 53.2273ZM81.2259 51.2727H79.3622V49.1818H78.0213V51.2727H76.7031V52.4091H78.0213V57.8636C78.0213 59.3864 79.2486 60.1136 80.3849 60.1136C80.8849 60.1136 81.2031 60.0227 81.3849 59.9545L81.1122 58.75C80.9986 58.7727 80.8168 58.8182 80.5213 58.8182C79.9304 58.8182 79.3622 58.6364 79.3622 57.5V52.4091H81.2259V51.2727ZM85.8111 60.2045C87.3338 60.2045 88.1293 59.3864 88.402 58.8182H88.4702V60H89.8111V54.25C89.8111 51.4773 87.6974 51.1591 86.5838 51.1591C85.2656 51.1591 83.7656 51.6136 83.0838 53.2045L84.3565 53.6591C84.652 53.0227 85.3509 52.3409 86.6293 52.3409C87.8622 52.3409 88.4702 52.9943 88.4702 54.1136V54.1591C88.4702 54.8068 87.8111 54.75 86.2202 54.9545C84.6009 55.1648 82.8338 55.5227 82.8338 57.5227C82.8338 59.2273 84.152 60.2045 85.8111 60.2045ZM86.0156 59C84.9474 59 84.1747 58.5227 84.1747 57.5909C84.1747 56.5682 85.1065 56.25 86.152 56.1136C86.7202 56.0455 88.2429 55.8864 88.4702 55.6136V56.8409C88.4702 57.9318 87.6065 59 86.0156 59ZM98.4403 53.2273C98.0199 51.9886 97.0767 51.1591 95.3494 51.1591C93.5085 51.1591 92.1449 52.2045 92.1449 53.6818C92.1449 54.8864 92.8608 55.6932 94.4631 56.0682L95.9176 56.4091C96.7983 56.6136 97.2131 57.0341 97.2131 57.6364C97.2131 58.3864 96.4176 59 95.1676 59C94.071 59 93.3835 58.5284 93.1449 57.5909L91.8722 57.9091C92.1847 59.392 93.4062 60.1818 95.1903 60.1818C97.2188 60.1818 98.5994 59.0739 98.5994 57.5682C98.5994 56.3523 97.8381 55.5852 96.2812 55.2045L94.9858 54.8864C93.9517 54.6307 93.4858 54.2841 93.4858 53.6136C93.4858 52.8636 94.2812 52.3182 95.3494 52.3182C96.5199 52.3182 97.0028 52.9659 97.2358 53.5682L98.4403 53.2273ZM105.118 63.2727H106.459V58.6591H106.572C106.868 59.1364 107.436 60.1818 109.118 60.1818C111.3 60.1818 112.822 58.4318 112.822 55.6591C112.822 52.9091 111.3 51.1591 109.095 51.1591C107.391 51.1591 106.868 52.2045 106.572 52.6591H106.413V51.2727H105.118V63.2727ZM106.436 55.6364C106.436 53.6818 107.3 52.3636 108.936 52.3636C110.641 52.3636 111.482 53.7955 111.482 55.6364C111.482 57.5 110.618 58.9773 108.936 58.9773C107.322 58.9773 106.436 57.6136 106.436 55.6364ZM120.368 56.4318C120.368 58.0682 119.118 58.8182 118.118 58.8182C117.004 58.8182 116.209 58 116.209 56.7273V51.2727H114.868V56.8182C114.868 59.0455 116.05 60.1136 117.686 60.1136C119.004 60.1136 119.868 59.4091 120.277 58.5227H120.368V60H121.709V51.2727H120.368V56.4318ZM124.165 60H125.506V54.4773C125.506 53.2955 126.438 52.4318 127.71 52.4318C128.068 52.4318 128.438 52.5 128.528 52.5227V51.1591C128.375 51.1477 128.023 51.1364 127.824 51.1364C126.778 51.1364 125.869 51.7273 125.551 52.5909H125.46V51.2727H124.165V60ZM135.618 56.4318C135.618 58.0682 134.368 58.8182 133.368 58.8182C132.254 58.8182 131.459 58 131.459 56.7273V51.2727H130.118V56.8182C130.118 59.0455 131.3 60.1136 132.936 60.1136C134.254 60.1136 135.118 59.4091 135.527 58.5227H135.618V60H136.959V51.2727H135.618V56.4318ZM145.597 53.2273C145.176 51.9886 144.233 51.1591 142.506 51.1591C140.665 51.1591 139.301 52.2045 139.301 53.6818C139.301 54.8864 140.017 55.6932 141.619 56.0682L143.074 56.4091C143.955 56.6136 144.369 57.0341 144.369 57.6364C144.369 58.3864 143.574 59 142.324 59C141.227 59 140.54 58.5284 140.301 57.5909L139.028 57.9091C139.341 59.392 140.562 60.1818 142.347 60.1818C144.375 60.1818 145.756 59.0739 145.756 57.5682C145.756 56.3523 144.994 55.5852 143.438 55.2045L142.142 54.8864C141.108 54.6307 140.642 54.2841 140.642 53.6136C140.642 52.8636 141.438 52.3182 142.506 52.3182C143.676 52.3182 144.159 52.9659 144.392 53.5682L145.597 53.2273Z" fill="#272343"/>
</svg>
