<svg width="1920" height="45" viewBox="0 0 1920 45" fill="none" xmlns="http://www.w3.org/2000/svg">
<rect width="1920" height="45" fill="#272343"/>
<g opacity="0.7">
<path d="M313.333 18.5L306 25.8333L302.667 22.5" stroke="white" stroke-width="1.5" stroke-linecap="round" stroke-linejoin="round"/>
<path d="M325.145 27.5H326.29V23.2713H330.389V22.2557H326.29V19.0611H330.814V18.0455H325.145V27.5ZM332.551 27.5H333.64V23.0128C333.64 22.0526 334.397 21.3509 335.432 21.3509C335.722 21.3509 336.022 21.4062 336.096 21.4247V20.3168C335.972 20.3075 335.685 20.2983 335.524 20.2983C334.674 20.2983 333.936 20.7784 333.677 21.4801H333.603V20.4091H332.551V27.5ZM340.145 27.6477C341.585 27.6477 342.638 26.9276 342.97 25.8565L341.918 25.5611C341.641 26.2997 340.999 26.669 340.145 26.669C338.866 26.669 337.984 25.8427 337.934 24.3239H343.081V23.8622C343.081 21.2216 341.511 20.3168 340.034 20.3168C338.114 20.3168 336.84 21.831 336.84 24.0099C336.84 26.1889 338.095 27.6477 340.145 27.6477ZM337.934 23.3821C338.008 22.2788 338.788 21.2955 340.034 21.2955C341.216 21.2955 341.973 22.1818 341.973 23.3821H337.934ZM347.711 27.6477C349.152 27.6477 350.204 26.9276 350.537 25.8565L349.484 25.5611C349.207 26.2997 348.565 26.669 347.711 26.669C346.433 26.669 345.551 25.8427 345.5 24.3239H350.647V23.8622C350.647 21.2216 349.078 20.3168 347.601 20.3168C345.68 20.3168 344.406 21.831 344.406 24.0099C344.406 26.1889 345.662 27.6477 347.711 27.6477ZM345.5 23.3821C345.574 22.2788 346.354 21.2955 347.601 21.2955C348.782 21.2955 349.54 22.1818 349.54 23.3821H345.5ZM361.279 20.4091H362.387C362.336 18.9826 361.021 17.9162 359.193 17.9162C357.383 17.9162 355.961 18.9688 355.961 20.5568C355.961 21.831 356.884 22.5881 358.362 23.0128L359.525 23.3452C360.522 23.6222 361.408 23.973 361.408 24.9148C361.408 25.9489 360.411 26.6321 359.1 26.6321C357.974 26.6321 356.977 26.1335 356.884 25.0625H355.703C355.813 26.6136 357.069 27.6662 359.1 27.6662C361.279 27.6662 362.516 26.4659 362.516 24.9332C362.516 23.1605 360.836 22.5881 359.857 22.3295L358.897 22.071C358.195 21.8864 357.069 21.517 357.069 20.5014C357.069 19.5966 357.9 18.9318 359.156 18.9318C360.301 18.9318 361.168 19.4766 361.279 20.4091ZM365.341 23.2344C365.341 21.9972 366.13 21.2955 367.206 21.2955C368.23 21.2955 368.849 21.9418 368.849 23.0682V27.5H369.939V22.9943C369.939 21.1708 368.969 20.3168 367.52 20.3168C366.402 20.3168 365.765 20.783 365.433 21.517H365.341V18.0455H364.251V27.5H365.341V23.2344ZM371.932 27.5H373.021V20.4091H371.932V27.5ZM372.486 19.2273C372.91 19.2273 373.261 18.8949 373.261 18.4886C373.261 18.0824 372.91 17.75 372.486 17.75C372.061 17.75 371.71 18.0824 371.71 18.4886C371.71 18.8949 372.061 19.2273 372.486 19.2273ZM375.017 30.1591H376.106V26.4105H376.199C376.439 26.7983 376.9 27.6477 378.267 27.6477C380.039 27.6477 381.277 26.2259 381.277 23.973C381.277 21.7386 380.039 20.3168 378.248 20.3168C376.863 20.3168 376.439 21.1662 376.199 21.5355H376.069V20.4091H375.017V30.1591ZM376.088 23.9545C376.088 22.3665 376.789 21.2955 378.119 21.2955C379.504 21.2955 380.187 22.4588 380.187 23.9545C380.187 25.4688 379.485 26.669 378.119 26.669C376.808 26.669 376.088 25.5611 376.088 23.9545ZM382.939 30.1591H384.028V26.4105H384.12C384.36 26.7983 384.822 27.6477 386.189 27.6477C387.961 27.6477 389.199 26.2259 389.199 23.973C389.199 21.7386 387.961 20.3168 386.17 20.3168C384.785 20.3168 384.36 21.1662 384.12 21.5355H383.991V20.4091H382.939V30.1591ZM384.01 23.9545C384.01 22.3665 384.711 21.2955 386.041 21.2955C387.426 21.2955 388.109 22.4588 388.109 23.9545C388.109 25.4688 387.407 26.669 386.041 26.669C384.73 26.669 384.01 25.5611 384.01 23.9545ZM390.86 27.5H391.95V20.4091H390.86V27.5ZM391.414 19.2273C391.839 19.2273 392.19 18.8949 392.19 18.4886C392.19 18.0824 391.839 17.75 391.414 17.75C390.99 17.75 390.639 18.0824 390.639 18.4886C390.639 18.8949 390.99 19.2273 391.414 19.2273ZM395.035 23.2344C395.035 21.9972 395.801 21.2955 396.845 21.2955C397.856 21.2955 398.47 21.9556 398.47 23.0682V27.5H399.559V22.9943C399.559 21.1847 398.594 20.3168 397.158 20.3168C396.087 20.3168 395.423 20.7969 395.09 21.517H394.998V20.4091H393.945V27.5H395.035V23.2344ZM404.412 30.3068C406.111 30.3068 407.477 29.5312 407.477 27.7031V20.4091H406.425V21.5355H406.314C406.074 21.1662 405.631 20.3168 404.246 20.3168C402.455 20.3168 401.218 21.7386 401.218 23.9176C401.218 26.1335 402.51 27.3892 404.227 27.3892C405.612 27.3892 406.056 26.5767 406.296 26.1889H406.388V27.6293C406.388 28.8111 405.557 29.3466 404.412 29.3466C403.124 29.3466 402.672 28.668 402.381 28.2756L401.513 28.8849C401.956 29.6282 402.829 30.3068 404.412 30.3068ZM404.375 26.4105C403.009 26.4105 402.307 25.3764 402.307 23.8991C402.307 22.4588 402.99 21.2955 404.375 21.2955C405.705 21.2955 406.406 22.3665 406.406 23.8991C406.406 25.4688 405.686 26.4105 404.375 26.4105ZM421.253 22.7727C421.253 19.7812 419.499 17.9162 417.08 17.9162C414.661 17.9162 412.906 19.7812 412.906 22.7727C412.906 25.7642 414.661 27.6293 417.08 27.6293C419.499 27.6293 421.253 25.7642 421.253 22.7727ZM420.145 22.7727C420.145 25.2287 418.797 26.5582 417.08 26.5582C415.362 26.5582 414.014 25.2287 414.014 22.7727C414.014 20.3168 415.362 18.9872 417.08 18.9872C418.797 18.9872 420.145 20.3168 420.145 22.7727ZM424.12 23.2344C424.12 21.9972 424.886 21.2955 425.93 21.2955C426.941 21.2955 427.555 21.9556 427.555 23.0682V27.5H428.644V22.9943C428.644 21.1847 427.679 20.3168 426.243 20.3168C425.172 20.3168 424.508 20.7969 424.175 21.517H424.083V20.4091H423.03V27.5H424.12V23.2344ZM434.827 27.5L435.778 24.8224H439.6L440.551 27.5H441.751L438.28 18.0455H437.098L433.626 27.5H434.827ZM436.138 23.8068L437.652 19.5412H437.726L439.24 23.8068H436.138ZM444.166 18.0455H443.076V27.5H444.166V18.0455ZM447.251 18.0455H446.161V27.5H447.251V18.0455ZM461.027 22.7727C461.027 19.7812 459.273 17.9162 456.854 17.9162C454.435 17.9162 452.681 19.7812 452.681 22.7727C452.681 25.7642 454.435 27.6293 456.854 27.6293C459.273 27.6293 461.027 25.7642 461.027 22.7727ZM459.919 22.7727C459.919 25.2287 458.571 26.5582 456.854 26.5582C455.137 26.5582 453.789 25.2287 453.789 22.7727C453.789 20.3168 455.137 18.9872 456.854 18.9872C458.571 18.9872 459.919 20.3168 459.919 22.7727ZM462.805 27.5H463.894V23.0128C463.894 22.0526 464.651 21.3509 465.685 21.3509C465.976 21.3509 466.276 21.4062 466.35 21.4247V20.3168C466.226 20.3075 465.939 20.2983 465.778 20.2983C464.928 20.2983 464.19 20.7784 463.931 21.4801H463.857V20.4091H462.805V27.5ZM470.103 27.6477C471.47 27.6477 471.932 26.7983 472.172 26.4105H472.301V27.5H473.353V18.0455H472.264V21.5355H472.172C471.932 21.1662 471.507 20.3168 470.122 20.3168C468.331 20.3168 467.093 21.7386 467.093 23.973C467.093 26.2259 468.331 27.6477 470.103 27.6477ZM470.251 26.669C468.885 26.669 468.183 25.4688 468.183 23.9545C468.183 22.4588 468.866 21.2955 470.251 21.2955C471.581 21.2955 472.282 22.3665 472.282 23.9545C472.282 25.5611 471.562 26.669 470.251 26.669ZM478.473 27.6477C479.913 27.6477 480.966 26.9276 481.298 25.8565L480.246 25.5611C479.969 26.2997 479.327 26.669 478.473 26.669C477.194 26.669 476.313 25.8427 476.262 24.3239H481.409V23.8622C481.409 21.2216 479.84 20.3168 478.362 20.3168C476.442 20.3168 475.168 21.831 475.168 24.0099C475.168 26.1889 476.423 27.6477 478.473 27.6477ZM476.262 23.3821C476.336 22.2788 477.116 21.2955 478.362 21.2955C479.544 21.2955 480.301 22.1818 480.301 23.3821H476.262ZM483.066 27.5H484.156V23.0128C484.156 22.0526 484.913 21.3509 485.947 21.3509C486.238 21.3509 486.538 21.4062 486.612 21.4247V20.3168C486.487 20.3075 486.201 20.2983 486.04 20.2983C485.19 20.2983 484.451 20.7784 484.193 21.4801H484.119V20.4091H483.066V27.5ZM492.926 21.9972C492.585 20.9908 491.818 20.3168 490.415 20.3168C488.919 20.3168 487.811 21.1662 487.811 22.3665C487.811 23.3452 488.393 24.0007 489.695 24.3054L490.876 24.5824C491.592 24.7486 491.929 25.0902 491.929 25.5795C491.929 26.1889 491.283 26.6875 490.267 26.6875C489.376 26.6875 488.817 26.3043 488.624 25.5426L487.589 25.8011C487.843 27.006 488.836 27.6477 490.286 27.6477C491.934 27.6477 493.055 26.7475 493.055 25.5241C493.055 24.5362 492.437 23.913 491.172 23.6037L490.119 23.3452C489.279 23.1374 488.901 22.8558 488.901 22.3111C488.901 21.7017 489.547 21.2585 490.415 21.2585C491.366 21.2585 491.758 21.7848 491.947 22.2741L492.926 21.9972ZM506.477 22.7727C506.477 19.7812 504.722 17.9162 502.303 17.9162C499.884 17.9162 498.13 19.7812 498.13 22.7727C498.13 25.7642 499.884 27.6293 502.303 27.6293C504.722 27.6293 506.477 25.7642 506.477 22.7727ZM505.369 22.7727C505.369 25.2287 504.021 26.5582 502.303 26.5582C500.586 26.5582 499.238 25.2287 499.238 22.7727C499.238 20.3168 500.586 18.9872 502.303 18.9872C504.021 18.9872 505.369 20.3168 505.369 22.7727ZM514.052 20.4091H512.87L510.913 26.0597H510.839L508.882 20.4091H507.7L510.322 27.5H511.43L514.052 20.4091ZM518.209 27.6477C519.65 27.6477 520.702 26.9276 521.035 25.8565L519.982 25.5611C519.705 26.2997 519.063 26.669 518.209 26.669C516.931 26.669 516.049 25.8427 515.998 24.3239H521.146V23.8622C521.146 21.2216 519.576 20.3168 518.099 20.3168C516.178 20.3168 514.904 21.831 514.904 24.0099C514.904 26.1889 516.16 27.6477 518.209 27.6477ZM515.998 23.3821C516.072 22.2788 516.852 21.2955 518.099 21.2955C519.28 21.2955 520.038 22.1818 520.038 23.3821H515.998ZM522.803 27.5H523.892V23.0128C523.892 22.0526 524.649 21.3509 525.684 21.3509C525.974 21.3509 526.274 21.4062 526.348 21.4247V20.3168C526.224 20.3075 525.937 20.2983 525.776 20.2983C524.926 20.2983 524.188 20.7784 523.929 21.4801H523.855V20.4091H522.803V27.5ZM534.066 28.6818H534.823V27.6523C536.762 27.5185 537.851 26.3736 537.851 24.9332C537.851 23.1605 536.171 22.5881 535.192 22.3295L534.823 22.228V18.9457C535.802 19.0426 536.513 19.5689 536.614 20.4091H537.722C537.676 19.0611 536.494 18.0362 534.823 17.9254V16.8636H534.066V17.9393C532.482 18.1009 531.296 19.1072 531.296 20.5568C531.296 21.831 532.219 22.5881 533.697 23.0128L534.066 23.119V26.6136C533.096 26.5121 532.302 26.0135 532.219 25.0625H531.037C531.144 26.5167 532.252 27.5323 534.066 27.6523V28.6818ZM534.823 26.6136V23.3359L534.86 23.3452C535.857 23.6222 536.743 23.973 536.743 24.9148C536.743 25.8427 535.94 26.489 534.823 26.6136ZM534.066 22.0249C533.364 21.8263 532.404 21.4386 532.404 20.5014C532.404 19.7028 533.05 19.0934 534.066 18.9595V22.0249ZM542.522 27.6293C544.323 27.6293 545.643 26.2997 545.643 24.4901C545.643 22.6573 544.369 21.3139 542.633 21.3139C541.996 21.3139 541.377 21.5401 540.989 21.8494H540.934L541.266 19.0611H545.218V18.0455H540.306L539.734 22.6989L540.805 22.8281C541.197 22.5465 541.867 22.3434 542.448 22.348C543.653 22.3572 544.535 23.2713 544.535 24.5085C544.535 25.7227 543.685 26.6136 542.522 26.6136C541.553 26.6136 540.782 25.9904 540.694 25.1364H539.586C539.655 26.5767 540.897 27.6293 542.522 27.6293ZM550.561 27.6293C552.647 27.6293 553.847 25.8612 553.847 22.7727C553.847 19.7074 552.629 17.9162 550.561 17.9162C548.492 17.9162 547.274 19.7074 547.274 22.7727C547.274 25.8612 548.474 27.6293 550.561 27.6293ZM550.561 26.6136C549.185 26.6136 548.382 25.2333 548.382 22.7727C548.382 20.3168 549.194 18.9134 550.561 18.9134C551.927 18.9134 552.74 20.3168 552.74 22.7727C552.74 25.2333 551.936 26.6136 550.561 26.6136Z" fill="white"/>
</g>
<g opacity="0.7">
<path d="M1419.5 27H1425.28V25.9844H1420.64V22.7713H1424.91V21.7557H1420.64V18.5611H1425.2V17.5455H1419.5V27ZM1428.21 22.7344C1428.21 21.4972 1428.97 20.7955 1430.02 20.7955C1431.03 20.7955 1431.64 21.4556 1431.64 22.5682V27H1432.73V22.4943C1432.73 20.6847 1431.77 19.8168 1430.33 19.8168C1429.26 19.8168 1428.6 20.2969 1428.26 21.017H1428.17V19.9091H1427.12V27H1428.21V22.7344ZM1437.59 29.8068C1439.28 29.8068 1440.65 29.0312 1440.65 27.2031V19.9091H1439.6V21.0355H1439.49C1439.25 20.6662 1438.8 19.8168 1437.42 19.8168C1435.63 19.8168 1434.39 21.2386 1434.39 23.4176C1434.39 25.6335 1435.68 26.8892 1437.4 26.8892C1438.79 26.8892 1439.23 26.0767 1439.47 25.6889H1439.56V27.1293C1439.56 28.3111 1438.73 28.8466 1437.59 28.8466C1436.3 28.8466 1435.85 28.168 1435.55 27.7756L1434.69 28.3849C1435.13 29.1282 1436 29.8068 1437.59 29.8068ZM1437.55 25.9105C1436.18 25.9105 1435.48 24.8764 1435.48 23.3991C1435.48 21.9588 1436.16 20.7955 1437.55 20.7955C1438.88 20.7955 1439.58 21.8665 1439.58 23.3991C1439.58 24.9688 1438.86 25.9105 1437.55 25.9105Z" fill="white"/>
<path d="M1455 20.75L1451.5 24.25L1448 20.75" stroke="white" stroke-linecap="round" stroke-linejoin="round"/>
<path d="M1480.31 27H1481.46V22.7713H1485.55V21.7557H1481.46V18.5611H1485.98V17.5455H1480.31V27ZM1489.88 27.1662C1491.12 27.1662 1491.76 26.5014 1491.98 26.0398H1492.04V27H1493.13V22.3281C1493.13 20.0753 1491.41 19.8168 1490.51 19.8168C1489.44 19.8168 1488.22 20.1861 1487.66 21.4787L1488.7 21.848C1488.94 21.331 1489.51 20.777 1490.54 20.777C1491.55 20.777 1492.04 21.3079 1492.04 22.2173V22.2543C1492.04 22.7805 1491.5 22.7344 1490.21 22.9006C1488.9 23.0714 1487.46 23.3622 1487.46 24.9872C1487.46 26.3722 1488.53 27.1662 1489.88 27.1662ZM1490.05 26.1875C1489.18 26.1875 1488.55 25.7997 1488.55 25.0426C1488.55 24.2116 1489.31 23.9531 1490.16 23.8423C1490.62 23.7869 1491.86 23.6577 1492.04 23.4361V24.4332C1492.04 25.3196 1491.34 26.1875 1490.05 26.1875ZM1501.05 29.6591V19.9091H1499.99V21.0355H1499.86C1499.62 20.6662 1499.2 19.8168 1497.81 19.8168C1496.02 19.8168 1494.79 21.2386 1494.79 23.473C1494.79 25.7259 1496.02 27.1477 1497.8 27.1477C1499.16 27.1477 1499.62 26.2983 1499.86 25.9105H1499.96V29.6591H1501.05ZM1499.97 23.4545C1499.97 25.0611 1499.25 26.169 1497.94 26.169C1496.58 26.169 1495.87 24.9688 1495.87 23.4545C1495.87 21.9588 1496.56 20.7955 1497.94 20.7955C1499.27 20.7955 1499.97 21.8665 1499.97 23.4545ZM1508.06 21.4972C1507.72 20.4908 1506.95 19.8168 1505.55 19.8168C1504.06 19.8168 1502.95 20.6662 1502.95 21.8665C1502.95 22.8452 1503.53 23.5007 1504.83 23.8054L1506.01 24.0824C1506.73 24.2486 1507.07 24.5902 1507.07 25.0795C1507.07 25.6889 1506.42 26.1875 1505.4 26.1875C1504.51 26.1875 1503.95 25.8043 1503.76 25.0426L1502.73 25.3011C1502.98 26.506 1503.97 27.1477 1505.42 27.1477C1507.07 27.1477 1508.19 26.2475 1508.19 25.0241C1508.19 24.0362 1507.57 23.413 1506.31 23.1037L1505.26 22.8452C1504.42 22.6374 1504.04 22.3558 1504.04 21.8111C1504.04 21.2017 1504.68 20.7585 1505.55 20.7585C1506.5 20.7585 1506.89 21.2848 1507.08 21.7741L1508.06 21.4972Z" fill="white"/>
<g opacity="0.7" clip-path="url(#clip0_1_866)">
<path d="M1541 28.6667C1544.68 28.6667 1547.67 25.6819 1547.67 22C1547.67 18.3181 1544.68 15.3334 1541 15.3334C1537.32 15.3334 1534.33 18.3181 1534.33 22C1534.33 25.6819 1537.32 28.6667 1541 28.6667Z" stroke="white" stroke-linecap="round" stroke-linejoin="round"/>
<path d="M1541 19.3334V22" stroke="white" stroke-linecap="round" stroke-linejoin="round"/>
<path d="M1541 24.6666H1541.01" stroke="white" stroke-linecap="round" stroke-linejoin="round"/>
</g>
<path d="M1563.72 17.5455H1562.59V24.9872H1562.5L1557.33 17.5455H1556.22V27H1557.37V19.5767H1557.46L1562.61 27H1563.72V17.5455ZM1568.83 27.1477C1570.27 27.1477 1571.33 26.4276 1571.66 25.3565L1570.61 25.0611C1570.33 25.7997 1569.69 26.169 1568.83 26.169C1567.56 26.169 1566.67 25.3427 1566.62 23.8239H1571.77V23.3622C1571.77 20.7216 1570.2 19.8168 1568.72 19.8168C1566.8 19.8168 1565.53 21.331 1565.53 23.5099C1565.53 25.6889 1566.78 27.1477 1568.83 27.1477ZM1566.62 22.8821C1566.7 21.7788 1567.48 20.7955 1568.72 20.7955C1569.91 20.7955 1570.66 21.6818 1570.66 22.8821H1566.62ZM1576.4 27.1477C1577.84 27.1477 1578.89 26.4276 1579.23 25.3565L1578.17 25.0611C1577.9 25.7997 1577.25 26.169 1576.4 26.169C1575.12 26.169 1574.24 25.3427 1574.19 23.8239H1579.34V23.3622C1579.34 20.7216 1577.77 19.8168 1576.29 19.8168C1574.37 19.8168 1573.1 21.331 1573.1 23.5099C1573.1 25.6889 1574.35 27.1477 1576.4 27.1477ZM1574.19 22.8821C1574.26 21.7788 1575.04 20.7955 1576.29 20.7955C1577.47 20.7955 1578.23 21.6818 1578.23 22.8821H1574.19ZM1583.67 27.1477C1585.04 27.1477 1585.5 26.2983 1585.74 25.9105H1585.87V27H1586.92V17.5455H1585.83V21.0355H1585.74C1585.5 20.6662 1585.08 19.8168 1583.69 19.8168C1581.9 19.8168 1580.66 21.2386 1580.66 23.473C1580.66 25.7259 1581.9 27.1477 1583.67 27.1477ZM1583.82 26.169C1582.45 26.169 1581.75 24.9688 1581.75 23.4545C1581.75 21.9588 1582.43 20.7955 1583.82 20.7955C1585.15 20.7955 1585.85 21.8665 1585.85 23.4545C1585.85 25.0611 1585.13 26.169 1583.82 26.169ZM1592.87 27H1594.02V22.7713H1599.06V27H1600.2V17.5455H1599.06V21.7557H1594.02V17.5455H1592.87V27ZM1605.32 27.1477C1606.76 27.1477 1607.81 26.4276 1608.15 25.3565L1607.09 25.0611C1606.82 25.7997 1606.17 26.169 1605.32 26.169C1604.04 26.169 1603.16 25.3427 1603.11 23.8239H1608.26V23.3622C1608.26 20.7216 1606.69 19.8168 1605.21 19.8168C1603.29 19.8168 1602.02 21.331 1602.02 23.5099C1602.02 25.6889 1603.27 27.1477 1605.32 27.1477ZM1603.11 22.8821C1603.18 21.7788 1603.96 20.7955 1605.21 20.7955C1606.39 20.7955 1607.15 21.6818 1607.15 22.8821H1603.11ZM1611 17.5455H1609.91V27H1611V17.5455ZM1613 29.6591H1614.09V25.9105H1614.18C1614.42 26.2983 1614.88 27.1477 1616.25 27.1477C1618.02 27.1477 1619.26 25.7259 1619.26 23.473C1619.26 21.2386 1618.02 19.8168 1616.23 19.8168C1614.85 19.8168 1614.42 20.6662 1614.18 21.0355H1614.05V19.9091H1613V29.6591ZM1614.07 23.4545C1614.07 21.8665 1614.77 20.7955 1616.1 20.7955C1617.49 20.7955 1618.17 21.9588 1618.17 23.4545C1618.17 24.9688 1617.47 26.169 1616.1 26.169C1614.79 26.169 1614.07 25.0611 1614.07 23.4545Z" fill="white"/>
</g>
<defs>
<clipPath id="clip0_1_866">
<rect width="16" height="16" fill="white" transform="translate(1533 14)"/>
</clipPath>
</defs>
</svg>
